<svg xmlns="http://www.w3.org/2000/svg" xmlns:xlink="http://www.w3.org/1999/xlink" width="500" zoomAndPan="magnify" viewBox="0 0 375 374.999991" height="500" preserveAspectRatio="xMidYMid meet" version="1.0"><defs><g/><clipPath id="814fe13b1b"><path d="M 131 143 L 208 143 L 208 259 L 131 259 Z M 131 143 " clip-rule="nonzero"/></clipPath><clipPath id="3f508e4b85"><path d="M 133.667969 139.871094 L 223.539062 153.925781 L 207.140625 258.773438 L 117.269531 244.71875 Z M 133.667969 139.871094 " clip-rule="nonzero"/></clipPath><clipPath id="ac8e4336f3"><path d="M 133.667969 139.871094 L 223.539062 153.925781 L 207.140625 258.773438 L 117.269531 244.71875 Z M 133.667969 139.871094 " clip-rule="nonzero"/></clipPath><clipPath id="10f4fd9c44"><path d="M 133.667969 139.871094 L 223.539062 153.925781 L 207.140625 258.773438 L 117.269531 244.71875 Z M 133.667969 139.871094 " clip-rule="nonzero"/></clipPath><clipPath id="da3ab07896"><path d="M 157 134 L 242 134 L 242 256 L 157 256 Z M 157 134 " clip-rule="nonzero"/></clipPath><clipPath id="989bf24cbc"><path d="M 127.988281 228.261719 L 212.132812 133.410156 L 253.371094 169.996094 L 169.226562 264.847656 Z M 127.988281 228.261719 " clip-rule="nonzero"/></clipPath><clipPath id="ebadd89845"><path d="M 127.988281 228.261719 L 212.132812 133.410156 L 253.371094 169.996094 L 169.226562 264.847656 Z M 127.988281 228.261719 " clip-rule="nonzero"/></clipPath></defs><g fill="#000000" fill-opacity="1"><g transform="translate(53.084083, 214.643704)"><g><path d="M -40.582031 -8.160156 C -38.382812 -9.007812 -36.816406 -9.417969 -33.785156 -9.835938 L 1.980469 -14.480469 L 3.707031 -27.066406 C 1.945312 -26.785156 1.148438 -27.050781 -0.433594 -27.6875 L -30.347656 -40.277344 C -32.171875 -41.046875 -33.308594 -41.515625 -35.792969 -43.160156 L -36.09375 -40.960938 C -33.613281 -40.410156 -32.339844 -39.820312 -30.472656 -38.992188 L 1.617188 -25.527344 L -32.253906 -21.042969 C -34.960938 -20.683594 -36.128906 -20.53125 -38.859375 -20.75 Z M -40.582031 -8.160156 "/></g></g></g><g fill="#000000" fill-opacity="1"><g transform="translate(60.913174, 171.18092)"><g><path d="M -36.757812 -19.207031 C -33.144531 -18.207031 -30.796875 -17.398438 -25.886719 -15.355469 L -9.007812 -8.332031 C -4.09375 -6.289062 -1.867188 -5.195312 1.386719 -3.335938 L 5.972656 -14.351562 C 2.359375 -15.351562 0.0117188 -16.160156 -4.902344 -18.203125 L -21.78125 -25.226562 C -26.691406 -27.269531 -28.921875 -28.363281 -32.175781 -30.222656 Z M -36.757812 -19.207031 "/></g></g></g><g fill="#000000" fill-opacity="1"><g transform="translate(68.851404, 149.449902)"><g><path d="M 2.210938 -2.859375 L 3.636719 -4.695312 C 0.410156 -6.605469 -1.644531 -8 -5.851562 -11.257812 L -27.371094 -27.914062 L -27.109375 -28.171875 L 15.773438 -20.378906 L 23.679688 -30.585938 C 20.453125 -32.496094 18.398438 -33.890625 14.191406 -37.148438 L -0.265625 -48.339844 C -4.472656 -51.59375 -6.335938 -53.234375 -8.992188 -55.878906 L -10.414062 -54.039062 C -7.222656 -52.089844 -5.136719 -50.738281 -0.929688 -47.480469 L 20.59375 -30.820312 L 20.332031 -30.566406 L -22.554688 -38.359375 L -30.457031 -28.148438 C -27.234375 -26.238281 -25.179688 -24.84375 -20.972656 -21.589844 L -6.515625 -10.398438 C -2.308594 -7.140625 -0.441406 -5.503906 2.210938 -2.859375 Z M 2.210938 -2.859375 "/></g></g></g><g fill="#000000" fill-opacity="1"><g transform="translate(96.493658, 113.759736)"><g><path d="M 28.960938 -38.433594 C 32.339844 -28.21875 29.980469 -20.671875 23.449219 -16.699219 C 15.027344 -11.566406 6.773438 -16.882812 1.050781 -26.277344 C -4.480469 -35.363281 -5.765625 -44.621094 0.277344 -48.300781 C 4.910156 -51.121094 10.222656 -47.460938 15.277344 -41.046875 L 22.234375 -48.488281 C 15.242188 -53.117188 7.398438 -54.085938 -0.367188 -49.359375 C -10.6875 -43.074219 -15.347656 -31.164062 -8.367188 -19.695312 C -1.382812 -8.226562 10.816406 -5.375 22.414062 -12.441406 C 31.855469 -18.1875 33.585938 -27.464844 29.886719 -38.996094 Z M 28.960938 -38.433594 "/></g></g></g><g fill="#000000" fill-opacity="1"><g transform="translate(140.527903, 88.687639)"><g><path d="M -4.789062 -41.195312 C -3.585938 -37.648438 -2.882812 -35.261719 -1.808594 -30.050781 L 1.875 -12.144531 C 2.949219 -6.933594 3.246094 -4.464844 3.539062 -0.730469 L 31.917969 -6.570312 L 33.042969 -11.601562 C 26.335938 -7.054688 23.625 -6.128906 18.164062 -5.003906 L 14.367188 -4.222656 L 10.371094 -23.648438 L 12.796875 -24.148438 C 15.480469 -24.699219 18.210938 -25.261719 23.019531 -25.722656 L 22.5625 -27.949219 C 17.960938 -26.476562 15.230469 -25.914062 12.546875 -25.359375 L 10.121094 -24.859375 L 6.539062 -42.261719 L 10.738281 -43.125 C 13.875 -43.773438 17.671875 -44.027344 22.390625 -41.835938 L 24.703125 -47.265625 Z M -4.789062 -41.195312 "/></g></g></g><g fill="#000000" fill-opacity="1"><g transform="translate(180.29625, 82.211677)"><g/></g></g><g fill="#000000" fill-opacity="1"><g transform="translate(199.415835, 80.517718)"><g><path d="M 44.09375 2.371094 C 43.277344 9.875 40.570312 13.011719 37.625 12.050781 C 35.90625 11.488281 34.523438 9.734375 33.234375 7.195312 C 40.300781 4.011719 44.96875 -3.96875 45.097656 -14.03125 L 36.4375 -12.128906 C 37.539062 -5.847656 35.722656 0.566406 31.921875 4.214844 C 30.910156 1.660156 29.925781 -1.324219 28.8125 -4.566406 C 27.695312 -7.972656 26.378906 -12.097656 25.402344 -16.105469 L 26.023438 -16.175781 C 31.554688 -16.816406 37.332031 -17.703125 39.222656 -23.5 C 40.679688 -27.964844 37.972656 -32.160156 31.539062 -34.257812 C 23.242188 -36.964844 19.492188 -33.296875 18.148438 -29.171875 C 17.234375 -26.375 17.605469 -22.34375 18.5625 -18.121094 C 12.738281 -17.410156 7.914062 -15.941406 5.929688 -9.855469 C 3.269531 -1.703125 10.582031 4.535156 19.957031 7.59375 C 23.492188 8.746094 26.859375 8.921875 29.890625 8.28125 C 31.898438 10.617188 34.148438 12.21875 36.847656 13.101562 C 40.285156 14.222656 46.398438 14.800781 49.976562 7.65625 Z M 31.15625 -33.082031 C 34.050781 -32.136719 34.496094 -29.492188 33.484375 -26.398438 C 32.507812 -23.40625 30.410156 -19.796875 24.816406 -18.796875 C 24.121094 -22.664062 23.882812 -26.273438 24.714844 -28.824219 C 25.835938 -32.261719 28.210938 -34.042969 31.15625 -33.082031 Z M 20.785156 6.558594 C 14.5 4.511719 12.15625 -1.46875 14.125 -7.507812 C 15.152344 -10.648438 17.015625 -12.867188 19.535156 -14.273438 C 20.671875 -10.425781 22.101562 -6.644531 23.265625 -3.714844 C 24.910156 0.40625 26.628906 3.792969 28.476562 6.460938 C 26.277344 7.371094 23.679688 7.503906 20.785156 6.558594 Z M 20.785156 6.558594 "/></g></g></g><g fill="#000000" fill-opacity="1"><g transform="translate(251.934642, 101.020813)"><g/></g></g><g fill="#000000" fill-opacity="1"><g transform="translate(268.669666, 110.517712)"><g><path d="M 42.324219 22.898438 C 32.726562 27.765625 24.914062 26.558594 20.011719 20.695312 C 13.679688 13.132812 17.703125 4.175781 26.140625 -2.882812 C 34.296875 -9.710938 43.261719 -12.359375 47.800781 -6.933594 C 51.28125 -2.773438 48.453125 3.023438 42.867188 8.980469 L 51.261719 14.75 C 54.796875 7.144531 54.582031 -0.757812 48.75 -7.726562 C 40.996094 -16.996094 28.527344 -19.828125 18.226562 -11.210938 C 7.929688 -2.59375 6.929688 9.890625 15.644531 20.308594 C 22.738281 28.785156 32.167969 29.109375 43.019531 23.730469 Z M 42.324219 22.898438 "/></g></g></g><g fill="#000000" fill-opacity="1"><g transform="translate(301.31207, 148.939123)"><g><path d="M 6.875 27.472656 C 10.835938 41.164062 21.40625 49.449219 34.703125 45.601562 C 47.949219 41.769531 52.507812 29.105469 48.546875 15.414062 C 44.554688 1.621094 33.949219 -6.597656 20.703125 -2.765625 C 7.410156 1.082031 2.882812 13.679688 6.875 27.472656 Z M 8.066406 27.128906 C 5.410156 17.949219 13.425781 11.277344 23.890625 8.246094 C 34.308594 5.230469 44.699219 6.578125 47.355469 15.757812 C 49.984375 24.835938 41.933594 31.574219 31.515625 34.589844 C 21.046875 37.617188 10.691406 36.207031 8.066406 27.128906 Z M 8.066406 27.128906 "/></g></g></g><g fill="#000000" fill-opacity="1"><g transform="translate(314.424495, 207.016549)"><g><path d="M -1.199219 7.878906 L 2.996094 12.253906 L 7.371094 8.058594 L 3.175781 3.683594 Z M -1.199219 7.878906 "/></g></g></g><g fill="#000000" fill-opacity="1"><g transform="translate(96.720475, 227.17392)"><g><path d="M 1.71875 -1.578125 C 1.71875 -2.003906 2.21875 -2.519531 3.21875 -3.125 C 3.40625 -3.25 3.722656 -3.445312 4.171875 -3.71875 C 5.703125 -4.59375 6.75 -5.332031 7.3125 -5.9375 C 8.007812 -6.664062 8.359375 -7.4375 8.359375 -8.25 C 8.359375 -9.539062 7.703125 -10.425781 6.390625 -10.90625 C 5.804688 -11.125 5.15625 -11.234375 4.4375 -11.234375 C 3.132812 -11.234375 2.113281 -10.894531 1.375 -10.21875 C 0.882812 -9.75 0.640625 -9.203125 0.640625 -8.578125 C 0.640625 -8.003906 0.851562 -7.640625 1.28125 -7.484375 C 1.394531 -7.441406 1.507812 -7.421875 1.625 -7.421875 C 2.1875 -7.421875 2.53125 -7.710938 2.65625 -8.296875 C 2.6875 -8.429688 2.710938 -8.644531 2.734375 -8.9375 C 2.804688 -9.664062 2.972656 -10.148438 3.234375 -10.390625 C 3.472656 -10.597656 3.8125 -10.703125 4.25 -10.703125 C 5.414062 -10.703125 6.109375 -10.140625 6.328125 -9.015625 C 6.367188 -8.796875 6.390625 -8.5625 6.390625 -8.3125 C 6.390625 -7 5.816406 -5.890625 4.671875 -4.984375 C 4.523438 -4.867188 3.914062 -4.453125 2.84375 -3.734375 C 1.832031 -3.054688 1.179688 -2.390625 0.890625 -1.734375 C 0.710938 -1.335938 0.625 -0.910156 0.625 -0.453125 L 0.625 0 L 8.625 0 L 8.671875 -3.5625 L 8.25 -3.5625 L 7.921875 -2.484375 C 7.753906 -1.984375 7.484375 -1.695312 7.109375 -1.625 C 6.941406 -1.59375 6.707031 -1.578125 6.40625 -1.578125 Z M 1.71875 -1.578125 "/></g></g></g><g fill="#000000" fill-opacity="1"><g transform="translate(113.069823, 227.17392)"><g><path d="M 5.59375 -11.234375 C 4.03125 -11.234375 2.816406 -10.613281 1.953125 -9.375 C 1.242188 -8.363281 0.890625 -7.101562 0.890625 -5.59375 C 0.890625 -3.289062 1.5625 -1.632812 2.90625 -0.625 C 3.644531 -0.0703125 4.507812 0.203125 5.5 0.203125 C 7.039062 0.203125 8.242188 -0.429688 9.109375 -1.703125 C 9.796875 -2.722656 10.140625 -3.992188 10.140625 -5.515625 C 10.140625 -7.929688 9.425781 -9.613281 8 -10.5625 C 7.3125 -11.007812 6.507812 -11.234375 5.59375 -11.234375 Z M 5.5625 -0.328125 C 4.382812 -0.328125 3.609375 -1.039062 3.234375 -2.46875 C 3.035156 -3.257812 2.9375 -4.273438 2.9375 -5.515625 C 2.9375 -8.421875 3.519531 -10.101562 4.6875 -10.5625 C 4.9375 -10.65625 5.21875 -10.703125 5.53125 -10.703125 C 6.644531 -10.703125 7.378906 -10.078125 7.734375 -8.828125 C 7.972656 -8.046875 8.09375 -6.96875 8.09375 -5.59375 C 8.09375 -2.632812 7.523438 -0.929688 6.390625 -0.484375 C 6.140625 -0.378906 5.863281 -0.328125 5.5625 -0.328125 Z M 5.5625 -0.328125 "/></g></g></g><g fill="#000000" fill-opacity="1"><g transform="translate(240.565615, 227.17392)"><g><path d="M 4.625 -11.03125 L 0.421875 -8.28125 L 0.78125 -7.671875 L 3.984375 -9.6875 L 3.984375 -0.71875 L 1.1875 -0.546875 L 1.1875 0 L 8.453125 0 C 8.453125 -0.300781 8.320312 -0.484375 8.0625 -0.546875 C 8.007812 -0.554688 7.957031 -0.5625 7.90625 -0.5625 L 5.84375 -0.71875 L 5.84375 -11.03125 Z M 4.625 -11.03125 "/></g></g></g><g fill="#000000" fill-opacity="1"><g transform="translate(258.554248, 227.17392)"><g><path d="M 5.28125 0.203125 C 6.75 0.203125 7.941406 -0.203125 8.859375 -1.015625 C 9.515625 -1.640625 9.851562 -2.378906 9.875 -3.234375 C 9.875 -4.296875 9.25 -5.238281 8 -6.0625 C 7.738281 -6.238281 7.429688 -6.421875 7.078125 -6.609375 C 8.242188 -7.222656 8.921875 -8.085938 9.109375 -9.203125 C 9.128906 -9.367188 9.140625 -9.53125 9.140625 -9.6875 C 9.140625 -10.914062 8.5625 -11.789062 7.40625 -12.3125 C 6.851562 -12.5625 6.226562 -12.6875 5.53125 -12.6875 C 4.125 -12.6875 3.046875 -12.257812 2.296875 -11.40625 C 1.828125 -10.851562 1.59375 -10.195312 1.59375 -9.4375 C 1.59375 -8.414062 2.222656 -7.503906 3.484375 -6.703125 C 3.660156 -6.585938 3.847656 -6.472656 4.046875 -6.359375 C 2.585938 -5.929688 1.679688 -5.128906 1.328125 -3.953125 C 1.242188 -3.648438 1.203125 -3.347656 1.203125 -3.046875 C 1.203125 -1.816406 1.769531 -0.90625 2.90625 -0.3125 C 3.59375 0.03125 4.382812 0.203125 5.28125 0.203125 Z M 3.359375 -10.203125 C 3.359375 -11.117188 3.828125 -11.710938 4.765625 -11.984375 C 5.066406 -12.066406 5.394531 -12.109375 5.75 -12.109375 C 6.695312 -12.109375 7.425781 -11.773438 7.9375 -11.109375 C 8.269531 -10.703125 8.4375 -10.21875 8.4375 -9.65625 C 8.4375 -8.738281 8.035156 -7.972656 7.234375 -7.359375 C 7.003906 -7.191406 6.753906 -7.046875 6.484375 -6.921875 C 5.242188 -7.597656 4.421875 -8.148438 4.015625 -8.578125 C 3.578125 -9.078125 3.359375 -9.617188 3.359375 -10.203125 Z M 1.90625 -3.09375 C 1.90625 -4.039062 2.34375 -4.804688 3.21875 -5.390625 C 3.65625 -5.671875 4.160156 -5.875 4.734375 -6 C 6.023438 -5.300781 6.867188 -4.773438 7.265625 -4.421875 C 7.835938 -3.890625 8.125 -3.304688 8.125 -2.671875 C 8.125 -1.609375 7.566406 -0.90625 6.453125 -0.5625 C 6.046875 -0.4375 5.601562 -0.375 5.125 -0.375 C 4.019531 -0.375 3.15625 -0.726562 2.53125 -1.4375 C 2.113281 -1.882812 1.90625 -2.4375 1.90625 -3.09375 Z M 1.90625 -3.09375 "/></g></g></g><path stroke-linecap="butt" transform="matrix(0.75, 0, 0, 0.75, 98.441204, 251.37174)" fill="none" stroke-linejoin="miter" d="M 0.000270152 1.999138 L 31.984647 1.999138 " stroke="#000000" stroke-width="4" stroke-opacity="1" stroke-miterlimit="4"/><path stroke-linecap="butt" transform="matrix(0.75, 0, 0, 0.75, 242.801708, 251.37174)" fill="none" stroke-linejoin="miter" d="M -0.00123534 1.999138 L 32.983142 1.999138 " stroke="#000000" stroke-width="4" stroke-opacity="1" stroke-miterlimit="4"/><g clip-path="url(#814fe13b1b)"><g clip-path="url(#3f508e4b85)"><g clip-path="url(#ac8e4336f3)"><g clip-path="url(#10f4fd9c44)"><path fill="#000000" d="M 133.480469 154.167969 C 133.230469 154.289062 132.925781 154.183594 132.804688 153.929688 C 132.679688 153.675781 132.789062 153.371094 133.039062 153.25 L 145.457031 147.253906 C 144.703125 147.15625 143.910156 147.269531 143.175781 147.621094 L 132.871094 152.597656 L 132.871094 152.589844 C 132.515625 152.722656 132.113281 152.566406 131.945312 152.214844 C 131.777344 151.867188 131.90625 151.453125 132.230469 151.257812 L 132.226562 151.253906 L 146.253906 144.480469 C 150.316406 142.515625 152.769531 144.828125 156.480469 152.546875 L 207.195312 258.066406 L 207.175781 258.074219 C 207.222656 258.273438 207.132812 258.492188 206.9375 258.582031 C 206.710938 258.691406 206.441406 258.597656 206.332031 258.371094 L 174.453125 203.304688 L 174.253906 202.890625 C 173.445312 201.679688 171.917969 201.160156 170.535156 201.628906 L 158.976562 207.214844 C 158.722656 207.335938 158.417969 207.230469 158.296875 206.976562 C 158.175781 206.722656 158.28125 206.417969 158.53125 206.296875 L 172.621094 199.492188 L 172.183594 198.582031 L 158.097656 205.382812 C 157.84375 205.507812 157.539062 205.398438 157.417969 205.144531 C 157.296875 204.894531 157.402344 204.589844 157.65625 204.464844 L 171.746094 197.664062 L 171.304688 196.753906 L 157.21875 203.554688 C 156.964844 203.679688 156.660156 203.570312 156.539062 203.316406 C 156.414062 203.0625 156.523438 202.757812 156.773438 202.636719 L 170.863281 195.832031 L 170.425781 194.921875 L 156.335938 201.726562 C 156.085938 201.847656 155.78125 201.742188 155.660156 201.488281 C 155.539062 201.234375 155.644531 200.929688 155.894531 200.808594 L 169.984375 194.003906 L 169.546875 193.09375 L 155.457031 199.894531 C 155.207031 200.019531 154.902344 199.914062 154.78125 199.65625 C 154.660156 199.40625 154.761719 199.101562 155.015625 198.976562 L 169.105469 192.175781 L 168.667969 191.265625 L 154.578125 198.070312 C 154.328125 198.191406 154.023438 198.085938 153.902344 197.828125 C 153.78125 197.574219 153.882812 197.269531 154.136719 197.148438 L 168.226562 190.347656 L 167.789062 189.433594 L 153.699219 196.238281 C 153.449219 196.359375 153.144531 196.253906 153.023438 196 C 152.898438 195.746094 153.007812 195.441406 153.257812 195.320312 L 167.347656 188.515625 L 166.910156 187.605469 L 152.820312 194.410156 C 152.566406 194.53125 152.265625 194.425781 152.140625 194.171875 C 152.019531 193.917969 152.128906 193.613281 152.378906 193.492188 L 166.46875 186.6875 L 166.03125 185.777344 L 151.945312 192.582031 C 151.691406 192.703125 151.386719 192.597656 151.265625 192.34375 C 151.140625 192.085938 151.246094 191.785156 151.5 191.664062 L 165.589844 184.859375 L 165.148438 183.945312 L 151.0625 190.75 C 150.808594 190.875 150.507812 190.765625 150.382812 190.515625 C 150.261719 190.261719 150.371094 189.953125 150.621094 189.832031 L 164.707031 183.027344 L 164.273438 182.121094 L 150.183594 188.921875 C 149.933594 189.046875 149.628906 188.9375 149.503906 188.683594 C 149.382812 188.433594 149.488281 188.125 149.742188 188.003906 L 163.828125 181.199219 L 163.394531 180.289062 L 149.304688 187.09375 C 149.054688 187.214844 148.746094 187.109375 148.625 186.855469 C 148.503906 186.601562 148.609375 186.296875 148.863281 186.175781 L 162.953125 179.371094 L 162.511719 178.460938 L 148.425781 185.261719 C 148.171875 185.386719 147.867188 185.277344 147.746094 185.027344 C 147.625 184.773438 147.734375 184.46875 147.984375 184.347656 L 162.074219 177.542969 L 161.636719 176.632812 L 147.546875 183.433594 C 147.292969 183.554688 146.988281 183.449219 146.867188 183.195312 C 146.746094 182.945312 146.851562 182.640625 147.105469 182.519531 L 161.195312 175.714844 L 160.753906 174.800781 L 146.667969 181.605469 C 146.414062 181.726562 146.113281 181.621094 145.988281 181.367188 C 145.867188 181.113281 145.972656 180.808594 146.226562 180.6875 L 160.316406 173.882812 L 159.875 172.972656 L 145.789062 179.777344 C 145.535156 179.898438 145.230469 179.792969 145.109375 179.539062 C 144.988281 179.285156 145.09375 178.980469 145.347656 178.859375 L 159.433594 172.054688 L 159 171.144531 L 144.910156 177.945312 C 144.65625 178.070312 144.351562 177.960938 144.230469 177.707031 C 144.109375 177.457031 144.214844 177.152344 144.46875 177.03125 L 158.558594 170.226562 L 158.117188 169.316406 L 144.03125 176.121094 C 143.777344 176.242188 143.472656 176.132812 143.351562 175.878906 C 143.230469 175.625 143.335938 175.320312 143.589844 175.199219 L 157.675781 168.394531 L 157.238281 167.484375 L 143.152344 174.289062 C 142.898438 174.410156 142.59375 174.304688 142.472656 174.050781 C 142.351562 173.796875 142.457031 173.492188 142.710938 173.371094 L 156.796875 166.566406 L 156.359375 165.65625 L 142.273438 172.460938 C 142.019531 172.582031 141.714844 172.476562 141.59375 172.222656 C 141.472656 171.96875 141.578125 171.664062 141.832031 171.542969 L 155.921875 164.738281 L 155.480469 163.828125 L 141.394531 170.628906 C 141.140625 170.753906 140.835938 170.648438 140.714844 170.390625 C 140.589844 170.136719 140.699219 169.832031 140.953125 169.710938 L 155.039062 162.910156 L 154.601562 161.996094 L 140.515625 168.800781 C 140.261719 168.921875 139.957031 168.816406 139.835938 168.5625 C 139.710938 168.308594 139.820312 168.003906 140.070312 167.882812 L 154.160156 161.078125 L 153.722656 160.167969 L 139.632812 166.972656 C 139.382812 167.09375 139.078125 166.988281 138.957031 166.734375 C 138.835938 166.480469 138.941406 166.175781 139.195312 166.054688 L 153.28125 159.25 L 152.84375 158.339844 L 138.757812 165.144531 C 138.503906 165.265625 138.199219 165.160156 138.078125 164.90625 C 137.957031 164.652344 138.0625 164.347656 138.316406 164.222656 L 152.402344 157.421875 L 151.964844 156.511719 L 137.878906 163.3125 C 137.625 163.4375 137.320312 163.332031 137.199219 163.078125 C 137.078125 162.824219 137.183594 162.519531 137.433594 162.394531 L 151.523438 155.589844 L 151.085938 154.679688 L 137 161.484375 C 136.742188 161.609375 136.441406 161.5 136.320312 161.246094 C 136.199219 160.996094 136.304688 160.6875 136.554688 160.566406 L 150.644531 153.761719 L 150.207031 152.851562 L 136.117188 159.65625 C 135.867188 159.777344 135.5625 159.671875 135.441406 159.417969 C 135.316406 159.164062 135.425781 158.859375 135.675781 158.738281 L 149.765625 151.933594 L 149.328125 151.023438 L 135.238281 157.828125 C 134.988281 157.949219 134.683594 157.84375 134.5625 157.589844 C 134.4375 157.335938 134.546875 157.03125 134.796875 156.90625 L 148.886719 150.105469 L 148.609375 149.527344 C 148.554688 149.414062 148.492188 149.308594 148.433594 149.203125 L 134.359375 155.996094 C 134.109375 156.121094 133.800781 156.011719 133.679688 155.757812 C 133.5625 155.507812 133.667969 155.203125 133.921875 155.082031 L 147.785156 148.382812 C 147.507812 148.113281 147.199219 147.886719 146.863281 147.703125 L 133.480469 154.167969 " fill-opacity="1" fill-rule="nonzero"/></g></g></g></g><g clip-path="url(#da3ab07896)"><g clip-path="url(#989bf24cbc)"><g clip-path="url(#ebadd89845)"><path fill="#000000" d="M 211.199219 134.453125 L 214.214844 135.125 L 215.929688 145.644531 C 218.277344 145.707031 220.5 146.484375 222.28125 148.03125 C 227.011719 152.140625 226.808594 160.125 221.828125 165.855469 C 218.007812 170.253906 212.484375 172.050781 207.984375 170.796875 C 196.773438 183.304688 196.054688 195.707031 198.066406 209.542969 L 158.722656 255.183594 L 157.519531 254.257812 L 192.535156 197.539062 C 195.714844 192.765625 194.957031 188.539062 198.402344 180.917969 C 201.683594 174.730469 203.195312 171.019531 203.398438 167.964844 C 199.554688 163.679688 200.027344 156.335938 204.691406 150.96875 C 206.695312 148.667969 209.164062 147.074219 211.707031 146.265625 Z M 206.277344 152.402344 C 209.824219 148.324219 215.828125 147.730469 219.6875 151.085938 C 223.546875 154.4375 223.800781 160.464844 220.253906 164.546875 C 216.707031 168.628906 210.703125 169.21875 206.84375 165.867188 C 202.984375 162.515625 202.730469 156.484375 206.277344 152.402344 Z M 220.105469 172.1875 L 220.167969 168.71875 L 225.21875 168.410156 C 229.402344 166.632812 234.199219 167.109375 237.613281 170.082031 C 242.550781 174.367188 242.746094 182.222656 238.058594 187.621094 C 233.96875 192.328125 227.507812 193.617188 222.648438 191.027344 L 222.652344 191.027344 C 214.046875 191.292969 206.671875 199.152344 199.554688 208.589844 L 198.847656 200.3125 C 207.351562 197.519531 212.738281 191.585938 216.710938 184.230469 L 217.027344 183.367188 C 216.640625 179.261719 217.164062 175.910156 220.101562 172.1875 Z M 222.117188 174.480469 C 225.710938 170.34375 231.695312 169.65625 235.480469 172.941406 C 239.265625 176.230469 239.421875 182.253906 235.824219 186.390625 C 232.230469 190.527344 226.246094 191.214844 222.460938 187.925781 C 218.675781 184.640625 218.523438 178.617188 222.117188 174.480469 Z M 191.929688 204.933594 C 192.308594 203.988281 193.304688 203.394531 194.351562 203.566406 C 195.398438 203.734375 196.15625 204.609375 196.21875 205.625 Z M 196.0625 206.589844 C 195.683594 207.535156 194.6875 208.128906 193.640625 207.960938 C 192.59375 207.789062 191.835938 206.914062 191.773438 205.898438 Z M 196.0625 206.589844 " fill-opacity="1" fill-rule="evenodd"/></g></g></g><g fill="#000000" fill-opacity="1"><g transform="translate(83.50086, 305.27093)"><g><path d="M 9.375 -8.171875 C 9.375 -9.171875 8.859375 -9.863281 7.828125 -10.25 C 7.285156 -10.445312 6.648438 -10.546875 5.921875 -10.546875 L 0.453125 -10.546875 L 0.453125 -10.078125 L 1.859375 -10.078125 L 1.859375 -0.46875 L 0.453125 -0.46875 L 0.453125 0 L 6.15625 0 C 7.726562 0 8.863281 -0.472656 9.5625 -1.421875 C 9.925781 -1.910156 10.109375 -2.457031 10.109375 -3.0625 C 10.109375 -4.226562 9.515625 -5.03125 8.328125 -5.46875 C 8.015625 -5.582031 7.671875 -5.671875 7.296875 -5.734375 C 8.273438 -6.054688 8.921875 -6.617188 9.234375 -7.421875 C 9.328125 -7.679688 9.375 -7.929688 9.375 -8.171875 Z M 5.109375 -10.078125 C 6.441406 -10.046875 7.113281 -9.363281 7.125 -8.03125 C 7.125 -7.070312 6.773438 -6.441406 6.078125 -6.140625 C 5.828125 -6.015625 5.535156 -5.953125 5.203125 -5.953125 L 4.03125 -5.953125 L 4.03125 -10.078125 Z M 5.609375 -5.46875 C 6.585938 -5.46875 7.242188 -5.03125 7.578125 -4.15625 C 7.691406 -3.84375 7.75 -3.5 7.75 -3.125 C 7.75 -1.914062 7.351562 -1.109375 6.5625 -0.703125 C 6.238281 -0.546875 5.875 -0.46875 5.46875 -0.46875 L 4.03125 -0.46875 L 4.03125 -5.46875 Z M 5.609375 -5.46875 "/></g></g></g><g fill="#000000" fill-opacity="1"><g transform="translate(100.62596, 305.27093)"><g><path d="M 11.1875 0 C 11.1875 -0.269531 11.101562 -0.421875 10.9375 -0.453125 C 10.882812 -0.460938 10.816406 -0.46875 10.734375 -0.46875 L 10.203125 -0.46875 L 6.078125 -10.546875 L 5 -10.546875 L 1.125 -0.46875 L 0 -0.46875 L 0 0 L 3.203125 0 C 3.203125 -0.269531 3.117188 -0.421875 2.953125 -0.453125 C 2.890625 -0.460938 2.828125 -0.46875 2.765625 -0.46875 L 1.828125 -0.46875 L 3.109375 -3.84375 L 6.65625 -3.84375 L 7.984375 -0.46875 L 6.765625 -0.46875 L 6.765625 0 Z M 6.453125 -4.375 L 3.3125 -4.375 L 4.875 -8.484375 Z M 6.453125 -4.375 "/></g></g></g><g fill="#000000" fill-opacity="1"><g transform="translate(118.260422, 305.27093)"><g><path d="M 8.796875 0 L 8.859375 -3.734375 L 8.40625 -3.734375 L 7.96875 -2.21875 C 7.71875 -1.394531 7.359375 -0.875 6.890625 -0.65625 C 6.640625 -0.53125 6.351562 -0.46875 6.03125 -0.46875 L 4.03125 -0.46875 L 4.03125 -10.078125 L 5.515625 -10.078125 L 5.515625 -10.546875 L 0.453125 -10.546875 L 0.453125 -10.078125 L 1.859375 -10.078125 L 1.859375 -0.46875 L 0.453125 -0.46875 L 0.453125 0 Z M 8.796875 0 "/></g></g></g><g fill="#000000" fill-opacity="1"><g transform="translate(133.629102, 305.27093)"><g><path d="M 7.671875 0 C 7.578125 -0.289062 7.421875 -0.445312 7.203125 -0.46875 L 6.015625 -0.46875 L 6.015625 -10.078125 L 6.546875 -10.078125 C 7.398438 -10.078125 8.007812 -9.640625 8.375 -8.765625 C 8.425781 -8.628906 8.476562 -8.484375 8.53125 -8.328125 L 8.984375 -6.875 L 9.5 -6.875 L 9.421875 -10.546875 L 0.453125 -10.546875 L 0.375 -6.875 L 0.890625 -6.875 L 1.359375 -8.328125 C 1.640625 -9.242188 2.085938 -9.796875 2.703125 -9.984375 C 2.890625 -10.046875 3.101562 -10.078125 3.34375 -10.078125 L 3.84375 -10.078125 L 3.84375 -0.46875 L 2.1875 -0.46875 L 2.1875 0 Z M 7.671875 0 "/></g></g></g><g fill="#000000" fill-opacity="1"><g transform="translate(149.963809, 305.27093)"><g><path d="M 5.4375 0 C 5.363281 -0.289062 5.203125 -0.445312 4.953125 -0.46875 L 4.03125 -0.46875 L 4.03125 -10.078125 L 5.4375 -10.078125 L 5.4375 -10.546875 L 0.453125 -10.546875 L 0.453125 -10.078125 L 1.859375 -10.078125 L 1.859375 -0.46875 L 0.453125 -0.46875 L 0.453125 0 Z M 5.4375 0 "/></g></g></g><g fill="#000000" fill-opacity="1"><g transform="translate(162.311435, 305.27093)"><g><path d="M 13.875 -10.546875 L 10.40625 -10.546875 L 7.046875 -2.640625 L 3.234375 -10.546875 L 0.28125 -10.546875 L 0.28125 -10.078125 L 1.6875 -10.078125 L 1.6875 -0.46875 L 0.28125 -0.46875 L 0.28125 0 L 3.828125 0 C 3.765625 -0.289062 3.609375 -0.445312 3.359375 -0.46875 L 2.421875 -0.46875 L 2.421875 -7.390625 L 6.203125 0.140625 L 6.546875 0.140625 L 10.40625 -8.859375 L 10.40625 -0.46875 L 9 -0.46875 L 9 0 L 13.875 0 C 13.800781 -0.289062 13.640625 -0.445312 13.390625 -0.46875 L 12.46875 -0.46875 L 12.46875 -10.078125 L 13.875 -10.078125 Z M 13.875 -10.546875 "/></g></g></g><g fill="#000000" fill-opacity="1"><g transform="translate(182.931815, 305.27093)"><g><path d="M 6.234375 -10.71875 C 4.722656 -10.71875 3.441406 -10.238281 2.390625 -9.28125 C 1.273438 -8.257812 0.71875 -6.941406 0.71875 -5.328125 C 0.71875 -3.460938 1.378906 -2.015625 2.703125 -0.984375 C 3.703125 -0.210938 4.863281 0.171875 6.1875 0.171875 C 7.6875 0.171875 8.957031 -0.3125 10 -1.28125 C 11.101562 -2.3125 11.65625 -3.632812 11.65625 -5.25 C 11.65625 -7.175781 10.972656 -8.644531 9.609375 -9.65625 C 8.648438 -10.363281 7.523438 -10.71875 6.234375 -10.71875 Z M 6.234375 -0.328125 C 4.785156 -0.328125 3.859375 -1.097656 3.453125 -2.640625 C 3.265625 -3.347656 3.171875 -4.21875 3.171875 -5.25 C 3.171875 -8.382812 4.066406 -10.035156 5.859375 -10.203125 C 5.972656 -10.210938 6.082031 -10.21875 6.1875 -10.21875 C 7.757812 -10.21875 8.710938 -9.257812 9.046875 -7.34375 C 9.160156 -6.757812 9.21875 -6.085938 9.21875 -5.328125 C 9.21875 -2.441406 8.488281 -0.804688 7.03125 -0.421875 C 6.78125 -0.359375 6.515625 -0.328125 6.234375 -0.328125 Z M 6.234375 -0.328125 "/></g></g></g><g fill="#000000" fill-opacity="1"><g transform="translate(201.760643, 305.27093)"><g><path d="M 5.4375 0 L 5.4375 -0.46875 L 4.03125 -0.46875 L 4.03125 -4.8125 L 5.15625 -4.8125 L 7.828125 0.015625 L 10.78125 0 C 10.78125 -0.257812 10.703125 -0.40625 10.546875 -0.4375 C 10.472656 -0.445312 10.40625 -0.453125 10.34375 -0.453125 L 9.96875 -0.453125 L 7.203125 -5.015625 C 8.398438 -5.328125 9.164062 -5.957031 9.5 -6.90625 C 9.59375 -7.195312 9.640625 -7.488281 9.640625 -7.78125 C 9.640625 -8.664062 9.25 -9.367188 8.46875 -9.890625 C 7.820312 -10.328125 7.039062 -10.546875 6.125 -10.546875 L 0.453125 -10.546875 L 0.453125 -10.078125 L 1.859375 -10.078125 L 1.859375 -0.46875 L 0.453125 -0.46875 L 0.453125 0 Z M 5.234375 -10.078125 C 6.179688 -10.078125 6.820312 -9.632812 7.15625 -8.75 C 7.269531 -8.4375 7.328125 -8.097656 7.328125 -7.734375 C 7.328125 -6.796875 7.03125 -6.109375 6.4375 -5.671875 C 6.113281 -5.453125 5.75 -5.34375 5.34375 -5.34375 L 4.03125 -5.34375 L 4.03125 -10.078125 Z M 5.234375 -10.078125 "/></g></g></g><g fill="#000000" fill-opacity="1"><g transform="translate(218.991126, 305.27093)"><g><path d="M 9.109375 -7.25 L 9.03125 -10.546875 L 0.453125 -10.546875 L 0.453125 -10.078125 L 1.859375 -10.078125 L 1.859375 -0.46875 L 0.453125 -0.46875 L 0.453125 0 L 9.03125 0 L 9.109375 -3.3125 L 8.65625 -3.3125 L 8.296875 -2.21875 C 7.992188 -1.300781 7.535156 -0.75 6.921875 -0.5625 C 6.722656 -0.5 6.507812 -0.46875 6.28125 -0.46875 L 4.03125 -0.46875 L 4.03125 -5.171875 L 7.484375 -5.171875 L 7.484375 -5.703125 L 4.03125 -5.703125 L 4.03125 -10.078125 L 6.28125 -10.078125 C 7.175781 -10.078125 7.8125 -9.609375 8.1875 -8.671875 C 8.238281 -8.566406 8.28125 -8.453125 8.3125 -8.328125 L 8.65625 -7.25 Z M 9.109375 -7.25 "/></g></g></g><g fill="#000000" fill-opacity="1"><g transform="translate(235.378526, 305.27093)"><g/></g></g><g fill="#000000" fill-opacity="1"><g transform="translate(245.267159, 305.27093)"><g><path d="M 13.875 -10.546875 L 10.40625 -10.546875 L 7.046875 -2.640625 L 3.234375 -10.546875 L 0.28125 -10.546875 L 0.28125 -10.078125 L 1.6875 -10.078125 L 1.6875 -0.46875 L 0.28125 -0.46875 L 0.28125 0 L 3.828125 0 C 3.765625 -0.289062 3.609375 -0.445312 3.359375 -0.46875 L 2.421875 -0.46875 L 2.421875 -7.390625 L 6.203125 0.140625 L 6.546875 0.140625 L 10.40625 -8.859375 L 10.40625 -0.46875 L 9 -0.46875 L 9 0 L 13.875 0 C 13.800781 -0.289062 13.640625 -0.445312 13.390625 -0.46875 L 12.46875 -0.46875 L 12.46875 -10.078125 L 13.875 -10.078125 Z M 13.875 -10.546875 "/></g></g></g><g fill="#000000" fill-opacity="1"><g transform="translate(265.887539, 305.27093)"><g><path d="M 0.453125 -10.546875 L 0.453125 -10.078125 L 1.859375 -10.078125 L 1.859375 -0.46875 L 0.453125 -0.46875 L 0.453125 0 L 5.578125 0 C 7.179688 0 8.503906 -0.492188 9.546875 -1.484375 C 10.578125 -2.453125 11.09375 -3.707031 11.09375 -5.25 C 11.09375 -7.21875 10.359375 -8.679688 8.890625 -9.640625 C 7.941406 -10.242188 6.832031 -10.546875 5.5625 -10.546875 Z M 5.578125 -10.078125 C 7.003906 -10.078125 7.9375 -9.382812 8.375 -8 C 8.582031 -7.289062 8.6875 -6.398438 8.6875 -5.328125 C 8.6875 -2.640625 8 -1.078125 6.625 -0.640625 C 6.3125 -0.523438 5.960938 -0.46875 5.578125 -0.46875 L 4.03125 -0.46875 L 4.03125 -10.078125 Z M 5.578125 -10.078125 "/></g></g></g><g fill="#000000" fill-opacity="1"><g transform="translate(284.171886, 305.27093)"><g><path d="M 2.84375 -1.03125 C 2.84375 -1.488281 2.640625 -1.828125 2.234375 -2.046875 C 2.054688 -2.140625 1.878906 -2.1875 1.703125 -2.1875 C 1.234375 -2.1875 0.898438 -1.972656 0.703125 -1.546875 C 0.617188 -1.378906 0.578125 -1.207031 0.578125 -1.03125 C 0.578125 -0.550781 0.789062 -0.210938 1.21875 -0.015625 C 1.375 0.0546875 1.535156 0.09375 1.703125 0.09375 C 2.160156 0.09375 2.492188 -0.109375 2.703125 -0.515625 C 2.796875 -0.671875 2.84375 -0.84375 2.84375 -1.03125 Z M 2.84375 -1.03125 "/></g></g></g><g fill="#000000" fill-opacity="1"><g transform="translate(100.57928, 336.24195)"><g><path d="M 7.671875 0 C 7.578125 -0.289062 7.421875 -0.445312 7.203125 -0.46875 L 6.015625 -0.46875 L 6.015625 -10.078125 L 6.546875 -10.078125 C 7.398438 -10.078125 8.007812 -9.640625 8.375 -8.765625 C 8.425781 -8.628906 8.476562 -8.484375 8.53125 -8.328125 L 8.984375 -6.875 L 9.5 -6.875 L 9.421875 -10.546875 L 0.453125 -10.546875 L 0.375 -6.875 L 0.890625 -6.875 L 1.359375 -8.328125 C 1.640625 -9.242188 2.085938 -9.796875 2.703125 -9.984375 C 2.890625 -10.046875 3.101562 -10.078125 3.34375 -10.078125 L 3.84375 -10.078125 L 3.84375 -0.46875 L 2.1875 -0.46875 L 2.1875 0 Z M 7.671875 0 "/></g></g></g><g fill="#000000" fill-opacity="1"><g transform="translate(116.91399, 336.24195)"><g><path d="M 8.015625 -10.078125 L 9.453125 -10.078125 L 9.453125 -2.9375 L 3.09375 -10.546875 L 0.296875 -10.546875 L 0.296875 -10.078125 L 1.703125 -10.078125 L 1.703125 -0.46875 L 0.296875 -0.46875 L 0.296875 0 L 3.921875 0 C 3.847656 -0.289062 3.691406 -0.445312 3.453125 -0.46875 L 2.421875 -0.46875 L 2.421875 -8.046875 L 9.25 0.09375 L 10.171875 -0.09375 L 10.171875 -10.078125 L 11.578125 -10.078125 L 11.578125 -10.546875 L 8.015625 -10.546875 Z M 8.015625 -10.078125 "/></g></g></g><g fill="#000000" fill-opacity="1"><g transform="translate(135.075379, 336.24195)"><g/></g></g><g fill="#000000" fill-opacity="1"><g transform="translate(144.964018, 336.24195)"><g><path d="M 4.21875 -8.9375 C 4.21875 -9.570312 4.457031 -9.984375 4.9375 -10.171875 C 5.082031 -10.222656 5.226562 -10.25 5.375 -10.25 C 6.082031 -10.25 6.484375 -9.914062 6.578125 -9.25 C 6.585938 -9.15625 6.59375 -9.0625 6.59375 -8.96875 C 6.59375 -8.414062 6.300781 -7.914062 5.71875 -7.46875 C 5.445312 -7.28125 5.148438 -7.128906 4.828125 -7.015625 C 4.421875 -7.828125 4.21875 -8.46875 4.21875 -8.9375 Z M 4.75 -0.359375 C 3.53125 -0.359375 2.804688 -0.992188 2.578125 -2.265625 C 2.523438 -2.628906 2.5 -3.054688 2.5 -3.546875 C 2.507812 -4.898438 2.789062 -5.710938 3.34375 -5.984375 C 4.125 -4.441406 5.285156 -2.78125 6.828125 -1 C 6.203125 -0.570312 5.507812 -0.359375 4.75 -0.359375 Z M 9.265625 -5.609375 L 9.25 -5.609375 L 9.296875 -5.609375 L 9.84375 -5.625 C 10.113281 -5.625 10.265625 -5.695312 10.296875 -5.84375 C 10.328125 -5.914062 10.34375 -6 10.34375 -6.09375 L 7.8125 -6.09375 L 7.8125 -5.640625 L 8.765625 -5.640625 C 8.765625 -4.410156 8.519531 -3.335938 8.03125 -2.421875 C 6.738281 -3.972656 5.742188 -5.367188 5.046875 -6.609375 C 5.953125 -6.921875 6.570312 -7.445312 6.90625 -8.1875 C 7.019531 -8.457031 7.078125 -8.71875 7.078125 -8.96875 C 7.078125 -9.789062 6.710938 -10.328125 5.984375 -10.578125 C 5.722656 -10.671875 5.441406 -10.71875 5.140625 -10.71875 C 4.117188 -10.71875 3.378906 -10.382812 2.921875 -9.71875 C 2.671875 -9.351562 2.546875 -8.9375 2.546875 -8.46875 C 2.554688 -7.914062 2.753906 -7.21875 3.140625 -6.375 C 1.734375 -5.96875 0.882812 -5.160156 0.59375 -3.953125 C 0.53125 -3.671875 0.5 -3.382812 0.5 -3.09375 C 0.5 -2.019531 0.910156 -1.171875 1.734375 -0.546875 C 2.390625 -0.0664062 3.207031 0.171875 4.1875 0.171875 C 5.34375 0.160156 6.316406 -0.117188 7.109375 -0.671875 C 7.390625 -0.367188 7.59375 -0.144531 7.71875 0 L 10.59375 0 C 10.59375 -0.269531 10.5 -0.414062 10.3125 -0.4375 C 10.269531 -0.445312 10.21875 -0.453125 10.15625 -0.453125 L 9.75 -0.453125 C 9.226562 -1.023438 8.769531 -1.546875 8.375 -2.015625 C 8.96875 -3.003906 9.265625 -4.203125 9.265625 -5.609375 Z M 9.265625 -5.609375 "/></g></g></g><g fill="#000000" fill-opacity="1"><g transform="translate(161.790524, 336.24195)"><g/></g></g><g fill="#000000" fill-opacity="1"><g transform="translate(171.679157, 336.24195)"><g><path d="M 9.375 -8.171875 C 9.375 -9.171875 8.859375 -9.863281 7.828125 -10.25 C 7.285156 -10.445312 6.648438 -10.546875 5.921875 -10.546875 L 0.453125 -10.546875 L 0.453125 -10.078125 L 1.859375 -10.078125 L 1.859375 -0.46875 L 0.453125 -0.46875 L 0.453125 0 L 6.15625 0 C 7.726562 0 8.863281 -0.472656 9.5625 -1.421875 C 9.925781 -1.910156 10.109375 -2.457031 10.109375 -3.0625 C 10.109375 -4.226562 9.515625 -5.03125 8.328125 -5.46875 C 8.015625 -5.582031 7.671875 -5.671875 7.296875 -5.734375 C 8.273438 -6.054688 8.921875 -6.617188 9.234375 -7.421875 C 9.328125 -7.679688 9.375 -7.929688 9.375 -8.171875 Z M 5.109375 -10.078125 C 6.441406 -10.046875 7.113281 -9.363281 7.125 -8.03125 C 7.125 -7.070312 6.773438 -6.441406 6.078125 -6.140625 C 5.828125 -6.015625 5.535156 -5.953125 5.203125 -5.953125 L 4.03125 -5.953125 L 4.03125 -10.078125 Z M 5.609375 -5.46875 C 6.585938 -5.46875 7.242188 -5.03125 7.578125 -4.15625 C 7.691406 -3.84375 7.75 -3.5 7.75 -3.125 C 7.75 -1.914062 7.351562 -1.109375 6.5625 -0.703125 C 6.238281 -0.546875 5.875 -0.46875 5.46875 -0.46875 L 4.03125 -0.46875 L 4.03125 -5.46875 Z M 5.609375 -5.46875 "/></g></g></g><g fill="#000000" fill-opacity="1"><g transform="translate(188.804255, 336.24195)"><g><path d="M 9.109375 -7.25 L 9.03125 -10.546875 L 0.453125 -10.546875 L 0.453125 -10.078125 L 1.859375 -10.078125 L 1.859375 -0.46875 L 0.453125 -0.46875 L 0.453125 0 L 9.03125 0 L 9.109375 -3.3125 L 8.65625 -3.3125 L 8.296875 -2.21875 C 7.992188 -1.300781 7.535156 -0.75 6.921875 -0.5625 C 6.722656 -0.5 6.507812 -0.46875 6.28125 -0.46875 L 4.03125 -0.46875 L 4.03125 -5.171875 L 7.484375 -5.171875 L 7.484375 -5.703125 L 4.03125 -5.703125 L 4.03125 -10.078125 L 6.28125 -10.078125 C 7.175781 -10.078125 7.8125 -9.609375 8.1875 -8.671875 C 8.238281 -8.566406 8.28125 -8.453125 8.3125 -8.328125 L 8.65625 -7.25 Z M 9.109375 -7.25 "/></g></g></g><g fill="#000000" fill-opacity="1"><g transform="translate(205.191654, 336.24195)"><g><path d="M 7.671875 0 C 7.597656 -0.289062 7.4375 -0.445312 7.1875 -0.46875 L 6.1875 -0.46875 L 6.1875 -4.515625 L 8.671875 -9.578125 C 8.890625 -9.898438 9.1875 -10.066406 9.5625 -10.078125 C 9.851562 -10.140625 10.007812 -10.296875 10.03125 -10.546875 L 6.921875 -10.546875 L 6.921875 -10.078125 L 8.328125 -10.078125 L 5.875 -5.109375 L 3.21875 -10.078125 L 4.546875 -10.078125 L 4.546875 -10.546875 L -0.046875 -10.546875 L -0.046875 -10.078125 L 0.828125 -10.078125 L 4.046875 -4.375 L 4.046875 -0.46875 L 2.5625 -0.46875 L 2.5625 0 Z M 7.671875 0 "/></g></g></g><g fill="#000000" fill-opacity="1"><g transform="translate(221.68444, 336.24195)"><g><path d="M 6.234375 -10.71875 C 4.722656 -10.71875 3.441406 -10.238281 2.390625 -9.28125 C 1.273438 -8.257812 0.71875 -6.941406 0.71875 -5.328125 C 0.71875 -3.460938 1.378906 -2.015625 2.703125 -0.984375 C 3.703125 -0.210938 4.863281 0.171875 6.1875 0.171875 C 7.6875 0.171875 8.957031 -0.3125 10 -1.28125 C 11.101562 -2.3125 11.65625 -3.632812 11.65625 -5.25 C 11.65625 -7.175781 10.972656 -8.644531 9.609375 -9.65625 C 8.648438 -10.363281 7.523438 -10.71875 6.234375 -10.71875 Z M 6.234375 -0.328125 C 4.785156 -0.328125 3.859375 -1.097656 3.453125 -2.640625 C 3.265625 -3.347656 3.171875 -4.21875 3.171875 -5.25 C 3.171875 -8.382812 4.066406 -10.035156 5.859375 -10.203125 C 5.972656 -10.210938 6.082031 -10.21875 6.1875 -10.21875 C 7.757812 -10.21875 8.710938 -9.257812 9.046875 -7.34375 C 9.160156 -6.757812 9.21875 -6.085938 9.21875 -5.328125 C 9.21875 -2.441406 8.488281 -0.804688 7.03125 -0.421875 C 6.78125 -0.359375 6.515625 -0.328125 6.234375 -0.328125 Z M 6.234375 -0.328125 "/></g></g></g><g fill="#000000" fill-opacity="1"><g transform="translate(240.513268, 336.24195)"><g><path d="M 8.015625 -10.078125 L 9.453125 -10.078125 L 9.453125 -2.9375 L 3.09375 -10.546875 L 0.296875 -10.546875 L 0.296875 -10.078125 L 1.703125 -10.078125 L 1.703125 -0.46875 L 0.296875 -0.46875 L 0.296875 0 L 3.921875 0 C 3.847656 -0.289062 3.691406 -0.445312 3.453125 -0.46875 L 2.421875 -0.46875 L 2.421875 -8.046875 L 9.25 0.09375 L 10.171875 -0.09375 L 10.171875 -10.078125 L 11.578125 -10.078125 L 11.578125 -10.546875 L 8.015625 -10.546875 Z M 8.015625 -10.078125 "/></g></g></g><g fill="#000000" fill-opacity="1"><g transform="translate(258.674655, 336.24195)"><g><path d="M 0.453125 -10.546875 L 0.453125 -10.078125 L 1.859375 -10.078125 L 1.859375 -0.46875 L 0.453125 -0.46875 L 0.453125 0 L 5.578125 0 C 7.179688 0 8.503906 -0.492188 9.546875 -1.484375 C 10.578125 -2.453125 11.09375 -3.707031 11.09375 -5.25 C 11.09375 -7.21875 10.359375 -8.679688 8.890625 -9.640625 C 7.941406 -10.242188 6.832031 -10.546875 5.5625 -10.546875 Z M 5.578125 -10.078125 C 7.003906 -10.078125 7.9375 -9.382812 8.375 -8 C 8.582031 -7.289062 8.6875 -6.398438 8.6875 -5.328125 C 8.6875 -2.640625 8 -1.078125 6.625 -0.640625 C 6.3125 -0.523438 5.960938 -0.46875 5.578125 -0.46875 L 4.03125 -0.46875 L 4.03125 -10.078125 Z M 5.578125 -10.078125 "/></g></g></g></svg>