<svg xmlns="http://www.w3.org/2000/svg" xmlns:xlink="http://www.w3.org/1999/xlink" width="500" zoomAndPan="magnify" viewBox="0 0 375 374.999991" height="500" preserveAspectRatio="xMidYMid meet" version="1.0"><defs><g/><clipPath id="95e876da2f"><path d="M 90.074219 253.703125 L 270.824219 253.703125 L 270.824219 291.199219 L 90.074219 291.199219 Z M 90.074219 253.703125 " clip-rule="nonzero"/></clipPath><clipPath id="2788e08bdc"><path d="M 107.351562 253.703125 L 253.550781 253.703125 C 263.089844 253.703125 270.824219 261.371094 270.824219 270.828125 L 270.824219 274.074219 C 270.824219 283.53125 263.089844 291.199219 253.550781 291.199219 L 107.351562 291.199219 C 97.808594 291.199219 90.074219 283.53125 90.074219 274.074219 L 90.074219 270.828125 C 90.074219 261.371094 97.808594 253.703125 107.351562 253.703125 Z M 107.351562 253.703125 " clip-rule="nonzero"/></clipPath><clipPath id="49278eb9f1"><path d="M 346.253906 117.09375 L 374.753906 117.09375 L 374.753906 145.59375 L 346.253906 145.59375 Z M 346.253906 117.09375 " clip-rule="nonzero"/></clipPath></defs><g clip-path="url(#95e876da2f)"><g clip-path="url(#2788e08bdc)"><path stroke-linecap="butt" transform="matrix(0.751169, 0, 0, 0.744648, 90.074999, 253.701545)" fill="none" stroke-linejoin="miter" d="M 22.999576 0.00212189 L 217.628558 0.00212189 C 230.327518 0.00212189 240.623972 10.299566 240.623972 22.999572 L 240.623972 27.358805 C 240.623972 40.058811 230.327518 50.356255 217.628558 50.356255 L 22.999576 50.356255 C 10.295416 50.356255 -0.00103816 40.058811 -0.00103816 27.358805 L -0.00103816 22.999572 C -0.00103816 10.299566 10.295416 0.00212189 22.999576 0.00212189 Z M 22.999576 0.00212189 " stroke="#0ea5e9" stroke-width="2" stroke-opacity="1" stroke-miterlimit="4"/></g></g><g clip-path="url(#49278eb9f1)"><path fill="#0ea5e9" d="M 374.753906 131.34375 C 364.066406 133.308594 362.472656 134.90625 360.503906 145.59375 C 358.535156 134.90625 356.941406 133.308594 346.253906 131.34375 C 356.941406 129.375 358.535156 127.78125 360.503906 117.09375 C 362.472656 127.78125 364.066406 129.375 374.753906 131.34375 Z M 374.753906 131.34375 " fill-opacity="1" fill-rule="nonzero"/></g><g fill="#0ea5e9" fill-opacity="1"><g transform="translate(4.943697, 211.722172)"><g><path d="M 37.722656 1.449219 C 54.84375 1.449219 66.355469 -7.351562 68.386719 -21.28125 L 59.003906 -21.28125 C 57.070312 -13.636719 50.976562 -7.15625 37.625 -7.15625 C 23.3125 -7.15625 13.058594 -19.054688 13.058594 -33.953125 C 13.058594 -48.75 23.214844 -60.550781 37.433594 -60.550781 C 50.492188 -60.550781 56.488281 -54.070312 58.421875 -46.429688 L 67.804688 -46.429688 C 65.96875 -59.679688 54.652344 -69.160156 37.433594 -69.160156 C 18.183594 -69.160156 4.0625 -54.070312 3.964844 -33.953125 C 4.0625 -13.734375 18.28125 1.449219 37.722656 1.449219 Z M 37.722656 1.449219 "/></g></g></g><g fill="#0ea5e9" fill-opacity="1"><g transform="translate(67.026483, 211.722172)"><g><path d="M 18.570312 -44.300781 C 16.539062 -42.367188 15.574219 -38.59375 14.605469 -35.886719 L 13.058594 -36.464844 C 14.027344 -39.175781 15.476562 -42.558594 15.476562 -45.460938 L 15.476562 -70.128906 L 7.0625 -70.128906 L 7.0625 0 L 15.476562 0 L 15.476562 -27.082031 C 15.476562 -37.335938 23.019531 -41.882812 32.015625 -41.882812 C 40.140625 -41.882812 44.109375 -37.335938 44.109375 -27.082031 L 44.109375 0 L 52.621094 0 L 52.621094 -33.175781 C 52.621094 -44.203125 44.882812 -49.816406 34.820312 -49.816406 C 27.761719 -49.816406 22.925781 -48.652344 18.570312 -44.300781 Z M 18.570312 -44.300781 "/></g></g></g><g fill="#0ea5e9" fill-opacity="1"><g transform="translate(115.860382, 211.722172)"><g><path d="M 38.59375 -3.480469 C 40.140625 -5.125 40.914062 -8.027344 41.6875 -10.15625 L 43.332031 -9.574219 C 42.464844 -7.449219 41.109375 -4.835938 41.011719 -2.515625 L 40.914062 0 L 49.425781 0 L 49.425781 -48.363281 L 40.914062 -48.363281 L 40.914062 -20.988281 C 40.914062 -10.640625 32.597656 -6.382812 25.535156 -6.382812 C 19.054688 -6.382812 14.605469 -10.832031 14.605469 -20.988281 L 14.605469 -48.363281 L 6.191406 -48.363281 L 6.191406 -15.1875 C 6.191406 -4.257812 14.800781 1.449219 23.792969 1.449219 C 30.371094 1.449219 34.144531 0.773438 38.59375 -3.480469 Z M 38.59375 -3.480469 "/></g></g></g><g fill="#0ea5e9" fill-opacity="1"><g transform="translate(163.146972, 211.722172)"><g><path d="M 18.570312 -44.203125 C 16.539062 -42.269531 15.574219 -38.59375 14.605469 -35.984375 L 13.058594 -36.5625 C 14.027344 -39.175781 15.476562 -42.558594 15.476562 -45.363281 L 15.476562 -48.363281 L 7.0625 -48.363281 L 7.0625 0 L 15.476562 0 L 15.476562 -24.664062 C 15.476562 -38.015625 26.695312 -41.785156 38.015625 -41.785156 L 38.015625 -49.816406 C 27.566406 -49.816406 23.117188 -48.847656 18.570312 -44.203125 Z M 18.570312 -44.203125 "/></g></g></g><g fill="#0ea5e9" fill-opacity="1"><g transform="translate(195.540651, 211.722172)"><g><path d="M 3.964844 -24.472656 C 3.964844 -9.671875 15.089844 1.449219 30.277344 1.546875 C 45.171875 1.449219 51.554688 -8.609375 52.910156 -15.089844 L 44.109375 -15.089844 C 43.238281 -12.089844 39.269531 -6.578125 30.277344 -6.578125 C 19.152344 -6.578125 12.382812 -14.507812 12.382812 -24.570312 C 12.382812 -34.53125 18.378906 -41.785156 29.40625 -41.785156 C 38.402344 -41.785156 42.945312 -36.371094 43.816406 -33.371094 L 52.621094 -33.371094 C 51.457031 -39.65625 44.398438 -49.816406 29.40625 -49.910156 C 14.414062 -49.816406 3.964844 -39.367188 3.964844 -24.472656 Z M 3.964844 -24.472656 "/></g></g></g><g fill="#0ea5e9" fill-opacity="1"><g transform="translate(241.860162, 211.722172)"><g><path d="M 18.570312 -44.300781 C 16.539062 -42.367188 15.574219 -38.59375 14.605469 -35.886719 L 13.058594 -36.464844 C 14.027344 -39.175781 15.476562 -42.558594 15.476562 -45.460938 L 15.476562 -70.128906 L 7.0625 -70.128906 L 7.0625 0 L 15.476562 0 L 15.476562 -27.082031 C 15.476562 -37.335938 23.019531 -41.882812 32.015625 -41.882812 C 40.140625 -41.882812 44.109375 -37.335938 44.109375 -27.082031 L 44.109375 0 L 52.621094 0 L 52.621094 -33.175781 C 52.621094 -44.203125 44.882812 -49.816406 34.820312 -49.816406 C 27.761719 -49.816406 22.925781 -48.652344 18.570312 -44.300781 Z M 18.570312 -44.300781 "/></g></g></g><g fill="#0ea5e9" fill-opacity="1"><g transform="translate(290.694057, 211.722172)"><g><path d="M 6.289062 -58.519531 L 15.765625 -58.519531 L 15.765625 -67.710938 L 6.289062 -67.710938 Z M 6.867188 0 L 15.378906 0 L 15.378906 -48.363281 L 6.867188 -48.363281 Z M 6.867188 0 "/></g></g></g><g fill="#0ea5e9" fill-opacity="1"><g transform="translate(302.875924, 211.722172)"><g><path d="M 9.1875 -11.703125 C 9.1875 -3.480469 13.542969 0 23.601562 0 L 29.792969 0 L 29.792969 -8.027344 L 23.214844 -8.027344 C 19.054688 -8.027344 17.699219 -9.285156 17.699219 -13.25 L 17.699219 -70.128906 L 9.1875 -70.128906 Z M 9.1875 -11.703125 "/></g></g></g><g fill="#0ea5e9" fill-opacity="1"><g transform="translate(324.341679, 211.722172)"><g><path d="M 9.1875 -11.703125 C 9.1875 -3.480469 13.542969 0 23.601562 0 L 29.792969 0 L 29.792969 -8.027344 L 23.214844 -8.027344 C 19.054688 -8.027344 17.699219 -9.285156 17.699219 -13.25 L 17.699219 -70.128906 L 9.1875 -70.128906 Z M 9.1875 -11.703125 "/></g></g></g><g fill="#0ea5e9" fill-opacity="1"><g transform="translate(135.187496, 286.211946)"><g><path d="M 12.488281 -27.996094 C 7.4375 -27.996094 3.339844 -25.015625 3.339844 -20.28125 C 3.339844 -15.746094 6.71875 -13.800781 11.574219 -12.6875 C 16.382812 -11.574219 18.292969 -10.0625 18.292969 -6.71875 C 18.292969 -3.859375 15.746094 -2.148438 12.605469 -2.148438 C 9.027344 -2.148438 6.523438 -4.175781 5.726562 -7.792969 L 2.066406 -7.792969 C 2.664062 -2.503906 6.480469 0.558594 12.527344 0.558594 C 17.816406 0.558594 21.953125 -2.546875 21.953125 -7.355469 C 21.953125 -12.007812 18.929688 -14.476562 12.882812 -15.867188 C 8.710938 -16.820312 7 -18.09375 7 -21.078125 C 7 -23.941406 9.304688 -25.292969 12.207031 -25.292969 C 15.667969 -25.292969 17.695312 -23.304688 18.015625 -19.84375 L 21.671875 -19.84375 C 21.15625 -24.535156 18.171875 -27.996094 12.488281 -27.996094 Z M 12.488281 -27.996094 "/></g></g></g><g fill="#0ea5e9" fill-opacity="1"><g transform="translate(153.870813, 286.211946)"><g><path d="M 24.335938 -27.441406 L 20.917969 -27.441406 L 20.917969 -10.457031 C 20.917969 -9.582031 20.917969 -8.75 20.839844 -8.03125 C 20.519531 -4.574219 18.253906 -2.148438 14.039062 -2.148438 C 9.824219 -2.148438 7.554688 -4.574219 7.238281 -8.03125 C 7.15625 -8.75 7.15625 -9.582031 7.15625 -10.457031 L 7.15625 -27.441406 L 3.738281 -27.441406 L 3.738281 -10.140625 C 3.738281 -9.265625 3.738281 -8.46875 3.816406 -7.675781 C 4.214844 -3.101562 7.316406 0.558594 14.039062 0.558594 C 20.757812 0.558594 23.859375 -3.101562 24.257812 -7.675781 C 24.335938 -8.46875 24.335938 -9.265625 24.335938 -10.140625 Z M 24.335938 -27.441406 "/></g></g></g><g fill="#0ea5e9" fill-opacity="1"><g transform="translate(176.410581, 286.211946)"><g><path d="M 7.398438 0 L 7.398438 -27.441406 L 3.976562 -27.441406 L 3.976562 0 Z M 7.398438 0 "/></g></g></g><g fill="#0ea5e9" fill-opacity="1"><g transform="translate(182.331769, 286.211946)"><g><path d="M 24.335938 -24.65625 L 24.335938 -27.441406 L 1.351562 -27.441406 L 1.351562 -24.65625 L 11.136719 -24.65625 L 11.136719 0 L 14.554688 0 L 14.554688 -24.65625 Z M 24.335938 -24.65625 "/></g></g></g><g fill="#0ea5e9" fill-opacity="1"><g transform="translate(202.088519, 286.211946)"><g><path d="M 22.230469 -2.785156 L 7.398438 -2.785156 L 7.398438 -12.328125 L 20.640625 -12.328125 L 20.640625 -15.113281 L 7.398438 -15.113281 L 7.398438 -24.65625 L 21.832031 -24.65625 L 21.832031 -27.441406 L 3.976562 -27.441406 L 3.976562 0 L 22.230469 0 Z M 22.230469 -2.785156 "/></g></g></g></svg>