<svg xmlns="http://www.w3.org/2000/svg" xmlns:xlink="http://www.w3.org/1999/xlink" width="500" zoomAndPan="magnify" viewBox="0 0 375 374.999991" height="500" preserveAspectRatio="xMidYMid meet" version="1.0"><defs><g/></defs><g fill="#ffffff" fill-opacity="1"><g transform="translate(27.791018, 269.147795)"><g><path d="M 89.296875 3.433594 C 129.824219 3.433594 157.070312 -17.402344 161.878906 -50.371094 L 139.671875 -50.371094 C 135.089844 -32.285156 120.664062 -16.945312 89.066406 -16.945312 C 55.179688 -16.945312 30.910156 -45.105469 30.910156 -80.367188 C 30.910156 -115.398438 54.953125 -143.332031 88.609375 -143.332031 C 119.519531 -143.332031 133.71875 -127.992188 138.296875 -109.90625 L 160.507812 -109.90625 C 156.15625 -141.273438 129.367188 -163.710938 88.609375 -163.710938 C 43.046875 -163.710938 9.617188 -127.992188 9.386719 -80.367188 C 9.617188 -32.511719 43.273438 3.433594 89.296875 3.433594 Z M 89.296875 3.433594 "/></g></g></g><g fill="#ffffff" fill-opacity="1"><g transform="translate(198.14255, 269.147795)"><g><path d="M 136.695312 -129.136719 C 129.824219 -146.082031 108.53125 -163.710938 76.015625 -163.710938 C 45.105469 -163.710938 12.136719 -150.433594 12.136719 -120.664062 C 12.136719 -71.4375 116.085938 -78.992188 116.085938 -41.214844 C 116.085938 -27.019531 100.058594 -16.484375 74.183594 -16.484375 C 55.410156 -16.484375 36.636719 -24.042969 29.308594 -41.671875 L 9.386719 -36.636719 C 18.316406 -13.738281 40.296875 3.433594 73.269531 3.433594 C 108.53125 3.433594 139.671875 -11.449219 139.671875 -43.960938 C 139.671875 -98 34.34375 -95.023438 34.34375 -121.582031 C 34.34375 -136.695312 54.265625 -144.707031 73.726562 -144.707031 C 96.167969 -144.707031 111.507812 -134.863281 117.003906 -124.101562 Z M 136.695312 -129.136719 "/></g></g></g></svg>