<svg xmlns="http://www.w3.org/2000/svg" xmlns:xlink="http://www.w3.org/1999/xlink" width="500" zoomAndPan="magnify" viewBox="0 0 375 374.999991" height="500" preserveAspectRatio="xMidYMid meet" version="1.0"><defs><g/><clipPath id="8bc18aa3d1"><path d="M 150.339844 141 L 224.589844 141 L 224.589844 205.5625 L 150.339844 205.5625 Z M 150.339844 141 " clip-rule="nonzero"/></clipPath></defs><rect x="-37.5" width="450" fill="#ffffff" y="-37.499999" height="449.999989" fill-opacity="1"/><rect x="-37.5" width="450" fill="#ffffff" y="-37.499999" height="449.999989" fill-opacity="1"/><g clip-path="url(#8bc18aa3d1)"><path fill="#ffdee5" d="M 174.648438 143.378906 C 170.628906 143.566406 166.609375 143.820312 162.714844 144.949219 C 158.882812 146.082031 155.175781 148.222656 152.976562 151.617188 C 150.96875 154.699219 150.339844 158.535156 150.527344 162.246094 C 150.777344 165.957031 151.785156 169.542969 152.789062 173.066406 C 154.925781 180.675781 157.121094 188.285156 159.257812 195.832031 C 160.011719 198.535156 160.890625 201.367188 163.089844 203.066406 C 165.226562 204.699219 168.179688 204.890625 170.941406 204.953125 C 179.484375 205.140625 188.027344 205.265625 196.570312 205.328125 C 201.910156 205.390625 207.375 205.390625 212.527344 203.882812 C 214.726562 203.253906 216.925781 202.246094 218.246094 200.421875 C 219.25 199.039062 219.6875 197.339844 220.066406 195.644531 C 222.328125 185.769531 223.773438 175.707031 224.335938 165.582031 C 224.527344 161.871094 224.589844 158.160156 223.835938 154.574219 C 223.019531 150.988281 221.320312 147.464844 218.371094 145.203125 C 213.722656 141.554688 207.3125 141.679688 201.410156 141.996094 C 192.550781 142.433594 183.570312 142.9375 174.648438 143.378906 Z M 174.648438 143.378906 " fill-opacity="1" fill-rule="nonzero"/></g><path fill="#ff5794" d="M 211.335938 193.503906 C 205.554688 199.480469 196.699219 202.75 187.964844 202.5 C 179.234375 202.246094 170.816406 198.410156 164.976562 192.5 C 159.132812 186.585938 155.992188 178.597656 155.992188 170.675781 C 155.992188 166.839844 156.683594 162.9375 158.628906 159.542969 C 161.269531 154.949219 166.105469 151.554688 171.320312 149.417969 C 176.535156 147.277344 182.25 146.273438 187.902344 145.390625 C 191.859375 144.761719 195.945312 144.257812 199.902344 145.015625 C 204.234375 145.832031 208.128906 148.222656 211.019531 151.367188 C 213.910156 154.449219 215.855469 158.222656 217.113281 162.058594 C 220.757812 172.625 219.375 185.140625 211.335938 193.503906 Z M 211.335938 193.503906 " fill-opacity="1" fill-rule="nonzero"/><path fill="#000000" d="M 180.300781 144.636719 C 184.261719 144.636719 188.21875 144.574219 192.175781 144.574219 C 194.8125 144.574219 197.765625 144.449219 199.714844 142.625 C 201.660156 140.800781 201.910156 137.78125 202.101562 135.140625 C 202.855469 120.738281 203.609375 106.269531 201.597656 91.992188 C 201.03125 88.09375 199.964844 83.691406 196.570312 81.742188 C 193.496094 79.980469 189.789062 80.734375 186.269531 80.609375 C 182.816406 80.546875 178.921875 79.730469 176.28125 81.929688 C 173.832031 83.878906 173.519531 87.402344 173.394531 90.484375 C 173.015625 99.164062 172.703125 107.84375 172.324219 116.460938 C 172.011719 123.816406 171.695312 131.175781 172.890625 138.410156 C 173.203125 140.359375 173.707031 142.433594 175.339844 143.566406 C 176.722656 144.636719 178.605469 144.699219 180.300781 144.636719 Z M 180.300781 144.636719 " fill-opacity="1" fill-rule="nonzero"/><path fill="#ffffff" d="M 196.070312 110.171875 C 195.691406 110.171875 195.378906 109.855469 195.441406 109.476562 C 195.945312 101.804688 195.441406 94.132812 193.871094 86.648438 C 193.746094 86.269531 193.496094 86.082031 193.179688 86.082031 C 192.804688 86.144531 192.488281 85.832031 192.488281 85.515625 C 192.425781 85.136719 192.675781 84.824219 193.054688 84.824219 C 194.058594 84.761719 194.9375 85.390625 195.191406 86.394531 C 196.761719 94.007812 197.324219 101.804688 196.824219 109.605469 C 196.699219 109.855469 196.445312 110.171875 196.070312 110.171875 Z M 196.761719 113.882812 L 196.761719 111.929688 C 196.761719 111.554688 196.445312 111.300781 196.132812 111.300781 C 195.753906 111.300781 195.503906 111.554688 195.503906 111.867188 L 195.503906 113.882812 C 195.503906 114.257812 195.820312 114.445312 196.132812 114.445312 C 196.445312 114.382812 196.761719 114.195312 196.761719 113.882812 Z M 196.761719 113.882812 " fill-opacity="1" fill-rule="nonzero"/><g fill="#000000" fill-opacity="1"><g transform="translate(99.785154, 258.431102)"><g><path d="M 22.398438 -41.996094 C 14.894531 -30.910156 10.414062 -18.421875 5.542969 -6.101562 C 5.488281 -14.839844 5.375 -23.742188 1.289062 -31.691406 C 0.449219 -33.261719 -1.960938 -31.859375 -1.121094 -30.238281 C 3.695312 -20.71875 2.40625 -9.519531 2.800781 0.839844 C 2.800781 2.128906 4.816406 2.96875 5.429688 1.566406 C 11.480469 -12.710938 16.125 -27.605469 24.863281 -40.539062 C 25.871094 -42.109375 23.40625 -43.507812 22.398438 -41.996094 Z M 22.398438 -41.996094 "/></g></g></g><g fill="#000000" fill-opacity="1"><g transform="translate(121.846077, 258.431102)"><g><path d="M 19.933594 -14.839844 C 19.148438 -13.550781 15.398438 -8.792969 13.214844 -9.632812 C 11.144531 -10.527344 13.214844 -15.511719 14.839844 -18.8125 C 15.0625 -19.207031 15.230469 -19.597656 15.453125 -19.988281 C 15.847656 -20.71875 16.183594 -21.277344 16.351562 -21.558594 C 17.246094 -23.125 14.839844 -24.527344 13.886719 -22.957031 C 13.832031 -22.847656 13.71875 -22.734375 13.664062 -22.566406 C 13.550781 -22.453125 13.496094 -22.285156 13.382812 -22.117188 C 12.824219 -21.054688 12.039062 -19.652344 11.3125 -18.085938 C 9.6875 -14.894531 7.839844 -11.703125 5.039062 -10.078125 C 1.0625 -7.785156 1.847656 -12.488281 2.6875 -14.726562 C 3.640625 -17.078125 4.984375 -19.261719 5.992188 -21.558594 C 6.71875 -23.183594 4.3125 -24.636719 3.582031 -22.957031 C 2.015625 -19.484375 -5.375 -8.0625 2.40625 -6.71875 C 5.207031 -6.269531 7.558594 -7.785156 9.519531 -10.078125 C 9.742188 -8.847656 10.359375 -7.839844 11.535156 -7.222656 C 15.566406 -5.09375 20.550781 -10.472656 22.398438 -13.4375 C 23.292969 -15.007812 20.886719 -16.40625 19.933594 -14.839844 Z M 19.933594 -14.839844 "/></g></g></g><g fill="#000000" fill-opacity="1"><g transform="translate(141.779292, 258.431102)"><g/></g></g><g fill="#000000" fill-opacity="1"><g transform="translate(153.425668, 258.431102)"><g><path d="M 23.070312 -19.542969 C 18.535156 -16.964844 13.71875 -15.117188 9.183594 -12.710938 C 7.839844 -16.40625 5.933594 -19.820312 4.703125 -23.574219 C 3.976562 -25.8125 3.078125 -28.78125 4.421875 -31.019531 C 6.71875 -34.605469 14.390625 -33.820312 15.007812 -29.171875 C 15.175781 -27.4375 17.972656 -27.382812 17.75 -29.171875 C 16.855469 -36.675781 4.984375 -38.75 1.679688 -31.804688 C -1.398438 -25.308594 4.589844 -17.300781 6.664062 -11.253906 C 5.375 -10.527344 4.085938 -9.6875 2.910156 -8.734375 C -1.398438 -5.488281 -6.886719 3.136719 1.230469 6.101562 C 4.757812 7.390625 8.902344 4.871094 10.304688 1.566406 C 11.816406 -1.960938 11.144531 -6.214844 10.078125 -9.96875 C 14.78125 -12.488281 19.820312 -14.390625 24.527344 -17.078125 C 26.148438 -17.972656 24.695312 -20.4375 23.070312 -19.542969 Z M 8.289062 -3.304688 C 8.289062 -1.289062 8.007812 0.390625 6.605469 1.902344 C 4.871094 3.695312 1.792969 4.480469 0.335938 1.734375 C -1.511719 -1.792969 2.800781 -5.207031 5.320312 -7 C 5.992188 -7.503906 6.777344 -8.007812 7.503906 -8.457031 C 7.953125 -6.777344 8.289062 -5.039062 8.289062 -3.304688 Z M 8.289062 -3.304688 "/></g></g></g><g fill="#000000" fill-opacity="1"><g transform="translate(175.206623, 258.431102)"><g><path d="M 15.902344 -16.6875 C 13.832031 -14 12.207031 -10.917969 9.800781 -8.511719 C 8.679688 -7.449219 6.214844 -5.152344 4.480469 -5.710938 C 1.457031 -6.550781 2.96875 -12.597656 3.359375 -14.558594 C 4.3125 -19.09375 5.65625 -23.628906 7.113281 -28.109375 C 10.078125 -28.109375 13.046875 -28.054688 15.957031 -28.054688 C 17.804688 -28.054688 17.804688 -30.851562 15.957031 -30.910156 C 13.328125 -30.910156 10.695312 -30.910156 8.0625 -30.964844 C 9.296875 -34.605469 10.582031 -38.246094 11.816406 -41.828125 C 12.375 -43.5625 9.632812 -44.292969 9.070312 -42.554688 C 7.785156 -38.691406 6.550781 -34.828125 5.320312 -30.964844 C 3.917969 -30.964844 2.574219 -30.964844 1.230469 -30.964844 C -0.617188 -30.964844 -0.617188 -28.109375 1.230469 -28.109375 C 2.296875 -28.109375 3.359375 -28.109375 4.421875 -28.109375 C 3.640625 -25.644531 2.855469 -23.238281 2.128906 -20.773438 C 0.839844 -16.574219 -1.960938 -8.734375 0.558594 -4.589844 C 2.40625 -1.457031 7.28125 -3.023438 9.6875 -4.648438 C 13.496094 -7.222656 15.679688 -11.648438 18.367188 -15.285156 C 19.429688 -16.742188 16.964844 -18.140625 15.902344 -16.6875 Z M 15.902344 -16.6875 "/></g></g></g><g fill="#000000" fill-opacity="1"><g transform="translate(190.380504, 258.431102)"><g><path d="M 19.933594 -14.839844 C 19.148438 -13.550781 15.398438 -8.792969 13.214844 -9.632812 C 11.144531 -10.527344 13.214844 -15.511719 14.839844 -18.8125 C 15.0625 -19.207031 15.230469 -19.597656 15.453125 -19.988281 C 15.847656 -20.71875 16.183594 -21.277344 16.351562 -21.558594 C 17.246094 -23.125 14.839844 -24.527344 13.886719 -22.957031 C 13.832031 -22.847656 13.71875 -22.734375 13.664062 -22.566406 C 13.550781 -22.453125 13.496094 -22.285156 13.382812 -22.117188 C 12.824219 -21.054688 12.039062 -19.652344 11.3125 -18.085938 C 9.6875 -14.894531 7.839844 -11.703125 5.039062 -10.078125 C 1.0625 -7.785156 1.847656 -12.488281 2.6875 -14.726562 C 3.640625 -17.078125 4.984375 -19.261719 5.992188 -21.558594 C 6.71875 -23.183594 4.3125 -24.636719 3.582031 -22.957031 C 2.015625 -19.484375 -5.375 -8.0625 2.40625 -6.71875 C 5.207031 -6.269531 7.558594 -7.785156 9.519531 -10.078125 C 9.742188 -8.847656 10.359375 -7.839844 11.535156 -7.222656 C 15.566406 -5.09375 20.550781 -10.472656 22.398438 -13.4375 C 23.292969 -15.007812 20.886719 -16.40625 19.933594 -14.839844 Z M 19.933594 -14.839844 "/></g></g></g><g fill="#000000" fill-opacity="1"><g transform="translate(210.313718, 258.431102)"><g><path d="M 23.855469 -40.203125 C 24.46875 -41.882812 21.78125 -42.613281 21.109375 -40.933594 C 18.871094 -34.71875 16.351562 -28.5 14.167969 -22.175781 C 8.734375 -26.207031 2.464844 -21.839844 0.503906 -16.125 C -0.894531 -12.09375 0.839844 -5.542969 6.382812 -7 C 7.953125 -7.390625 9.351562 -8.398438 10.582031 -9.800781 C 10.078125 -7.558594 9.6875 -5.261719 9.40625 -3.023438 C 9.183594 -1.175781 12.039062 -1.230469 12.261719 -3.023438 C 12.992188 -9.238281 14.726562 -15.230469 16.796875 -21.167969 C 19.429688 -27.382812 21.503906 -33.820312 23.855469 -40.203125 Z M 3.023438 -10.976562 C 1.734375 -13.269531 3.527344 -16.6875 4.984375 -18.421875 C 7.167969 -21.054688 10.023438 -21.894531 12.992188 -19.878906 C 13.046875 -19.820312 13.046875 -19.820312 13.101562 -19.820312 C 12.375 -18.199219 11.535156 -16.628906 10.640625 -15.117188 C 9.464844 -13.160156 5.429688 -6.832031 3.023438 -10.976562 Z M 3.023438 -10.976562 "/></g></g></g><g fill="#000000" fill-opacity="1"><g transform="translate(228.567169, 258.431102)"><g><path d="M 10.863281 -16.964844 C 9.238281 -14.726562 7.449219 -12.320312 5.09375 -10.695312 C 3.582031 -9.6875 2.351562 -9.464844 2.519531 -11.648438 C 2.855469 -15.175781 4.816406 -18.589844 6.101562 -21.839844 C 6.777344 -23.574219 4.03125 -24.300781 3.359375 -22.621094 C 2.351562 -20.046875 1.121094 -17.527344 0.335938 -14.839844 C -0.222656 -12.824219 -0.953125 -10.136719 0.503906 -8.34375 C 4.480469 -3.304688 11.480469 -12.878906 13.328125 -15.566406 C 14.390625 -17.078125 11.984375 -18.421875 10.863281 -16.964844 Z M 6.382812 -26.933594 C 6.382812 -26.933594 6.4375 -26.933594 6.496094 -26.933594 C 7.222656 -27.046875 7.953125 -27.550781 7.894531 -28.390625 C 7.894531 -29.117188 7.28125 -29.902344 6.496094 -29.84375 C 6.4375 -29.84375 6.382812 -29.84375 6.382812 -29.789062 C 5.597656 -29.734375 4.871094 -29.230469 4.925781 -28.390625 C 4.984375 -27.660156 5.542969 -26.878906 6.382812 -26.933594 Z M 6.382812 -26.933594 "/></g></g></g><g fill="#000000" fill-opacity="1"><g transform="translate(238.925719, 258.431102)"><g><path d="M 20.605469 -15.566406 C 19.484375 -14.335938 17.582031 -14.222656 15.679688 -14.671875 C 16.628906 -17.527344 16.015625 -20.328125 13.664062 -22.453125 C 13.269531 -22.847656 12.824219 -23.125 12.429688 -23.292969 C 5.933594 -27.550781 -0.894531 -17.636719 0.28125 -11.535156 C 0.953125 -7.785156 4.144531 -5.320312 8.007812 -6.496094 C 10.527344 -7.222656 12.824219 -9.464844 14.335938 -11.816406 C 17.300781 -10.976562 20.605469 -11.367188 22.621094 -13.550781 C 23.855469 -14.894531 21.839844 -16.910156 20.605469 -15.566406 Z M 10.527344 -20.101562 C 12.429688 -22.007812 13.4375 -17.300781 13.328125 -16.519531 C 13.269531 -16.238281 13.214844 -15.957031 13.101562 -15.679688 C 10.808594 -16.910156 9.238281 -18.757812 10.527344 -20.101562 Z M 11.535156 -12.765625 C 10.695312 -11.648438 9.464844 -10.191406 8.175781 -9.632812 C 4.3125 -7.839844 2.519531 -11.757812 3.078125 -14.78125 C 3.527344 -17.078125 5.542969 -20.4375 8.007812 -21.390625 C 8.007812 -21.390625 8.007812 -21.335938 8.007812 -21.335938 C 6.664062 -17.75 8.625 -14.671875 11.648438 -12.933594 C 11.589844 -12.878906 11.589844 -12.824219 11.535156 -12.765625 Z M 11.535156 -12.765625 "/></g></g></g><g fill="#000000" fill-opacity="1"><g transform="translate(259.698816, 258.431102)"><g><path d="M 15.621094 -13.941406 C 11.984375 -13.269531 7.894531 -12.429688 4.3125 -10.808594 C 4.253906 -10.976562 4.253906 -11.144531 4.253906 -11.3125 C 4.03125 -12.375 3.808594 -13.496094 3.695312 -14.558594 C 3.582031 -15.398438 3.472656 -16.292969 3.582031 -17.132812 C 3.695312 -17.695312 3.863281 -18.308594 4.03125 -18.871094 C 5.765625 -20.71875 7.113281 -20.550781 8.121094 -18.367188 C 7.449219 -16.742188 10.078125 -16.015625 10.75 -17.636719 C 12.542969 -22.007812 6.886719 -23.964844 3.582031 -22.175781 C -0.503906 -19.988281 0.785156 -14.558594 1.457031 -10.863281 C 1.511719 -10.359375 1.625 -9.910156 1.679688 -9.464844 C 0.167969 -8.511719 -1.175781 -7.390625 -2.296875 -5.992188 C -4.421875 -3.304688 -6.777344 4.144531 -1.34375 4.589844 C 3.304688 4.984375 4.757812 -0.222656 4.871094 -3.808594 C 4.925781 -5.207031 4.871094 -6.664062 4.703125 -8.0625 C 8.625 -9.855469 13.496094 -10.695312 16.40625 -11.199219 C 18.140625 -11.535156 17.414062 -14.277344 15.621094 -13.941406 Z M 2.070312 -3.808594 C 2.015625 -2.574219 1.902344 -1.175781 1.34375 -0.0546875 C 0.167969 2.128906 -1.902344 1.734375 -1.734375 -0.785156 C -1.625 -3.246094 -0.113281 -5.152344 1.960938 -6.550781 C 2.070312 -5.65625 2.070312 -4.757812 2.070312 -3.808594 Z M 2.070312 -3.808594 "/></g></g></g><g fill="#000000" fill-opacity="1"><g transform="translate(133.400452, 282.129531)"><g><path d="M 7.296875 0 L 6.140625 0 L 1.9375 -6.515625 L 1.890625 -6.515625 C 1.898438 -6.265625 1.914062 -5.945312 1.9375 -5.5625 C 1.96875 -5.1875 1.984375 -4.796875 1.984375 -4.390625 L 1.984375 0 L 1.0625 0 L 1.0625 -7.859375 L 2.21875 -7.859375 L 6.40625 -1.359375 L 6.453125 -1.359375 C 6.441406 -1.472656 6.429688 -1.644531 6.421875 -1.875 C 6.410156 -2.113281 6.398438 -2.367188 6.390625 -2.640625 C 6.378906 -2.921875 6.375 -3.179688 6.375 -3.421875 L 6.375 -7.859375 L 7.296875 -7.859375 Z M 7.296875 0 "/></g></g></g><g fill="#000000" fill-opacity="1"><g transform="translate(146.594525, 282.129531)"><g><path d="M 6 0 L 5.046875 -2.4375 L 1.9375 -2.4375 L 1 0 L 0 0 L 3.0625 -7.890625 L 3.953125 -7.890625 L 7.015625 0 Z M 4.75 -3.3125 L 3.875 -5.6875 C 3.851562 -5.75 3.816406 -5.851562 3.765625 -6 C 3.710938 -6.15625 3.660156 -6.316406 3.609375 -6.484375 C 3.566406 -6.648438 3.53125 -6.773438 3.5 -6.859375 C 3.4375 -6.628906 3.375 -6.40625 3.3125 -6.1875 C 3.25 -5.976562 3.195312 -5.8125 3.15625 -5.6875 L 2.265625 -3.3125 Z M 4.75 -3.3125 "/></g></g></g><g fill="#000000" fill-opacity="1"><g transform="translate(158.458531, 282.129531)"><g><path d="M 3.28125 0 L 0.4375 0 L 0.4375 -0.578125 L 1.359375 -0.78125 L 1.359375 -7.0625 L 0.4375 -7.28125 L 0.4375 -7.859375 L 3.28125 -7.859375 L 3.28125 -7.28125 L 2.359375 -7.0625 L 2.359375 -0.78125 L 3.28125 -0.578125 Z M 3.28125 0 "/></g></g></g><g fill="#000000" fill-opacity="1"><g transform="translate(167.024877, 282.129531)"><g><path d="M 1.0625 0 L 1.0625 -7.859375 L 2.0625 -7.859375 L 2.0625 -0.875 L 5.484375 -0.875 L 5.484375 0 Z M 1.0625 0 "/></g></g></g><g fill="#000000" fill-opacity="1"><g transform="translate(177.624781, 282.129531)"><g/></g></g><g fill="#000000" fill-opacity="1"><g transform="translate(186.465936, 282.129531)"><g><path d="M 5.515625 -2.09375 C 5.515625 -1.40625 5.257812 -0.863281 4.75 -0.46875 C 4.25 -0.0820312 3.570312 0.109375 2.71875 0.109375 C 2.28125 0.109375 1.875 0.0703125 1.5 0 C 1.125 -0.0625 0.8125 -0.148438 0.5625 -0.265625 L 0.5625 -1.203125 C 0.820312 -1.085938 1.148438 -0.984375 1.546875 -0.890625 C 1.941406 -0.796875 2.347656 -0.75 2.765625 -0.75 C 3.335938 -0.75 3.773438 -0.863281 4.078125 -1.09375 C 4.378906 -1.320312 4.53125 -1.628906 4.53125 -2.015625 C 4.53125 -2.265625 4.472656 -2.476562 4.359375 -2.65625 C 4.253906 -2.832031 4.066406 -2.992188 3.796875 -3.140625 C 3.523438 -3.285156 3.15625 -3.445312 2.6875 -3.625 C 2.007812 -3.875 1.5 -4.171875 1.15625 -4.515625 C 0.820312 -4.867188 0.65625 -5.351562 0.65625 -5.96875 C 0.65625 -6.375 0.757812 -6.726562 0.96875 -7.03125 C 1.1875 -7.332031 1.484375 -7.5625 1.859375 -7.71875 C 2.234375 -7.882812 2.671875 -7.96875 3.171875 -7.96875 C 3.597656 -7.96875 3.988281 -7.925781 4.34375 -7.84375 C 4.707031 -7.757812 5.035156 -7.65625 5.328125 -7.53125 L 5.03125 -6.671875 C 4.757812 -6.796875 4.460938 -6.894531 4.140625 -6.96875 C 3.816406 -7.050781 3.484375 -7.09375 3.140625 -7.09375 C 2.648438 -7.09375 2.28125 -6.988281 2.03125 -6.78125 C 1.78125 -6.570312 1.65625 -6.296875 1.65625 -5.953125 C 1.65625 -5.691406 1.707031 -5.472656 1.8125 -5.296875 C 1.925781 -5.117188 2.109375 -4.957031 2.359375 -4.8125 C 2.609375 -4.664062 2.945312 -4.515625 3.375 -4.359375 C 3.832031 -4.191406 4.222656 -4.007812 4.546875 -3.8125 C 4.867188 -3.625 5.109375 -3.394531 5.265625 -3.125 C 5.429688 -2.851562 5.515625 -2.507812 5.515625 -2.09375 Z M 5.515625 -2.09375 "/></g></g></g><g fill="#000000" fill-opacity="1"><g transform="translate(197.340649, 282.129531)"><g><path d="M 6 0 L 5.046875 -2.4375 L 1.9375 -2.4375 L 1 0 L 0 0 L 3.0625 -7.890625 L 3.953125 -7.890625 L 7.015625 0 Z M 4.75 -3.3125 L 3.875 -5.6875 C 3.851562 -5.75 3.816406 -5.851562 3.765625 -6 C 3.710938 -6.15625 3.660156 -6.316406 3.609375 -6.484375 C 3.566406 -6.648438 3.53125 -6.773438 3.5 -6.859375 C 3.4375 -6.628906 3.375 -6.40625 3.3125 -6.1875 C 3.25 -5.976562 3.195312 -5.8125 3.15625 -5.6875 L 2.265625 -3.3125 Z M 4.75 -3.3125 "/></g></g></g><g fill="#000000" fill-opacity="1"><g transform="translate(209.204658, 282.129531)"><g><path d="M 1.0625 0 L 1.0625 -7.859375 L 2.0625 -7.859375 L 2.0625 -0.875 L 5.484375 -0.875 L 5.484375 0 Z M 1.0625 0 "/></g></g></g><g fill="#000000" fill-opacity="1"><g transform="translate(219.804564, 282.129531)"><g><path d="M 7.921875 -3.9375 C 7.921875 -3.125 7.78125 -2.414062 7.5 -1.8125 C 7.226562 -1.207031 6.820312 -0.734375 6.28125 -0.390625 C 5.75 -0.0546875 5.085938 0.109375 4.296875 0.109375 C 3.484375 0.109375 2.804688 -0.0546875 2.265625 -0.390625 C 1.734375 -0.734375 1.332031 -1.207031 1.0625 -1.8125 C 0.800781 -2.425781 0.671875 -3.140625 0.671875 -3.953125 C 0.671875 -4.742188 0.800781 -5.441406 1.0625 -6.046875 C 1.332031 -6.660156 1.734375 -7.132812 2.265625 -7.46875 C 2.804688 -7.800781 3.488281 -7.96875 4.3125 -7.96875 C 5.09375 -7.96875 5.75 -7.800781 6.28125 -7.46875 C 6.820312 -7.132812 7.226562 -6.664062 7.5 -6.0625 C 7.78125 -5.457031 7.921875 -4.75 7.921875 -3.9375 Z M 1.71875 -3.9375 C 1.71875 -2.945312 1.925781 -2.164062 2.34375 -1.59375 C 2.757812 -1.03125 3.410156 -0.75 4.296875 -0.75 C 5.179688 -0.75 5.832031 -1.03125 6.25 -1.59375 C 6.664062 -2.164062 6.875 -2.945312 6.875 -3.9375 C 6.875 -4.925781 6.664062 -5.703125 6.25 -6.265625 C 5.84375 -6.828125 5.195312 -7.109375 4.3125 -7.109375 C 3.414062 -7.109375 2.757812 -6.828125 2.34375 -6.265625 C 1.925781 -5.703125 1.71875 -4.925781 1.71875 -3.9375 Z M 1.71875 -3.9375 "/></g></g></g><g fill="#000000" fill-opacity="1"><g transform="translate(233.229479, 282.129531)"><g><path d="M 7.296875 0 L 6.140625 0 L 1.9375 -6.515625 L 1.890625 -6.515625 C 1.898438 -6.265625 1.914062 -5.945312 1.9375 -5.5625 C 1.96875 -5.1875 1.984375 -4.796875 1.984375 -4.390625 L 1.984375 0 L 1.0625 0 L 1.0625 -7.859375 L 2.21875 -7.859375 L 6.40625 -1.359375 L 6.453125 -1.359375 C 6.441406 -1.472656 6.429688 -1.644531 6.421875 -1.875 C 6.410156 -2.113281 6.398438 -2.367188 6.390625 -2.640625 C 6.378906 -2.921875 6.375 -3.179688 6.375 -3.421875 L 6.375 -7.859375 L 7.296875 -7.859375 Z M 7.296875 0 "/></g></g></g></svg>