<svg xmlns="http://www.w3.org/2000/svg" xmlns:xlink="http://www.w3.org/1999/xlink" width="500" zoomAndPan="magnify" viewBox="0 0 375 374.999991" height="500" preserveAspectRatio="xMidYMid meet" version="1.0"><defs><g/><clipPath id="5b29365237"><path d="M 99 136 L 112 136 L 112 141 L 99 141 Z M 99 136 " clip-rule="nonzero"/></clipPath><clipPath id="c7d1469a48"><path d="M 46.039062 177.042969 L 136.199219 112.300781 L 197.878906 198.199219 L 107.71875 262.941406 Z M 46.039062 177.042969 " clip-rule="nonzero"/></clipPath><clipPath id="3ba8d87df9"><path d="M 46.039062 177.042969 L 136.199219 112.300781 L 197.878906 198.199219 L 107.71875 262.941406 Z M 46.039062 177.042969 " clip-rule="nonzero"/></clipPath><clipPath id="d85443d34d"><path d="M 105 135 L 115 135 L 115 141 L 105 141 Z M 105 135 " clip-rule="nonzero"/></clipPath><clipPath id="f1f87ab08b"><path d="M 46.039062 177.042969 L 136.199219 112.300781 L 197.878906 198.199219 L 107.71875 262.941406 Z M 46.039062 177.042969 " clip-rule="nonzero"/></clipPath><clipPath id="c2f9e7fac2"><path d="M 46.039062 177.042969 L 136.199219 112.300781 L 197.878906 198.199219 L 107.71875 262.941406 Z M 46.039062 177.042969 " clip-rule="nonzero"/></clipPath><clipPath id="46c93fbbdf"><path d="M 113 135 L 121 135 L 121 141 L 113 141 Z M 113 135 " clip-rule="nonzero"/></clipPath><clipPath id="e969a3abd7"><path d="M 46.039062 177.042969 L 136.199219 112.300781 L 197.878906 198.199219 L 107.71875 262.941406 Z M 46.039062 177.042969 " clip-rule="nonzero"/></clipPath><clipPath id="36ff04ba51"><path d="M 46.039062 177.042969 L 136.199219 112.300781 L 197.878906 198.199219 L 107.71875 262.941406 Z M 46.039062 177.042969 " clip-rule="nonzero"/></clipPath><clipPath id="92e5f813f1"><path d="M 121 135 L 128 135 L 128 141 L 121 141 Z M 121 135 " clip-rule="nonzero"/></clipPath><clipPath id="ac6e922b70"><path d="M 46.039062 177.042969 L 136.199219 112.300781 L 197.878906 198.199219 L 107.71875 262.941406 Z M 46.039062 177.042969 " clip-rule="nonzero"/></clipPath><clipPath id="f33cf97a20"><path d="M 46.039062 177.042969 L 136.199219 112.300781 L 197.878906 198.199219 L 107.71875 262.941406 Z M 46.039062 177.042969 " clip-rule="nonzero"/></clipPath><clipPath id="29d99576e7"><path d="M 129 135 L 136 135 L 136 141 L 129 141 Z M 129 135 " clip-rule="nonzero"/></clipPath><clipPath id="f97e0bdfdc"><path d="M 46.039062 177.042969 L 136.199219 112.300781 L 197.878906 198.199219 L 107.71875 262.941406 Z M 46.039062 177.042969 " clip-rule="nonzero"/></clipPath><clipPath id="7a7ee29c86"><path d="M 46.039062 177.042969 L 136.199219 112.300781 L 197.878906 198.199219 L 107.71875 262.941406 Z M 46.039062 177.042969 " clip-rule="nonzero"/></clipPath><clipPath id="dc656d371c"><path d="M 134 136 L 144 136 L 144 141 L 134 141 Z M 134 136 " clip-rule="nonzero"/></clipPath><clipPath id="59409a5cc7"><path d="M 46.039062 177.042969 L 136.199219 112.300781 L 197.878906 198.199219 L 107.71875 262.941406 Z M 46.039062 177.042969 " clip-rule="nonzero"/></clipPath><clipPath id="1808a9bf53"><path d="M 46.039062 177.042969 L 136.199219 112.300781 L 197.878906 198.199219 L 107.71875 262.941406 Z M 46.039062 177.042969 " clip-rule="nonzero"/></clipPath><clipPath id="05059f661c"><path d="M 138 136 L 150 136 L 150 142 L 138 142 Z M 138 136 " clip-rule="nonzero"/></clipPath><clipPath id="05a92a5c73"><path d="M 46.039062 177.042969 L 136.199219 112.300781 L 197.878906 198.199219 L 107.71875 262.941406 Z M 46.039062 177.042969 " clip-rule="nonzero"/></clipPath><clipPath id="8a9c675604"><path d="M 46.039062 177.042969 L 136.199219 112.300781 L 197.878906 198.199219 L 107.71875 262.941406 Z M 46.039062 177.042969 " clip-rule="nonzero"/></clipPath><clipPath id="af1c826a17"><path d="M 85 142 L 96 142 L 96 152 L 85 152 Z M 85 142 " clip-rule="nonzero"/></clipPath><clipPath id="923da096e6"><path d="M 46.039062 177.042969 L 136.199219 112.300781 L 197.878906 198.199219 L 107.71875 262.941406 Z M 46.039062 177.042969 " clip-rule="nonzero"/></clipPath><clipPath id="ec9b230a9f"><path d="M 46.039062 177.042969 L 136.199219 112.300781 L 197.878906 198.199219 L 107.71875 262.941406 Z M 46.039062 177.042969 " clip-rule="nonzero"/></clipPath><clipPath id="8d3405ec7a"><path d="M 90 142 L 101 142 L 101 151 L 90 151 Z M 90 142 " clip-rule="nonzero"/></clipPath><clipPath id="1c40121bab"><path d="M 46.039062 177.042969 L 136.199219 112.300781 L 197.878906 198.199219 L 107.71875 262.941406 Z M 46.039062 177.042969 " clip-rule="nonzero"/></clipPath><clipPath id="6aca24009d"><path d="M 46.039062 177.042969 L 136.199219 112.300781 L 197.878906 198.199219 L 107.71875 262.941406 Z M 46.039062 177.042969 " clip-rule="nonzero"/></clipPath><clipPath id="7c1b36b0a2"><path d="M 100 141 L 111 141 L 111 150 L 100 150 Z M 100 141 " clip-rule="nonzero"/></clipPath><clipPath id="419066bb51"><path d="M 46.039062 177.042969 L 136.199219 112.300781 L 197.878906 198.199219 L 107.71875 262.941406 Z M 46.039062 177.042969 " clip-rule="nonzero"/></clipPath><clipPath id="e5a280e4e4"><path d="M 46.039062 177.042969 L 136.199219 112.300781 L 197.878906 198.199219 L 107.71875 262.941406 Z M 46.039062 177.042969 " clip-rule="nonzero"/></clipPath><clipPath id="0bf54e845e"><path d="M 113 141 L 123 141 L 123 150 L 113 150 Z M 113 141 " clip-rule="nonzero"/></clipPath><clipPath id="cb86bee6a2"><path d="M 46.039062 177.042969 L 136.199219 112.300781 L 197.878906 198.199219 L 107.71875 262.941406 Z M 46.039062 177.042969 " clip-rule="nonzero"/></clipPath><clipPath id="3f56076728"><path d="M 46.039062 177.042969 L 136.199219 112.300781 L 197.878906 198.199219 L 107.71875 262.941406 Z M 46.039062 177.042969 " clip-rule="nonzero"/></clipPath><clipPath id="d8e5ca41f8"><path d="M 126 142 L 136 142 L 136 151 L 126 151 Z M 126 142 " clip-rule="nonzero"/></clipPath><clipPath id="9f63a22ba4"><path d="M 46.039062 177.042969 L 136.199219 112.300781 L 197.878906 198.199219 L 107.71875 262.941406 Z M 46.039062 177.042969 " clip-rule="nonzero"/></clipPath><clipPath id="74c1a708dc"><path d="M 46.039062 177.042969 L 136.199219 112.300781 L 197.878906 198.199219 L 107.71875 262.941406 Z M 46.039062 177.042969 " clip-rule="nonzero"/></clipPath><clipPath id="be3a36ace7"><path d="M 138 142 L 148 142 L 148 151 L 138 151 Z M 138 142 " clip-rule="nonzero"/></clipPath><clipPath id="317fd936c9"><path d="M 46.039062 177.042969 L 136.199219 112.300781 L 197.878906 198.199219 L 107.71875 262.941406 Z M 46.039062 177.042969 " clip-rule="nonzero"/></clipPath><clipPath id="e147343b52"><path d="M 46.039062 177.042969 L 136.199219 112.300781 L 197.878906 198.199219 L 107.71875 262.941406 Z M 46.039062 177.042969 " clip-rule="nonzero"/></clipPath><clipPath id="c6303078dc"><path d="M 148 143 L 158 143 L 158 152 L 148 152 Z M 148 143 " clip-rule="nonzero"/></clipPath><clipPath id="9f09b4e2b7"><path d="M 46.039062 177.042969 L 136.199219 112.300781 L 197.878906 198.199219 L 107.71875 262.941406 Z M 46.039062 177.042969 " clip-rule="nonzero"/></clipPath><clipPath id="0937f6b178"><path d="M 46.039062 177.042969 L 136.199219 112.300781 L 197.878906 198.199219 L 107.71875 262.941406 Z M 46.039062 177.042969 " clip-rule="nonzero"/></clipPath><clipPath id="ad56182575"><path d="M 153 143 L 164 143 L 164 153 L 153 153 Z M 153 143 " clip-rule="nonzero"/></clipPath><clipPath id="8d3c017c5b"><path d="M 46.039062 177.042969 L 136.199219 112.300781 L 197.878906 198.199219 L 107.71875 262.941406 Z M 46.039062 177.042969 " clip-rule="nonzero"/></clipPath><clipPath id="04ea662b0e"><path d="M 46.039062 177.042969 L 136.199219 112.300781 L 197.878906 198.199219 L 107.71875 262.941406 Z M 46.039062 177.042969 " clip-rule="nonzero"/></clipPath><clipPath id="e05c0be064"><path d="M 74 153 L 83 153 L 83 165 L 74 165 Z M 74 153 " clip-rule="nonzero"/></clipPath><clipPath id="ef1bb7e7f4"><path d="M 46.039062 177.042969 L 136.199219 112.300781 L 197.878906 198.199219 L 107.71875 262.941406 Z M 46.039062 177.042969 " clip-rule="nonzero"/></clipPath><clipPath id="a0506df83d"><path d="M 46.039062 177.042969 L 136.199219 112.300781 L 197.878906 198.199219 L 107.71875 262.941406 Z M 46.039062 177.042969 " clip-rule="nonzero"/></clipPath><clipPath id="237bc66b47"><path d="M 78 152 L 88 152 L 88 164 L 78 164 Z M 78 152 " clip-rule="nonzero"/></clipPath><clipPath id="af7fe2d134"><path d="M 46.039062 177.042969 L 136.199219 112.300781 L 197.878906 198.199219 L 107.71875 262.941406 Z M 46.039062 177.042969 " clip-rule="nonzero"/></clipPath><clipPath id="ce824e0d56"><path d="M 46.039062 177.042969 L 136.199219 112.300781 L 197.878906 198.199219 L 107.71875 262.941406 Z M 46.039062 177.042969 " clip-rule="nonzero"/></clipPath><clipPath id="4b806c7a25"><path d="M 87 151 L 99 151 L 99 163 L 87 163 Z M 87 151 " clip-rule="nonzero"/></clipPath><clipPath id="e10597adf7"><path d="M 46.039062 177.042969 L 136.199219 112.300781 L 197.878906 198.199219 L 107.71875 262.941406 Z M 46.039062 177.042969 " clip-rule="nonzero"/></clipPath><clipPath id="e503a016c6"><path d="M 46.039062 177.042969 L 136.199219 112.300781 L 197.878906 198.199219 L 107.71875 262.941406 Z M 46.039062 177.042969 " clip-rule="nonzero"/></clipPath><clipPath id="4adff645f2"><path d="M 102 151 L 114 151 L 114 163 L 102 163 Z M 102 151 " clip-rule="nonzero"/></clipPath><clipPath id="642634c77c"><path d="M 46.039062 177.042969 L 136.199219 112.300781 L 197.878906 198.199219 L 107.71875 262.941406 Z M 46.039062 177.042969 " clip-rule="nonzero"/></clipPath><clipPath id="530a675284"><path d="M 46.039062 177.042969 L 136.199219 112.300781 L 197.878906 198.199219 L 107.71875 262.941406 Z M 46.039062 177.042969 " clip-rule="nonzero"/></clipPath><clipPath id="219257aea7"><path d="M 118 151 L 131 151 L 131 163 L 118 163 Z M 118 151 " clip-rule="nonzero"/></clipPath><clipPath id="b8af9e1953"><path d="M 46.039062 177.042969 L 136.199219 112.300781 L 197.878906 198.199219 L 107.71875 262.941406 Z M 46.039062 177.042969 " clip-rule="nonzero"/></clipPath><clipPath id="3ea62098fa"><path d="M 46.039062 177.042969 L 136.199219 112.300781 L 197.878906 198.199219 L 107.71875 262.941406 Z M 46.039062 177.042969 " clip-rule="nonzero"/></clipPath><clipPath id="7a501cfc50"><path d="M 135 152 L 147 152 L 147 163 L 135 163 Z M 135 152 " clip-rule="nonzero"/></clipPath><clipPath id="ee38c6ee59"><path d="M 46.039062 177.042969 L 136.199219 112.300781 L 197.878906 198.199219 L 107.71875 262.941406 Z M 46.039062 177.042969 " clip-rule="nonzero"/></clipPath><clipPath id="c9d783ea6f"><path d="M 46.039062 177.042969 L 136.199219 112.300781 L 197.878906 198.199219 L 107.71875 262.941406 Z M 46.039062 177.042969 " clip-rule="nonzero"/></clipPath><clipPath id="2a0ceb641e"><path d="M 149 152 L 160 152 L 160 164 L 149 164 Z M 149 152 " clip-rule="nonzero"/></clipPath><clipPath id="e16f97a0ed"><path d="M 46.039062 177.042969 L 136.199219 112.300781 L 197.878906 198.199219 L 107.71875 262.941406 Z M 46.039062 177.042969 " clip-rule="nonzero"/></clipPath><clipPath id="4805b1b7a4"><path d="M 46.039062 177.042969 L 136.199219 112.300781 L 197.878906 198.199219 L 107.71875 262.941406 Z M 46.039062 177.042969 " clip-rule="nonzero"/></clipPath><clipPath id="73036d6f51"><path d="M 161 153 L 170 153 L 170 165 L 161 165 Z M 161 153 " clip-rule="nonzero"/></clipPath><clipPath id="f4fe462836"><path d="M 46.039062 177.042969 L 136.199219 112.300781 L 197.878906 198.199219 L 107.71875 262.941406 Z M 46.039062 177.042969 " clip-rule="nonzero"/></clipPath><clipPath id="8b3efaa5dc"><path d="M 46.039062 177.042969 L 136.199219 112.300781 L 197.878906 198.199219 L 107.71875 262.941406 Z M 46.039062 177.042969 " clip-rule="nonzero"/></clipPath><clipPath id="ba8cf5baa9"><path d="M 166 154 L 174 154 L 174 167 L 166 167 Z M 166 154 " clip-rule="nonzero"/></clipPath><clipPath id="fc07c6ae04"><path d="M 46.039062 177.042969 L 136.199219 112.300781 L 197.878906 198.199219 L 107.71875 262.941406 Z M 46.039062 177.042969 " clip-rule="nonzero"/></clipPath><clipPath id="01d80ecafb"><path d="M 46.039062 177.042969 L 136.199219 112.300781 L 197.878906 198.199219 L 107.71875 262.941406 Z M 46.039062 177.042969 " clip-rule="nonzero"/></clipPath><clipPath id="68c9e6732b"><path d="M 70 165 L 77 165 L 77 179 L 70 179 Z M 70 165 " clip-rule="nonzero"/></clipPath><clipPath id="6c113d57b1"><path d="M 46.039062 177.042969 L 136.199219 112.300781 L 197.878906 198.199219 L 107.71875 262.941406 Z M 46.039062 177.042969 " clip-rule="nonzero"/></clipPath><clipPath id="beb25bb7fc"><path d="M 46.039062 177.042969 L 136.199219 112.300781 L 197.878906 198.199219 L 107.71875 262.941406 Z M 46.039062 177.042969 " clip-rule="nonzero"/></clipPath><clipPath id="67b1b011eb"><path d="M 77 164 L 87 164 L 87 178 L 77 178 Z M 77 164 " clip-rule="nonzero"/></clipPath><clipPath id="6924704d18"><path d="M 46.039062 177.042969 L 136.199219 112.300781 L 197.878906 198.199219 L 107.71875 262.941406 Z M 46.039062 177.042969 " clip-rule="nonzero"/></clipPath><clipPath id="6f190e8341"><path d="M 46.039062 177.042969 L 136.199219 112.300781 L 197.878906 198.199219 L 107.71875 262.941406 Z M 46.039062 177.042969 " clip-rule="nonzero"/></clipPath><clipPath id="b22920afe0"><path d="M 90 163 L 103 163 L 103 177 L 90 177 Z M 90 163 " clip-rule="nonzero"/></clipPath><clipPath id="8b54215b6e"><path d="M 46.039062 177.042969 L 136.199219 112.300781 L 197.878906 198.199219 L 107.71875 262.941406 Z M 46.039062 177.042969 " clip-rule="nonzero"/></clipPath><clipPath id="33993308dd"><path d="M 46.039062 177.042969 L 136.199219 112.300781 L 197.878906 198.199219 L 107.71875 262.941406 Z M 46.039062 177.042969 " clip-rule="nonzero"/></clipPath><clipPath id="c9fbe16c55"><path d="M 108 163 L 122 163 L 122 177 L 108 177 Z M 108 163 " clip-rule="nonzero"/></clipPath><clipPath id="37445c9c4b"><path d="M 46.039062 177.042969 L 136.199219 112.300781 L 197.878906 198.199219 L 107.71875 262.941406 Z M 46.039062 177.042969 " clip-rule="nonzero"/></clipPath><clipPath id="fb9e84580e"><path d="M 46.039062 177.042969 L 136.199219 112.300781 L 197.878906 198.199219 L 107.71875 262.941406 Z M 46.039062 177.042969 " clip-rule="nonzero"/></clipPath><clipPath id="f16eaf1b10"><path d="M 145 164 L 157 164 L 157 178 L 145 178 Z M 145 164 " clip-rule="nonzero"/></clipPath><clipPath id="b3c8cd6341"><path d="M 46.039062 177.042969 L 136.199219 112.300781 L 197.878906 198.199219 L 107.71875 262.941406 Z M 46.039062 177.042969 " clip-rule="nonzero"/></clipPath><clipPath id="1548abc1f5"><path d="M 46.039062 177.042969 L 136.199219 112.300781 L 197.878906 198.199219 L 107.71875 262.941406 Z M 46.039062 177.042969 " clip-rule="nonzero"/></clipPath><clipPath id="60275a543c"><path d="M 68 181 L 70 181 L 70 196 L 68 196 Z M 68 181 " clip-rule="nonzero"/></clipPath><clipPath id="520fd1a69e"><path d="M 46.039062 177.042969 L 136.199219 112.300781 L 197.878906 198.199219 L 107.71875 262.941406 Z M 46.039062 177.042969 " clip-rule="nonzero"/></clipPath><clipPath id="d11e75577b"><path d="M 46.039062 177.042969 L 136.199219 112.300781 L 197.878906 198.199219 L 107.71875 262.941406 Z M 46.039062 177.042969 " clip-rule="nonzero"/></clipPath><clipPath id="fb1548b002"><path d="M 71 180 L 78 180 L 78 195 L 71 195 Z M 71 180 " clip-rule="nonzero"/></clipPath><clipPath id="e5b9a0dc59"><path d="M 46.039062 177.042969 L 136.199219 112.300781 L 197.878906 198.199219 L 107.71875 262.941406 Z M 46.039062 177.042969 " clip-rule="nonzero"/></clipPath><clipPath id="c84149f4cf"><path d="M 46.039062 177.042969 L 136.199219 112.300781 L 197.878906 198.199219 L 107.71875 262.941406 Z M 46.039062 177.042969 " clip-rule="nonzero"/></clipPath><clipPath id="7ba5d3244a"><path d="M 81 179 L 92 179 L 92 194 L 81 194 Z M 81 179 " clip-rule="nonzero"/></clipPath><clipPath id="5dc46c2d44"><path d="M 46.039062 177.042969 L 136.199219 112.300781 L 197.878906 198.199219 L 107.71875 262.941406 Z M 46.039062 177.042969 " clip-rule="nonzero"/></clipPath><clipPath id="0f876fd3be"><path d="M 46.039062 177.042969 L 136.199219 112.300781 L 197.878906 198.199219 L 107.71875 262.941406 Z M 46.039062 177.042969 " clip-rule="nonzero"/></clipPath><clipPath id="83e7b90d20"><path d="M 97 179 L 111 179 L 111 194 L 97 194 Z M 97 179 " clip-rule="nonzero"/></clipPath><clipPath id="e03636d19e"><path d="M 46.039062 177.042969 L 136.199219 112.300781 L 197.878906 198.199219 L 107.71875 262.941406 Z M 46.039062 177.042969 " clip-rule="nonzero"/></clipPath><clipPath id="c3ccb3aad8"><path d="M 46.039062 177.042969 L 136.199219 112.300781 L 197.878906 198.199219 L 107.71875 262.941406 Z M 46.039062 177.042969 " clip-rule="nonzero"/></clipPath><clipPath id="57e483cda0"><path d="M 117 179 L 131 179 L 131 194 L 117 194 Z M 117 179 " clip-rule="nonzero"/></clipPath><clipPath id="234c711b62"><path d="M 46.039062 177.042969 L 136.199219 112.300781 L 197.878906 198.199219 L 107.71875 262.941406 Z M 46.039062 177.042969 " clip-rule="nonzero"/></clipPath><clipPath id="954858abe6"><path d="M 46.039062 177.042969 L 136.199219 112.300781 L 197.878906 198.199219 L 107.71875 262.941406 Z M 46.039062 177.042969 " clip-rule="nonzero"/></clipPath><clipPath id="a2bf5000ba"><path d="M 70 198 L 76 198 L 76 212 L 70 212 Z M 70 198 " clip-rule="nonzero"/></clipPath><clipPath id="a8fc346e80"><path d="M 46.039062 177.042969 L 136.199219 112.300781 L 197.878906 198.199219 L 107.71875 262.941406 Z M 46.039062 177.042969 " clip-rule="nonzero"/></clipPath><clipPath id="50e2f155ea"><path d="M 46.039062 177.042969 L 136.199219 112.300781 L 197.878906 198.199219 L 107.71875 262.941406 Z M 46.039062 177.042969 " clip-rule="nonzero"/></clipPath><clipPath id="8acdd31c54"><path d="M 77 197 L 87 197 L 87 211 L 77 211 Z M 77 197 " clip-rule="nonzero"/></clipPath><clipPath id="543aff1687"><path d="M 46.039062 177.042969 L 136.199219 112.300781 L 197.878906 198.199219 L 107.71875 262.941406 Z M 46.039062 177.042969 " clip-rule="nonzero"/></clipPath><clipPath id="8d810fb68c"><path d="M 46.039062 177.042969 L 136.199219 112.300781 L 197.878906 198.199219 L 107.71875 262.941406 Z M 46.039062 177.042969 " clip-rule="nonzero"/></clipPath><clipPath id="c306626302"><path d="M 90 197 L 103 197 L 103 211 L 90 211 Z M 90 197 " clip-rule="nonzero"/></clipPath><clipPath id="99e2a89718"><path d="M 46.039062 177.042969 L 136.199219 112.300781 L 197.878906 198.199219 L 107.71875 262.941406 Z M 46.039062 177.042969 " clip-rule="nonzero"/></clipPath><clipPath id="1dd726aa7a"><path d="M 46.039062 177.042969 L 136.199219 112.300781 L 197.878906 198.199219 L 107.71875 262.941406 Z M 46.039062 177.042969 " clip-rule="nonzero"/></clipPath><clipPath id="3ac99dba68"><path d="M 107 197 L 121 197 L 121 211 L 107 211 Z M 107 197 " clip-rule="nonzero"/></clipPath><clipPath id="e32042d194"><path d="M 46.039062 177.042969 L 136.199219 112.300781 L 197.878906 198.199219 L 107.71875 262.941406 Z M 46.039062 177.042969 " clip-rule="nonzero"/></clipPath><clipPath id="17e6ef07b5"><path d="M 46.039062 177.042969 L 136.199219 112.300781 L 197.878906 198.199219 L 107.71875 262.941406 Z M 46.039062 177.042969 " clip-rule="nonzero"/></clipPath><clipPath id="bac997dcdc"><path d="M 74 214 L 83 214 L 83 226 L 74 226 Z M 74 214 " clip-rule="nonzero"/></clipPath><clipPath id="2a3dcabf49"><path d="M 46.039062 177.042969 L 136.199219 112.300781 L 197.878906 198.199219 L 107.71875 262.941406 Z M 46.039062 177.042969 " clip-rule="nonzero"/></clipPath><clipPath id="52675c217f"><path d="M 46.039062 177.042969 L 136.199219 112.300781 L 197.878906 198.199219 L 107.71875 262.941406 Z M 46.039062 177.042969 " clip-rule="nonzero"/></clipPath><clipPath id="f210907057"><path d="M 78 213 L 87 213 L 87 225 L 78 225 Z M 78 213 " clip-rule="nonzero"/></clipPath><clipPath id="2590f63d08"><path d="M 46.039062 177.042969 L 136.199219 112.300781 L 197.878906 198.199219 L 107.71875 262.941406 Z M 46.039062 177.042969 " clip-rule="nonzero"/></clipPath><clipPath id="18a7b64a82"><path d="M 46.039062 177.042969 L 136.199219 112.300781 L 197.878906 198.199219 L 107.71875 262.941406 Z M 46.039062 177.042969 " clip-rule="nonzero"/></clipPath><clipPath id="23d0d8d365"><path d="M 87 212 L 98 212 L 98 225 L 87 225 Z M 87 212 " clip-rule="nonzero"/></clipPath><clipPath id="4bd19cef81"><path d="M 46.039062 177.042969 L 136.199219 112.300781 L 197.878906 198.199219 L 107.71875 262.941406 Z M 46.039062 177.042969 " clip-rule="nonzero"/></clipPath><clipPath id="12f5e6f98e"><path d="M 46.039062 177.042969 L 136.199219 112.300781 L 197.878906 198.199219 L 107.71875 262.941406 Z M 46.039062 177.042969 " clip-rule="nonzero"/></clipPath><clipPath id="d7ac1218ee"><path d="M 84 226 L 95 226 L 95 236 L 84 236 Z M 84 226 " clip-rule="nonzero"/></clipPath><clipPath id="3d5a5361fd"><path d="M 46.039062 177.042969 L 136.199219 112.300781 L 197.878906 198.199219 L 107.71875 262.941406 Z M 46.039062 177.042969 " clip-rule="nonzero"/></clipPath><clipPath id="f57c49da7e"><path d="M 46.039062 177.042969 L 136.199219 112.300781 L 197.878906 198.199219 L 107.71875 262.941406 Z M 46.039062 177.042969 " clip-rule="nonzero"/></clipPath><clipPath id="00721eb5a3"><path d="M 90 226 L 100 226 L 100 235 L 90 235 Z M 90 226 " clip-rule="nonzero"/></clipPath><clipPath id="991358521c"><path d="M 46.039062 177.042969 L 136.199219 112.300781 L 197.878906 198.199219 L 107.71875 262.941406 Z M 46.039062 177.042969 " clip-rule="nonzero"/></clipPath><clipPath id="9285fc0490"><path d="M 46.039062 177.042969 L 136.199219 112.300781 L 197.878906 198.199219 L 107.71875 262.941406 Z M 46.039062 177.042969 " clip-rule="nonzero"/></clipPath><clipPath id="fdcd7748db"><path d="M 99 225 L 110 225 L 110 235 L 99 235 Z M 99 225 " clip-rule="nonzero"/></clipPath><clipPath id="1d3522073b"><path d="M 46.039062 177.042969 L 136.199219 112.300781 L 197.878906 198.199219 L 107.71875 262.941406 Z M 46.039062 177.042969 " clip-rule="nonzero"/></clipPath><clipPath id="620302554f"><path d="M 46.039062 177.042969 L 136.199219 112.300781 L 197.878906 198.199219 L 107.71875 262.941406 Z M 46.039062 177.042969 " clip-rule="nonzero"/></clipPath><clipPath id="f2a3aced1e"><path d="M 112 225 L 122 225 L 122 235 L 112 235 Z M 112 225 " clip-rule="nonzero"/></clipPath><clipPath id="6908518d75"><path d="M 46.039062 177.042969 L 136.199219 112.300781 L 197.878906 198.199219 L 107.71875 262.941406 Z M 46.039062 177.042969 " clip-rule="nonzero"/></clipPath><clipPath id="8d0dfc3870"><path d="M 46.039062 177.042969 L 136.199219 112.300781 L 197.878906 198.199219 L 107.71875 262.941406 Z M 46.039062 177.042969 " clip-rule="nonzero"/></clipPath><clipPath id="932a260149"><path d="M 98 236 L 110 236 L 110 243 L 98 243 Z M 98 236 " clip-rule="nonzero"/></clipPath><clipPath id="3614730fe3"><path d="M 46.039062 177.042969 L 136.199219 112.300781 L 197.878906 198.199219 L 107.71875 262.941406 Z M 46.039062 177.042969 " clip-rule="nonzero"/></clipPath><clipPath id="4ed8bca5e7"><path d="M 46.039062 177.042969 L 136.199219 112.300781 L 197.878906 198.199219 L 107.71875 262.941406 Z M 46.039062 177.042969 " clip-rule="nonzero"/></clipPath><clipPath id="a01466783d"><path d="M 103 236 L 113 236 L 113 243 L 103 243 Z M 103 236 " clip-rule="nonzero"/></clipPath><clipPath id="6f832b594e"><path d="M 46.039062 177.042969 L 136.199219 112.300781 L 197.878906 198.199219 L 107.71875 262.941406 Z M 46.039062 177.042969 " clip-rule="nonzero"/></clipPath><clipPath id="5708b24937"><path d="M 46.039062 177.042969 L 136.199219 112.300781 L 197.878906 198.199219 L 107.71875 262.941406 Z M 46.039062 177.042969 " clip-rule="nonzero"/></clipPath><clipPath id="68ce9bff65"><path d="M 111 236 L 119 236 L 119 242 L 111 242 Z M 111 236 " clip-rule="nonzero"/></clipPath><clipPath id="141525b668"><path d="M 46.039062 177.042969 L 136.199219 112.300781 L 197.878906 198.199219 L 107.71875 262.941406 Z M 46.039062 177.042969 " clip-rule="nonzero"/></clipPath><clipPath id="c07bf46a14"><path d="M 46.039062 177.042969 L 136.199219 112.300781 L 197.878906 198.199219 L 107.71875 262.941406 Z M 46.039062 177.042969 " clip-rule="nonzero"/></clipPath><clipPath id="f95fe7b670"><path d="M 120 236 L 126 236 L 126 242 L 120 242 Z M 120 236 " clip-rule="nonzero"/></clipPath><clipPath id="a759ba5f97"><path d="M 46.039062 177.042969 L 136.199219 112.300781 L 197.878906 198.199219 L 107.71875 262.941406 Z M 46.039062 177.042969 " clip-rule="nonzero"/></clipPath><clipPath id="a71918d5e0"><path d="M 46.039062 177.042969 L 136.199219 112.300781 L 197.878906 198.199219 L 107.71875 262.941406 Z M 46.039062 177.042969 " clip-rule="nonzero"/></clipPath><clipPath id="36644bdf77"><path d="M 127 236 L 134 236 L 134 243 L 127 243 Z M 127 236 " clip-rule="nonzero"/></clipPath><clipPath id="f928eac1c6"><path d="M 46.039062 177.042969 L 136.199219 112.300781 L 197.878906 198.199219 L 107.71875 262.941406 Z M 46.039062 177.042969 " clip-rule="nonzero"/></clipPath><clipPath id="f95a62b3d4"><path d="M 46.039062 177.042969 L 136.199219 112.300781 L 197.878906 198.199219 L 107.71875 262.941406 Z M 46.039062 177.042969 " clip-rule="nonzero"/></clipPath><clipPath id="5f1356d3fe"><path d="M 132 236 L 142 236 L 142 243 L 132 243 Z M 132 236 " clip-rule="nonzero"/></clipPath><clipPath id="40c835c3bc"><path d="M 46.039062 177.042969 L 136.199219 112.300781 L 197.878906 198.199219 L 107.71875 262.941406 Z M 46.039062 177.042969 " clip-rule="nonzero"/></clipPath><clipPath id="179aa6a1ba"><path d="M 46.039062 177.042969 L 136.199219 112.300781 L 197.878906 198.199219 L 107.71875 262.941406 Z M 46.039062 177.042969 " clip-rule="nonzero"/></clipPath></defs><g clip-path="url(#5b29365237)"><g clip-path="url(#c7d1469a48)"><g clip-path="url(#3ba8d87df9)"><path fill="#4767bd" d="M 106.125 138.089844 C 100.40625 140.660156 100.0625 140.816406 99.710938 140.65625 C 100.117188 139.464844 108.164062 136.449219 111.078125 136.003906 C 110.960938 136.101562 110.960938 136.101562 110.367188 136.324219 C 109.199219 136.761719 108.027344 137.230469 106.125 138.089844 " fill-opacity="1" fill-rule="nonzero"/></g></g></g><g clip-path="url(#d85443d34d)"><g clip-path="url(#f1f87ab08b)"><g clip-path="url(#c2f9e7fac2)"><path fill="#4767bd" d="M 111.855469 137.816406 C 107.386719 140.523438 105.015625 140.671875 105.265625 139.84375 C 105.710938 138.378906 111.859375 135.988281 114.398438 135.785156 C 114.460938 135.785156 114.546875 135.789062 114.605469 135.804688 C 114.617188 135.824219 114.632812 135.859375 114.644531 135.878906 C 114.414062 136.265625 111.960938 137.753906 111.855469 137.816406 " fill-opacity="1" fill-rule="nonzero"/></g></g></g><g clip-path="url(#46c93fbbdf)"><g clip-path="url(#e969a3abd7)"><g clip-path="url(#36ff04ba51)"><path fill="#4767bd" d="M 119.40625 137.734375 C 117.476562 140.234375 113.445312 140.675781 113.253906 139.28125 C 113.039062 137.757812 117.070312 135.777344 119.265625 135.679688 C 120.921875 135.738281 119.464844 137.652344 119.40625 137.734375 " fill-opacity="1" fill-rule="nonzero"/></g></g></g><g clip-path="url(#92e5f813f1)"><g clip-path="url(#ac6e922b70)"><g clip-path="url(#f33cf97a20)"><path fill="#4767bd" d="M 127.363281 137.847656 C 127.753906 139.886719 124.570312 140.808594 122.777344 139.628906 C 120.890625 138.390625 122.261719 136.164062 124.101562 135.769531 C 124.328125 135.71875 124.515625 135.714844 124.667969 135.714844 C 126.09375 135.792969 127.175781 136.882812 127.363281 137.847656 " fill-opacity="1" fill-rule="nonzero"/></g></g></g><g clip-path="url(#29d99576e7)"><g clip-path="url(#f97e0bdfdc)"><g clip-path="url(#7a7ee29c86)"><path fill="#4767bd" d="M 134.917969 138.128906 C 136.300781 139.410156 135.863281 140.355469 134.589844 140.433594 C 131.527344 140.617188 128.371094 136.976562 129.378906 136.023438 C 129.539062 135.871094 129.796875 135.867188 129.988281 135.867188 C 131.28125 135.972656 133.625 136.925781 134.917969 138.128906 " fill-opacity="1" fill-rule="nonzero"/></g></g></g><g clip-path="url(#dc656d371c)"><g clip-path="url(#59409a5cc7)"><g clip-path="url(#1808a9bf53)"><path fill="#4767bd" d="M 141.269531 138.558594 C 143.378906 139.757812 143.933594 140.699219 143.234375 140.882812 C 142.761719 141.011719 141.492188 140.773438 139.46875 139.6875 C 137.761719 138.773438 134.40625 136.484375 134.425781 136.171875 C 134.480469 136.128906 134.511719 136.125 134.671875 136.128906 C 135.890625 136.265625 138.992188 137.257812 141.269531 138.558594 " fill-opacity="1" fill-rule="nonzero"/></g></g></g><g clip-path="url(#05059f661c)"><g clip-path="url(#05a92a5c73)"><g clip-path="url(#8a9c675604)"><path fill="#4767bd" d="M 145.492188 139.085938 C 147.410156 139.984375 149.421875 141.167969 149.328125 141.519531 C 149.222656 141.554688 149.003906 141.632812 147.296875 140.871094 C 147.21875 140.832031 138.195312 136.558594 138.085938 136.484375 L 138.152344 136.472656 C 138.789062 136.59375 142.113281 137.507812 145.492188 139.085938 " fill-opacity="1" fill-rule="nonzero"/></g></g></g><g clip-path="url(#af1c826a17)"><g clip-path="url(#923da096e6)"><g clip-path="url(#ec9b230a9f)"><path fill="#4767bd" d="M 90.914062 146.792969 C 87.394531 149.839844 85.425781 151.257812 85.058594 151.003906 C 84.910156 149.699219 92.84375 143.4375 95.054688 142.78125 L 95.136719 142.777344 C 95.15625 142.925781 95.175781 143.097656 90.914062 146.792969 " fill-opacity="1" fill-rule="nonzero"/></g></g></g><g clip-path="url(#8d3405ec7a)"><g clip-path="url(#1c40121bab)"><g clip-path="url(#6aca24009d)"><path fill="#4767bd" d="M 98.246094 146.226562 C 94.78125 149.796875 90.859375 151.320312 90.8125 149.664062 C 90.753906 147.414062 97.085938 142.617188 99.980469 142.242188 C 102.066406 142.261719 98.285156 146.1875 98.246094 146.226562 " fill-opacity="1" fill-rule="nonzero"/></g></g></g><g clip-path="url(#7c1b36b0a2)"><g clip-path="url(#419066bb51)"><g clip-path="url(#e5a280e4e4)"><path fill="#4767bd" d="M 109.515625 145.925781 C 107.078125 149.808594 101.429688 151.09375 100.710938 148.636719 C 100.015625 146.25 104.714844 142.160156 108.449219 141.90625 C 111.34375 141.988281 110.203125 144.835938 109.515625 145.925781 " fill-opacity="1" fill-rule="nonzero"/></g></g></g><g clip-path="url(#0bf54e845e)"><g clip-path="url(#cb86bee6a2)"><g clip-path="url(#3f56076728)"><path fill="#4767bd" d="M 122.445312 145.953125 C 121.621094 150.085938 115.429688 150.996094 113.761719 148.144531 C 112.320312 145.6875 115.441406 141.972656 119.0625 141.835938 C 121.933594 141.984375 122.769531 144.332031 122.445312 145.953125 " fill-opacity="1" fill-rule="nonzero"/></g></g></g><g clip-path="url(#d8e5ca41f8)"><g clip-path="url(#9f63a22ba4)"><g clip-path="url(#74c1a708dc)"><path fill="#4767bd" d="M 135.375 146.28125 C 136.1875 149.675781 131.929688 151.050781 128.878906 149.191406 C 125.511719 147.140625 126.058594 142.9375 128.984375 142.148438 C 129.390625 142.039062 129.761719 142.035156 130.058594 142.027344 C 133.042969 142.25 134.996094 144.699219 135.375 146.28125 " fill-opacity="1" fill-rule="nonzero"/></g></g></g><g clip-path="url(#be3a36ace7)"><g clip-path="url(#317fd936c9)"><g clip-path="url(#e147343b52)"><path fill="#4767bd" d="M 146.984375 146.871094 C 148.578125 149.390625 147.320312 151.171875 144.4375 150.46875 C 140.09375 149.40625 137.023438 143.890625 139.234375 142.65625 C 139.601562 142.453125 139.953125 142.453125 140.324219 142.453125 C 142.878906 142.71875 145.769531 144.957031 146.984375 146.871094 " fill-opacity="1" fill-rule="nonzero"/></g></g></g><g clip-path="url(#c6303078dc)"><g clip-path="url(#9f09b4e2b7)"><g clip-path="url(#0937f6b178)"><path fill="#4767bd" d="M 155.941406 147.679688 C 157.992188 149.878906 158.273438 151.597656 156.554688 151.433594 C 153.0625 151.105469 146.871094 144.078125 148.195312 143.164062 C 148.339844 143.0625 148.566406 143.070312 148.75 143.074219 C 150.78125 143.398438 154.105469 145.71875 155.941406 147.679688 " fill-opacity="1" fill-rule="nonzero"/></g></g></g><g clip-path="url(#ad56182575)"><g clip-path="url(#8d3c017c5b)"><g clip-path="url(#04ea662b0e)"><path fill="#4767bd" d="M 160.472656 148.5625 C 162.085938 150.042969 163.78125 151.871094 163.6875 152.386719 C 162.664062 152.996094 153.878906 143.96875 153.855469 143.839844 C 153.894531 143.832031 153.941406 143.820312 153.980469 143.8125 C 154.84375 144.101562 157.730469 146.046875 160.472656 148.5625 " fill-opacity="1" fill-rule="nonzero"/></g></g></g><g clip-path="url(#e05c0be064)"><g clip-path="url(#ef1bb7e7f4)"><g clip-path="url(#a0506df83d)"><path fill="#4767bd" d="M 78.660156 158.828125 C 75.316406 163.835938 74.875 164.191406 74.710938 164.324219 L 74.65625 164.277344 C 74.703125 164.125 74.753906 163.980469 75.035156 163.457031 L 75.050781 163.433594 C 77.957031 158.535156 77.957031 158.535156 79.695312 156.253906 L 81.539062 153.964844 C 81.90625 153.535156 82 153.453125 82.113281 153.363281 L 82.148438 153.402344 C 82.066406 153.597656 81.933594 153.925781 78.660156 158.828125 " fill-opacity="1" fill-rule="nonzero"/></g></g></g><g clip-path="url(#237bc66b47)"><g clip-path="url(#af7fe2d134)"><g clip-path="url(#ce824e0d56)"><path fill="#4767bd" d="M 85.28125 157.972656 C 82.777344 162.007812 79.316406 164.566406 78.785156 162.773438 C 78.078125 160.382812 83.449219 153.101562 86.351562 152.519531 C 88.039062 152.511719 86.589844 155.859375 85.28125 157.972656 " fill-opacity="1" fill-rule="nonzero"/></g></g></g><g clip-path="url(#4b806c7a25)"><g clip-path="url(#e10597adf7)"><g clip-path="url(#e503a016c6)"><path fill="#4767bd" d="M 97.367188 157.402344 C 95.117188 161.984375 89.132812 164.347656 88.085938 161.0625 C 87.140625 158.109375 91.363281 152.324219 95.660156 151.902344 C 98.667969 151.96875 98.46875 155.15625 97.367188 157.402344 " fill-opacity="1" fill-rule="nonzero"/></g></g></g><g clip-path="url(#4adff645f2)"><g clip-path="url(#642634c77c)"><g clip-path="url(#530a675284)"><path fill="#4767bd" d="M 113.285156 157.226562 C 111.929688 162.058594 104.699219 164.078125 102.539062 160.230469 C 100.804688 157.140625 104.183594 151.886719 109.289062 151.609375 C 113.296875 151.78125 113.867188 155.144531 113.285156 157.226562 " fill-opacity="1" fill-rule="nonzero"/></g></g></g><g clip-path="url(#219257aea7)"><g clip-path="url(#b8af9e1953)"><g clip-path="url(#3ea62098fa)"><path fill="#4767bd" d="M 130.066406 157.460938 C 129.863281 162.136719 123.46875 164.148438 120.003906 160.628906 C 116.953125 157.53125 119.007812 151.859375 124.425781 151.703125 C 128.476562 151.964844 130.164062 155.226562 130.066406 157.460938 " fill-opacity="1" fill-rule="nonzero"/></g></g></g><g clip-path="url(#7a501cfc50)"><g clip-path="url(#ee38c6ee59)"><g clip-path="url(#c9d783ea6f)"><path fill="#4767bd" d="M 146.003906 158.058594 C 146.800781 162.230469 142.34375 164.378906 138.316406 161.765625 C 133.730469 158.796875 134.425781 152.867188 138.363281 152.195312 C 138.648438 152.144531 139.035156 152.140625 139.328125 152.136719 C 143.21875 152.488281 145.574219 155.8125 146.003906 158.058594 " fill-opacity="1" fill-rule="nonzero"/></g></g></g><g clip-path="url(#2a0ceb641e)"><g clip-path="url(#e16f97a0ed)"><g clip-path="url(#4805b1b7a4)"><path fill="#4767bd" d="M 159.402344 158.960938 C 160.789062 162.464844 158.847656 164.691406 155.550781 163.375 C 150.523438 161.363281 148.296875 154.140625 151.351562 153 C 151.734375 152.859375 152.132812 152.863281 152.449219 152.867188 C 155.714844 153.296875 158.527344 156.757812 159.402344 158.960938 " fill-opacity="1" fill-rule="nonzero"/></g></g></g><g clip-path="url(#73036d6f51)"><g clip-path="url(#f4fe462836)"><g clip-path="url(#8b3efaa5dc)"><path fill="#4767bd" d="M 168.304688 160.078125 C 170.015625 163.191406 169.945312 165.355469 168.152344 164.800781 C 164.816406 163.777344 159.496094 154.679688 161.753906 153.867188 C 161.878906 153.820312 162.0625 153.832031 162.195312 153.835938 C 164.3125 154.320312 167.042969 157.777344 168.304688 160.078125 " fill-opacity="1" fill-rule="nonzero"/></g></g></g><g clip-path="url(#ba8cf5baa9)"><g clip-path="url(#fc07c6ae04)"><g clip-path="url(#01d80ecafb)"><path fill="#4767bd" d="M 173.425781 165.53125 C 173.566406 165.832031 173.59375 165.929688 173.621094 166.027344 L 173.570312 166.070312 C 172.804688 165.386719 166.84375 155.738281 166.523438 154.890625 L 166.558594 154.855469 C 166.675781 154.957031 166.722656 155.007812 167.019531 155.375 L 168.851562 157.8125 C 171.960938 162.582031 171.960938 162.582031 173.242188 165.152344 L 173.324219 165.320312 C 173.355469 165.382812 173.398438 165.46875 173.425781 165.53125 " fill-opacity="1" fill-rule="nonzero"/></g></g></g><g clip-path="url(#68c9e6732b)"><g clip-path="url(#6c113d57b1)"><g clip-path="url(#beb25bb7fc)"><path fill="#4767bd" d="M 75.261719 171.902344 C 73.789062 176.332031 71.65625 179.308594 71.035156 177.804688 C 70.164062 175.6875 73.300781 166.210938 75.675781 165.371094 C 76.964844 165.339844 76.105469 169.359375 75.261719 171.902344 " fill-opacity="1" fill-rule="nonzero"/></g></g></g><g clip-path="url(#67b1b011eb)"><g clip-path="url(#6924704d18)"><g clip-path="url(#6f190e8341)"><path fill="#4767bd" d="M 85.917969 171.078125 C 84.320312 176.289062 79.75 179.117188 78.15625 175.886719 C 76.523438 172.566406 79.660156 165.078125 83.773438 164.488281 C 86.640625 164.527344 86.753906 168.367188 85.917969 171.078125 " fill-opacity="1" fill-rule="nonzero"/></g></g></g><g clip-path="url(#b22920afe0)"><g clip-path="url(#8b54215b6e)"><g clip-path="url(#33993308dd)"><path fill="#4767bd" d="M 102.304688 170.640625 C 100.929688 176.375 93.628906 178.785156 91.144531 174.328125 C 89.046875 170.570312 92.199219 164.339844 97.699219 163.933594 C 102.1875 164.078125 102.90625 168.125 102.304688 170.640625 " fill-opacity="1" fill-rule="nonzero"/></g></g></g><g clip-path="url(#c9fbe16c55)"><g clip-path="url(#37445c9c4b)"><g clip-path="url(#fb9e84580e)"><path fill="#4767bd" d="M 121.09375 170.683594 C 120.289062 176.480469 112.648438 178.664062 109.242188 174.070312 C 106.464844 170.328125 109.199219 164.066406 115.148438 163.816406 C 119.871094 164.078125 121.464844 167.988281 121.09375 170.683594 " fill-opacity="1" fill-rule="nonzero"/></g></g></g><g clip-path="url(#f16eaf1b10)"><g clip-path="url(#b3c8cd6341)"><g clip-path="url(#1548abc1f5)"><path fill="#4767bd" d="M 156.757812 172.019531 C 157.203125 177.226562 152.082031 179.5 148.0625 175.878906 C 143.796875 172.039062 144.734375 165.121094 149.558594 164.835938 C 149.722656 164.824219 149.941406 164.835938 150.105469 164.835938 C 154.3125 165.300781 156.53125 169.316406 156.757812 172.019531 " fill-opacity="1" fill-rule="nonzero"/></g></g></g><g clip-path="url(#60275a543c)"><g clip-path="url(#520fd1a69e)"><g clip-path="url(#d11e75577b)"><path fill="#4767bd" d="M 69.820312 188.757812 C 69.753906 191.230469 69.5 195.429688 68.957031 195.476562 C 68.777344 195.3125 68.582031 194.804688 68.449219 192.253906 L 68.40625 188.78125 L 68.636719 184.566406 C 68.90625 181.800781 69.164062 181.527344 69.273438 181.410156 L 69.347656 181.402344 C 69.859375 181.886719 69.886719 186.253906 69.820312 188.757812 " fill-opacity="1" fill-rule="nonzero"/></g></g></g><g clip-path="url(#fb1548b002)"><g clip-path="url(#e5b9a0dc59)"><g clip-path="url(#c84149f4cf)"><path fill="#4767bd" d="M 77.648438 187.746094 C 77.34375 192.730469 74.949219 195.847656 73.070312 193.699219 C 70.558594 190.835938 71.222656 181.105469 74.753906 180.316406 C 77.0625 180.332031 77.835938 184.667969 77.648438 187.746094 " fill-opacity="1" fill-rule="nonzero"/></g></g></g><g clip-path="url(#7ba5d3244a)"><g clip-path="url(#5dc46c2d44)"><g clip-path="url(#0f876fd3be)"><path fill="#4767bd" d="M 91.941406 187.070312 C 91.386719 192.890625 85.898438 195.699219 82.902344 191.695312 C 79.953125 187.753906 81.707031 180.0625 86.78125 179.519531 C 90.824219 179.628906 92.230469 184 91.941406 187.070312 " fill-opacity="1" fill-rule="nonzero"/></g></g></g><g clip-path="url(#83e7b90d20)"><g clip-path="url(#e03636d19e)"><g clip-path="url(#c3ccb3aad8)"><path fill="#4767bd" d="M 110.761719 186.863281 C 110.078125 193.03125 102.765625 195.4375 99.082031 190.707031 C 95.855469 186.5625 98.183594 179.511719 104.394531 179.144531 C 109.628906 179.386719 111.078125 184.007812 110.761719 186.863281 " fill-opacity="1" fill-rule="nonzero"/></g></g></g><g clip-path="url(#57e483cda0)"><g clip-path="url(#234c711b62)"><g clip-path="url(#954858abe6)"><path fill="#4767bd" d="M 130.601562 187.140625 C 129.886719 193.335938 122.300781 195.566406 118.488281 190.699219 C 115.175781 186.46875 117.578125 179.476562 123.957031 179.261719 C 129.417969 179.640625 130.933594 184.296875 130.601562 187.140625 " fill-opacity="1" fill-rule="nonzero"/></g></g></g><g clip-path="url(#a2bf5000ba)"><g clip-path="url(#a8fc346e80)"><g clip-path="url(#50e2f155ea)"><path fill="#4767bd" d="M 75.378906 205.675781 C 76.292969 209.25 76.246094 212.527344 74.714844 211.515625 C 72.382812 209.972656 69.121094 199.648438 71.449219 198.703125 C 72.921875 198.683594 74.632812 202.769531 75.378906 205.675781 " fill-opacity="1" fill-rule="nonzero"/></g></g></g><g clip-path="url(#8acdd31c54)"><g clip-path="url(#543aff1687)"><g clip-path="url(#8d810fb68c)"><path fill="#4767bd" d="M 85.878906 204.863281 C 86.578125 209.378906 84.242188 212.117188 81.34375 210.1875 C 77.15625 207.40625 76.035156 198.734375 79.746094 197.820312 C 79.867188 197.789062 80.03125 197.773438 80.15625 197.757812 C 83.355469 197.8125 85.429688 201.945312 85.878906 204.863281 " fill-opacity="1" fill-rule="nonzero"/></g></g></g><g clip-path="url(#c306626302)"><g clip-path="url(#99e2a89718)"><g clip-path="url(#1dd726aa7a)"><path fill="#4767bd" d="M 102.023438 204.433594 C 102.164062 209.785156 96.828125 212.152344 92.8125 208.523438 C 89.058594 205.125 88.96875 197.644531 95.125 197.15625 C 99.757812 197.320312 101.949219 201.511719 102.023438 204.433594 " fill-opacity="1" fill-rule="nonzero"/></g></g></g><g clip-path="url(#3ac99dba68)"><g clip-path="url(#e32042d194)"><g clip-path="url(#17e6ef07b5)"><path fill="#4767bd" d="M 120.542969 204.476562 C 119.945312 210.46875 112.753906 212.269531 109.058594 207.347656 C 106.027344 203.320312 108.015625 197.304688 113.886719 197.03125 C 118.957031 197.328125 120.832031 201.5625 120.542969 204.476562 " fill-opacity="1" fill-rule="nonzero"/></g></g></g><g clip-path="url(#bac997dcdc)"><g clip-path="url(#2a3dcabf49)"><g clip-path="url(#52675c217f)"><path fill="#4767bd" d="M 79.382812 220.550781 C 81.359375 223.625 82.277344 225.324219 82.109375 225.597656 C 80.953125 225.691406 74.117188 215.476562 74.714844 214.5625 C 75.453125 214.503906 78.734375 219.539062 79.382812 220.550781 " fill-opacity="1" fill-rule="nonzero"/></g></g></g><g clip-path="url(#f210907057)"><g clip-path="url(#2590f63d08)"><g clip-path="url(#18a7b64a82)"><path fill="#4767bd" d="M 85.742188 219.726562 C 87.171875 222.566406 87.546875 225.210938 85.691406 224.726562 C 82.203125 223.8125 77.101562 215.3125 79.113281 213.769531 C 79.234375 213.679688 79.441406 213.625 79.589844 213.589844 C 81.578125 213.597656 84.242188 216.757812 85.742188 219.726562 " fill-opacity="1" fill-rule="nonzero"/></g></g></g><g clip-path="url(#23d0d8d365)"><g clip-path="url(#4bd19cef81)"><g clip-path="url(#12f5e6f98e)"><path fill="#4767bd" d="M 97.347656 219.179688 C 98.429688 222.890625 96.417969 225.613281 92.617188 223.382812 C 87.710938 220.503906 85.890625 213.664062 89.832031 212.929688 C 89.96875 212.90625 90.152344 212.894531 90.289062 212.878906 C 93.921875 212.972656 96.601562 216.617188 97.347656 219.179688 " fill-opacity="1" fill-rule="nonzero"/></g></g></g><g clip-path="url(#d7ac1218ee)"><g clip-path="url(#3d5a5361fd)"><g clip-path="url(#f57c49da7e)"><path fill="#4767bd" d="M 91.394531 231.59375 C 93.941406 234.035156 95.015625 235.328125 94.589844 235.433594 C 92.84375 235.863281 83.640625 227.78125 84.746094 226.785156 C 84.773438 226.761719 84.824219 226.746094 84.859375 226.730469 C 86.167969 226.710938 89.867188 230.125 91.394531 231.59375 " fill-opacity="1" fill-rule="nonzero"/></g></g></g><g clip-path="url(#00721eb5a3)"><g clip-path="url(#991358521c)"><g clip-path="url(#9285fc0490)"><path fill="#4767bd" d="M 98.296875 231.058594 C 99.433594 232.5625 100.878906 235.066406 99.074219 234.914062 C 95.839844 234.640625 88.757812 228.191406 90.539062 226.320312 C 90.734375 226.117188 91.015625 226.074219 91.242188 226.035156 C 93.507812 226.074219 96.488281 228.667969 98.296875 231.058594 " fill-opacity="1" fill-rule="nonzero"/></g></g></g><g clip-path="url(#fdcd7748db)"><g clip-path="url(#1d3522073b)"><g clip-path="url(#620302554f)"><path fill="#4767bd" d="M 108.90625 230.777344 C 109.972656 233.671875 108.667969 235.691406 105.089844 233.964844 C 100.480469 231.734375 98.183594 226.648438 101.371094 225.71875 C 101.617188 225.648438 101.960938 225.617188 102.21875 225.597656 C 105.769531 225.722656 108.164062 228.761719 108.90625 230.777344 " fill-opacity="1" fill-rule="nonzero"/></g></g></g><g clip-path="url(#f2a3aced1e)"><g clip-path="url(#6908518d75)"><g clip-path="url(#8d0dfc3870)"><path fill="#4767bd" d="M 121.074219 230.804688 C 120.886719 234.550781 116.824219 236.074219 113.691406 232.378906 C 111.277344 229.539062 111.953125 225.695312 115.972656 225.507812 C 119.320312 225.699219 121.195312 228.351562 121.074219 230.804688 " fill-opacity="1" fill-rule="nonzero"/></g></g></g><g clip-path="url(#932a260149)"><g clip-path="url(#3614730fe3)"><g clip-path="url(#4ed8bca5e7)"><path fill="#4767bd" d="M 105.660156 239.960938 C 109.445312 242.089844 109.445312 242.089844 109.5625 242.214844 C 109.542969 242.234375 109.523438 242.257812 109.507812 242.277344 C 106.714844 242.238281 97.125 237.371094 98.355469 236.617188 C 98.386719 236.597656 98.441406 236.59375 98.480469 236.582031 C 99.675781 236.59375 102.449219 238.152344 105.660156 239.960938 " fill-opacity="1" fill-rule="nonzero"/></g></g></g><g clip-path="url(#a01466783d)"><g clip-path="url(#6f832b594e)"><g clip-path="url(#5708b24937)"><path fill="#4767bd" d="M 110.980469 239.710938 C 113.625 242.015625 112.972656 242.050781 112.757812 242.0625 C 110.542969 242.179688 102.59375 237.71875 103.882812 236.382812 C 104.019531 236.238281 104.269531 236.210938 104.457031 236.1875 C 106.839844 236.253906 110.054688 238.902344 110.980469 239.710938 " fill-opacity="1" fill-rule="nonzero"/></g></g></g><g clip-path="url(#68ce9bff65)"><g clip-path="url(#141525b668)"><g clip-path="url(#c07bf46a14)"><path fill="#4767bd" d="M 117.984375 239.632812 C 118.296875 240.414062 119.082031 242.863281 116.070312 241.574219 C 112.5625 240.074219 110.472656 237.042969 112.339844 236.171875 C 112.625 236.039062 112.960938 236.015625 113.207031 236 C 115.539062 236.113281 117.320312 237.964844 117.984375 239.632812 " fill-opacity="1" fill-rule="nonzero"/></g></g></g><g clip-path="url(#f95fe7b670)"><g clip-path="url(#a759ba5f97)"><g clip-path="url(#a71918d5e0)"><path fill="#4767bd" d="M 125.375 239.734375 C 124.386719 242.371094 121.707031 242.960938 120.421875 239.933594 C 119.660156 238.136719 120.484375 236.148438 122.921875 236.058594 C 125.253906 236.226562 126 238.0625 125.375 239.734375 " fill-opacity="1" fill-rule="nonzero"/></g></g></g><g clip-path="url(#36644bdf77)"><g clip-path="url(#f928eac1c6)"><g clip-path="url(#f95a62b3d4)"><path fill="#4767bd" d="M 132.386719 240 C 131.578125 240.707031 127.039062 243.753906 127.308594 241.046875 C 127.496094 239.160156 129.609375 236.382812 132.488281 236.335938 C 134.636719 236.558594 134.160156 238.445312 132.386719 240 " fill-opacity="1" fill-rule="nonzero"/></g></g></g><g clip-path="url(#5f1356d3fe)"><g clip-path="url(#40c835c3bc)"><g clip-path="url(#179aa6a1ba)"><path fill="#4767bd" d="M 138.285156 240.394531 C 135.960938 241.65625 132.210938 242.882812 132.351562 242.195312 C 132.480469 241.558594 137.75 236.789062 140.910156 236.804688 C 142.382812 237.03125 141.222656 238.394531 140.085938 239.257812 C 139.582031 239.636719 138.976562 240.019531 138.285156 240.394531 " fill-opacity="1" fill-rule="nonzero"/></g></g></g><g fill="#4767bd" fill-opacity="1"><g transform="translate(142.536483, 210.226869)"><g><path d="M 1.785156 -22.75 L 1.785156 0 L 18.160156 0 L 18.160156 -4.210938 L 6.492188 -4.210938 L 6.492188 -22.75 Z M 1.785156 -22.75 "/></g></g></g><g fill="#4767bd" fill-opacity="1"><g transform="translate(166.98198, 210.226869)"><g><path d="M 7.164062 -22.75 L 0.320312 0 L 5.207031 0 L 6.695312 -4.796875 L 15.410156 -4.796875 L 16.902344 0 L 21.757812 0 L 14.945312 -22.75 Z M 7.984375 -9.007812 L 11.054688 -18.921875 L 14.125 -9.007812 Z M 7.984375 -9.007812 "/></g></g></g><g fill="#4767bd" fill-opacity="1"><g transform="translate(195.199383, 210.226869)"><g><path d="M 1.785156 -22.75 L 1.785156 0 L 6.492188 0 L 6.492188 -7.71875 L 10.441406 -7.71875 L 15.675781 0 L 21.40625 0 L 16.171875 -7.71875 L 16.40625 -7.71875 C 18.21875 -7.71875 19.652344 -9.152344 19.652344 -10.964844 L 19.652344 -19.503906 C 19.652344 -21.320312 18.21875 -22.75 16.40625 -22.75 Z M 6.492188 -11.929688 L 6.492188 -18.539062 L 14.066406 -18.539062 C 14.5625 -18.539062 14.945312 -18.191406 14.945312 -17.691406 L 14.945312 -12.78125 C 14.945312 -12.28125 14.5625 -11.929688 14.066406 -11.929688 Z M 6.492188 -11.929688 "/></g></g></g><g fill="#4767bd" fill-opacity="1"><g transform="translate(222.890465, 210.226869)"><g><path d="M 7.164062 -22.75 L 0.320312 0 L 5.207031 0 L 6.695312 -4.796875 L 15.410156 -4.796875 L 16.902344 0 L 21.757812 0 L 14.945312 -22.75 Z M 7.984375 -9.007812 L 11.054688 -18.921875 L 14.125 -9.007812 Z M 7.984375 -9.007812 "/></g></g></g><g fill="#4767bd" fill-opacity="1"><g transform="translate(251.107868, 210.226869)"><g><path d="M 1.785156 -22.75 L 1.785156 0 L 6.492188 0 L 6.492188 -14.535156 L 14.945312 0 L 19.652344 0 L 19.652344 -22.75 L 14.945312 -22.75 L 14.945312 -8.21875 L 6.492188 -22.75 Z M 1.785156 -22.75 "/></g></g></g><g fill="#4767bd" fill-opacity="1"><g transform="translate(278.682, 210.226869)"><g><path d="M 7.164062 -22.75 L 0.320312 0 L 5.207031 0 L 6.695312 -4.796875 L 15.410156 -4.796875 L 16.902344 0 L 21.757812 0 L 14.945312 -22.75 Z M 7.984375 -9.007812 L 11.054688 -18.921875 L 14.125 -9.007812 Z M 7.984375 -9.007812 "/></g></g></g><g fill="#737373" fill-opacity="1"><g transform="translate(131.307199, 230.038389)"><g><path d="M 6.625 0 L 2.75 -10.125 L 2.6875 -10.125 C 2.757812 -9.320312 2.796875 -8.367188 2.796875 -7.265625 L 2.796875 0 L 1.578125 0 L 1.578125 -11.421875 L 3.578125 -11.421875 L 7.1875 -2 L 7.25 -2 L 10.90625 -11.421875 L 12.890625 -11.421875 L 12.890625 0 L 11.5625 0 L 11.5625 -7.359375 C 11.5625 -8.203125 11.597656 -9.117188 11.671875 -10.109375 L 11.609375 -10.109375 L 7.703125 0 Z M 6.625 0 "/></g></g></g><g fill="#737373" fill-opacity="1"><g transform="translate(150.308982, 230.038389)"><g><path d="M 8.75 0 L 7.328125 -3.640625 L 2.75 -3.640625 L 1.34375 0 L 0 0 L 4.515625 -11.46875 L 5.640625 -11.46875 L 10.125 0 Z M 6.921875 -4.828125 L 5.59375 -8.375 C 5.414062 -8.820312 5.238281 -9.367188 5.0625 -10.015625 C 4.945312 -9.515625 4.78125 -8.96875 4.5625 -8.375 L 3.21875 -4.828125 Z M 6.921875 -4.828125 "/></g></g></g><g fill="#737373" fill-opacity="1"><g transform="translate(164.991501, 230.038389)"><g><path d="M 10.5 0 L 8.984375 0 L 2.734375 -9.59375 L 2.671875 -9.59375 C 2.753906 -8.46875 2.796875 -7.4375 2.796875 -6.5 L 2.796875 0 L 1.578125 0 L 1.578125 -11.421875 L 3.078125 -11.421875 L 9.296875 -1.875 L 9.359375 -1.875 C 9.347656 -2.019531 9.320312 -2.472656 9.28125 -3.234375 C 9.25 -3.992188 9.238281 -4.539062 9.25 -4.875 L 9.25 -11.421875 L 10.5 -11.421875 Z M 10.5 0 "/></g></g></g><g fill="#737373" fill-opacity="1"><g transform="translate(181.611051, 230.038389)"><g><path d="M 10.203125 -11.421875 L 10.203125 -4.03125 C 10.203125 -2.726562 9.804688 -1.703125 9.015625 -0.953125 C 8.234375 -0.210938 7.15625 0.15625 5.78125 0.15625 C 4.40625 0.15625 3.335938 -0.21875 2.578125 -0.96875 C 1.828125 -1.71875 1.453125 -2.75 1.453125 -4.0625 L 1.453125 -11.421875 L 2.78125 -11.421875 L 2.78125 -3.96875 C 2.78125 -3.019531 3.039062 -2.289062 3.5625 -1.78125 C 4.082031 -1.269531 4.847656 -1.015625 5.859375 -1.015625 C 6.828125 -1.015625 7.570312 -1.269531 8.09375 -1.78125 C 8.613281 -2.289062 8.875 -3.023438 8.875 -3.984375 L 8.875 -11.421875 Z M 10.203125 -11.421875 "/></g></g></g><g fill="#737373" fill-opacity="1"><g transform="translate(197.816639, 230.038389)"><g><path d="M 2.90625 0 L 1.578125 0 L 1.578125 -11.421875 L 7.9375 -11.421875 L 7.9375 -10.25 L 2.90625 -10.25 L 2.90625 -6.0625 L 7.640625 -6.0625 L 7.640625 -4.890625 L 2.90625 -4.890625 Z M 2.90625 0 "/></g></g></g><g fill="#737373" fill-opacity="1"><g transform="translate(210.63243, 230.038389)"><g><path d="M 8.75 0 L 7.328125 -3.640625 L 2.75 -3.640625 L 1.34375 0 L 0 0 L 4.515625 -11.46875 L 5.640625 -11.46875 L 10.125 0 Z M 6.921875 -4.828125 L 5.59375 -8.375 C 5.414062 -8.820312 5.238281 -9.367188 5.0625 -10.015625 C 4.945312 -9.515625 4.78125 -8.96875 4.5625 -8.375 L 3.21875 -4.828125 Z M 6.921875 -4.828125 "/></g></g></g><g fill="#737373" fill-opacity="1"><g transform="translate(225.314948, 230.038389)"><g><path d="M 6.46875 -10.40625 C 5.207031 -10.40625 4.210938 -9.984375 3.484375 -9.140625 C 2.765625 -8.304688 2.40625 -7.164062 2.40625 -5.71875 C 2.40625 -4.21875 2.753906 -3.0625 3.453125 -2.25 C 4.148438 -1.4375 5.148438 -1.03125 6.453125 -1.03125 C 7.242188 -1.03125 8.148438 -1.171875 9.171875 -1.453125 L 9.171875 -0.296875 C 8.378906 0.00390625 7.40625 0.15625 6.25 0.15625 C 4.5625 0.15625 3.257812 -0.351562 2.34375 -1.375 C 1.4375 -2.394531 0.984375 -3.847656 0.984375 -5.734375 C 0.984375 -6.910156 1.203125 -7.941406 1.640625 -8.828125 C 2.078125 -9.710938 2.710938 -10.394531 3.546875 -10.875 C 4.378906 -11.351562 5.359375 -11.59375 6.484375 -11.59375 C 7.679688 -11.59375 8.726562 -11.375 9.625 -10.9375 L 9.0625 -9.796875 C 8.195312 -10.203125 7.332031 -10.40625 6.46875 -10.40625 Z M 6.46875 -10.40625 "/></g></g></g><g fill="#737373" fill-opacity="1"><g transform="translate(239.966222, 230.038389)"><g><path d="M 5.09375 0 L 3.765625 0 L 3.765625 -10.25 L 0.140625 -10.25 L 0.140625 -11.421875 L 8.703125 -11.421875 L 8.703125 -10.25 L 5.09375 -10.25 Z M 5.09375 0 "/></g></g></g><g fill="#737373" fill-opacity="1"><g transform="translate(253.375618, 230.038389)"><g><path d="M 10.203125 -11.421875 L 10.203125 -4.03125 C 10.203125 -2.726562 9.804688 -1.703125 9.015625 -0.953125 C 8.234375 -0.210938 7.15625 0.15625 5.78125 0.15625 C 4.40625 0.15625 3.335938 -0.21875 2.578125 -0.96875 C 1.828125 -1.71875 1.453125 -2.75 1.453125 -4.0625 L 1.453125 -11.421875 L 2.78125 -11.421875 L 2.78125 -3.96875 C 2.78125 -3.019531 3.039062 -2.289062 3.5625 -1.78125 C 4.082031 -1.269531 4.847656 -1.015625 5.859375 -1.015625 C 6.828125 -1.015625 7.570312 -1.269531 8.09375 -1.78125 C 8.613281 -2.289062 8.875 -3.023438 8.875 -3.984375 L 8.875 -11.421875 Z M 10.203125 -11.421875 "/></g></g></g><g fill="#737373" fill-opacity="1"><g transform="translate(269.581206, 230.038389)"><g><path d="M 2.90625 -4.75 L 2.90625 0 L 1.578125 0 L 1.578125 -11.421875 L 4.703125 -11.421875 C 6.109375 -11.421875 7.144531 -11.148438 7.8125 -10.609375 C 8.476562 -10.078125 8.8125 -9.273438 8.8125 -8.203125 C 8.8125 -6.691406 8.046875 -5.671875 6.515625 -5.140625 L 9.625 0 L 8.046875 0 L 5.28125 -4.75 Z M 2.90625 -5.890625 L 4.71875 -5.890625 C 5.65625 -5.890625 6.34375 -6.078125 6.78125 -6.453125 C 7.21875 -6.828125 7.4375 -7.382812 7.4375 -8.125 C 7.4375 -8.882812 7.210938 -9.429688 6.765625 -9.765625 C 6.328125 -10.097656 5.613281 -10.265625 4.625 -10.265625 L 2.90625 -10.265625 Z M 2.90625 -5.890625 "/></g></g></g><g fill="#737373" fill-opacity="1"><g transform="translate(284.029405, 230.038389)"><g><path d="M 1.578125 0 L 1.578125 -11.421875 L 2.90625 -11.421875 L 2.90625 0 Z M 1.578125 0 "/></g></g></g><g fill="#737373" fill-opacity="1"><g transform="translate(293.049249, 230.038389)"><g><path d="M 10.5 0 L 8.984375 0 L 2.734375 -9.59375 L 2.671875 -9.59375 C 2.753906 -8.46875 2.796875 -7.4375 2.796875 -6.5 L 2.796875 0 L 1.578125 0 L 1.578125 -11.421875 L 3.078125 -11.421875 L 9.296875 -1.875 L 9.359375 -1.875 C 9.347656 -2.019531 9.320312 -2.472656 9.28125 -3.234375 C 9.25 -3.992188 9.238281 -4.539062 9.25 -4.875 L 9.25 -11.421875 L 10.5 -11.421875 Z M 10.5 0 "/></g></g></g><g fill="#737373" fill-opacity="1"><g transform="translate(309.668793, 230.038389)"><g><path d="M 6.59375 -5.984375 L 10.484375 -5.984375 L 10.484375 -0.4375 C 9.878906 -0.238281 9.265625 -0.09375 8.640625 0 C 8.015625 0.101562 7.289062 0.15625 6.46875 0.15625 C 4.738281 0.15625 3.390625 -0.359375 2.421875 -1.390625 C 1.460938 -2.421875 0.984375 -3.863281 0.984375 -5.71875 C 0.984375 -6.90625 1.21875 -7.941406 1.6875 -8.828125 C 2.164062 -9.722656 2.851562 -10.40625 3.75 -10.875 C 4.644531 -11.351562 5.695312 -11.59375 6.90625 -11.59375 C 8.125 -11.59375 9.257812 -11.367188 10.3125 -10.921875 L 9.796875 -9.75 C 8.765625 -10.1875 7.769531 -10.40625 6.8125 -10.40625 C 5.425781 -10.40625 4.34375 -9.988281 3.5625 -9.15625 C 2.78125 -8.332031 2.390625 -7.1875 2.390625 -5.71875 C 2.390625 -4.175781 2.765625 -3.003906 3.515625 -2.203125 C 4.265625 -1.410156 5.367188 -1.015625 6.828125 -1.015625 C 7.617188 -1.015625 8.394531 -1.101562 9.15625 -1.28125 L 9.15625 -4.796875 L 6.59375 -4.796875 Z M 6.59375 -5.984375 "/></g></g></g></svg>