<svg xmlns="http://www.w3.org/2000/svg" xmlns:xlink="http://www.w3.org/1999/xlink" width="500" zoomAndPan="magnify" viewBox="0 0 375 374.999991" height="500" preserveAspectRatio="xMidYMid meet" version="1.0"><defs><g/><clipPath id="6eb9106d9a"><path d="M 21.082031 100.335938 L 77.160156 100.335938 L 77.160156 274.335938 L 21.082031 274.335938 Z M 21.082031 100.335938 " clip-rule="nonzero"/></clipPath></defs><g clip-path="url(#6eb9106d9a)"><path fill="#000000" d="M 39.371094 252.574219 C 34.992188 252.574219 31.035156 252.160156 27.851562 251.921875 C 27.160156 251.871094 26.636719 252.535156 26.851562 253.191406 C 27.632812 255.589844 28.933594 257.636719 31.117188 259.6875 C 29.070312 256.746094 29.207031 254.613281 29.796875 253.867188 C 30.367188 253.144531 35.871094 253.640625 39.371094 252.574219 Z M 35.792969 242.78125 C 34.820312 242.753906 33.84375 242.722656 32.871094 242.6875 C 31.945312 242.652344 31.019531 242.609375 30.101562 242.550781 C 29.015625 242.464844 27.933594 242.367188 26.851562 242.261719 C 26.367188 242.214844 25.949219 242.589844 25.949219 243.078125 L 25.949219 245.0625 C 25.949219 245.488281 26.277344 245.847656 26.699219 245.882812 C 27.535156 245.953125 28.371094 246.019531 29.210938 246.082031 C 29.679688 246.117188 30.078125 245.75 30.085938 245.28125 L 30.101562 244.632812 C 30.109375 244.082031 30.519531 243.621094 31.0625 243.542969 C 31.679688 243.453125 32.292969 243.359375 32.90625 243.261719 C 33.871094 243.105469 34.832031 242.945312 35.792969 242.78125 Z M 43.898438 243.109375 C 42.960938 243.109375 42.023438 243.097656 41.085938 243.082031 C 40.632812 243.074219 40.261719 243.429688 40.25 243.878906 L 40.230469 244.550781 C 40.214844 245.125 39.78125 245.597656 39.210938 245.660156 C 38.367188 245.757812 37.523438 245.847656 36.675781 245.929688 C 35.957031 246.003906 35.234375 246.070312 34.511719 246.128906 C 33.792969 246.1875 33.070312 246.242188 32.34375 246.273438 C 33.066406 246.339844 33.792969 246.378906 34.519531 246.417969 C 35.242188 246.453125 35.972656 246.480469 36.695312 246.503906 C 37.855469 246.542969 39.015625 246.566406 40.175781 246.589844 L 40.175781 246.59375 C 41.445312 246.617188 42.714844 246.632812 43.984375 246.632812 L 44.089844 246.632812 C 47.550781 246.632812 51.035156 246.535156 54.515625 246.351562 L 54.515625 246.359375 C 56.433594 246.28125 58.335938 246.15625 60.242188 246.011719 C 59.152344 245.84375 58.066406 245.667969 56.980469 245.480469 C 56.433594 245.386719 56.03125 244.90625 56.03125 244.351562 L 56.03125 243.566406 C 56.03125 243.089844 55.632812 242.71875 55.160156 242.746094 C 51.429688 242.988281 47.695312 243.109375 43.980469 243.109375 Z M 23.9375 241.953125 C 23.859375 241.941406 23.78125 241.933594 23.703125 241.925781 L 23.703125 245.601562 C 23.726562 245.601562 23.753906 245.605469 23.777344 245.609375 C 24.238281 245.65625 24.640625 245.289062 24.640625 244.824219 L 24.640625 242.734375 C 24.640625 242.332031 24.335938 241.996094 23.9375 241.953125 Z M 62.097656 243.597656 L 62.097656 244.730469 C 62.097656 245.308594 62.597656 245.765625 63.171875 245.707031 C 63.539062 245.675781 63.898438 245.640625 64.261719 245.601562 L 64.261719 241.925781 C 63.609375 242 62.957031 242.070312 62.300781 242.140625 L 58.945312 242.40625 L 61.40625 242.789062 C 61.804688 242.851562 62.097656 243.195312 62.097656 243.597656 Z M 74.457031 128.566406 C 73.460938 128.566406 72.046875 128.566406 72.046875 128.566406 C 71.707031 128.566406 71.429688 128.84375 71.429688 129.183594 L 71.429688 141.667969 C 72 141.59375 72.121094 130.167969 72.71875 129.6875 C 73.316406 129.207031 74.300781 129.078125 74.457031 128.566406 Z M 74.457031 236.878906 C 73.460938 236.878906 72.046875 236.878906 72.046875 236.878906 C 71.707031 236.878906 71.429688 237.15625 71.429688 237.496094 L 71.429688 249.980469 C 72 249.90625 72.121094 238.480469 72.71875 238 C 73.316406 237.519531 74.300781 237.390625 74.457031 236.878906 Z M 71.226562 235.644531 L 73.984375 235.644531 C 73.921875 234.085938 73.859375 232.527344 73.800781 230.972656 C 73.285156 216.480469 73.046875 201.988281 73.042969 187.496094 C 73.039062 173.003906 73.277344 158.511719 73.792969 144.019531 C 73.796875 143.851562 73.804688 143.6875 73.8125 143.519531 L 71.226562 143.519531 C 70.65625 143.519531 70.195312 143.058594 70.195312 142.492188 L 70.195312 140.089844 L 66.464844 140.089844 C 65.78125 140.648438 64.882812 141.523438 64.09375 142.777344 C 62.957031 144.585938 62.59375 146.320312 62.460938 147.347656 L 62.460938 231.460938 C 62.59375 232.492188 62.957031 234.222656 64.09375 236.03125 C 64.886719 237.292969 65.792969 238.167969 66.476562 238.730469 C 66.539062 238.839844 66.59375 238.957031 66.640625 239.074219 L 70.195312 239.074219 L 70.195312 236.671875 C 70.195312 236.105469 70.65625 235.644531 71.226562 235.644531 Z M 70.148438 240.308594 L 67.503906 240.308594 C 67.164062 240.308594 66.886719 240.585938 66.886719 240.929688 L 66.886719 247.167969 C 67.570312 246.667969 67.398438 241.980469 67.96875 241.351562 C 68.539062 240.722656 69.855469 240.894531 70.148438 240.308594 Z M 65.246094 240.816406 C 58.210938 241.683594 51.0625 242.125 43.980469 242.125 C 43.953125 242.125 43.925781 242.125 43.898438 242.125 C 36.847656 242.121094 29.726562 241.679688 22.71875 240.816406 L 22.71875 246.488281 C 29.757812 247.238281 36.910156 247.617188 43.984375 247.617188 L 44.089844 247.617188 C 51.128906 247.613281 58.242188 247.234375 65.246094 246.488281 Z M 63.742188 248.4375 C 60.421875 248.703125 57.105469 248.933594 53.785156 249.089844 C 52.125 249.160156 50.464844 249.230469 48.804688 249.261719 C 47.144531 249.300781 45.484375 249.324219 43.820312 249.320312 C 42.160156 249.324219 40.5 249.300781 38.839844 249.261719 C 37.179688 249.230469 35.519531 249.160156 33.859375 249.089844 C 30.542969 248.9375 27.222656 248.703125 23.90625 248.4375 C 27.191406 248.972656 30.503906 249.347656 33.828125 249.597656 C 35.492188 249.730469 37.15625 249.8125 38.824219 249.882812 C 40.488281 249.945312 42.15625 249.96875 43.820312 249.976562 C 45.488281 249.96875 47.15625 249.941406 48.824219 249.882812 C 50.488281 249.8125 52.152344 249.730469 53.816406 249.597656 C 57.140625 249.347656 60.453125 248.972656 63.742188 248.4375 Z M 58.34375 256 C 60.203125 254.335938 61.574219 250.714844 60.789062 250.910156 C 60.007812 251.105469 57.023438 251.652344 54.726562 251.792969 C 54.726562 251.792969 58.890625 252.417969 58.34375 256 Z M 63.546875 250.28125 C 62.734375 253.5 61.019531 256.4375 58.761719 258.800781 C 56.503906 261.171875 53.683594 262.988281 50.609375 263.984375 C 49.84375 264.226562 49.0625 264.429688 48.269531 264.566406 C 47.480469 264.699219 46.683594 264.785156 45.886719 264.8125 C 45.484375 264.8125 45.089844 264.824219 44.683594 264.800781 L 44.082031 264.773438 C 43.882812 264.761719 43.683594 264.738281 43.484375 264.722656 C 43.082031 264.691406 42.691406 264.625 42.292969 264.574219 L 41.703125 264.464844 C 41.507812 264.433594 41.3125 264.390625 41.117188 264.34375 C 39.839844 264.054688 38.59375 263.632812 37.410156 263.09375 C 43.136719 262.257812 47.335938 255.320312 43.675781 251.664062 C 36.488281 251.644531 30.015625 251.074219 24.417969 250.28125 C 25.171875 253.738281 26.898438 256.808594 29.109375 259.414062 C 29.9375 260.386719 30.789062 261.140625 31.652344 261.714844 C 34.332031 263.808594 37.515625 265.226562 40.828125 265.796875 C 41.039062 265.835938 41.253906 265.871094 41.464844 265.898438 L 42.105469 265.980469 C 42.53125 266.015625 42.957031 266.066406 43.386719 266.078125 C 43.601562 266.085938 43.816406 266.101562 44.027344 266.101562 L 44.671875 266.101562 C 45.089844 266.105469 45.523438 266.070312 45.953125 266.046875 C 46.808594 265.976562 47.65625 265.84375 48.492188 265.65625 C 49.328125 265.472656 50.140625 265.214844 50.9375 264.917969 C 54.125 263.710938 56.9375 261.671875 59.128906 259.136719 C 61.320312 256.601562 62.894531 253.535156 63.546875 250.28125 Z M 23.4375 239.253906 C 30.207031 240.066406 37.085938 240.484375 43.898438 240.484375 C 50.792969 240.492188 57.75 240.070312 64.597656 239.242188 C 63.878906 238.539062 63.242188 237.757812 62.707031 236.90625 C 62.011719 235.800781 61.488281 234.578125 61.152344 233.300781 C 58.675781 233.636719 53.273438 234.171875 43.980469 234.171875 C 34.785156 234.171875 29.394531 233.648438 26.886719 233.3125 C 26.613281 234.535156 26.136719 235.714844 25.484375 236.777344 C 24.921875 237.703125 24.234375 238.527344 23.4375 239.253906 Z M 26.8125 147.164062 L 26.8125 231.644531 C 27.25 231.707031 27.800781 231.777344 28.46875 231.851562 L 28.46875 146.957031 C 27.800781 147.03125 27.25 147.101562 26.8125 147.164062 Z M 55.910156 168.382812 C 56.695312 167.347656 57.328125 166.421875 57.820312 165.613281 L 57.820312 151.433594 C 57.261719 152.484375 56.527344 153.675781 55.566406 154.976562 C 55.507812 153.417969 55.441406 151.859375 55.363281 150.304688 C 55.273438 152.050781 55.199219 153.796875 55.132812 155.546875 C 54.589844 156.253906 53.988281 156.988281 53.304688 157.75 C 52.023438 159.175781 50.382812 160.898438 48.578125 162.800781 C 48.484375 157.324219 48.355469 151.847656 48.148438 146.367188 C 47.929688 152.15625 47.796875 157.941406 47.699219 163.730469 C 46.417969 165.085938 45.074219 166.523438 43.71875 168.007812 L 43.71875 151.875 C 44.75 150.703125 45.734375 149.605469 46.660156 148.59375 C 45.679688 148.574219 44.699219 148.558594 43.71875 148.558594 L 43.71875 146.277344 C 41.046875 146.277344 38.703125 146.328125 36.667969 146.402344 L 36.667969 148.742188 C 36.039062 148.769531 35.410156 148.804688 34.78125 148.839844 C 34.183594 149.703125 33.621094 150.558594 33.125 151.394531 C 31.789062 153.644531 30.808594 155.472656 30.109375 156.871094 L 30.109375 171.75 C 30.875 169.6875 32.019531 167.199219 33.714844 164.488281 C 33.636719 167.410156 33.582031 170.332031 33.535156 173.257812 C 33.484375 175.820312 33.464844 178.386719 33.441406 180.953125 C 33.339844 181.121094 33.222656 181.289062 33.125 181.457031 C 31.789062 183.707031 30.808594 185.535156 30.109375 186.933594 L 30.109375 201.8125 C 30.828125 199.878906 31.878906 197.570312 33.402344 195.054688 L 33.425781 201.046875 L 33.46875 205.675781 L 33.496094 207.992188 L 33.53125 210.308594 C 33.535156 210.488281 33.539062 210.671875 33.542969 210.851562 C 33.40625 211.074219 33.253906 211.296875 33.125 211.519531 C 31.789062 213.769531 30.808594 215.59375 30.109375 216.992188 L 30.109375 229.621094 C 30.40625 229.648438 30.699219 229.675781 30.996094 229.699219 C 31.71875 228.078125 32.664062 226.273438 33.871094 224.367188 C 33.921875 225.855469 33.980469 227.34375 34.046875 228.832031 C 34.121094 227.152344 34.183594 225.472656 34.238281 223.789062 C 34.953125 222.695312 35.761719 221.570312 36.667969 220.421875 L 36.667969 232.410156 C 38.703125 232.480469 41.046875 232.53125 43.71875 232.535156 L 43.71875 230.25 C 45.164062 230.25 46.613281 230.226562 48.066406 230.1875 C 48.089844 230.957031 48.113281 231.726562 48.144531 232.496094 C 48.144531 232.496094 48.148438 232.496094 48.152344 232.496094 C 48.179688 231.722656 48.203125 230.953125 48.230469 230.183594 C 50.425781 230.121094 52.628906 230.015625 54.824219 229.863281 C 56.152344 228.269531 57.117188 226.886719 57.820312 225.738281 L 57.820312 211.558594 C 56.882812 213.320312 55.464844 215.464844 53.304688 217.875 C 51.988281 219.335938 50.296875 221.109375 48.4375 223.078125 C 48.535156 219.066406 48.605469 215.054688 48.660156 211.046875 L 48.699219 208.351562 L 48.714844 206.484375 C 50.625 204.429688 52.28125 202.683594 53.710938 201.085938 C 54.136719 200.613281 54.523438 200.160156 54.890625 199.71875 C 54.984375 204.339844 55.121094 208.960938 55.363281 213.582031 C 55.621094 208.558594 55.761719 203.535156 55.859375 198.507812 C 56.671875 197.449219 57.316406 196.5 57.820312 195.675781 L 57.820312 181.496094 C 57.347656 182.382812 56.753906 183.367188 56.007812 184.433594 L 56.015625 181.945312 L 55.980469 174.03125 C 55.957031 172.148438 55.933594 170.265625 55.910156 168.382812 Z M 59.460938 146.953125 L 59.460938 231.855469 C 60.144531 231.78125 60.707031 231.707031 61.152344 231.644531 L 61.152344 147.164062 C 60.707031 147.101562 60.144531 147.027344 59.460938 146.953125 Z M 26.886719 145.496094 C 29.394531 145.160156 34.785156 144.636719 43.980469 144.636719 C 53.273438 144.636719 58.675781 145.171875 61.152344 145.507812 C 61.488281 144.230469 62.011719 143.007812 62.707031 141.902344 C 63.242188 141.050781 63.878906 140.269531 64.597656 139.566406 C 57.777344 138.742188 50.847656 138.324219 43.980469 138.324219 C 43.953125 138.324219 43.925781 138.324219 43.898438 138.324219 C 37.085938 138.324219 30.207031 138.742188 23.4375 139.554688 C 24.234375 140.28125 24.921875 141.105469 25.484375 142.03125 C 26.136719 143.09375 26.613281 144.269531 26.886719 145.496094 Z M 22.71875 137.992188 C 29.726562 137.128906 36.847656 136.6875 43.898438 136.683594 C 51.003906 136.679688 58.183594 137.121094 65.246094 137.992188 L 65.246094 132.320312 C 58.242188 131.574219 51.128906 131.195312 44.089844 131.191406 L 43.984375 131.191406 C 36.910156 131.191406 29.757812 131.570312 22.71875 132.320312 Z M 57.175781 122.632812 C 55.632812 121.296875 56.816406 129.480469 56.816406 129.480469 L 60.878906 129.839844 C 60.46875 127.578125 58.71875 123.96875 57.175781 122.632812 Z M 24.085938 130.507812 C 24.085938 130.507812 35.152344 129.476562 43.589844 129.5625 C 49.433594 129.550781 49.601562 119.054688 46.820312 114.710938 C 48.085938 114.773438 49.351562 114.972656 50.582031 115.304688 C 52.785156 115.902344 54.898438 116.921875 56.71875 118.34375 C 58.53125 119.78125 60.113281 121.558594 61.332031 123.5625 C 62.550781 125.570312 63.414062 127.816406 63.828125 130.15625 C 63.570312 127.792969 62.851562 125.46875 61.742188 123.332031 C 60.632812 121.199219 59.128906 119.261719 57.328125 117.617188 C 55.511719 115.980469 53.347656 114.726562 51.015625 113.910156 C 48.699219 113.105469 46.210938 112.734375 43.722656 112.863281 C 33.578125 112.941406 25.210938 120.640625 24.085938 130.507812 Z M 66.886719 138.855469 C 67.570312 138.355469 67.398438 133.667969 67.96875 133.039062 C 68.539062 132.410156 69.855469 132.582031 70.148438 132 L 67.503906 132 C 67.164062 132 66.886719 132.273438 66.886719 132.613281 Z M 77.160156 187.496094 L 77.09375 230.972656 L 77.054688 252.710938 L 76.957031 274.449219 C 76.957031 274.5625 76.863281 274.65625 76.75 274.652344 C 76.644531 274.652344 76.554688 274.574219 76.546875 274.46875 L 76.542969 274.449219 C 75.769531 267.203125 75.3125 259.957031 74.832031 252.710938 C 74.816406 252.417969 74.800781 252.125 74.785156 251.832031 L 71.226562 251.832031 C 70.65625 251.832031 70.195312 251.375 70.195312 250.804688 L 70.195312 248.402344 L 65.507812 248.402344 C 64.324219 259.191406 55.191406 267.585938 44.085938 267.585938 L 43.878906 267.585938 C 32.671875 267.585938 23.464844 259.035156 22.421875 248.101562 C 22.21875 248.082031 22.007812 248.058594 21.808594 248.039062 C 21.394531 247.992188 21.082031 247.640625 21.082031 247.222656 L 21.082031 240.3125 C 21.082031 240.035156 21.117188 239.761719 21.183594 239.496094 C 21.265625 239.171875 21.386719 238.914062 21.488281 238.730469 C 22.175781 238.230469 23.222656 237.339844 24.085938 235.921875 C 25.191406 234.121094 25.4375 232.398438 25.5 231.480469 L 25.5 147.328125 C 25.4375 146.40625 25.191406 144.6875 24.085938 142.886719 C 23.222656 141.46875 22.175781 140.578125 21.488281 140.078125 C 21.386719 139.894531 21.265625 139.636719 21.183594 139.3125 C 21.117188 139.046875 21.082031 138.773438 21.082031 138.5 L 21.082031 131.585938 C 21.082031 131.167969 21.394531 130.816406 21.808594 130.769531 C 22.007812 130.746094 22.21875 130.730469 22.421875 130.707031 C 23.464844 119.773438 32.671875 111.222656 43.878906 111.222656 L 44.085938 111.222656 C 55.292969 111.222656 64.5 119.773438 65.542969 130.707031 C 65.722656 130.726562 65.902344 130.742188 66.078125 130.761719 L 70.195312 130.761719 L 70.195312 128.359375 C 70.195312 127.792969 70.65625 127.332031 71.226562 127.332031 L 74.535156 127.332031 C 74.628906 125.648438 74.722656 123.964844 74.824219 122.28125 C 75.304688 115.035156 75.765625 107.789062 76.542969 100.539062 L 76.546875 100.519531 C 76.558594 100.40625 76.660156 100.324219 76.773438 100.339844 C 76.878906 100.347656 76.957031 100.4375 76.957031 100.539062 L 77.054688 122.28125 L 77.09375 144.019531 Z M 47.492188 189.484375 L 47.527344 178.707031 C 47.53125 178.371094 47.53125 178.035156 47.535156 177.699219 C 46.355469 178.980469 45.082031 180.386719 43.71875 181.9375 L 43.71875 198.070312 C 45.003906 196.660156 46.285156 195.292969 47.503906 193.996094 Z M 55.925781 144.054688 C 56.832031 144.09375 57.742188 144.148438 58.640625 144.230469 C 58.636719 144.230469 58.636719 144.230469 58.636719 144.230469 C 58.769531 144.246094 58.898438 144.257812 59.027344 144.269531 C 59.144531 144.285156 59.261719 144.292969 59.378906 144.304688 C 59.769531 144.347656 60.125 144.386719 60.445312 144.425781 C 60.796875 143.347656 61.277344 142.328125 61.875 141.378906 C 62.101562 141.019531 62.347656 140.667969 62.609375 140.324219 C 62.21875 140.285156 61.828125 140.242188 61.4375 140.203125 C 60.765625 140.132812 60.121094 140.484375 59.816406 141.082031 C 59.546875 141.617188 59.300781 142.15625 59.09375 142.695312 C 58.890625 143.234375 58.402344 143.617188 57.828125 143.710938 C 57.191406 143.816406 56.558594 143.933594 55.925781 144.054688 Z M 54.914062 136.046875 C 55.519531 136.082031 56.03125 135.605469 56.03125 134.996094 L 56.03125 134.816406 C 56.03125 133.996094 56.632812 133.304688 57.441406 133.191406 C 58.289062 133.070312 59.328125 132.929688 59.992188 132.855469 C 58.710938 132.726562 57.425781 132.625 56.132812 132.550781 C 56.097656 132.550781 56.066406 132.546875 56.03125 132.546875 L 56.03125 132.542969 C 52.046875 132.300781 48.054688 132.175781 44.089844 132.175781 L 43.984375 132.175781 C 42.714844 132.175781 41.445312 132.191406 40.175781 132.214844 C 39.621094 132.21875 39.070312 132.226562 38.519531 132.238281 C 36.417969 132.285156 34.316406 132.371094 32.230469 132.59375 C 33.667969 132.628906 36.886719 132.929688 38.765625 133.113281 C 39.589844 133.195312 40.21875 133.875 40.242188 134.703125 C 40.257812 135.277344 40.734375 135.734375 41.3125 135.722656 C 42.175781 135.710938 43.039062 135.699219 43.898438 135.699219 L 43.996094 135.699219 C 47.621094 135.699219 51.269531 135.816406 54.914062 136.046875 Z M 29.53125 142.988281 C 29.777344 143.683594 30.457031 144.128906 31.195312 144.074219 C 31.558594 144.046875 31.941406 144.019531 32.339844 143.992188 L 32.339844 143.996094 C 32.816406 143.960938 33.304688 143.933594 33.785156 143.90625 C 34.269531 143.878906 34.753906 143.859375 35.238281 143.839844 C 36.203125 143.804688 37.171875 143.785156 38.144531 143.789062 C 37.191406 143.59375 36.234375 143.421875 35.273438 143.269531 C 34.789062 143.191406 34.308594 143.117188 33.824219 143.046875 C 33.734375 143.035156 33.640625 143.019531 33.550781 143.007812 C 33.085938 142.941406 32.691406 142.632812 32.519531 142.199219 C 32.261719 141.546875 31.941406 140.890625 31.601562 140.25 C 31.445312 139.964844 31.136719 139.792969 30.8125 139.820312 C 30.324219 139.859375 29.832031 139.898438 29.34375 139.9375 C 28.75 139.988281 28.40625 140.632812 28.695312 141.152344 C 29.015625 141.734375 29.296875 142.320312 29.53125 142.988281 Z M 41.546875 141.691406 C 41.617188 142.011719 41.671875 142.335938 41.707031 142.652344 C 41.773438 143.226562 42.273438 143.65625 42.851562 143.652344 C 43.222656 143.652344 43.597656 143.652344 43.980469 143.652344 C 47.140625 143.652344 49.855469 143.714844 52.160156 143.808594 C 52.683594 143.828125 53.152344 143.496094 53.308594 143 C 53.488281 142.414062 53.742188 141.777344 53.953125 141.285156 C 54.175781 140.753906 54.660156 140.375 55.234375 140.296875 C 56.210938 140.160156 57.585938 139.980469 58.027344 139.949219 C 57.410156 139.851562 56.785156 139.792969 56.164062 139.742188 C 55.539062 139.691406 54.914062 139.644531 54.289062 139.609375 C 53.335938 139.554688 52.382812 139.511719 51.429688 139.476562 C 48.941406 139.363281 46.457031 139.304688 43.980469 139.304688 L 43.902344 139.304688 C 43.707031 139.304688 43.511719 139.308594 43.320312 139.308594 C 42.589844 139.304688 41.867188 139.304688 41.140625 139.3125 C 40.332031 139.320312 39.523438 139.335938 38.714844 139.359375 C 37.101562 139.402344 35.484375 139.476562 33.878906 139.582031 C 35.054688 139.703125 38.425781 140.171875 40.175781 140.417969 C 40.855469 140.515625 41.402344 141.023438 41.546875 141.691406 Z M 30.101562 134.261719 L 30.085938 133.53125 C 30.078125 133.058594 29.679688 132.691406 29.210938 132.726562 C 28.371094 132.789062 27.535156 132.855469 26.699219 132.925781 C 26.277344 132.964844 25.949219 133.320312 25.949219 133.742188 L 25.949219 135.730469 C 25.949219 136.214844 26.371094 136.59375 26.851562 136.546875 C 27.792969 136.453125 28.730469 136.371094 29.671875 136.292969 L 35.9375 135.945312 L 31.117188 135.378906 C 30.546875 135.3125 30.113281 134.835938 30.101562 134.261719 Z M 30.824219 125.339844 C 30.820312 121.425781 33.972656 119.265625 36.917969 115.839844 C 32.015625 117.925781 28.160156 122.09375 26.453125 127.28125 C 26.199219 128.054688 26.820312 128.839844 27.632812 128.777344 C 31.390625 128.496094 36.703125 128.203125 41.875 128.203125 C 38.238281 126.707031 30.824219 127.179688 30.824219 125.339844 Z M 23.734375 133.203125 L 23.703125 133.207031 L 23.703125 136.882812 C 23.773438 136.875 23.839844 136.867188 23.910156 136.859375 C 24.324219 136.8125 24.640625 136.464844 24.640625 136.046875 L 24.640625 134.019531 C 24.640625 133.535156 24.21875 133.15625 23.734375 133.203125 Z M 60.527344 136.523438 C 61.191406 136.570312 61.859375 136.621094 62.507812 136.695312 L 62.507812 136.691406 C 63.09375 136.753906 63.675781 136.816406 64.261719 136.882812 L 64.261719 133.207031 C 63.839844 133.164062 63.417969 133.125 62.992188 133.082031 C 62.511719 133.039062 62.097656 133.417969 62.097656 133.898438 L 62.097656 134.898438 C 62.097656 135.480469 61.667969 135.964844 61.09375 136.039062 C 60.898438 136.0625 60.707031 136.089844 60.515625 136.113281 C 59.851562 136.203125 59.191406 136.300781 58.53125 136.402344 C 59.195312 136.4375 59.863281 136.480469 60.527344 136.523438 Z M 44.003906 239.503906 C 47.34375 239.503906 55.308594 239.152344 55.929688 239.117188 C 56.765625 239.070312 57.597656 239.011719 58.429688 238.945312 C 57.601562 238.847656 56.773438 238.742188 55.949219 238.625 C 55.554688 238.570312 55.15625 238.511719 54.761719 238.449219 C 54.351562 238.386719 54.007812 238.109375 53.863281 237.71875 C 53.617188 237.070312 53.382812 236.355469 53.21875 235.625 C 53.132812 235.238281 52.78125 234.972656 52.386719 234.992188 C 50.035156 235.089844 47.246094 235.15625 43.980469 235.15625 C 43.496094 235.15625 43.019531 235.15625 42.554688 235.152344 C 42.121094 235.148438 41.769531 235.484375 41.734375 235.917969 C 41.683594 236.476562 41.578125 237.0625 41.429688 237.628906 C 41.316406 238.078125 40.933594 238.414062 40.472656 238.476562 C 40.144531 238.519531 39.8125 238.5625 39.480469 238.601562 C 38.789062 238.683594 38.097656 238.761719 37.402344 238.832031 C 36.011719 238.976562 34.621094 239.089844 33.222656 239.175781 C 34.617188 239.28125 36.019531 239.359375 37.417969 239.40625 C 38.121094 239.429688 38.824219 239.449219 39.527344 239.460938 C 40.023438 239.46875 42.9375 239.503906 43.902344 239.503906 C 43.902344 239.503906 44.003906 239.503906 44.003906 239.503906 Z M 58.3125 235.214844 C 58.613281 235.261719 58.863281 235.472656 58.960938 235.761719 C 59.183594 236.414062 59.480469 237.078125 59.808594 237.726562 C 60.109375 238.328125 60.757812 238.675781 61.429688 238.609375 C 61.820312 238.566406 62.214844 238.527344 62.609375 238.480469 C 62.347656 238.140625 62.101562 237.789062 61.875 237.429688 C 61.277344 236.480469 60.796875 235.460938 60.445312 234.382812 C 59.933594 234.445312 59.328125 234.511719 58.632812 234.578125 L 55.695312 234.808594 Z M 35.359375 235.535156 C 36.324219 235.382812 37.285156 235.222656 38.246094 235.054688 C 37.269531 235.03125 36.296875 235 35.324219 234.960938 C 34.351562 234.925781 33.378906 234.882812 32.417969 234.816406 L 32.417969 234.820312 C 31.753906 234.777344 31.136719 234.730469 30.570312 234.6875 C 30.183594 234.652344 29.828125 234.898438 29.71875 235.265625 C 29.449219 236.175781 29.113281 236.921875 28.703125 237.660156 C 28.417969 238.179688 28.761719 238.820312 29.355469 238.871094 C 29.84375 238.914062 30.332031 238.953125 30.824219 238.988281 C 31.148438 239.015625 31.457031 238.847656 31.609375 238.558594 C 31.964844 237.898438 32.292969 237.21875 32.554688 236.542969 C 32.703125 236.160156 33.042969 235.882812 33.453125 235.824219 C 34.089844 235.734375 34.726562 235.636719 35.359375 235.535156 Z M 27.628906 234.398438 L 27.621094 234.394531 C 27.3125 235.417969 26.878906 236.386719 26.324219 237.292969 C 26.070312 237.710938 25.789062 238.113281 25.484375 238.496094 C 25.691406 238.519531 25.898438 238.539062 26.105469 238.5625 C 26.402344 238.589844 26.691406 238.449219 26.851562 238.199219 C 27.460938 237.234375 27.925781 236.429688 28.28125 235.441406 C 28.453125 234.964844 28.128906 234.457031 27.628906 234.398438 Z M 48.746094 176.390625 C 48.753906 177.160156 48.757812 177.933594 48.765625 178.707031 L 48.800781 189.484375 L 48.792969 192.636719 C 50.515625 190.820312 52.070312 189.179688 53.304688 187.8125 C 53.820312 187.238281 54.289062 186.679688 54.726562 186.136719 L 54.707031 181.945312 L 54.742188 174.03125 C 54.761719 172.613281 54.773438 171.195312 54.792969 169.773438 C 54.453125 170.179688 54.097656 170.59375 53.710938 171.027344 C 52.289062 172.609375 50.640625 174.347656 48.746094 176.390625 Z M 47.597656 208.351562 L 47.589844 207.699219 C 46.394531 209 45.101562 210.425781 43.71875 211.996094 L 43.71875 228.132812 C 45.132812 226.582031 46.542969 225.082031 47.875 223.671875 C 47.765625 219.464844 47.691406 215.253906 47.636719 211.046875 Z M 34.667969 201.046875 L 34.621094 205.675781 L 34.59375 207.992188 L 34.574219 209.269531 C 35.222656 208.316406 35.921875 207.347656 36.667969 206.375 L 36.667969 190.359375 C 35.949219 191.265625 35.292969 192.164062 34.695312 193.042969 Z M 34.554688 173.257812 C 34.59375 175.210938 34.613281 177.167969 34.628906 179.125 C 35.265625 178.195312 35.945312 177.257812 36.667969 176.3125 L 36.667969 160.292969 C 35.808594 161.382812 35.039062 162.453125 34.351562 163.492188 C 34.4375 166.746094 34.503906 170 34.554688 173.257812 Z M 27.621094 144.414062 C 27.3125 143.390625 26.878906 142.421875 26.324219 141.515625 C 26.070312 141.097656 25.789062 140.695312 25.484375 140.3125 C 25.511719 140.308594 25.539062 140.304688 25.5625 140.304688 C 26.191406 140.234375 26.804688 140.542969 27.132812 141.082031 C 27.601562 141.847656 27.972656 142.542969 28.273438 143.363281 C 28.445312 143.839844 28.125 144.355469 27.621094 144.414062 " fill-opacity="1" fill-rule="nonzero"/></g><g fill="#000000" fill-opacity="1"><g transform="translate(89.95064, 175.343855)"><g><path d="M 1.0625 -4.609375 L 9 -4.609375 L 9 -43.96875 L 1.0625 -43.96875 L 1.0625 -48.578125 L 22.203125 -48.578125 C 25.085938 -48.578125 27.941406 -48.296875 30.765625 -47.734375 C 33.710938 -47.160156 36.273438 -46 38.453125 -44.25 C 39.503906 -43.394531 40.316406 -42.304688 40.890625 -40.984375 C 41.472656 -39.660156 41.765625 -38.191406 41.765625 -36.578125 C 41.765625 -33.859375 41.019531 -31.648438 39.53125 -29.953125 C 38.050781 -28.253906 35.828125 -26.972656 32.859375 -26.109375 C 36.609375 -25.179688 39.460938 -23.644531 41.421875 -21.5 C 43.378906 -19.363281 44.359375 -16.628906 44.359375 -13.296875 C 44.359375 -11.617188 44.101562 -10.078125 43.59375 -8.671875 C 43.082031 -7.273438 42.398438 -6.109375 41.546875 -5.171875 C 40.765625 -4.304688 39.75 -3.53125 38.5 -2.84375 C 37.257812 -2.15625 35.992188 -1.628906 34.703125 -1.265625 C 33.578125 -0.941406 32.226562 -0.675781 30.65625 -0.46875 C 29.09375 -0.257812 27.675781 -0.125 26.40625 -0.0625 C 24.894531 -0.0195312 23.582031 0 22.46875 0 L 1.0625 0 Z M 23.59375 -27.828125 C 26.4375 -27.828125 28.957031 -28.394531 31.15625 -29.53125 C 32.269531 -30.113281 33.148438 -30.921875 33.796875 -31.953125 C 34.441406 -32.984375 34.765625 -34.171875 34.765625 -35.515625 C 34.765625 -37.554688 34.3125 -39.222656 33.40625 -40.515625 C 32.65625 -41.546875 31.320312 -42.382812 29.40625 -43.03125 C 28.09375 -43.4375 26.003906 -43.726562 23.140625 -43.90625 C 21.679688 -43.945312 20.359375 -43.96875 19.171875 -43.96875 L 16.59375 -43.96875 L 16.59375 -27.828125 Z M 20.4375 -4.609375 C 23.25 -4.609375 25.613281 -4.707031 27.53125 -4.90625 C 28.582031 -5.007812 29.5 -5.160156 30.28125 -5.359375 C 31.070312 -5.554688 31.859375 -5.816406 32.640625 -6.140625 C 33.347656 -6.410156 33.9375 -6.757812 34.40625 -7.1875 C 34.882812 -7.625 35.328125 -8.164062 35.734375 -8.8125 C 36.421875 -9.90625 36.765625 -11.488281 36.765625 -13.5625 C 36.765625 -15.195312 36.398438 -16.664062 35.671875 -17.96875 C 34.941406 -19.269531 33.929688 -20.328125 32.640625 -21.140625 C 31.367188 -21.921875 29.960938 -22.515625 28.421875 -22.921875 C 26.878906 -23.328125 25.269531 -23.53125 23.59375 -23.53125 L 16.59375 -23.53125 L 16.59375 -4.609375 Z M 20.4375 -4.609375 "/></g></g></g><g fill="#000000" fill-opacity="1"><g transform="translate(136.592197, 175.343855)"><g><path d="M 11.484375 0.875 C 9.722656 0.875 8.164062 0.554688 6.8125 -0.078125 C 5.457031 -0.710938 4.398438 -1.628906 3.640625 -2.828125 C 2.890625 -4.035156 2.515625 -5.445312 2.515625 -7.0625 C 2.515625 -8.332031 2.800781 -9.5 3.375 -10.5625 C 3.945312 -11.632812 4.726562 -12.535156 5.71875 -13.265625 C 6.664062 -13.972656 7.742188 -14.648438 8.953125 -15.296875 C 10.171875 -15.941406 11.414062 -16.503906 12.6875 -16.984375 C 15.269531 -17.910156 17.59375 -18.972656 19.65625 -20.171875 C 20.644531 -20.753906 21.421875 -21.453125 21.984375 -22.265625 C 22.546875 -23.085938 22.828125 -23.972656 22.828125 -24.921875 C 22.828125 -27.328125 22.234375 -29.140625 21.046875 -30.359375 C 19.859375 -31.578125 18.160156 -32.1875 15.953125 -32.1875 C 14.398438 -32.1875 12.9375 -31.941406 11.5625 -31.453125 C 10.195312 -30.972656 9.140625 -30.3125 8.390625 -29.46875 C 9.722656 -29.46875 10.800781 -29.109375 11.625 -28.390625 C 12.457031 -27.671875 12.875 -26.785156 12.875 -25.734375 C 12.875 -24.847656 12.675781 -24.054688 12.28125 -23.359375 C 11.882812 -22.660156 11.34375 -22.113281 10.65625 -21.71875 C 9.96875 -21.332031 9.210938 -21.140625 8.390625 -21.140625 C 7.054688 -21.140625 5.929688 -21.601562 5.015625 -22.53125 C 4.097656 -23.457031 3.640625 -24.738281 3.640625 -26.375 C 3.640625 -27.257812 3.929688 -28.210938 4.515625 -29.234375 C 5.097656 -30.253906 5.914062 -31.25 6.96875 -32.21875 C 8.070312 -33.226562 9.539062 -34.039062 11.375 -34.65625 C 13.21875 -35.269531 15.203125 -35.578125 17.328125 -35.578125 C 19.117188 -35.578125 20.734375 -35.375 22.171875 -34.96875 C 23.617188 -34.570312 24.921875 -33.945312 26.078125 -33.09375 C 27.265625 -32.207031 28.175781 -30.988281 28.8125 -29.4375 C 29.445312 -27.882812 29.765625 -26.066406 29.765625 -23.984375 L 29.765625 -9.140625 C 29.765625 -8.210938 29.875 -7.375 30.09375 -6.625 C 30.320312 -5.882812 30.71875 -5.222656 31.28125 -4.640625 C 31.90625 -4.023438 32.671875 -3.71875 33.578125 -3.71875 C 36.304688 -3.71875 37.671875 -5.628906 37.671875 -9.453125 L 37.671875 -14.265625 L 41.1875 -14.265625 L 41.1875 -10.109375 C 41.1875 -7.972656 40.957031 -6.15625 40.5 -4.65625 C 40.050781 -3.164062 39.398438 -2.035156 38.546875 -1.265625 C 37.703125 -0.503906 36.773438 0.0390625 35.765625 0.375 C 34.753906 0.707031 33.5625 0.875 32.1875 0.875 C 30.695312 0.875 29.332031 0.582031 28.09375 0 C 26.863281 -0.582031 25.816406 -1.472656 24.953125 -2.671875 C 24.023438 -3.941406 23.488281 -5.453125 23.34375 -7.203125 C 22.738281 -5.648438 21.828125 -4.257812 20.609375 -3.03125 C 19.390625 -1.800781 17.984375 -0.84375 16.390625 -0.15625 C 14.804688 0.53125 13.171875 0.875 11.484375 0.875 Z M 13.171875 -3.78125 C 14.566406 -3.78125 16.03125 -4.195312 17.5625 -5.03125 C 19.09375 -5.875 20.351562 -6.953125 21.34375 -8.265625 C 22.332031 -9.535156 22.828125 -10.769531 22.828125 -11.96875 L 22.828125 -18.84375 C 21.597656 -17.625 20.113281 -16.472656 18.375 -15.390625 C 16.644531 -14.316406 15.070312 -13.457031 13.65625 -12.8125 C 12.382812 -12.25 11.351562 -11.507812 10.5625 -10.59375 C 9.78125 -9.6875 9.390625 -8.617188 9.390625 -7.390625 C 9.390625 -6.296875 9.71875 -5.421875 10.375 -4.765625 C 11.03125 -4.109375 11.960938 -3.78125 13.171875 -3.78125 Z M 13.171875 -3.78125 "/></g></g></g><g fill="#000000" fill-opacity="1"><g transform="translate(177.488289, 175.343855)"><g><path d="M 28.4375 -6.359375 C 25.726562 -1.535156 21.84375 0.875 16.78125 0.875 C 16.007812 0.875 15.28125 0.816406 14.59375 0.703125 C 13.90625 0.597656 13.128906 0.40625 12.265625 0.125 C 10.671875 -0.363281 9.21875 -1.546875 7.90625 -3.421875 C 7.28125 -4.304688 6.796875 -5.453125 6.453125 -6.859375 C 6.109375 -8.265625 5.9375 -9.851562 5.9375 -11.625 L 5.9375 -31.015625 L -0.125 -31.015625 L -0.125 -34.640625 L 12.875 -34.640625 L 12.875 -11.6875 C 12.875 -8.84375 13.328125 -6.785156 14.234375 -5.515625 C 15.140625 -4.242188 16.5625 -3.609375 18.5 -3.609375 C 19.875 -3.609375 21.316406 -4.015625 22.828125 -4.828125 C 24.347656 -5.648438 25.625 -6.726562 26.65625 -8.0625 C 27.695312 -9.40625 28.21875 -10.753906 28.21875 -12.109375 L 28.21875 -31.015625 L 22.34375 -31.015625 L 22.34375 -34.640625 L 35.1875 -34.640625 L 35.1875 -3.640625 L 41.453125 -2.96875 L 41.453125 0 L 28.4375 0.9375 Z M 28.4375 -6.359375 "/></g></g></g><g fill="#000000" fill-opacity="1"><g transform="translate(218.997653, 175.343855)"><g><path d="M 19.234375 0.875 C 16.648438 0.875 14.269531 0.382812 12.09375 -0.59375 C 9.925781 -1.570312 8.132812 -2.921875 6.71875 -4.640625 C 5.3125 -6.328125 4.238281 -8.222656 3.5 -10.328125 C 2.757812 -12.441406 2.390625 -14.625 2.390625 -16.875 C 2.390625 -18.832031 2.617188 -20.726562 3.078125 -22.5625 C 3.546875 -24.394531 4.226562 -26.082031 5.125 -27.625 C 7.113281 -31.007812 9.765625 -33.328125 13.078125 -34.578125 C 14.816406 -35.242188 16.738281 -35.578125 18.84375 -35.578125 C 21.039062 -35.578125 23.085938 -35.1875 24.984375 -34.40625 C 26.878906 -33.632812 28.535156 -32.515625 29.953125 -31.046875 C 31.398438 -29.546875 32.535156 -27.65625 33.359375 -25.375 C 34.191406 -23.09375 34.628906 -20.5625 34.671875 -17.78125 L 9.78125 -17.78125 L 9.78125 -17.53125 C 9.78125 -13.78125 10.578125 -10.625 12.171875 -8.0625 C 12.960938 -6.78125 14.023438 -5.773438 15.359375 -5.046875 C 16.691406 -4.328125 18.210938 -3.96875 19.921875 -3.96875 C 21.421875 -3.96875 22.875 -4.285156 24.28125 -4.921875 C 25.695312 -5.554688 26.925781 -6.476562 27.96875 -7.6875 C 29.007812 -8.90625 29.757812 -10.332031 30.21875 -11.96875 L 33.984375 -10.78125 C 33.429688 -8.414062 32.472656 -6.351562 31.109375 -4.59375 C 29.753906 -2.84375 28.066406 -1.492188 26.046875 -0.546875 C 24.023438 0.398438 21.753906 0.875 19.234375 0.875 Z M 27.5625 -21.265625 C 27.519531 -23.316406 27.113281 -25.128906 26.34375 -26.703125 C 25.582031 -28.285156 24.5625 -29.519531 23.28125 -30.40625 C 22.007812 -31.289062 20.597656 -31.734375 19.046875 -31.734375 C 17.472656 -31.734375 16.03125 -31.289062 14.71875 -30.40625 C 13.40625 -29.519531 12.332031 -28.285156 11.5 -26.703125 C 10.675781 -25.128906 10.175781 -23.316406 10 -21.265625 Z M 27.5625 -21.265625 "/></g></g></g><g fill="#000000" fill-opacity="1"><g transform="translate(256.117224, 175.343855)"><g><path d="M 1.578125 -3.609375 L 7.875 -3.609375 L 7.875 -31.015625 L 1.578125 -31.015625 L 1.578125 -34.640625 L 13.8125 -35.1875 L 14.6875 -27.625 C 15.226562 -29.457031 16.207031 -31.179688 17.625 -32.796875 C 18.375 -33.660156 19.300781 -34.335938 20.40625 -34.828125 C 21.519531 -35.328125 22.710938 -35.578125 23.984375 -35.578125 C 25.171875 -35.578125 26.25 -35.351562 27.21875 -34.90625 C 28.1875 -34.46875 28.953125 -33.828125 29.515625 -32.984375 C 30.085938 -32.148438 30.375 -31.160156 30.375 -30.015625 C 30.375 -28.941406 30.148438 -28 29.703125 -27.1875 C 29.265625 -26.382812 28.671875 -25.769531 27.921875 -25.34375 C 27.171875 -24.925781 26.34375 -24.71875 25.4375 -24.71875 C 24.164062 -24.71875 23.082031 -25.113281 22.1875 -25.90625 C 21.300781 -26.707031 20.859375 -27.742188 20.859375 -29.015625 C 20.859375 -29.429688 20.957031 -29.875 21.15625 -30.34375 C 21.363281 -30.8125 21.585938 -31.195312 21.828125 -31.5 L 22.171875 -31.859375 C 20.898438 -31.859375 19.769531 -31.460938 18.78125 -30.671875 C 17.789062 -29.890625 17.019531 -28.8125 16.46875 -27.4375 C 15.363281 -24.769531 14.8125 -21.8125 14.8125 -18.5625 L 14.8125 -3.609375 L 22.078125 -3.609375 L 22.078125 0 L 1.578125 0 Z M 1.578125 -3.609375 "/></g></g></g><g fill="#000000" fill-opacity="1"><g transform="translate(89.95064, 246.448538)"><g><path d="M 1.0625 -4.609375 L 9 -4.609375 L 9 -43.96875 L 1.0625 -43.96875 L 1.0625 -48.578125 L 22.203125 -48.578125 C 25.085938 -48.578125 27.941406 -48.296875 30.765625 -47.734375 C 33.710938 -47.160156 36.273438 -46 38.453125 -44.25 C 39.503906 -43.394531 40.316406 -42.304688 40.890625 -40.984375 C 41.472656 -39.660156 41.765625 -38.191406 41.765625 -36.578125 C 41.765625 -33.859375 41.019531 -31.648438 39.53125 -29.953125 C 38.050781 -28.253906 35.828125 -26.972656 32.859375 -26.109375 C 36.609375 -25.179688 39.460938 -23.644531 41.421875 -21.5 C 43.378906 -19.363281 44.359375 -16.628906 44.359375 -13.296875 C 44.359375 -11.617188 44.101562 -10.078125 43.59375 -8.671875 C 43.082031 -7.273438 42.398438 -6.109375 41.546875 -5.171875 C 40.765625 -4.304688 39.75 -3.53125 38.5 -2.84375 C 37.257812 -2.15625 35.992188 -1.628906 34.703125 -1.265625 C 33.578125 -0.941406 32.226562 -0.675781 30.65625 -0.46875 C 29.09375 -0.257812 27.675781 -0.125 26.40625 -0.0625 C 24.894531 -0.0195312 23.582031 0 22.46875 0 L 1.0625 0 Z M 23.59375 -27.828125 C 26.4375 -27.828125 28.957031 -28.394531 31.15625 -29.53125 C 32.269531 -30.113281 33.148438 -30.921875 33.796875 -31.953125 C 34.441406 -32.984375 34.765625 -34.171875 34.765625 -35.515625 C 34.765625 -37.554688 34.3125 -39.222656 33.40625 -40.515625 C 32.65625 -41.546875 31.320312 -42.382812 29.40625 -43.03125 C 28.09375 -43.4375 26.003906 -43.726562 23.140625 -43.90625 C 21.679688 -43.945312 20.359375 -43.96875 19.171875 -43.96875 L 16.59375 -43.96875 L 16.59375 -27.828125 Z M 20.4375 -4.609375 C 23.25 -4.609375 25.613281 -4.707031 27.53125 -4.90625 C 28.582031 -5.007812 29.5 -5.160156 30.28125 -5.359375 C 31.070312 -5.554688 31.859375 -5.816406 32.640625 -6.140625 C 33.347656 -6.410156 33.9375 -6.757812 34.40625 -7.1875 C 34.882812 -7.625 35.328125 -8.164062 35.734375 -8.8125 C 36.421875 -9.90625 36.765625 -11.488281 36.765625 -13.5625 C 36.765625 -15.195312 36.398438 -16.664062 35.671875 -17.96875 C 34.941406 -19.269531 33.929688 -20.328125 32.640625 -21.140625 C 31.367188 -21.921875 29.960938 -22.515625 28.421875 -22.921875 C 26.878906 -23.328125 25.269531 -23.53125 23.59375 -23.53125 L 16.59375 -23.53125 L 16.59375 -4.609375 Z M 20.4375 -4.609375 "/></g></g></g><g fill="#000000" fill-opacity="1"><g transform="translate(136.592197, 246.448538)"><g><path d="M 11.484375 0.875 C 9.722656 0.875 8.164062 0.554688 6.8125 -0.078125 C 5.457031 -0.710938 4.398438 -1.628906 3.640625 -2.828125 C 2.890625 -4.035156 2.515625 -5.445312 2.515625 -7.0625 C 2.515625 -8.332031 2.800781 -9.5 3.375 -10.5625 C 3.945312 -11.632812 4.726562 -12.535156 5.71875 -13.265625 C 6.664062 -13.972656 7.742188 -14.648438 8.953125 -15.296875 C 10.171875 -15.941406 11.414062 -16.503906 12.6875 -16.984375 C 15.269531 -17.910156 17.59375 -18.972656 19.65625 -20.171875 C 20.644531 -20.753906 21.421875 -21.453125 21.984375 -22.265625 C 22.546875 -23.085938 22.828125 -23.972656 22.828125 -24.921875 C 22.828125 -27.328125 22.234375 -29.140625 21.046875 -30.359375 C 19.859375 -31.578125 18.160156 -32.1875 15.953125 -32.1875 C 14.398438 -32.1875 12.9375 -31.941406 11.5625 -31.453125 C 10.195312 -30.972656 9.140625 -30.3125 8.390625 -29.46875 C 9.722656 -29.46875 10.800781 -29.109375 11.625 -28.390625 C 12.457031 -27.671875 12.875 -26.785156 12.875 -25.734375 C 12.875 -24.847656 12.675781 -24.054688 12.28125 -23.359375 C 11.882812 -22.660156 11.34375 -22.113281 10.65625 -21.71875 C 9.96875 -21.332031 9.210938 -21.140625 8.390625 -21.140625 C 7.054688 -21.140625 5.929688 -21.601562 5.015625 -22.53125 C 4.097656 -23.457031 3.640625 -24.738281 3.640625 -26.375 C 3.640625 -27.257812 3.929688 -28.210938 4.515625 -29.234375 C 5.097656 -30.253906 5.914062 -31.25 6.96875 -32.21875 C 8.070312 -33.226562 9.539062 -34.039062 11.375 -34.65625 C 13.21875 -35.269531 15.203125 -35.578125 17.328125 -35.578125 C 19.117188 -35.578125 20.734375 -35.375 22.171875 -34.96875 C 23.617188 -34.570312 24.921875 -33.945312 26.078125 -33.09375 C 27.265625 -32.207031 28.175781 -30.988281 28.8125 -29.4375 C 29.445312 -27.882812 29.765625 -26.066406 29.765625 -23.984375 L 29.765625 -9.140625 C 29.765625 -8.210938 29.875 -7.375 30.09375 -6.625 C 30.320312 -5.882812 30.71875 -5.222656 31.28125 -4.640625 C 31.90625 -4.023438 32.671875 -3.71875 33.578125 -3.71875 C 36.304688 -3.71875 37.671875 -5.628906 37.671875 -9.453125 L 37.671875 -14.265625 L 41.1875 -14.265625 L 41.1875 -10.109375 C 41.1875 -7.972656 40.957031 -6.15625 40.5 -4.65625 C 40.050781 -3.164062 39.398438 -2.035156 38.546875 -1.265625 C 37.703125 -0.503906 36.773438 0.0390625 35.765625 0.375 C 34.753906 0.707031 33.5625 0.875 32.1875 0.875 C 30.695312 0.875 29.332031 0.582031 28.09375 0 C 26.863281 -0.582031 25.816406 -1.472656 24.953125 -2.671875 C 24.023438 -3.941406 23.488281 -5.453125 23.34375 -7.203125 C 22.738281 -5.648438 21.828125 -4.257812 20.609375 -3.03125 C 19.390625 -1.800781 17.984375 -0.84375 16.390625 -0.15625 C 14.804688 0.53125 13.171875 0.875 11.484375 0.875 Z M 13.171875 -3.78125 C 14.566406 -3.78125 16.03125 -4.195312 17.5625 -5.03125 C 19.09375 -5.875 20.351562 -6.953125 21.34375 -8.265625 C 22.332031 -9.535156 22.828125 -10.769531 22.828125 -11.96875 L 22.828125 -18.84375 C 21.597656 -17.625 20.113281 -16.472656 18.375 -15.390625 C 16.644531 -14.316406 15.070312 -13.457031 13.65625 -12.8125 C 12.382812 -12.25 11.351562 -11.507812 10.5625 -10.59375 C 9.78125 -9.6875 9.390625 -8.617188 9.390625 -7.390625 C 9.390625 -6.296875 9.71875 -5.421875 10.375 -4.765625 C 11.03125 -4.109375 11.960938 -3.78125 13.171875 -3.78125 Z M 13.171875 -3.78125 "/></g></g></g><g fill="#000000" fill-opacity="1"><g transform="translate(177.488289, 246.448538)"><g><path d="M 1.578125 -3.609375 L 7.875 -3.609375 L 7.875 -31.015625 L 1.578125 -31.015625 L 1.578125 -34.640625 L 13.8125 -35.1875 L 14.6875 -27.625 C 15.226562 -29.457031 16.207031 -31.179688 17.625 -32.796875 C 18.375 -33.660156 19.300781 -34.335938 20.40625 -34.828125 C 21.519531 -35.328125 22.710938 -35.578125 23.984375 -35.578125 C 25.171875 -35.578125 26.25 -35.351562 27.21875 -34.90625 C 28.1875 -34.46875 28.953125 -33.828125 29.515625 -32.984375 C 30.085938 -32.148438 30.375 -31.160156 30.375 -30.015625 C 30.375 -28.941406 30.148438 -28 29.703125 -27.1875 C 29.265625 -26.382812 28.671875 -25.769531 27.921875 -25.34375 C 27.171875 -24.925781 26.34375 -24.71875 25.4375 -24.71875 C 24.164062 -24.71875 23.082031 -25.113281 22.1875 -25.90625 C 21.300781 -26.707031 20.859375 -27.742188 20.859375 -29.015625 C 20.859375 -29.429688 20.957031 -29.875 21.15625 -30.34375 C 21.363281 -30.8125 21.585938 -31.195312 21.828125 -31.5 L 22.171875 -31.859375 C 20.898438 -31.859375 19.769531 -31.460938 18.78125 -30.671875 C 17.789062 -29.890625 17.019531 -28.8125 16.46875 -27.4375 C 15.363281 -24.769531 14.8125 -21.8125 14.8125 -18.5625 L 14.8125 -3.609375 L 22.078125 -3.609375 L 22.078125 0 L 1.578125 0 Z M 1.578125 -3.609375 "/></g></g></g><g fill="#000000" fill-opacity="1"><g transform="translate(208.281395, 246.448538)"><g><path d="M 21.203125 0.875 C 18.734375 0.875 16.472656 0.253906 14.421875 -0.984375 C 12.378906 -2.222656 10.851562 -4.035156 9.84375 -6.421875 L 7.328125 0 L 4.359375 0 L 4.359375 -44.609375 L -2.328125 -44.609375 L -2.328125 -48.578125 L 11.296875 -48.578125 L 11.296875 -30.40625 C 12.390625 -32.019531 13.78125 -33.285156 15.46875 -34.203125 C 17.164062 -35.117188 18.972656 -35.578125 20.890625 -35.578125 C 23.835938 -35.578125 26.441406 -34.804688 28.703125 -33.265625 C 30.960938 -31.722656 32.703125 -29.566406 33.921875 -26.796875 C 35.148438 -24.035156 35.765625 -20.878906 35.765625 -17.328125 C 35.765625 -13.910156 35.15625 -10.820312 33.9375 -8.0625 C 32.726562 -5.3125 31.015625 -3.140625 28.796875 -1.546875 C 26.578125 0.0664062 24.046875 0.875 21.203125 0.875 Z M 19.890625 -3.03125 C 21.585938 -3.03125 23.109375 -3.695312 24.453125 -5.03125 C 25.796875 -6.363281 26.789062 -8.109375 27.4375 -10.265625 C 28.0625 -12.367188 28.375 -14.585938 28.375 -16.921875 C 28.375 -20.722656 27.75 -24.097656 26.5 -27.046875 C 25.832031 -28.554688 24.925781 -29.742188 23.78125 -30.609375 C 22.644531 -31.484375 21.347656 -31.921875 19.890625 -31.921875 C 18.503906 -31.921875 17.226562 -31.503906 16.0625 -30.671875 C 14.90625 -29.847656 13.992188 -28.75 13.328125 -27.375 C 12.660156 -26.039062 12.15625 -24.640625 11.8125 -23.171875 C 11.46875 -21.710938 11.296875 -20.269531 11.296875 -18.84375 C 11.296875 -15.894531 11.640625 -13.234375 12.328125 -10.859375 C 13.015625 -8.484375 14.003906 -6.597656 15.296875 -5.203125 C 16.609375 -3.753906 18.140625 -3.03125 19.890625 -3.03125 Z M 19.890625 -3.03125 "/></g></g></g><g fill="#000000" fill-opacity="1"><g transform="translate(246.530701, 246.448538)"><g><path d="M 19.234375 0.875 C 16.648438 0.875 14.269531 0.382812 12.09375 -0.59375 C 9.925781 -1.570312 8.132812 -2.921875 6.71875 -4.640625 C 5.3125 -6.328125 4.238281 -8.222656 3.5 -10.328125 C 2.757812 -12.441406 2.390625 -14.625 2.390625 -16.875 C 2.390625 -18.832031 2.617188 -20.726562 3.078125 -22.5625 C 3.546875 -24.394531 4.226562 -26.082031 5.125 -27.625 C 7.113281 -31.007812 9.765625 -33.328125 13.078125 -34.578125 C 14.816406 -35.242188 16.738281 -35.578125 18.84375 -35.578125 C 21.039062 -35.578125 23.085938 -35.1875 24.984375 -34.40625 C 26.878906 -33.632812 28.535156 -32.515625 29.953125 -31.046875 C 31.398438 -29.546875 32.535156 -27.65625 33.359375 -25.375 C 34.191406 -23.09375 34.628906 -20.5625 34.671875 -17.78125 L 9.78125 -17.78125 L 9.78125 -17.53125 C 9.78125 -13.78125 10.578125 -10.625 12.171875 -8.0625 C 12.960938 -6.78125 14.023438 -5.773438 15.359375 -5.046875 C 16.691406 -4.328125 18.210938 -3.96875 19.921875 -3.96875 C 21.421875 -3.96875 22.875 -4.285156 24.28125 -4.921875 C 25.695312 -5.554688 26.925781 -6.476562 27.96875 -7.6875 C 29.007812 -8.90625 29.757812 -10.332031 30.21875 -11.96875 L 33.984375 -10.78125 C 33.429688 -8.414062 32.472656 -6.351562 31.109375 -4.59375 C 29.753906 -2.84375 28.066406 -1.492188 26.046875 -0.546875 C 24.023438 0.398438 21.753906 0.875 19.234375 0.875 Z M 27.5625 -21.265625 C 27.519531 -23.316406 27.113281 -25.128906 26.34375 -26.703125 C 25.582031 -28.285156 24.5625 -29.519531 23.28125 -30.40625 C 22.007812 -31.289062 20.597656 -31.734375 19.046875 -31.734375 C 17.472656 -31.734375 16.03125 -31.289062 14.71875 -30.40625 C 13.40625 -29.519531 12.332031 -28.285156 11.5 -26.703125 C 10.675781 -25.128906 10.175781 -23.316406 10 -21.265625 Z M 27.5625 -21.265625 "/></g></g></g><g fill="#000000" fill-opacity="1"><g transform="translate(283.650271, 246.448538)"><g><path d="M 1.578125 -3.609375 L 7.875 -3.609375 L 7.875 -31.015625 L 1.578125 -31.015625 L 1.578125 -34.640625 L 13.8125 -35.1875 L 14.6875 -27.625 C 15.226562 -29.457031 16.207031 -31.179688 17.625 -32.796875 C 18.375 -33.660156 19.300781 -34.335938 20.40625 -34.828125 C 21.519531 -35.328125 22.710938 -35.578125 23.984375 -35.578125 C 25.171875 -35.578125 26.25 -35.351562 27.21875 -34.90625 C 28.1875 -34.46875 28.953125 -33.828125 29.515625 -32.984375 C 30.085938 -32.148438 30.375 -31.160156 30.375 -30.015625 C 30.375 -28.941406 30.148438 -28 29.703125 -27.1875 C 29.265625 -26.382812 28.671875 -25.769531 27.921875 -25.34375 C 27.171875 -24.925781 26.34375 -24.71875 25.4375 -24.71875 C 24.164062 -24.71875 23.082031 -25.113281 22.1875 -25.90625 C 21.300781 -26.707031 20.859375 -27.742188 20.859375 -29.015625 C 20.859375 -29.429688 20.957031 -29.875 21.15625 -30.34375 C 21.363281 -30.8125 21.585938 -31.195312 21.828125 -31.5 L 22.171875 -31.859375 C 20.898438 -31.859375 19.769531 -31.460938 18.78125 -30.671875 C 17.789062 -29.890625 17.019531 -28.8125 16.46875 -27.4375 C 15.363281 -24.769531 14.8125 -21.8125 14.8125 -18.5625 L 14.8125 -3.609375 L 22.078125 -3.609375 L 22.078125 0 L 1.578125 0 Z M 1.578125 -3.609375 "/></g></g></g><g fill="#000000" fill-opacity="1"><g transform="translate(314.443376, 246.448538)"><g><path d="M 16.59375 0.875 C 13.125 0.875 10.003906 0.21875 7.234375 -1.09375 C 5.785156 -1.757812 4.640625 -2.675781 3.796875 -3.84375 C 2.960938 -5.019531 2.546875 -6.351562 2.546875 -7.84375 C 2.546875 -8.75 2.75 -9.570312 3.15625 -10.3125 C 3.570312 -11.050781 4.117188 -11.625 4.796875 -12.03125 C 5.472656 -12.445312 6.195312 -12.65625 6.96875 -12.65625 C 8.238281 -12.65625 9.28125 -12.3125 10.09375 -11.625 C 10.914062 -10.9375 11.328125 -9.976562 11.328125 -8.75 C 11.328125 -8.039062 11.179688 -7.394531 10.890625 -6.8125 C 10.597656 -6.226562 10.203125 -5.769531 9.703125 -5.4375 C 9.210938 -5.101562 8.703125 -4.9375 8.171875 -4.9375 C 9.003906 -4.332031 10.125 -3.832031 11.53125 -3.4375 C 12.945312 -3.039062 14.351562 -2.84375 15.75 -2.84375 C 17.539062 -2.84375 19.0625 -3.015625 20.3125 -3.359375 C 21.570312 -3.703125 22.644531 -4.289062 23.53125 -5.125 C 24.457031 -5.988281 24.921875 -7.117188 24.921875 -8.515625 C 24.921875 -9.535156 24.609375 -10.453125 23.984375 -11.265625 C 23.359375 -12.085938 22.519531 -12.734375 21.46875 -13.203125 C 19.125 -14.253906 16.59375 -15.132812 13.875 -15.84375 C 12.476562 -16.207031 11.117188 -16.671875 9.796875 -17.234375 C 8.472656 -17.796875 7.304688 -18.421875 6.296875 -19.109375 C 5.222656 -19.816406 4.378906 -20.738281 3.765625 -21.875 C 3.148438 -23.019531 2.84375 -24.304688 2.84375 -25.734375 C 2.84375 -27.148438 3.148438 -28.441406 3.765625 -29.609375 C 4.378906 -30.785156 5.191406 -31.75 6.203125 -32.5 C 7.148438 -33.1875 8.238281 -33.78125 9.46875 -34.28125 C 10.707031 -34.78125 11.921875 -35.125 13.109375 -35.3125 C 14.304688 -35.488281 15.398438 -35.578125 16.390625 -35.578125 C 17.941406 -35.578125 19.507812 -35.40625 21.09375 -35.0625 C 22.675781 -34.71875 24.15625 -34.234375 25.53125 -33.609375 C 26.925781 -32.941406 28.046875 -32.082031 28.890625 -31.03125 C 29.734375 -29.988281 30.15625 -28.863281 30.15625 -27.65625 C 30.15625 -26.738281 29.960938 -25.90625 29.578125 -25.15625 C 29.203125 -24.414062 28.691406 -23.84375 28.046875 -23.4375 C 27.398438 -23.03125 26.710938 -22.828125 25.984375 -22.828125 C 24.710938 -22.828125 23.65625 -23.203125 22.8125 -23.953125 C 21.976562 -24.703125 21.5625 -25.710938 21.5625 -26.984375 C 21.5625 -27.546875 21.703125 -28.085938 21.984375 -28.609375 C 22.265625 -29.140625 22.566406 -29.535156 22.890625 -29.796875 L 24.015625 -30.5625 C 21.890625 -31.601562 19.476562 -32.125 16.78125 -32.125 C 15.300781 -32.125 13.957031 -31.898438 12.75 -31.453125 C 11.539062 -31.015625 10.59375 -30.375 9.90625 -29.53125 C 9.21875 -28.695312 8.875 -27.707031 8.875 -26.5625 C 8.875 -25.75 9.1875 -25.007812 9.8125 -24.34375 C 10.4375 -23.675781 11.285156 -23.144531 12.359375 -22.75 C 14.859375 -21.789062 17.398438 -20.960938 19.984375 -20.265625 C 21.359375 -19.878906 22.710938 -19.375 24.046875 -18.75 C 25.378906 -18.125 26.570312 -17.425781 27.625 -16.65625 C 28.707031 -15.882812 29.550781 -14.878906 30.15625 -13.640625 C 30.769531 -12.398438 31.078125 -11.023438 31.078125 -9.515625 C 31.078125 -7.992188 30.796875 -6.617188 30.234375 -5.390625 C 29.679688 -4.160156 28.929688 -3.148438 27.984375 -2.359375 C 27.097656 -1.609375 26.019531 -0.976562 24.75 -0.46875 C 23.488281 0.0390625 22.164062 0.390625 20.78125 0.578125 C 19.46875 0.773438 18.070312 0.875 16.59375 0.875 Z M 16.59375 0.875 "/></g></g></g></svg>