<svg xmlns="http://www.w3.org/2000/svg" xmlns:xlink="http://www.w3.org/1999/xlink" width="500" zoomAndPan="magnify" viewBox="0 0 375 374.999991" height="500" preserveAspectRatio="xMidYMid meet" version="1.0"><defs><g/><clipPath id="3cb80cdd7f"><path d="M 128 83 L 245 83 L 245 201 L 128 201 Z M 128 83 " clip-rule="nonzero"/></clipPath><clipPath id="82bd2937fb"><path d="M 158.988281 65.078125 L 263.667969 113.894531 L 215.800781 216.53125 L 111.125 167.71875 Z M 158.988281 65.078125 " clip-rule="nonzero"/></clipPath><clipPath id="1fa3b9138c"><path d="M 158.988281 65.078125 L 263.667969 113.894531 L 215.800781 216.53125 L 111.125 167.71875 Z M 158.988281 65.078125 " clip-rule="nonzero"/></clipPath><clipPath id="cac84683bc"><path d="M 159.066406 65.117188 L 264.03125 114.066406 L 216.03125 216.992188 L 111.070312 168.042969 Z M 159.066406 65.117188 " clip-rule="nonzero"/></clipPath><clipPath id="b193b04929"><path d="M 159.066406 65.117188 L 263.90625 114.007812 L 215.917969 216.917969 L 111.078125 168.027344 Z M 159.066406 65.117188 " clip-rule="nonzero"/></clipPath></defs><g clip-path="url(#3cb80cdd7f)"><g clip-path="url(#82bd2937fb)"><g clip-path="url(#1fa3b9138c)"><g clip-path="url(#cac84683bc)"><g clip-path="url(#b193b04929)"><path fill="#000000" d="M 239.253906 166.847656 C 252.285156 137.40625 239.1875 102.480469 210.011719 88.875 C 184.507812 76.980469 155.15625 85.277344 139.453125 107.175781 C 143.457031 102.746094 149.675781 97.546875 158.359375 94.734375 C 175.390625 89.195312 184.945312 92.199219 184.945312 92.199219 C 151.277344 93.828125 128.609375 124.316406 128.964844 148.996094 C 130.449219 160.644531 135.367188 171.734375 143.109375 180.699219 C 145.539062 182.640625 148.140625 183.988281 149.796875 180.265625 L 149.816406 180.277344 C 151.105469 173.183594 153.078125 159.382812 152.058594 156.835938 C 150.722656 153.519531 144.816406 152.21875 143.921875 148.546875 C 143.035156 144.847656 150.941406 107.179688 150.941406 107.179688 C 150.941406 107.179688 152.03125 106.691406 152.625 107.316406 C 153.199219 107.988281 147.878906 142.371094 148.441406 143.46875 C 149.007812 144.566406 149.039062 144.097656 149.535156 144.355469 C 149.960938 144.421875 150.523438 144.601562 151.292969 143.238281 C 152.074219 141.855469 155.445312 109.007812 155.640625 108.535156 C 155.820312 108.027344 156.402344 106.496094 157.414062 107.210938 C 158.433594 107.902344 155.128906 142.175781 155.429688 143.203125 C 155.75 144.242188 156.210938 144.238281 156.714844 144.421875 C 157.171875 144.3125 157.46875 144.421875 157.902344 143.496094 C 158.347656 142.597656 160.441406 108.164062 161.539062 107.652344 C 162.648438 107.121094 162.996094 108.738281 163.097656 109.269531 C 163.203125 109.800781 161.417969 142.820312 161.972656 144.289062 C 162.503906 145.746094 163.046875 145.679688 163.460938 145.710938 C 164.046875 145.550781 164.027344 146 164.773438 145.03125 C 165.511719 144.027344 165.585938 109.191406 166.246094 108.636719 C 166.917969 108.117188 167.941406 108.808594 167.941406 108.808594 C 167.941406 108.808594 169.792969 147.371094 168.367188 150.824219 C 166.9375 154.300781 160.675781 154.851562 158.882812 157.890625 C 157.476562 160.222656 157.09375 176.160156 157.230469 184.515625 C 157.339844 186.125 157.722656 188.429688 158.980469 189.824219 C 161.085938 192.179688 162.640625 191.609375 163.898438 188.96875 L 178.144531 159.230469 C 178.507812 158.164062 178.796875 157.085938 178.78125 156.191406 C 178.742188 155.234375 178.449219 154.367188 178.101562 153.722656 C 173.703125 149.542969 172.238281 142.699219 176.257812 133.621094 C 181.375 122.125 193.367188 111.355469 200.769531 114.808594 C 208.175781 118.261719 208.164062 134.617188 203.066406 146.125 C 199.285156 154.695312 193.738281 158.164062 188.117188 157.988281 C 187.335938 158.214844 186.234375 158.617188 185.347656 159.308594 C 184.738281 159.804688 184.058594 160.859375 183.5 161.945312 L 171.074219 191.589844 L 171.097656 191.597656 C 171.097656 191.597656 170.675781 194.925781 172.285156 195.570312 C 173.101562 195.898438 174.09375 195.148438 174.871094 194.355469 L 174.847656 194.34375 C 174.847656 194.34375 175.144531 193.996094 175.695312 193.394531 C 175.980469 193.015625 176.15625 192.746094 176.15625 192.746094 L 176.210938 192.800781 C 183.199219 184.917969 214.675781 149.332031 217.480469 145.742188 C 220.652344 141.707031 228.304688 132.679688 230.5625 135.859375 C 232.824219 139.039062 227.945312 152.667969 219.453125 166.089844 C 210.9375 179.503906 203.632812 186.402344 198.523438 188.351562 C 193.40625 190.269531 190.496094 186.007812 186.820312 189.675781 C 184.335938 192.175781 182.019531 195.183594 180.765625 196.886719 C 180.589844 197.558594 180.347656 199.167969 181.703125 200.070312 C 182.394531 200.554688 183.335938 200.777344 184.191406 200.90625 C 184.914062 200.921875 185.644531 200.964844 186.375 200.957031 C 208.5 201.234375 229.632812 188.570312 239.253906 166.847656 " fill-opacity="1" fill-rule="evenodd"/></g></g></g></g></g><g fill="#000000" fill-opacity="1"><g transform="translate(74.924968, 253.079937)"><g><path d="M 38.703125 -10.171875 C 37.992188 -5.460938 35.597656 -1.757812 31.515625 0.9375 C 27.441406 3.632812 22.796875 4.59375 17.578125 3.8125 C 15.660156 3.53125 13.765625 2.945312 11.890625 2.0625 C 10.023438 1.1875 8.222656 0.0234375 6.484375 -1.421875 C 6.640625 -5.984375 6.945312 -10.671875 7.40625 -15.484375 C 7.863281 -20.304688 8.488281 -25.390625 9.28125 -30.734375 C 9.632812 -33.054688 9.90625 -34.800781 10.09375 -35.96875 C 10.289062 -37.144531 10.488281 -38.234375 10.6875 -39.234375 C 13.050781 -39.992188 15.484375 -40.484375 17.984375 -40.703125 C 20.492188 -40.921875 22.9375 -40.851562 25.3125 -40.5 C 30.0625 -39.789062 33.554688 -38.425781 35.796875 -36.40625 C 38.046875 -34.382812 38.9375 -31.816406 38.46875 -28.703125 C 38.1875 -26.796875 37.507812 -25.132812 36.4375 -23.71875 C 35.375 -22.300781 33.945312 -21.15625 32.15625 -20.28125 C 34.519531 -19.164062 36.273438 -17.71875 37.421875 -15.9375 C 38.578125 -14.15625 39.003906 -12.234375 38.703125 -10.171875 Z M 26.84375 -28.765625 C 27.070312 -30.328125 26.816406 -31.554688 26.078125 -32.453125 C 25.335938 -33.359375 24.128906 -33.9375 22.453125 -34.1875 L 22.28125 -34.21875 C 21.757812 -32.070312 21.285156 -30.023438 20.859375 -28.078125 C 20.441406 -26.128906 20.054688 -24.265625 19.703125 -22.484375 C 21.753906 -22.617188 23.382812 -23.234375 24.59375 -24.328125 C 25.8125 -25.421875 26.5625 -26.898438 26.84375 -28.765625 Z M 16.8125 -4.296875 C 17.320312 -3.941406 17.796875 -3.660156 18.234375 -3.453125 C 18.679688 -3.253906 19.144531 -3.117188 19.625 -3.046875 C 21.175781 -2.816406 22.648438 -3.375 24.046875 -4.71875 C 25.441406 -6.0625 26.28125 -7.691406 26.5625 -9.609375 C 26.800781 -11.203125 26.523438 -12.484375 25.734375 -13.453125 C 24.941406 -14.421875 23.664062 -15.035156 21.90625 -15.296875 C 21.40625 -15.367188 20.875 -15.382812 20.3125 -15.34375 C 19.75 -15.3125 19.117188 -15.210938 18.421875 -15.046875 C 18.296875 -14.503906 18.1875 -13.929688 18.09375 -13.328125 C 18.007812 -12.734375 17.875 -11.8125 17.6875 -10.5625 C 17.425781 -8.8125 17.234375 -7.507812 17.109375 -6.65625 C 16.984375 -5.800781 16.882812 -5.015625 16.8125 -4.296875 Z M 16.8125 -4.296875 "/></g></g></g><g fill="#000000" fill-opacity="1"><g transform="translate(111.024747, 258.28961)"><g><path d="M 19.265625 -29.1875 C 18.703125 -23.863281 18 -18.304688 17.15625 -12.515625 C 16.320312 -6.734375 15.488281 -1.8125 14.65625 2.25 C 13.519531 2.457031 11.988281 2.578125 10.0625 2.609375 C 8.144531 2.640625 6.382812 2.570312 4.78125 2.40625 C 5.644531 -5.769531 6.253906 -13.222656 6.609375 -19.953125 C 6.960938 -26.691406 7.066406 -32.757812 6.921875 -38.15625 C 7.921875 -38.675781 9.070312 -39.046875 10.375 -39.265625 C 11.6875 -39.484375 13.046875 -39.519531 14.453125 -39.375 C 15.515625 -39.269531 16.460938 -39.117188 17.296875 -38.921875 C 18.128906 -38.734375 19.039062 -38.453125 20.03125 -38.078125 C 19.945312 -36.867188 19.84375 -35.503906 19.71875 -33.984375 C 19.59375 -32.472656 19.441406 -30.875 19.265625 -29.1875 Z M 19.265625 -29.1875 "/></g></g></g><g fill="#000000" fill-opacity="1"><g transform="translate(129.024668, 260.413343)"><g><path d="M 36.640625 -18.546875 C 36.367188 -14.816406 36.320312 -11.140625 36.5 -7.515625 C 36.6875 -3.898438 37.109375 -0.335938 37.765625 3.171875 C 36.578125 3.410156 35.257812 3.582031 33.8125 3.6875 C 32.363281 3.800781 30.75 3.84375 28.96875 3.8125 C 28.5625 2.800781 28.1875 1.757812 27.84375 0.6875 C 27.5 -0.375 27.1875 -1.441406 26.90625 -2.515625 C 25.289062 -0.804688 23.507812 0.4375 21.5625 1.21875 C 19.625 2 17.5 2.320312 15.1875 2.1875 C 11.132812 1.925781 8.015625 0.234375 5.828125 -2.890625 C 3.640625 -6.023438 2.703125 -10.144531 3.015625 -15.25 C 3.492188 -22.914062 5.738281 -29.265625 9.75 -34.296875 C 13.757812 -39.328125 18.578125 -41.664062 24.203125 -41.3125 C 28.097656 -41.070312 31.140625 -39.75 33.328125 -37.34375 C 35.523438 -34.945312 36.675781 -31.710938 36.78125 -27.640625 C 35.019531 -27.203125 33.160156 -26.90625 31.203125 -26.75 C 29.242188 -26.601562 27.101562 -26.601562 24.78125 -26.75 C 24.476562 -29.507812 24.082031 -31.457031 23.59375 -32.59375 C 23.113281 -33.738281 22.445312 -34.335938 21.59375 -34.390625 C 20.09375 -34.484375 18.796875 -33.046875 17.703125 -30.078125 C 16.617188 -27.109375 15.925781 -23.128906 15.625 -18.140625 C 15.382812 -14.285156 15.601562 -11.445312 16.28125 -9.625 C 16.957031 -7.8125 18.160156 -6.851562 19.890625 -6.75 C 20.984375 -6.675781 22.003906 -6.976562 22.953125 -7.65625 C 23.898438 -8.332031 24.6875 -9.316406 25.3125 -10.609375 C 25.195312 -11.835938 25.097656 -13.066406 25.015625 -14.296875 C 24.929688 -15.535156 24.890625 -16.765625 24.890625 -17.984375 C 26.492188 -18.316406 28.234375 -18.53125 30.109375 -18.625 C 31.984375 -18.71875 34.160156 -18.691406 36.640625 -18.546875 Z M 36.640625 -18.546875 "/></g></g></g><g fill="#000000" fill-opacity="1"><g transform="translate(165.292229, 262.458524)"><g/></g></g><g fill="#000000" fill-opacity="1"><g transform="translate(176.706871, 263.001264)"><g><path d="M 36.578125 -16.25 C 36.640625 -11.488281 34.867188 -7.445312 31.265625 -4.125 C 27.671875 -0.8125 23.238281 0.878906 17.96875 0.953125 C 16.03125 0.972656 14.0625 0.695312 12.0625 0.125 C 10.070312 -0.4375 8.109375 -1.289062 6.171875 -2.4375 C 5.597656 -6.96875 5.148438 -11.648438 4.828125 -16.484375 C 4.503906 -21.316406 4.304688 -26.429688 4.234375 -31.828125 C 4.203125 -34.179688 4.1875 -35.945312 4.1875 -37.125 C 4.195312 -38.3125 4.21875 -39.414062 4.25 -40.4375 C 6.46875 -41.570312 8.796875 -42.445312 11.234375 -43.0625 C 13.671875 -43.6875 16.085938 -44.015625 18.484375 -44.046875 C 23.285156 -44.109375 26.957031 -43.320312 29.5 -41.6875 C 32.039062 -40.050781 33.332031 -37.660156 33.375 -34.515625 C 33.40625 -32.585938 33.003906 -30.835938 32.171875 -29.265625 C 31.347656 -27.703125 30.117188 -26.335938 28.484375 -25.171875 C 31.003906 -24.460938 32.972656 -23.316406 34.390625 -21.734375 C 35.816406 -20.160156 36.546875 -18.332031 36.578125 -16.25 Z M 21.890625 -32.703125 C 21.867188 -34.273438 21.421875 -35.445312 20.546875 -36.21875 C 19.671875 -37 18.382812 -37.378906 16.6875 -37.359375 L 16.515625 -37.34375 C 16.335938 -35.144531 16.191406 -33.050781 16.078125 -31.0625 C 15.972656 -29.070312 15.894531 -27.171875 15.84375 -25.359375 C 17.84375 -25.816406 19.351562 -26.679688 20.375 -27.953125 C 21.40625 -29.234375 21.910156 -30.816406 21.890625 -32.703125 Z M 15.90625 -6.953125 C 16.46875 -6.671875 16.984375 -6.460938 17.453125 -6.328125 C 17.921875 -6.203125 18.394531 -6.144531 18.875 -6.15625 C 20.445312 -6.175781 21.8125 -6.957031 22.96875 -8.5 C 24.132812 -10.050781 24.707031 -11.796875 24.6875 -13.734375 C 24.664062 -15.347656 24.179688 -16.570312 23.234375 -17.40625 C 22.296875 -18.238281 20.941406 -18.640625 19.171875 -18.609375 C 18.660156 -18.609375 18.128906 -18.539062 17.578125 -18.40625 C 17.035156 -18.28125 16.429688 -18.082031 15.765625 -17.8125 C 15.734375 -17.257812 15.71875 -16.675781 15.71875 -16.0625 C 15.726562 -15.457031 15.742188 -14.523438 15.765625 -13.265625 C 15.785156 -11.492188 15.800781 -10.175781 15.8125 -9.3125 C 15.820312 -8.445312 15.851562 -7.660156 15.90625 -6.953125 Z M 15.90625 -6.953125 "/></g></g></g><g fill="#000000" fill-opacity="1"><g transform="translate(213.174819, 262.352367)"><g><path d="M 14.328125 -31.90625 C 14.628906 -26.5625 14.828125 -20.960938 14.921875 -15.109375 C 15.015625 -9.253906 14.984375 -4.257812 14.828125 -0.125 C 13.742188 0.257812 12.253906 0.617188 10.359375 0.953125 C 8.472656 1.296875 6.722656 1.515625 5.109375 1.609375 C 4.640625 -6.609375 4.039062 -14.066406 3.3125 -20.765625 C 2.59375 -27.460938 1.726562 -33.460938 0.71875 -38.765625 C 1.632812 -39.453125 2.71875 -40.003906 3.96875 -40.421875 C 5.21875 -40.847656 6.550781 -41.101562 7.96875 -41.1875 C 9.03125 -41.25 9.988281 -41.253906 10.84375 -41.203125 C 11.695312 -41.148438 12.632812 -41.015625 13.65625 -40.796875 C 13.769531 -39.585938 13.882812 -38.226562 14 -36.71875 C 14.125 -35.207031 14.234375 -33.601562 14.328125 -31.90625 Z M 14.328125 -31.90625 "/></g></g></g><g fill="#000000" fill-opacity="1"><g transform="translate(231.22995, 261.514234)"><g><path d="M 23.25 -4.84375 C 21.570312 -4.25 19.910156 -3.773438 18.265625 -3.421875 C 16.617188 -3.066406 14.757812 -2.789062 12.6875 -2.59375 C 12.15625 -8.070312 11.421875 -13.976562 10.484375 -20.3125 C 9.554688 -26.644531 8.597656 -32.09375 7.609375 -36.65625 C 7.097656 -36.582031 6.125 -36.40625 4.6875 -36.125 C 3.257812 -35.851562 1.335938 -35.484375 -1.078125 -35.015625 C -1.710938 -36.328125 -2.234375 -37.691406 -2.640625 -39.109375 C -3.054688 -40.535156 -3.332031 -41.9375 -3.46875 -43.3125 C 1.78125 -45.050781 6.816406 -46.421875 11.640625 -47.421875 C 16.472656 -48.421875 21.960938 -49.210938 28.109375 -49.796875 C 28.367188 -49.148438 28.585938 -48.410156 28.765625 -47.578125 C 28.953125 -46.742188 29.09375 -45.820312 29.1875 -44.8125 C 29.257812 -44.101562 29.285156 -43.332031 29.265625 -42.5 C 29.242188 -41.664062 29.160156 -40.75 29.015625 -39.75 C 27.523438 -39.601562 26.070312 -39.453125 24.65625 -39.296875 C 23.25 -39.140625 21.867188 -38.953125 20.515625 -38.734375 C 20.898438 -36.328125 21.257812 -33.816406 21.59375 -31.203125 C 21.925781 -28.585938 22.226562 -25.890625 22.5 -23.109375 C 22.75 -20.515625 22.9375 -17.710938 23.0625 -14.703125 C 23.195312 -11.691406 23.257812 -8.40625 23.25 -4.84375 Z M 23.25 -4.84375 "/></g></g></g><g fill="#000000" fill-opacity="1"><g transform="translate(264.072746, 258.400237)"><g><path d="M 33.890625 -4.5 C 32.816406 -3.976562 29.265625 -3.023438 23.234375 -1.640625 C 17.210938 -0.265625 12.160156 0.726562 8.078125 1.34375 C 6.171875 -4.6875 4.195312 -11.765625 2.15625 -19.890625 C 0.113281 -28.023438 -1.351562 -34.832031 -2.25 -40.3125 C 3.582031 -42.34375 8.664062 -43.929688 13 -45.078125 C 17.332031 -46.234375 21.625 -47.132812 25.875 -47.78125 C 26.09375 -46.34375 26.234375 -44.800781 26.296875 -43.15625 C 26.367188 -41.507812 26.335938 -39.78125 26.203125 -37.96875 C 24.035156 -37.644531 21.789062 -37.265625 19.46875 -36.828125 C 17.144531 -36.398438 14.734375 -35.914062 12.234375 -35.375 C 12.273438 -34.507812 12.359375 -33.519531 12.484375 -32.40625 C 12.617188 -31.300781 12.832031 -29.632812 13.125 -27.40625 C 15.03125 -28.28125 16.953125 -29.003906 18.890625 -29.578125 C 20.828125 -30.160156 22.828125 -30.601562 24.890625 -30.90625 C 25.410156 -29.59375 25.851562 -28.226562 26.21875 -26.8125 C 26.59375 -25.394531 26.929688 -23.71875 27.234375 -21.78125 C 25.015625 -21.4375 22.820312 -21.03125 20.65625 -20.5625 C 18.5 -20.101562 16.410156 -19.601562 14.390625 -19.0625 C 14.691406 -17.3125 15.007812 -15.601562 15.34375 -13.9375 C 15.675781 -12.28125 16.023438 -10.707031 16.390625 -9.21875 C 17.515625 -9.382812 19.851562 -9.960938 23.40625 -10.953125 C 26.957031 -11.953125 29.625 -12.765625 31.40625 -13.390625 C 31.84375 -12.617188 32.304688 -11.328125 32.796875 -9.515625 C 33.296875 -7.703125 33.660156 -6.03125 33.890625 -4.5 Z M 33.890625 -4.5 "/></g></g></g><g fill="#000000" fill-opacity="1"><g transform="translate(126.611725, 289.752661)"><g><path d="M 8.953125 -11.609375 C 9.160156 -11.585938 9.203125 -11.050781 9.078125 -10 C 8.960938 -8.945312 8.800781 -8.429688 8.59375 -8.453125 L 5.328125 -8.828125 L 5.109375 -6.796875 L 7.28125 -6.546875 C 7.488281 -6.523438 7.539062 -6.050781 7.4375 -5.125 C 7.332031 -4.207031 7.1875 -3.757812 7 -3.78125 L 4.796875 -4.03125 L 4.3125 0.25 C 4.289062 0.414062 4.054688 0.5 3.609375 0.5 C 3.160156 0.5 2.789062 0.484375 2.5 0.453125 L 1.65625 0.328125 C 1.09375 0.191406 0.820312 0.0390625 0.84375 -0.125 L 2.171875 -11.90625 C 2.191406 -12.09375 2.242188 -12.210938 2.328125 -12.265625 C 2.410156 -12.316406 2.519531 -12.335938 2.65625 -12.328125 Z M 8.953125 -11.609375 "/></g></g></g><g fill="#000000" fill-opacity="1"><g transform="translate(135.62773, 290.785915)"><g><path d="M 6.1875 0.734375 C 4.507812 0.578125 3.191406 -0.09375 2.234375 -1.28125 C 1.285156 -2.46875 0.90625 -4.109375 1.09375 -6.203125 C 1.289062 -8.304688 1.96875 -9.847656 3.125 -10.828125 C 4.289062 -11.816406 5.710938 -12.234375 7.390625 -12.078125 C 9.078125 -11.929688 10.390625 -11.28125 11.328125 -10.125 C 12.273438 -8.96875 12.648438 -7.304688 12.453125 -5.140625 C 12.253906 -2.984375 11.578125 -1.425781 10.421875 -0.46875 C 9.273438 0.488281 7.863281 0.890625 6.1875 0.734375 Z M 7.046875 -8.671875 C 6.484375 -8.722656 5.984375 -8.503906 5.546875 -8.015625 C 5.109375 -7.523438 4.847656 -6.804688 4.765625 -5.859375 C 4.679688 -4.921875 4.800781 -4.175781 5.125 -3.625 C 5.445312 -3.082031 5.90625 -2.785156 6.5 -2.734375 C 7.101562 -2.679688 7.613281 -2.894531 8.03125 -3.375 C 8.457031 -3.851562 8.710938 -4.566406 8.796875 -5.515625 C 8.890625 -6.460938 8.765625 -7.210938 8.421875 -7.765625 C 8.078125 -8.316406 7.617188 -8.617188 7.046875 -8.671875 Z M 7.046875 -8.671875 "/></g></g></g><g fill="#000000" fill-opacity="1"><g transform="translate(148.688011, 291.962182)"><g><path d="M 6.203125 0.5625 C 4.523438 0.457031 3.191406 -0.175781 2.203125 -1.34375 C 1.222656 -2.507812 0.800781 -4.140625 0.9375 -6.234375 C 1.070312 -8.335938 1.707031 -9.894531 2.84375 -10.90625 C 3.976562 -11.925781 5.390625 -12.378906 7.078125 -12.265625 C 8.765625 -12.160156 10.09375 -11.539062 11.0625 -10.40625 C 12.03125 -9.28125 12.441406 -7.632812 12.296875 -5.46875 C 12.160156 -3.3125 11.53125 -1.738281 10.40625 -0.75 C 9.28125 0.238281 7.878906 0.675781 6.203125 0.5625 Z M 6.8125 -8.84375 C 6.238281 -8.882812 5.742188 -8.65625 5.328125 -8.15625 C 4.910156 -7.65625 4.671875 -6.929688 4.609375 -5.984375 C 4.546875 -5.035156 4.679688 -4.296875 5.015625 -3.765625 C 5.359375 -3.234375 5.832031 -2.945312 6.4375 -2.90625 C 7.039062 -2.875 7.546875 -3.097656 7.953125 -3.578125 C 8.359375 -4.066406 8.59375 -4.785156 8.65625 -5.734375 C 8.71875 -6.691406 8.566406 -7.441406 8.203125 -7.984375 C 7.847656 -8.523438 7.382812 -8.8125 6.8125 -8.84375 Z M 6.8125 -8.84375 "/></g></g></g><g fill="#000000" fill-opacity="1"><g transform="translate(161.766071, 292.789484)"><g><path d="M 0.921875 -0.796875 L 1.359375 -11.53125 C 1.367188 -11.832031 1.453125 -12.066406 1.609375 -12.234375 C 1.765625 -12.398438 1.960938 -12.476562 2.203125 -12.46875 L 5.203125 -12.34375 C 7.097656 -12.269531 8.515625 -11.734375 9.453125 -10.734375 C 10.398438 -9.734375 10.832031 -8.210938 10.75 -6.171875 C 10.570312 -1.773438 8.613281 0.34375 4.875 0.1875 L 1.8125 0.078125 C 1.195312 0.046875 0.898438 -0.242188 0.921875 -0.796875 Z M 4.703125 -8.96875 L 4.5 -3.609375 C 4.488281 -3.359375 4.492188 -3.195312 4.515625 -3.125 C 4.546875 -3.0625 4.65625 -3.023438 4.84375 -3.015625 C 5.5 -2.984375 6.003906 -3.207031 6.359375 -3.6875 C 6.722656 -4.164062 6.925781 -4.972656 6.96875 -6.109375 C 7.019531 -7.253906 6.875 -8.007812 6.53125 -8.375 C 6.1875 -8.738281 5.632812 -8.929688 4.875 -8.953125 Z M 4.703125 -8.96875 "/></g></g></g><g fill="#000000" fill-opacity="1"><g transform="translate(173.373148, 293.218405)"><g/></g></g><g fill="#000000" fill-opacity="1"><g transform="translate(177.323194, 293.345453)"><g><path d="M 6.328125 -8.71875 L 6.34375 -8.890625 C 6.34375 -9.191406 6.242188 -9.429688 6.046875 -9.609375 C 5.859375 -9.785156 5.617188 -9.875 5.328125 -9.875 C 5.046875 -9.882812 4.804688 -9.796875 4.609375 -9.609375 C 4.421875 -9.421875 4.328125 -9.160156 4.328125 -8.828125 C 4.316406 -7.910156 4.953125 -7.445312 6.234375 -7.4375 C 6.515625 -7.4375 6.835938 -7.457031 7.203125 -7.5 C 9.546875 -7.78125 10.734375 -7.921875 10.765625 -7.921875 C 11.097656 -7.921875 11.265625 -7.578125 11.265625 -6.890625 C 11.253906 -6.347656 11.132812 -5.804688 10.90625 -5.265625 L 9.078125 -5.0625 C 9.378906 -4.3125 9.53125 -3.628906 9.53125 -3.015625 C 9.519531 -2.078125 9.148438 -1.300781 8.421875 -0.6875 C 7.691406 -0.0703125 6.632812 0.226562 5.25 0.21875 C 3.875 0.207031 2.785156 -0.132812 1.984375 -0.8125 C 1.191406 -1.5 0.800781 -2.367188 0.8125 -3.421875 C 0.820312 -4.484375 1.335938 -5.382812 2.359375 -6.125 C 1.617188 -6.96875 1.253906 -7.9375 1.265625 -9.03125 C 1.273438 -10.132812 1.664062 -11.019531 2.4375 -11.6875 C 3.207031 -12.351562 4.203125 -12.679688 5.421875 -12.671875 C 6.640625 -12.660156 7.597656 -12.351562 8.296875 -11.75 C 9.003906 -11.15625 9.351562 -10.347656 9.34375 -9.328125 C 9.34375 -9.128906 9.144531 -8.9375 8.75 -8.75 C 8.351562 -8.5625 7.882812 -8.46875 7.34375 -8.46875 C 6.8125 -8.476562 6.472656 -8.5625 6.328125 -8.71875 Z M 4.328125 -5.078125 C 4.191406 -4.734375 4.125 -4.425781 4.125 -4.15625 C 4.125 -3.882812 4.164062 -3.648438 4.25 -3.453125 C 4.425781 -2.984375 4.800781 -2.742188 5.375 -2.734375 C 5.78125 -2.734375 6.078125 -2.878906 6.265625 -3.171875 C 6.460938 -3.460938 6.5625 -3.828125 6.5625 -4.265625 C 6.5625 -4.472656 6.554688 -4.625 6.546875 -4.71875 C 6.535156 -4.820312 6.53125 -4.890625 6.53125 -4.921875 C 6.125 -4.847656 5.722656 -4.8125 5.328125 -4.8125 C 4.941406 -4.820312 4.609375 -4.910156 4.328125 -5.078125 Z M 4.328125 -5.078125 "/></g></g></g><g fill="#000000" fill-opacity="1"><g transform="translate(189.857393, 293.40707)"><g/></g></g><g fill="#000000" fill-opacity="1"><g transform="translate(193.80379, 293.399649)"><g><path d="M 0.875 -0.84375 L 0.609375 -11.59375 C 0.609375 -11.894531 0.679688 -12.132812 0.828125 -12.3125 C 0.972656 -12.488281 1.164062 -12.582031 1.40625 -12.59375 L 4.40625 -12.65625 C 6.300781 -12.695312 7.75 -12.25 8.75 -11.3125 C 9.757812 -10.382812 10.289062 -8.894531 10.34375 -6.84375 C 10.445312 -2.445312 8.625 -0.203125 4.875 -0.109375 L 1.8125 -0.046875 C 1.195312 -0.0234375 0.882812 -0.289062 0.875 -0.84375 Z M 4.125 -9.25 L 4.25 -3.890625 C 4.257812 -3.640625 4.28125 -3.476562 4.3125 -3.40625 C 4.34375 -3.34375 4.453125 -3.3125 4.640625 -3.3125 C 5.296875 -3.332031 5.785156 -3.585938 6.109375 -4.078125 C 6.441406 -4.578125 6.59375 -5.394531 6.5625 -6.53125 C 6.539062 -7.675781 6.347656 -8.421875 5.984375 -8.765625 C 5.617188 -9.109375 5.054688 -9.269531 4.296875 -9.25 Z M 4.125 -9.25 "/></g></g></g><g fill="#000000" fill-opacity="1"><g transform="translate(205.459453, 293.113858)"><g><path d="M 4.296875 -0.453125 C 4.304688 -0.265625 3.742188 -0.144531 2.609375 -0.09375 C 1.460938 -0.0390625 0.882812 -0.101562 0.875 -0.28125 L 0.34375 -11.953125 C 0.320312 -12.367188 0.535156 -12.585938 0.984375 -12.609375 L 4.40625 -12.765625 C 7.539062 -12.910156 9.164062 -11.757812 9.28125 -9.3125 C 9.3125 -8.570312 9.191406 -7.894531 8.921875 -7.28125 C 8.660156 -6.664062 8.28125 -6.164062 7.78125 -5.78125 L 10.21875 -2.140625 C 10.125 -1.835938 9.828125 -1.488281 9.328125 -1.09375 C 8.628906 -0.550781 8.050781 -0.265625 7.59375 -0.234375 C 7.132812 -0.210938 6.785156 -0.363281 6.546875 -0.6875 L 4.671875 -4.53125 L 4.109375 -4.515625 Z M 3.875 -9.5625 L 4 -6.890625 L 4.09375 -6.890625 C 5.226562 -6.941406 5.773438 -7.429688 5.734375 -8.359375 C 5.710938 -8.796875 5.585938 -9.113281 5.359375 -9.3125 C 5.128906 -9.507812 4.765625 -9.597656 4.265625 -9.578125 Z M 3.875 -9.5625 "/></g></g></g><g fill="#000000" fill-opacity="1"><g transform="translate(216.619197, 292.576568)"><g><path d="M 1.875 -3.21875 L 1.453125 -9.59375 L 0.1875 -9.5 C -0.0195312 -9.488281 -0.179688 -9.738281 -0.296875 -10.25 C -0.347656 -10.488281 -0.378906 -10.734375 -0.390625 -10.984375 C -0.410156 -11.242188 -0.410156 -11.507812 -0.390625 -11.78125 C -0.347656 -12.289062 -0.222656 -12.550781 -0.015625 -12.5625 L 5.984375 -12.96875 C 6.191406 -12.976562 6.347656 -12.726562 6.453125 -12.21875 C 6.515625 -11.96875 6.550781 -11.710938 6.5625 -11.453125 C 6.582031 -11.203125 6.578125 -10.945312 6.546875 -10.6875 C 6.515625 -10.175781 6.394531 -9.914062 6.1875 -9.90625 L 4.984375 -9.828125 L 5.40625 -3.453125 L 6.65625 -3.53125 C 6.863281 -3.539062 7.023438 -3.296875 7.140625 -2.796875 C 7.210938 -2.546875 7.253906 -2.285156 7.265625 -2.015625 C 7.285156 -1.753906 7.28125 -1.5 7.25 -1.25 C 7.195312 -0.726562 7.066406 -0.460938 6.859375 -0.453125 L 0.84375 -0.0625 C 0.632812 -0.0390625 0.484375 -0.285156 0.390625 -0.796875 C 0.316406 -1.046875 0.269531 -1.300781 0.25 -1.5625 C 0.238281 -1.832031 0.25 -2.09375 0.28125 -2.34375 C 0.3125 -2.851562 0.429688 -3.117188 0.640625 -3.140625 Z M 1.875 -3.21875 "/></g></g></g><g fill="#000000" fill-opacity="1"><g transform="translate(224.896748, 292.046425)"><g><path d="M 10.640625 -1.3125 C 10.660156 -1.0625 10.109375 -0.882812 8.984375 -0.78125 C 7.867188 -0.6875 7.253906 -0.726562 7.140625 -0.90625 L 3.703125 -6.21875 L 4.171875 -0.65625 C 4.191406 -0.445312 3.648438 -0.296875 2.546875 -0.203125 C 1.441406 -0.109375 0.878906 -0.164062 0.859375 -0.375 L -0.171875 -12.328125 C -0.179688 -12.503906 0.28125 -12.632812 1.21875 -12.71875 C 1.59375 -12.75 2.03125 -12.75 2.53125 -12.71875 C 3.03125 -12.695312 3.34375 -12.601562 3.46875 -12.4375 L 6.796875 -7.1875 L 6.3125 -12.796875 C 6.289062 -13.023438 6.832031 -13.1875 7.9375 -13.28125 C 9.039062 -13.375 9.601562 -13.304688 9.625 -13.078125 Z M 10.640625 -1.3125 "/></g></g></g><g fill="#000000" fill-opacity="1"><g transform="translate(237.090014, 290.984925)"><g><path d="M 4.421875 -0.734375 C 4.441406 -0.554688 3.894531 -0.410156 2.78125 -0.296875 L 1.78125 -0.234375 C 1.175781 -0.210938 0.867188 -0.257812 0.859375 -0.375 L -0.453125 -12.328125 C -0.472656 -12.523438 0.109375 -12.6875 1.296875 -12.8125 C 2.484375 -12.945312 3.085938 -12.914062 3.109375 -12.71875 L 3.609375 -8.15625 L 5.28125 -12.96875 C 5.34375 -13.144531 5.804688 -13.28125 6.671875 -13.375 C 8.253906 -13.539062 9.101562 -13.492188 9.21875 -13.234375 C 9.21875 -13.203125 9.210938 -13.175781 9.203125 -13.15625 L 6.71875 -7.234375 L 10.875 -2.65625 C 10.875 -2.632812 10.769531 -2.519531 10.5625 -2.3125 C 10.0625 -1.789062 9.460938 -1.347656 8.765625 -0.984375 C 8.554688 -0.867188 8.335938 -0.800781 8.109375 -0.78125 L 7.671875 -0.765625 C 7.273438 -0.828125 6.945312 -1.039062 6.6875 -1.40625 L 4.234375 -5.046875 L 3.953125 -5.015625 Z M 4.421875 -0.734375 "/></g></g></g></svg>