<svg xmlns="http://www.w3.org/2000/svg" xmlns:xlink="http://www.w3.org/1999/xlink" width="500" zoomAndPan="magnify" viewBox="0 0 375 149.999998" height="200" preserveAspectRatio="xMidYMid meet" version="1.0"><defs><g/><clipPath id="8bad5d5370"><path d="M 77 81 L 105 81 L 105 90 L 77 90 Z M 77 81 " clip-rule="nonzero"/></clipPath><clipPath id="c3bb1193a6"><path d="M 54.136719 86.921875 L 116.910156 -0.0351562 L 204.476562 63.179688 L 141.703125 150.136719 Z M 54.136719 86.921875 " clip-rule="nonzero"/></clipPath><clipPath id="a96162a5d0"><path d="M 54.136719 86.921875 L 116.910156 -0.0351562 L 204.476562 63.179688 L 141.703125 150.136719 Z M 54.136719 86.921875 " clip-rule="nonzero"/></clipPath><clipPath id="219d95b537"><path d="M 75 71 L 103 71 L 103 74 L 75 74 Z M 75 71 " clip-rule="nonzero"/></clipPath><clipPath id="26c2096c08"><path d="M 54.136719 86.921875 L 116.910156 -0.0351562 L 204.476562 63.179688 L 141.703125 150.136719 Z M 54.136719 86.921875 " clip-rule="nonzero"/></clipPath><clipPath id="920ad372f0"><path d="M 54.136719 86.921875 L 116.910156 -0.0351562 L 204.476562 63.179688 L 141.703125 150.136719 Z M 54.136719 86.921875 " clip-rule="nonzero"/></clipPath><clipPath id="ff1a5d587a"><path d="M 78 84 L 106 84 L 106 96 L 78 96 Z M 78 84 " clip-rule="nonzero"/></clipPath><clipPath id="72ebe25194"><path d="M 54.136719 86.921875 L 116.910156 -0.0351562 L 204.476562 63.179688 L 141.703125 150.136719 Z M 54.136719 86.921875 " clip-rule="nonzero"/></clipPath><clipPath id="1332373a4f"><path d="M 54.136719 86.921875 L 116.910156 -0.0351562 L 204.476562 63.179688 L 141.703125 150.136719 Z M 54.136719 86.921875 " clip-rule="nonzero"/></clipPath><clipPath id="0d59a3c631"><path d="M 76 77 L 104 77 L 104 85 L 76 85 Z M 76 77 " clip-rule="nonzero"/></clipPath><clipPath id="7d0a4e1c16"><path d="M 54.136719 86.921875 L 116.910156 -0.0351562 L 204.476562 63.179688 L 141.703125 150.136719 Z M 54.136719 86.921875 " clip-rule="nonzero"/></clipPath><clipPath id="0e46c027b6"><path d="M 54.136719 86.921875 L 116.910156 -0.0351562 L 204.476562 63.179688 L 141.703125 150.136719 Z M 54.136719 86.921875 " clip-rule="nonzero"/></clipPath><clipPath id="2786bb2e5b"><path d="M 123 109 L 131 109 L 131 129 L 123 129 Z M 123 109 " clip-rule="nonzero"/></clipPath><clipPath id="0599d8cc40"><path d="M 54.136719 86.921875 L 116.910156 -0.0351562 L 204.476562 63.179688 L 141.703125 150.136719 Z M 54.136719 86.921875 " clip-rule="nonzero"/></clipPath><clipPath id="c13f4c3688"><path d="M 54.136719 86.921875 L 116.910156 -0.0351562 L 204.476562 63.179688 L 141.703125 150.136719 Z M 54.136719 86.921875 " clip-rule="nonzero"/></clipPath><clipPath id="1be362a075"><path d="M 118 108 L 128 108 L 128 128 L 118 128 Z M 118 108 " clip-rule="nonzero"/></clipPath><clipPath id="85adab55bc"><path d="M 54.136719 86.921875 L 116.910156 -0.0351562 L 204.476562 63.179688 L 141.703125 150.136719 Z M 54.136719 86.921875 " clip-rule="nonzero"/></clipPath><clipPath id="f34dbcceb3"><path d="M 54.136719 86.921875 L 116.910156 -0.0351562 L 204.476562 63.179688 L 141.703125 150.136719 Z M 54.136719 86.921875 " clip-rule="nonzero"/></clipPath><clipPath id="5fb9b6844d"><path d="M 80 87 L 107 87 L 107 101 L 80 101 Z M 80 87 " clip-rule="nonzero"/></clipPath><clipPath id="1aadd9072b"><path d="M 54.136719 86.921875 L 116.910156 -0.0351562 L 204.476562 63.179688 L 141.703125 150.136719 Z M 54.136719 86.921875 " clip-rule="nonzero"/></clipPath><clipPath id="7e00483679"><path d="M 54.136719 86.921875 L 116.910156 -0.0351562 L 204.476562 63.179688 L 141.703125 150.136719 Z M 54.136719 86.921875 " clip-rule="nonzero"/></clipPath><clipPath id="5defeab051"><path d="M 80 50 L 105 50 L 105 58 L 80 58 Z M 80 50 " clip-rule="nonzero"/></clipPath><clipPath id="76423d4e0a"><path d="M 54.136719 86.921875 L 116.910156 -0.0351562 L 204.476562 63.179688 L 141.703125 150.136719 Z M 54.136719 86.921875 " clip-rule="nonzero"/></clipPath><clipPath id="1af5ee06cd"><path d="M 54.136719 86.921875 L 116.910156 -0.0351562 L 204.476562 63.179688 L 141.703125 150.136719 Z M 54.136719 86.921875 " clip-rule="nonzero"/></clipPath><clipPath id="07a96f96c6"><path d="M 82 45 L 106 45 L 106 55 L 82 55 Z M 82 45 " clip-rule="nonzero"/></clipPath><clipPath id="86e0b703b0"><path d="M 54.136719 86.921875 L 116.910156 -0.0351562 L 204.476562 63.179688 L 141.703125 150.136719 Z M 54.136719 86.921875 " clip-rule="nonzero"/></clipPath><clipPath id="39b10715bd"><path d="M 54.136719 86.921875 L 116.910156 -0.0351562 L 204.476562 63.179688 L 141.703125 150.136719 Z M 54.136719 86.921875 " clip-rule="nonzero"/></clipPath><clipPath id="fdfd53497c"><path d="M 76 65 L 103 65 L 103 68 L 76 68 Z M 76 65 " clip-rule="nonzero"/></clipPath><clipPath id="0ec3f48fbf"><path d="M 54.136719 86.921875 L 116.910156 -0.0351562 L 204.476562 63.179688 L 141.703125 150.136719 Z M 54.136719 86.921875 " clip-rule="nonzero"/></clipPath><clipPath id="026eda2fb0"><path d="M 54.136719 86.921875 L 116.910156 -0.0351562 L 204.476562 63.179688 L 141.703125 150.136719 Z M 54.136719 86.921875 " clip-rule="nonzero"/></clipPath><clipPath id="c2161a6d5d"><path d="M 128 110 L 135 110 L 135 129 L 128 129 Z M 128 110 " clip-rule="nonzero"/></clipPath><clipPath id="96d4d4159f"><path d="M 54.136719 86.921875 L 116.910156 -0.0351562 L 204.476562 63.179688 L 141.703125 150.136719 Z M 54.136719 86.921875 " clip-rule="nonzero"/></clipPath><clipPath id="ca442b5c09"><path d="M 54.136719 86.921875 L 116.910156 -0.0351562 L 204.476562 63.179688 L 141.703125 150.136719 Z M 54.136719 86.921875 " clip-rule="nonzero"/></clipPath><clipPath id="261a855ad3"><path d="M 104 26 L 117 26 L 117 38 L 104 38 Z M 104 26 " clip-rule="nonzero"/></clipPath><clipPath id="8bf6558cff"><path d="M 54.136719 86.921875 L 116.910156 -0.0351562 L 204.476562 63.179688 L 141.703125 150.136719 Z M 54.136719 86.921875 " clip-rule="nonzero"/></clipPath><clipPath id="077c2e4f1b"><path d="M 54.136719 86.921875 L 116.910156 -0.0351562 L 204.476562 63.179688 L 141.703125 150.136719 Z M 54.136719 86.921875 " clip-rule="nonzero"/></clipPath><clipPath id="689ac326f2"><path d="M 78 55 L 104 55 L 104 62 L 78 62 Z M 78 55 " clip-rule="nonzero"/></clipPath><clipPath id="76d1fdc96c"><path d="M 54.136719 86.921875 L 116.910156 -0.0351562 L 204.476562 63.179688 L 141.703125 150.136719 Z M 54.136719 86.921875 " clip-rule="nonzero"/></clipPath><clipPath id="7f0e90b26e"><path d="M 54.136719 86.921875 L 116.910156 -0.0351562 L 204.476562 63.179688 L 141.703125 150.136719 Z M 54.136719 86.921875 " clip-rule="nonzero"/></clipPath><clipPath id="ac88b7ad3c"><path d="M 76 60 L 103 60 L 103 65 L 76 65 Z M 76 60 " clip-rule="nonzero"/></clipPath><clipPath id="b1c3221804"><path d="M 54.136719 86.921875 L 116.910156 -0.0351562 L 204.476562 63.179688 L 141.703125 150.136719 Z M 54.136719 86.921875 " clip-rule="nonzero"/></clipPath><clipPath id="8c879894c6"><path d="M 54.136719 86.921875 L 116.910156 -0.0351562 L 204.476562 63.179688 L 141.703125 150.136719 Z M 54.136719 86.921875 " clip-rule="nonzero"/></clipPath><clipPath id="f91f31897c"><path d="M 133 111 L 138 111 L 138 129 L 133 129 Z M 133 111 " clip-rule="nonzero"/></clipPath><clipPath id="ac52098c72"><path d="M 54.136719 86.921875 L 116.910156 -0.0351562 L 204.476562 63.179688 L 141.703125 150.136719 Z M 54.136719 86.921875 " clip-rule="nonzero"/></clipPath><clipPath id="9083bf8ddf"><path d="M 54.136719 86.921875 L 116.910156 -0.0351562 L 204.476562 63.179688 L 141.703125 150.136719 Z M 54.136719 86.921875 " clip-rule="nonzero"/></clipPath><clipPath id="5b1520bf50"><path d="M 169 105 L 172 105 L 172 109 L 169 109 Z M 169 105 " clip-rule="nonzero"/></clipPath><clipPath id="910a6f5ffa"><path d="M 54.136719 86.921875 L 116.910156 -0.0351562 L 204.476562 63.179688 L 141.703125 150.136719 Z M 54.136719 86.921875 " clip-rule="nonzero"/></clipPath><clipPath id="b8bb5df005"><path d="M 54.136719 86.921875 L 116.910156 -0.0351562 L 204.476562 63.179688 L 141.703125 150.136719 Z M 54.136719 86.921875 " clip-rule="nonzero"/></clipPath><clipPath id="15905179d3"><path d="M 166 107 L 170 107 L 170 112 L 166 112 Z M 166 107 " clip-rule="nonzero"/></clipPath><clipPath id="e30c7b159a"><path d="M 54.136719 86.921875 L 116.910156 -0.0351562 L 204.476562 63.179688 L 141.703125 150.136719 Z M 54.136719 86.921875 " clip-rule="nonzero"/></clipPath><clipPath id="22a0ee1925"><path d="M 54.136719 86.921875 L 116.910156 -0.0351562 L 204.476562 63.179688 L 141.703125 150.136719 Z M 54.136719 86.921875 " clip-rule="nonzero"/></clipPath><clipPath id="b789b4e7ee"><path d="M 109 24 L 119 24 L 119 36 L 109 36 Z M 109 24 " clip-rule="nonzero"/></clipPath><clipPath id="0ff42d1e47"><path d="M 54.136719 86.921875 L 116.910156 -0.0351562 L 204.476562 63.179688 L 141.703125 150.136719 Z M 54.136719 86.921875 " clip-rule="nonzero"/></clipPath><clipPath id="13192b8e17"><path d="M 54.136719 86.921875 L 116.910156 -0.0351562 L 204.476562 63.179688 L 141.703125 150.136719 Z M 54.136719 86.921875 " clip-rule="nonzero"/></clipPath><clipPath id="c32f54cdf0"><path d="M 174 100 L 176 100 L 176 103 L 174 103 Z M 174 100 " clip-rule="nonzero"/></clipPath><clipPath id="50af9414c7"><path d="M 54.136719 86.921875 L 116.910156 -0.0351562 L 204.476562 63.179688 L 141.703125 150.136719 Z M 54.136719 86.921875 " clip-rule="nonzero"/></clipPath><clipPath id="5ff2291c30"><path d="M 54.136719 86.921875 L 116.910156 -0.0351562 L 204.476562 63.179688 L 141.703125 150.136719 Z M 54.136719 86.921875 " clip-rule="nonzero"/></clipPath><clipPath id="d9afb4917e"><path d="M 163 108 L 167 108 L 167 115 L 163 115 Z M 163 108 " clip-rule="nonzero"/></clipPath><clipPath id="0acd5eccea"><path d="M 54.136719 86.921875 L 116.910156 -0.0351562 L 204.476562 63.179688 L 141.703125 150.136719 Z M 54.136719 86.921875 " clip-rule="nonzero"/></clipPath><clipPath id="a01946c20b"><path d="M 54.136719 86.921875 L 116.910156 -0.0351562 L 204.476562 63.179688 L 141.703125 150.136719 Z M 54.136719 86.921875 " clip-rule="nonzero"/></clipPath><clipPath id="5c3f3f8be2"><path d="M 172 103 L 174 103 L 174 106 L 172 106 Z M 172 103 " clip-rule="nonzero"/></clipPath><clipPath id="3aa87a7aaf"><path d="M 54.136719 86.921875 L 116.910156 -0.0351562 L 204.476562 63.179688 L 141.703125 150.136719 Z M 54.136719 86.921875 " clip-rule="nonzero"/></clipPath><clipPath id="7337004424"><path d="M 54.136719 86.921875 L 116.910156 -0.0351562 L 204.476562 63.179688 L 141.703125 150.136719 Z M 54.136719 86.921875 " clip-rule="nonzero"/></clipPath><clipPath id="197a786083"><path d="M 147 112 L 149 112 L 149 126 L 147 126 Z M 147 112 " clip-rule="nonzero"/></clipPath><clipPath id="b34ff12f5d"><path d="M 54.136719 86.921875 L 116.910156 -0.0351562 L 204.476562 63.179688 L 141.703125 150.136719 Z M 54.136719 86.921875 " clip-rule="nonzero"/></clipPath><clipPath id="2a78216251"><path d="M 54.136719 86.921875 L 116.910156 -0.0351562 L 204.476562 63.179688 L 141.703125 150.136719 Z M 54.136719 86.921875 " clip-rule="nonzero"/></clipPath><clipPath id="1fedb9212d"><path d="M 150 112 L 153 112 L 153 124 L 150 124 Z M 150 112 " clip-rule="nonzero"/></clipPath><clipPath id="901fee5638"><path d="M 54.136719 86.921875 L 116.910156 -0.0351562 L 204.476562 63.179688 L 141.703125 150.136719 Z M 54.136719 86.921875 " clip-rule="nonzero"/></clipPath><clipPath id="879952a7c6"><path d="M 54.136719 86.921875 L 116.910156 -0.0351562 L 204.476562 63.179688 L 141.703125 150.136719 Z M 54.136719 86.921875 " clip-rule="nonzero"/></clipPath><clipPath id="42e2c29325"><path d="M 138 112 L 141 112 L 141 128 L 138 128 Z M 138 112 " clip-rule="nonzero"/></clipPath><clipPath id="3b9c75e858"><path d="M 54.136719 86.921875 L 116.910156 -0.0351562 L 204.476562 63.179688 L 141.703125 150.136719 Z M 54.136719 86.921875 " clip-rule="nonzero"/></clipPath><clipPath id="a756dc54cf"><path d="M 54.136719 86.921875 L 116.910156 -0.0351562 L 204.476562 63.179688 L 141.703125 150.136719 Z M 54.136719 86.921875 " clip-rule="nonzero"/></clipPath><clipPath id="8ae926f852"><path d="M 154 111 L 157 111 L 157 122 L 154 122 Z M 154 111 " clip-rule="nonzero"/></clipPath><clipPath id="b78fbf2bfe"><path d="M 54.136719 86.921875 L 116.910156 -0.0351562 L 204.476562 63.179688 L 141.703125 150.136719 Z M 54.136719 86.921875 " clip-rule="nonzero"/></clipPath><clipPath id="4d46cd454d"><path d="M 54.136719 86.921875 L 116.910156 -0.0351562 L 204.476562 63.179688 L 141.703125 150.136719 Z M 54.136719 86.921875 " clip-rule="nonzero"/></clipPath><clipPath id="5c7f75d5a4"><path d="M 157 110 L 161 110 L 161 120 L 157 120 Z M 157 110 " clip-rule="nonzero"/></clipPath><clipPath id="a8efdbacc7"><path d="M 54.136719 86.921875 L 116.910156 -0.0351562 L 204.476562 63.179688 L 141.703125 150.136719 Z M 54.136719 86.921875 " clip-rule="nonzero"/></clipPath><clipPath id="7abeddd90f"><path d="M 54.136719 86.921875 L 116.910156 -0.0351562 L 204.476562 63.179688 L 141.703125 150.136719 Z M 54.136719 86.921875 " clip-rule="nonzero"/></clipPath><clipPath id="181826d33e"><path d="M 160 109 L 164 109 L 164 117 L 160 117 Z M 160 109 " clip-rule="nonzero"/></clipPath><clipPath id="525ae09127"><path d="M 54.136719 86.921875 L 116.910156 -0.0351562 L 204.476562 63.179688 L 141.703125 150.136719 Z M 54.136719 86.921875 " clip-rule="nonzero"/></clipPath><clipPath id="fc84ca8347"><path d="M 54.136719 86.921875 L 116.910156 -0.0351562 L 204.476562 63.179688 L 141.703125 150.136719 Z M 54.136719 86.921875 " clip-rule="nonzero"/></clipPath><clipPath id="9230d2767a"><path d="M 83 90 L 109 90 L 109 105 L 83 105 Z M 83 90 " clip-rule="nonzero"/></clipPath><clipPath id="a142b89f30"><path d="M 54.136719 86.921875 L 116.910156 -0.0351562 L 204.476562 63.179688 L 141.703125 150.136719 Z M 54.136719 86.921875 " clip-rule="nonzero"/></clipPath><clipPath id="0f9d4dacad"><path d="M 54.136719 86.921875 L 116.910156 -0.0351562 L 204.476562 63.179688 L 141.703125 150.136719 Z M 54.136719 86.921875 " clip-rule="nonzero"/></clipPath><clipPath id="725456886a"><path d="M 89 37 L 109 37 L 109 49 L 89 49 Z M 89 37 " clip-rule="nonzero"/></clipPath><clipPath id="fe4e1bf6e2"><path d="M 54.136719 86.921875 L 116.910156 -0.0351562 L 204.476562 63.179688 L 141.703125 150.136719 Z M 54.136719 86.921875 " clip-rule="nonzero"/></clipPath><clipPath id="5b1c82baba"><path d="M 54.136719 86.921875 L 116.910156 -0.0351562 L 204.476562 63.179688 L 141.703125 150.136719 Z M 54.136719 86.921875 " clip-rule="nonzero"/></clipPath><clipPath id="dffe45d644"><path d="M 86 93 L 110 93 L 110 110 L 86 110 Z M 86 93 " clip-rule="nonzero"/></clipPath><clipPath id="500b644062"><path d="M 54.136719 86.921875 L 116.910156 -0.0351562 L 204.476562 63.179688 L 141.703125 150.136719 Z M 54.136719 86.921875 " clip-rule="nonzero"/></clipPath><clipPath id="62867906e1"><path d="M 54.136719 86.921875 L 116.910156 -0.0351562 L 204.476562 63.179688 L 141.703125 150.136719 Z M 54.136719 86.921875 " clip-rule="nonzero"/></clipPath><clipPath id="c6c24a8ef5"><path d="M 113 107 L 125 107 L 125 127 L 113 127 Z M 113 107 " clip-rule="nonzero"/></clipPath><clipPath id="aa250a89da"><path d="M 54.136719 86.921875 L 116.910156 -0.0351562 L 204.476562 63.179688 L 141.703125 150.136719 Z M 54.136719 86.921875 " clip-rule="nonzero"/></clipPath><clipPath id="a9a3065bc0"><path d="M 54.136719 86.921875 L 116.910156 -0.0351562 L 204.476562 63.179688 L 141.703125 150.136719 Z M 54.136719 86.921875 " clip-rule="nonzero"/></clipPath><clipPath id="519ba8a054"><path d="M 122 21 L 128 21 L 128 31 L 122 31 Z M 122 21 " clip-rule="nonzero"/></clipPath><clipPath id="d242893207"><path d="M 54.136719 86.921875 L 116.910156 -0.0351562 L 204.476562 63.179688 L 141.703125 150.136719 Z M 54.136719 86.921875 " clip-rule="nonzero"/></clipPath><clipPath id="34490bb609"><path d="M 54.136719 86.921875 L 116.910156 -0.0351562 L 204.476562 63.179688 L 141.703125 150.136719 Z M 54.136719 86.921875 " clip-rule="nonzero"/></clipPath><clipPath id="f947b15a43"><path d="M 127 20 L 131 20 L 131 30 L 127 30 Z M 127 20 " clip-rule="nonzero"/></clipPath><clipPath id="4681c35a47"><path d="M 54.136719 86.921875 L 116.910156 -0.0351562 L 204.476562 63.179688 L 141.703125 150.136719 Z M 54.136719 86.921875 " clip-rule="nonzero"/></clipPath><clipPath id="ce729f7630"><path d="M 54.136719 86.921875 L 116.910156 -0.0351562 L 204.476562 63.179688 L 141.703125 150.136719 Z M 54.136719 86.921875 " clip-rule="nonzero"/></clipPath><clipPath id="54516dc7e5"><path d="M 100 28 L 115 28 L 115 41 L 100 41 Z M 100 28 " clip-rule="nonzero"/></clipPath><clipPath id="06d9cd3f4e"><path d="M 54.136719 86.921875 L 116.910156 -0.0351562 L 204.476562 63.179688 L 141.703125 150.136719 Z M 54.136719 86.921875 " clip-rule="nonzero"/></clipPath><clipPath id="55a5a80f96"><path d="M 54.136719 86.921875 L 116.910156 -0.0351562 L 204.476562 63.179688 L 141.703125 150.136719 Z M 54.136719 86.921875 " clip-rule="nonzero"/></clipPath><clipPath id="5043b69178"><path d="M 92 34 L 110 34 L 110 46 L 92 46 Z M 92 34 " clip-rule="nonzero"/></clipPath><clipPath id="5b6a944a07"><path d="M 54.136719 86.921875 L 116.910156 -0.0351562 L 204.476562 63.179688 L 141.703125 150.136719 Z M 54.136719 86.921875 " clip-rule="nonzero"/></clipPath><clipPath id="2a57accc49"><path d="M 54.136719 86.921875 L 116.910156 -0.0351562 L 204.476562 63.179688 L 141.703125 150.136719 Z M 54.136719 86.921875 " clip-rule="nonzero"/></clipPath><clipPath id="a5a09707e9"><path d="M 142 112 L 145 112 L 145 127 L 142 127 Z M 142 112 " clip-rule="nonzero"/></clipPath><clipPath id="1ecee0726a"><path d="M 54.136719 86.921875 L 116.910156 -0.0351562 L 204.476562 63.179688 L 141.703125 150.136719 Z M 54.136719 86.921875 " clip-rule="nonzero"/></clipPath><clipPath id="bbadc7e2ea"><path d="M 54.136719 86.921875 L 116.910156 -0.0351562 L 204.476562 63.179688 L 141.703125 150.136719 Z M 54.136719 86.921875 " clip-rule="nonzero"/></clipPath><clipPath id="452fc7d4d0"><path d="M 75 74 L 103 74 L 103 79 L 75 79 Z M 75 74 " clip-rule="nonzero"/></clipPath><clipPath id="5bda2ab234"><path d="M 54.136719 86.921875 L 116.910156 -0.0351562 L 204.476562 63.179688 L 141.703125 150.136719 Z M 54.136719 86.921875 " clip-rule="nonzero"/></clipPath><clipPath id="4b16e5784c"><path d="M 54.136719 86.921875 L 116.910156 -0.0351562 L 204.476562 63.179688 L 141.703125 150.136719 Z M 54.136719 86.921875 " clip-rule="nonzero"/></clipPath><clipPath id="6323804b90"><path d="M 113 22 L 122 22 L 122 34 L 113 34 Z M 113 22 " clip-rule="nonzero"/></clipPath><clipPath id="390721fbc1"><path d="M 54.136719 86.921875 L 116.910156 -0.0351562 L 204.476562 63.179688 L 141.703125 150.136719 Z M 54.136719 86.921875 " clip-rule="nonzero"/></clipPath><clipPath id="5277b173c6"><path d="M 54.136719 86.921875 L 116.910156 -0.0351562 L 204.476562 63.179688 L 141.703125 150.136719 Z M 54.136719 86.921875 " clip-rule="nonzero"/></clipPath><clipPath id="40b3ead0af"><path d="M 85 41 L 107 41 L 107 52 L 85 52 Z M 85 41 " clip-rule="nonzero"/></clipPath><clipPath id="d7d009c88d"><path d="M 54.136719 86.921875 L 116.910156 -0.0351562 L 204.476562 63.179688 L 141.703125 150.136719 Z M 54.136719 86.921875 " clip-rule="nonzero"/></clipPath><clipPath id="420298abb6"><path d="M 54.136719 86.921875 L 116.910156 -0.0351562 L 204.476562 63.179688 L 141.703125 150.136719 Z M 54.136719 86.921875 " clip-rule="nonzero"/></clipPath><clipPath id="8028fb6c25"><path d="M 177 98 L 178 98 L 178 99 L 177 99 Z M 177 98 " clip-rule="nonzero"/></clipPath><clipPath id="64163679eb"><path d="M 54.136719 86.921875 L 116.910156 -0.0351562 L 204.476562 63.179688 L 141.703125 150.136719 Z M 54.136719 86.921875 " clip-rule="nonzero"/></clipPath><clipPath id="e07d728ad1"><path d="M 54.136719 86.921875 L 116.910156 -0.0351562 L 204.476562 63.179688 L 141.703125 150.136719 Z M 54.136719 86.921875 " clip-rule="nonzero"/></clipPath><clipPath id="1e908ef8a3"><path d="M 96 31 L 112 31 L 112 43 L 96 43 Z M 96 31 " clip-rule="nonzero"/></clipPath><clipPath id="f21007bfba"><path d="M 54.136719 86.921875 L 116.910156 -0.0351562 L 204.476562 63.179688 L 141.703125 150.136719 Z M 54.136719 86.921875 " clip-rule="nonzero"/></clipPath><clipPath id="7a676c055e"><path d="M 54.136719 86.921875 L 116.910156 -0.0351562 L 204.476562 63.179688 L 141.703125 150.136719 Z M 54.136719 86.921875 " clip-rule="nonzero"/></clipPath><clipPath id="fb10a712ca"><path d="M 150 25 L 151 25 L 151 27 L 150 27 Z M 150 25 " clip-rule="nonzero"/></clipPath><clipPath id="072fa3329d"><path d="M 54.136719 86.921875 L 116.910156 -0.0351562 L 204.476562 63.179688 L 141.703125 150.136719 Z M 54.136719 86.921875 " clip-rule="nonzero"/></clipPath><clipPath id="30e3f5f7d6"><path d="M 54.136719 86.921875 L 116.910156 -0.0351562 L 204.476562 63.179688 L 141.703125 150.136719 Z M 54.136719 86.921875 " clip-rule="nonzero"/></clipPath><clipPath id="0a628344ab"><path d="M 147 23 L 148 23 L 148 27 L 147 27 Z M 147 23 " clip-rule="nonzero"/></clipPath><clipPath id="a0d6a19a4b"><path d="M 54.136719 86.921875 L 116.910156 -0.0351562 L 204.476562 63.179688 L 141.703125 150.136719 Z M 54.136719 86.921875 " clip-rule="nonzero"/></clipPath><clipPath id="d9c9bb57dc"><path d="M 54.136719 86.921875 L 116.910156 -0.0351562 L 204.476562 63.179688 L 141.703125 150.136719 Z M 54.136719 86.921875 " clip-rule="nonzero"/></clipPath><clipPath id="014076f63e"><path d="M 90 96 L 112 96 L 112 114 L 90 114 Z M 90 96 " clip-rule="nonzero"/></clipPath><clipPath id="716daaa4dc"><path d="M 54.136719 86.921875 L 116.910156 -0.0351562 L 204.476562 63.179688 L 141.703125 150.136719 Z M 54.136719 86.921875 " clip-rule="nonzero"/></clipPath><clipPath id="e419fd7f05"><path d="M 54.136719 86.921875 L 116.910156 -0.0351562 L 204.476562 63.179688 L 141.703125 150.136719 Z M 54.136719 86.921875 " clip-rule="nonzero"/></clipPath><clipPath id="e7b1f1efdb"><path d="M 94 98 L 115 98 L 115 117 L 94 117 Z M 94 98 " clip-rule="nonzero"/></clipPath><clipPath id="02fc2f33df"><path d="M 54.136719 86.921875 L 116.910156 -0.0351562 L 204.476562 63.179688 L 141.703125 150.136719 Z M 54.136719 86.921875 " clip-rule="nonzero"/></clipPath><clipPath id="afff16dea5"><path d="M 54.136719 86.921875 L 116.910156 -0.0351562 L 204.476562 63.179688 L 141.703125 150.136719 Z M 54.136719 86.921875 " clip-rule="nonzero"/></clipPath><clipPath id="44c8be3ea0"><path d="M 153 26 L 154 26 L 154 28 L 153 28 Z M 153 26 " clip-rule="nonzero"/></clipPath><clipPath id="1badbe0192"><path d="M 54.136719 86.921875 L 116.910156 -0.0351562 L 204.476562 63.179688 L 141.703125 150.136719 Z M 54.136719 86.921875 " clip-rule="nonzero"/></clipPath><clipPath id="9928b126f4"><path d="M 54.136719 86.921875 L 116.910156 -0.0351562 L 204.476562 63.179688 L 141.703125 150.136719 Z M 54.136719 86.921875 " clip-rule="nonzero"/></clipPath><clipPath id="2b79511d3d"><path d="M 108 105 L 122 105 L 122 125 L 108 125 Z M 108 105 " clip-rule="nonzero"/></clipPath><clipPath id="7e1a951445"><path d="M 54.136719 86.921875 L 116.910156 -0.0351562 L 204.476562 63.179688 L 141.703125 150.136719 Z M 54.136719 86.921875 " clip-rule="nonzero"/></clipPath><clipPath id="b2a5151e8e"><path d="M 54.136719 86.921875 L 116.910156 -0.0351562 L 204.476562 63.179688 L 141.703125 150.136719 Z M 54.136719 86.921875 " clip-rule="nonzero"/></clipPath><clipPath id="4515f742fc"><path d="M 118 21 L 125 21 L 125 32 L 118 32 Z M 118 21 " clip-rule="nonzero"/></clipPath><clipPath id="35acba02e5"><path d="M 54.136719 86.921875 L 116.910156 -0.0351562 L 204.476562 63.179688 L 141.703125 150.136719 Z M 54.136719 86.921875 " clip-rule="nonzero"/></clipPath><clipPath id="539170a3b0"><path d="M 54.136719 86.921875 L 116.910156 -0.0351562 L 204.476562 63.179688 L 141.703125 150.136719 Z M 54.136719 86.921875 " clip-rule="nonzero"/></clipPath><clipPath id="faf26f9ef5"><path d="M 139 21 L 141 21 L 141 27 L 139 27 Z M 139 21 " clip-rule="nonzero"/></clipPath><clipPath id="7e791a7136"><path d="M 54.136719 86.921875 L 116.910156 -0.0351562 L 204.476562 63.179688 L 141.703125 150.136719 Z M 54.136719 86.921875 " clip-rule="nonzero"/></clipPath><clipPath id="0605d8367a"><path d="M 54.136719 86.921875 L 116.910156 -0.0351562 L 204.476562 63.179688 L 141.703125 150.136719 Z M 54.136719 86.921875 " clip-rule="nonzero"/></clipPath><clipPath id="4c2ec1e4a8"><path d="M 131 20 L 134 20 L 134 29 L 131 29 Z M 131 20 " clip-rule="nonzero"/></clipPath><clipPath id="21dbaec625"><path d="M 54.136719 86.921875 L 116.910156 -0.0351562 L 204.476562 63.179688 L 141.703125 150.136719 Z M 54.136719 86.921875 " clip-rule="nonzero"/></clipPath><clipPath id="01ecc2641b"><path d="M 54.136719 86.921875 L 116.910156 -0.0351562 L 204.476562 63.179688 L 141.703125 150.136719 Z M 54.136719 86.921875 " clip-rule="nonzero"/></clipPath><clipPath id="952689c096"><path d="M 135 21 L 138 21 L 138 28 L 135 28 Z M 135 21 " clip-rule="nonzero"/></clipPath><clipPath id="5ff9aa8c1f"><path d="M 54.136719 86.921875 L 116.910156 -0.0351562 L 204.476562 63.179688 L 141.703125 150.136719 Z M 54.136719 86.921875 " clip-rule="nonzero"/></clipPath><clipPath id="204f977d93"><path d="M 54.136719 86.921875 L 116.910156 -0.0351562 L 204.476562 63.179688 L 141.703125 150.136719 Z M 54.136719 86.921875 " clip-rule="nonzero"/></clipPath><clipPath id="70daf9c611"><path d="M 143 22 L 144 22 L 144 27 L 143 27 Z M 143 22 " clip-rule="nonzero"/></clipPath><clipPath id="a8a3b2f03b"><path d="M 54.136719 86.921875 L 116.910156 -0.0351562 L 204.476562 63.179688 L 141.703125 150.136719 Z M 54.136719 86.921875 " clip-rule="nonzero"/></clipPath><clipPath id="a98ea66226"><path d="M 54.136719 86.921875 L 116.910156 -0.0351562 L 204.476562 63.179688 L 141.703125 150.136719 Z M 54.136719 86.921875 " clip-rule="nonzero"/></clipPath><clipPath id="804926a1f3"><path d="M 103 103 L 120 103 L 120 123 L 103 123 Z M 103 103 " clip-rule="nonzero"/></clipPath><clipPath id="395c5dc6b1"><path d="M 54.136719 86.921875 L 116.910156 -0.0351562 L 204.476562 63.179688 L 141.703125 150.136719 Z M 54.136719 86.921875 " clip-rule="nonzero"/></clipPath><clipPath id="244ec3e7bb"><path d="M 54.136719 86.921875 L 116.910156 -0.0351562 L 204.476562 63.179688 L 141.703125 150.136719 Z M 54.136719 86.921875 " clip-rule="nonzero"/></clipPath><clipPath id="0bb3323bb4"><path d="M 98 101 L 117 101 L 117 121 L 98 121 Z M 98 101 " clip-rule="nonzero"/></clipPath><clipPath id="244f6e666a"><path d="M 54.136719 86.921875 L 116.910156 -0.0351562 L 204.476562 63.179688 L 141.703125 150.136719 Z M 54.136719 86.921875 " clip-rule="nonzero"/></clipPath><clipPath id="a5139cc831"><path d="M 54.136719 86.921875 L 116.910156 -0.0351562 L 204.476562 63.179688 L 141.703125 150.136719 Z M 54.136719 86.921875 " clip-rule="nonzero"/></clipPath></defs><g clip-path="url(#8bad5d5370)"><g clip-path="url(#c3bb1193a6)"><g clip-path="url(#a96162a5d0)"><path fill="#000000" d="M 78.453125 89.695312 C 87.074219 86.867188 95.695312 84.035156 104.316406 81.207031 C 95.238281 83.414062 86.160156 85.621094 77.085938 87.828125 C 77.261719 88.542969 77.453125 89.25 77.660156 89.957031 C 77.921875 89.867188 78.1875 89.78125 78.453125 89.695312 Z M 78.453125 89.695312 " fill-opacity="1" fill-rule="nonzero"/></g></g></g><g clip-path="url(#219d95b537)"><g clip-path="url(#26c2096c08)"><g clip-path="url(#920ad372f0)"><path fill="#000000" d="M 75.855469 73.425781 C 84.773438 72.699219 93.691406 71.972656 102.609375 71.242188 C 93.648438 71.269531 84.683594 71.296875 75.722656 71.324219 C 75.675781 72.039062 75.644531 72.746094 75.621094 73.445312 C 75.699219 73.441406 75.777344 73.433594 75.855469 73.425781 Z M 75.855469 73.425781 " fill-opacity="1" fill-rule="nonzero"/></g></g></g><g clip-path="url(#ff1a5d587a)"><g clip-path="url(#72ebe25194)"><g clip-path="url(#1332373a4f)"><path fill="#000000" d="M 105.230469 84.453125 C 96.390625 87.355469 87.554688 90.253906 78.714844 93.15625 C 78.964844 93.839844 79.230469 94.519531 79.507812 95.195312 C 79.765625 95.085938 80.019531 94.980469 80.277344 94.871094 C 88.59375 91.398438 96.914062 87.925781 105.230469 84.453125 Z M 105.230469 84.453125 " fill-opacity="1" fill-rule="nonzero"/></g></g></g><g clip-path="url(#0d59a3c631)"><g clip-path="url(#7d0a4e1c16)"><g clip-path="url(#0e46c027b6)"><path fill="#000000" d="M 77.265625 84.308594 C 86.015625 82.183594 94.761719 80.054688 103.511719 77.925781 C 94.351562 79.402344 85.191406 80.878906 76.035156 82.355469 C 76.132812 83.082031 76.242188 83.808594 76.371094 84.527344 C 76.667969 84.453125 76.96875 84.382812 77.265625 84.308594 Z M 77.265625 84.308594 " fill-opacity="1" fill-rule="nonzero"/></g></g></g><g clip-path="url(#2786bb2e5b)"><g clip-path="url(#0599d8cc40)"><g clip-path="url(#c13f4c3688)"><path fill="#000000" d="M 123.304688 128.179688 C 123.835938 128.242188 124.371094 128.292969 124.90625 128.339844 C 126.898438 122.132812 128.890625 115.929688 130.886719 109.726562 C 128.359375 115.878906 125.832031 122.03125 123.304688 128.179688 Z M 123.304688 128.179688 " fill-opacity="1" fill-rule="nonzero"/></g></g></g><g clip-path="url(#1be362a075)"><g clip-path="url(#85adab55bc)"><g clip-path="url(#f34dbcceb3)"><path fill="#000000" d="M 118.195312 127.367188 C 118.746094 127.480469 119.296875 127.582031 119.847656 127.683594 C 122.464844 121.3125 125.082031 114.941406 127.699219 108.570312 C 124.53125 114.835938 121.363281 121.101562 118.195312 127.367188 Z M 118.195312 127.367188 " fill-opacity="1" fill-rule="nonzero"/></g></g></g><g clip-path="url(#5fb9b6844d)"><g clip-path="url(#1aadd9072b)"><g clip-path="url(#7e00483679)"><path fill="#000000" d="M 106.4375 87.621094 C 97.925781 91.175781 89.410156 94.730469 80.898438 98.285156 C 81.214844 98.933594 81.546875 99.578125 81.890625 100.210938 C 82.179688 100.0625 82.472656 99.910156 82.761719 99.761719 C 90.652344 95.714844 98.546875 91.667969 106.4375 87.621094 Z M 106.4375 87.621094 " fill-opacity="1" fill-rule="nonzero"/></g></g></g><g clip-path="url(#5defeab051)"><g clip-path="url(#76423d4e0a)"><g clip-path="url(#1af5ee06cd)"><path fill="#000000" d="M 104.257812 57.898438 C 96.59375 55.433594 88.929688 52.96875 81.265625 50.5 C 80.996094 51.046875 80.722656 51.636719 80.445312 52.257812 C 88.382812 54.136719 96.320312 56.019531 104.257812 57.898438 Z M 104.257812 57.898438 " fill-opacity="1" fill-rule="nonzero"/></g></g></g><g clip-path="url(#07a96f96c6)"><g clip-path="url(#86e0b703b0)"><g clip-path="url(#39b10715bd)"><path fill="#000000" d="M 105.164062 54.636719 C 98.066406 51.722656 90.972656 48.804688 83.878906 45.890625 C 83.550781 46.414062 83.230469 46.945312 82.917969 47.480469 C 90.332031 49.863281 97.75 52.25 105.164062 54.636719 Z M 105.164062 54.636719 " fill-opacity="1" fill-rule="nonzero"/></g></g></g><g clip-path="url(#fdfd53497c)"><g clip-path="url(#0ec3f48fbf)"><g clip-path="url(#026eda2fb0)"><path fill="#000000" d="M 76.1875 67.953125 C 85.054688 67.925781 93.921875 67.898438 102.785156 67.871094 C 93.957031 67.203125 85.128906 66.53125 76.300781 65.859375 C 76.199219 66.554688 76.105469 67.253906 76.023438 67.953125 C 76.082031 67.953125 76.136719 67.953125 76.1875 67.953125 Z M 76.1875 67.953125 " fill-opacity="1" fill-rule="nonzero"/></g></g></g><g clip-path="url(#c2161a6d5d)"><g clip-path="url(#96d4d4159f)"><g clip-path="url(#ca442b5c09)"><path fill="#000000" d="M 128.402344 128.519531 C 128.898438 128.53125 129.394531 128.539062 129.894531 128.535156 C 131.289062 122.640625 132.683594 116.746094 134.078125 110.851562 C 132.1875 116.742188 130.292969 122.628906 128.402344 128.519531 Z M 128.402344 128.519531 " fill-opacity="1" fill-rule="nonzero"/></g></g></g><g clip-path="url(#261a855ad3)"><g clip-path="url(#8bf6558cff)"><g clip-path="url(#077c2e4f1b)"><path fill="#000000" d="M 106.117188 26.078125 C 105.734375 26.265625 105.351562 26.457031 104.972656 26.65625 C 108.734375 30.394531 112.496094 34.136719 116.257812 37.875 C 112.875 33.941406 109.496094 30.007812 106.117188 26.078125 Z M 106.117188 26.078125 " fill-opacity="1" fill-rule="nonzero"/></g></g></g><g clip-path="url(#689ac326f2)"><g clip-path="url(#76d1fdc96c)"><g clip-path="url(#7f0e90b26e)"><path fill="#000000" d="M 103.445312 61.160156 C 95.347656 59.242188 87.25 57.324219 79.152344 55.40625 C 78.914062 56.027344 78.683594 56.652344 78.464844 57.277344 C 86.789062 58.574219 95.117188 59.867188 103.445312 61.160156 Z M 103.445312 61.160156 " fill-opacity="1" fill-rule="nonzero"/></g></g></g><g clip-path="url(#ac88b7ad3c)"><g clip-path="url(#b1c3221804)"><g clip-path="url(#8c879894c6)"><path fill="#000000" d="M 102.710938 64.46875 C 94.28125 63.160156 85.847656 61.847656 77.414062 60.539062 C 77.214844 61.238281 77.042969 61.898438 76.90625 62.511719 C 85.507812 63.164062 94.109375 63.816406 102.710938 64.46875 Z M 102.710938 64.46875 " fill-opacity="1" fill-rule="nonzero"/></g></g></g><g clip-path="url(#f91f31897c)"><g clip-path="url(#ac52098c72)"><g clip-path="url(#9083bf8ddf)"><path fill="#000000" d="M 133.378906 128.394531 C 133.839844 128.363281 134.300781 128.324219 134.761719 128.28125 C 135.625 122.730469 136.484375 117.183594 137.347656 111.632812 C 136.023438 117.222656 134.703125 122.808594 133.378906 128.394531 Z M 133.378906 128.394531 " fill-opacity="1" fill-rule="nonzero"/></g></g></g><g clip-path="url(#5b1520bf50)"><g clip-path="url(#910a6f5ffa)"><g clip-path="url(#b8bb5df005)"><path fill="#000000" d="M 171.539062 108.25 C 171.601562 108.171875 171.667969 108.09375 171.730469 108.015625 C 171.015625 107.039062 170.300781 106.058594 169.585938 105.082031 C 170.238281 106.136719 170.886719 107.195312 171.539062 108.25 Z M 171.539062 108.25 " fill-opacity="1" fill-rule="nonzero"/></g></g></g><g clip-path="url(#15905179d3)"><g clip-path="url(#e30c7b159a)"><g clip-path="url(#22a0ee1925)"><path fill="#000000" d="M 168.996094 111.234375 C 169.082031 111.140625 169.171875 111.046875 169.257812 110.953125 C 168.449219 109.644531 167.640625 108.332031 166.832031 107.023438 C 167.554688 108.425781 168.277344 109.832031 168.996094 111.234375 Z M 168.996094 111.234375 " fill-opacity="1" fill-rule="nonzero"/></g></g></g><g clip-path="url(#b789b4e7ee)"><g clip-path="url(#0ff42d1e47)"><g clip-path="url(#13192b8e17)"><path fill="#000000" d="M 110.425781 24.195312 C 110.0625 24.335938 109.695312 24.476562 109.332031 24.625 C 112.480469 28.285156 115.625 31.945312 118.773438 35.605469 C 115.992188 31.804688 113.207031 28 110.425781 24.195312 Z M 110.425781 24.195312 " fill-opacity="1" fill-rule="nonzero"/></g></g></g><g clip-path="url(#c32f54cdf0)"><g clip-path="url(#50af9414c7)"><g clip-path="url(#5ff2291c30)"><path fill="#000000" d="M 175.847656 102.003906 C 175.867188 101.96875 175.886719 101.9375 175.90625 101.90625 C 175.585938 101.589844 175.269531 101.273438 174.949219 100.957031 C 175.25 101.304688 175.546875 101.65625 175.847656 102.003906 Z M 175.847656 102.003906 " fill-opacity="1" fill-rule="nonzero"/></g></g></g><g clip-path="url(#d9afb4917e)"><g clip-path="url(#0acd5eccea)"><g clip-path="url(#a01946c20b)"><path fill="#000000" d="M 166.132812 114.144531 C 166.257812 114.027344 166.386719 113.914062 166.511719 113.792969 C 165.578125 111.976562 164.644531 110.164062 163.710938 108.347656 C 164.519531 110.28125 165.328125 112.214844 166.132812 114.144531 Z M 166.132812 114.144531 " fill-opacity="1" fill-rule="nonzero"/></g></g></g><g clip-path="url(#5c3f3f8be2)"><g clip-path="url(#3aa87a7aaf)"><g clip-path="url(#7337004424)"><path fill="#000000" d="M 173.832031 105.15625 C 173.871094 105.097656 173.910156 105.042969 173.949219 104.988281 C 173.410156 104.363281 172.875 103.738281 172.339844 103.113281 C 172.835938 103.792969 173.332031 104.472656 173.832031 105.15625 Z M 173.832031 105.15625 " fill-opacity="1" fill-rule="nonzero"/></g></g></g><g clip-path="url(#197a786083)"><g clip-path="url(#b34ff12f5d)"><g clip-path="url(#2a78216251)"><path fill="#000000" d="M 147.484375 125.636719 C 147.828125 125.515625 148.167969 125.390625 148.507812 125.265625 C 148.152344 120.941406 147.796875 116.613281 147.441406 112.289062 C 147.453125 116.738281 147.46875 121.1875 147.484375 125.636719 Z M 147.484375 125.636719 " fill-opacity="1" fill-rule="nonzero"/></g></g></g><g clip-path="url(#1fedb9212d)"><g clip-path="url(#901fee5638)"><g clip-path="url(#879952a7c6)"><path fill="#000000" d="M 151.78125 123.902344 C 152.070312 123.773438 152.359375 123.644531 152.640625 123.507812 C 152.035156 119.765625 151.429688 116.019531 150.824219 112.277344 C 151.144531 116.152344 151.464844 120.027344 151.78125 123.902344 Z M 151.78125 123.902344 " fill-opacity="1" fill-rule="nonzero"/></g></g></g><g clip-path="url(#42e2c29325)"><g clip-path="url(#3b9c75e858)"><g clip-path="url(#a756dc54cf)"><path fill="#000000" d="M 138.253906 127.855469 C 138.675781 127.792969 139.097656 127.730469 139.519531 127.65625 C 139.910156 122.484375 140.300781 117.316406 140.691406 112.144531 C 139.878906 117.382812 139.066406 122.617188 138.253906 127.855469 Z M 138.253906 127.855469 " fill-opacity="1" fill-rule="nonzero"/></g></g></g><g clip-path="url(#8ae926f852)"><g clip-path="url(#b78fbf2bfe)"><g clip-path="url(#4d46cd454d)"><path fill="#000000" d="M 155.804688 121.847656 C 156.046875 121.707031 156.289062 121.558594 156.53125 121.414062 C 155.738281 118.167969 154.949219 114.917969 154.15625 111.667969 C 154.707031 115.0625 155.253906 118.453125 155.804688 121.847656 Z M 155.804688 121.847656 " fill-opacity="1" fill-rule="nonzero"/></g></g></g><g clip-path="url(#5c7f75d5a4)"><g clip-path="url(#a8efdbacc7)"><g clip-path="url(#7abeddd90f)"><path fill="#000000" d="M 159.539062 119.496094 C 159.742188 119.355469 159.945312 119.210938 160.144531 119.066406 C 159.226562 116.277344 158.3125 113.488281 157.394531 110.699219 C 158.109375 113.628906 158.824219 116.5625 159.539062 119.496094 Z M 159.539062 119.496094 " fill-opacity="1" fill-rule="nonzero"/></g></g></g><g clip-path="url(#181826d33e)"><g clip-path="url(#525ae09127)"><g clip-path="url(#fc84ca8347)"><path fill="#000000" d="M 162.984375 116.910156 C 163.144531 116.78125 163.300781 116.65625 163.457031 116.523438 C 162.523438 114.285156 161.585938 112.046875 160.652344 109.808594 C 161.429688 112.175781 162.207031 114.542969 162.984375 116.910156 Z M 162.984375 116.910156 " fill-opacity="1" fill-rule="nonzero"/></g></g></g><g clip-path="url(#9230d2767a)"><g clip-path="url(#a142b89f30)"><g clip-path="url(#0f9d4dacad)"><path fill="#000000" d="M 85.214844 104.699219 C 92.910156 99.957031 100.601562 95.210938 108.292969 90.46875 C 100.0625 94.691406 91.828125 98.914062 83.59375 103.136719 C 83.980469 103.753906 84.382812 104.363281 84.792969 104.960938 C 84.933594 104.875 85.074219 104.789062 85.214844 104.699219 Z M 85.214844 104.699219 " fill-opacity="1" fill-rule="nonzero"/></g></g></g><g clip-path="url(#725456886a)"><g clip-path="url(#fe4e1bf6e2)"><g clip-path="url(#5b1c82baba)"><path fill="#000000" d="M 108.164062 48.605469 C 102.195312 44.972656 96.226562 41.339844 90.257812 37.707031 C 89.886719 38.109375 89.503906 38.535156 89.117188 38.976562 C 95.464844 42.1875 101.8125 45.394531 108.164062 48.605469 Z M 108.164062 48.605469 " fill-opacity="1" fill-rule="nonzero"/></g></g></g><g clip-path="url(#dffe45d644)"><g clip-path="url(#500b644062)"><g clip-path="url(#62867906e1)"><path fill="#000000" d="M 88.375 109.160156 C 95.558594 103.910156 102.742188 98.660156 109.925781 93.410156 C 102.214844 98.167969 94.503906 102.921875 86.792969 107.679688 C 87.234375 108.238281 87.683594 108.789062 88.140625 109.332031 C 88.21875 109.273438 88.296875 109.21875 88.375 109.160156 Z M 88.375 109.160156 " fill-opacity="1" fill-rule="nonzero"/></g></g></g><g clip-path="url(#c6c24a8ef5)"><g clip-path="url(#aa250a89da)"><g clip-path="url(#a9a3065bc0)"><path fill="#000000" d="M 113.125 126.0625 C 113.691406 126.234375 114.261719 126.402344 114.832031 126.554688 C 118.125 120.042969 121.421875 113.527344 124.714844 107.015625 C 120.851562 113.363281 116.988281 119.714844 113.125 126.0625 Z M 113.125 126.0625 " fill-opacity="1" fill-rule="nonzero"/></g></g></g><g clip-path="url(#519ba8a054)"><g clip-path="url(#d242893207)"><g clip-path="url(#34490bb609)"><path fill="#000000" d="M 123.585938 21.144531 C 123.3125 21.171875 123.039062 21.203125 122.761719 21.234375 C 124.308594 24.25 125.859375 27.261719 127.40625 30.273438 C 126.132812 27.230469 124.859375 24.1875 123.585938 21.144531 Z M 123.585938 21.144531 " fill-opacity="1" fill-rule="nonzero"/></g></g></g><g clip-path="url(#f947b15a43)"><g clip-path="url(#4681c35a47)"><g clip-path="url(#ce729f7630)"><path fill="#000000" d="M 127.882812 20.871094 C 127.640625 20.878906 127.398438 20.894531 127.15625 20.902344 C 128.300781 23.636719 129.445312 26.371094 130.585938 29.105469 C 129.683594 26.359375 128.785156 23.617188 127.882812 20.871094 Z M 127.882812 20.871094 " fill-opacity="1" fill-rule="nonzero"/></g></g></g><g clip-path="url(#54516dc7e5)"><g clip-path="url(#06d9cd3f4e)"><g clip-path="url(#55a5a80f96)"><path fill="#000000" d="M 114.070312 40.449219 C 110.019531 36.421875 105.96875 32.394531 101.917969 28.367188 C 101.507812 28.605469 101.101562 28.847656 100.695312 29.097656 C 105.152344 32.878906 109.613281 36.664062 114.070312 40.449219 Z M 114.070312 40.449219 " fill-opacity="1" fill-rule="nonzero"/></g></g></g><g clip-path="url(#5043b69178)"><g clip-path="url(#5b6a944a07)"><g clip-path="url(#2a57accc49)"><path fill="#000000" d="M 109.667969 45.570312 C 104.410156 41.773438 99.152344 37.980469 93.894531 34.183594 C 93.492188 34.53125 93.09375 34.882812 92.707031 35.242188 C 98.359375 38.6875 104.015625 42.128906 109.667969 45.570312 Z M 109.667969 45.570312 " fill-opacity="1" fill-rule="nonzero"/></g></g></g><g clip-path="url(#a5a09707e9)"><g clip-path="url(#1ecee0726a)"><g clip-path="url(#bbadc7e2ea)"><path fill="#000000" d="M 142.96875 126.953125 C 143.355469 126.859375 143.734375 126.761719 144.117188 126.660156 C 144.101562 121.902344 144.085938 117.140625 144.070312 112.378906 C 143.703125 117.234375 143.335938 122.09375 142.96875 126.953125 Z M 142.96875 126.953125 " fill-opacity="1" fill-rule="nonzero"/></g></g></g><g clip-path="url(#452fc7d4d0)"><g clip-path="url(#5bda2ab234)"><g clip-path="url(#4b16e5784c)"><path fill="#000000" d="M 76.355469 78.875 C 85.15625 77.457031 93.960938 76.035156 102.761719 74.617188 C 93.707031 75.355469 84.652344 76.097656 75.597656 76.835938 C 75.613281 77.515625 75.640625 78.179688 75.679688 78.820312 C 75.683594 78.871094 75.691406 78.925781 75.695312 78.980469 C 75.914062 78.945312 76.132812 78.910156 76.355469 78.875 Z M 76.355469 78.875 " fill-opacity="1" fill-rule="nonzero"/></g></g></g><g clip-path="url(#6323804b90)"><g clip-path="url(#390721fbc1)"><g clip-path="url(#5277b173c6)"><path fill="#000000" d="M 114.847656 22.753906 C 114.496094 22.851562 114.140625 22.957031 113.789062 23.0625 C 116.445312 26.691406 119.101562 30.320312 121.753906 33.953125 C 119.453125 30.21875 117.152344 26.488281 114.847656 22.753906 Z M 114.847656 22.753906 " fill-opacity="1" fill-rule="nonzero"/></g></g></g><g clip-path="url(#40b3ead0af)"><g clip-path="url(#d7d009c88d)"><g clip-path="url(#420298abb6)"><path fill="#000000" d="M 106.371094 51.472656 C 99.878906 48.191406 93.390625 44.910156 86.902344 41.628906 C 86.660156 41.929688 86.421875 42.234375 86.1875 42.539062 C 86.0625 42.699219 85.945312 42.863281 85.824219 43.027344 C 92.671875 45.84375 99.519531 48.65625 106.371094 51.472656 Z M 106.371094 51.472656 " fill-opacity="1" fill-rule="nonzero"/></g></g></g><g clip-path="url(#8028fb6c25)"><g clip-path="url(#64163679eb)"><g clip-path="url(#e07d728ad1)"><path fill="#000000" d="M 177.285156 98.535156 C 177.386719 98.632812 177.488281 98.734375 177.589844 98.835938 C 177.597656 98.828125 177.601562 98.816406 177.605469 98.804688 C 177.5 98.714844 177.390625 98.625 177.285156 98.535156 Z M 177.285156 98.535156 " fill-opacity="1" fill-rule="nonzero"/></g></g></g><g clip-path="url(#1e908ef8a3)"><g clip-path="url(#f21007bfba)"><g clip-path="url(#7a676c055e)"><path fill="#000000" d="M 111.671875 42.839844 C 107.042969 38.914062 102.417969 34.988281 97.792969 31.0625 C 97.644531 31.171875 97.503906 31.277344 97.351562 31.394531 C 97.105469 31.582031 96.855469 31.773438 96.609375 31.964844 C 101.628906 35.589844 106.648438 39.214844 111.671875 42.839844 Z M 111.671875 42.839844 " fill-opacity="1" fill-rule="nonzero"/></g></g></g><g clip-path="url(#fb10a712ca)"><g clip-path="url(#072fa3329d)"><g clip-path="url(#30e3f5f7d6)"><path fill="#000000" d="M 150.742188 25.265625 C 150.707031 25.253906 150.675781 25.238281 150.644531 25.226562 C 150.609375 25.664062 150.578125 26.097656 150.542969 26.535156 C 150.609375 26.113281 150.675781 25.691406 150.742188 25.265625 Z M 150.742188 25.265625 " fill-opacity="1" fill-rule="nonzero"/></g></g></g><g clip-path="url(#0a628344ab)"><g clip-path="url(#a0d6a19a4b)"><g clip-path="url(#d9c9bb57dc)"><path fill="#000000" d="M 147.15625 26.410156 C 147.222656 25.578125 147.285156 24.746094 147.347656 23.910156 C 147.28125 23.886719 147.214844 23.863281 147.148438 23.839844 C 147.152344 24.699219 147.15625 25.554688 147.15625 26.410156 Z M 147.15625 26.410156 " fill-opacity="1" fill-rule="nonzero"/></g></g></g><g clip-path="url(#014076f63e)"><g clip-path="url(#716daaa4dc)"><g clip-path="url(#e419fd7f05)"><path fill="#000000" d="M 111.960938 96.117188 C 104.777344 101.367188 97.589844 106.617188 90.40625 111.867188 C 90.890625 112.378906 91.382812 112.878906 91.886719 113.367188 C 91.925781 113.335938 91.964844 113.300781 92.003906 113.265625 C 98.65625 107.550781 105.308594 101.832031 111.960938 96.117188 Z M 111.960938 96.117188 " fill-opacity="1" fill-rule="nonzero"/></g></g></g><g clip-path="url(#e7b1f1efdb)"><g clip-path="url(#02fc2f33df)"><g clip-path="url(#afff16dea5)"><path fill="#000000" d="M 96.003906 116.941406 C 102.03125 110.878906 108.058594 104.8125 114.089844 98.75 C 107.519531 104.394531 100.953125 110.039062 94.386719 115.683594 C 94.898438 116.132812 95.421875 116.566406 95.953125 116.996094 C 95.96875 116.976562 95.988281 116.960938 96.003906 116.941406 Z M 96.003906 116.941406 " fill-opacity="1" fill-rule="nonzero"/></g></g></g><g clip-path="url(#44c8be3ea0)"><g clip-path="url(#1badbe0192)"><g clip-path="url(#9928b126f4)"><path fill="#000000" d="M 153.960938 26.800781 C 153.949219 26.796875 153.9375 26.789062 153.925781 26.785156 C 153.902344 26.941406 153.878906 27.097656 153.855469 27.257812 C 153.890625 27.105469 153.925781 26.953125 153.960938 26.800781 Z M 153.960938 26.800781 " fill-opacity="1" fill-rule="nonzero"/></g></g></g><g clip-path="url(#2b79511d3d)"><g clip-path="url(#7e1a951445)"><g clip-path="url(#b2a5151e8e)"><path fill="#000000" d="M 108.105469 124.273438 C 108.679688 124.515625 109.257812 124.742188 109.84375 124.960938 C 113.835938 118.394531 117.832031 111.832031 121.824219 105.265625 C 117.25 111.601562 112.675781 117.9375 108.105469 124.273438 Z M 108.105469 124.273438 " fill-opacity="1" fill-rule="nonzero"/></g></g></g><g clip-path="url(#4515f742fc)"><g clip-path="url(#35acba02e5)"><g clip-path="url(#539170a3b0)"><path fill="#000000" d="M 119.230469 21.761719 C 118.917969 21.816406 118.605469 21.871094 118.289062 21.933594 C 120.339844 25.253906 122.386719 28.574219 124.433594 31.894531 C 122.699219 28.515625 120.964844 25.136719 119.230469 21.761719 Z M 119.230469 21.761719 " fill-opacity="1" fill-rule="nonzero"/></g></g></g><g clip-path="url(#faf26f9ef5)"><g clip-path="url(#7e791a7136)"><g clip-path="url(#0605d8367a)"><path fill="#000000" d="M 140.027344 21.859375 C 139.886719 21.828125 139.75 21.800781 139.613281 21.773438 C 139.886719 23.460938 140.160156 25.148438 140.433594 26.835938 C 140.296875 25.175781 140.160156 23.519531 140.027344 21.859375 Z M 140.027344 21.859375 " fill-opacity="1" fill-rule="nonzero"/></g></g></g><g clip-path="url(#4c2ec1e4a8)"><g clip-path="url(#21dbaec625)"><g clip-path="url(#01ecc2641b)"><path fill="#000000" d="M 132.058594 20.914062 C 131.851562 20.90625 131.644531 20.898438 131.4375 20.890625 C 132.230469 23.3125 133.027344 25.730469 133.820312 28.148438 C 133.234375 25.738281 132.648438 23.324219 132.058594 20.914062 Z M 132.058594 20.914062 " fill-opacity="1" fill-rule="nonzero"/></g></g></g><g clip-path="url(#952689c096)"><g clip-path="url(#5ff9aa8c1f)"><g clip-path="url(#204f977d93)"><path fill="#000000" d="M 136.09375 21.230469 C 135.929688 21.210938 135.761719 21.183594 135.59375 21.167969 C 136.082031 23.164062 136.566406 25.164062 137.054688 27.160156 C 136.734375 25.183594 136.414062 23.207031 136.09375 21.230469 Z M 136.09375 21.230469 " fill-opacity="1" fill-rule="nonzero"/></g></g></g><g clip-path="url(#70daf9c611)"><g clip-path="url(#a8a3b2f03b)"><g clip-path="url(#a98ea66226)"><path fill="#000000" d="M 143.777344 22.761719 C 143.675781 22.734375 143.578125 22.707031 143.480469 22.679688 C 143.582031 23.929688 143.683594 25.179688 143.785156 26.433594 C 143.785156 25.207031 143.78125 23.984375 143.777344 22.761719 Z M 143.777344 22.761719 " fill-opacity="1" fill-rule="nonzero"/></g></g></g><g clip-path="url(#804926a1f3)"><g clip-path="url(#395c5dc6b1)"><g clip-path="url(#244ec3e7bb)"><path fill="#000000" d="M 119.050781 103.324219 C 113.789062 109.527344 108.523438 115.726562 103.261719 121.925781 C 103.824219 122.242188 104.390625 122.542969 104.96875 122.832031 C 109.664062 116.332031 114.355469 109.828125 119.050781 103.324219 Z M 119.050781 103.324219 " fill-opacity="1" fill-rule="nonzero"/></g></g></g><g clip-path="url(#0bb3323bb4)"><g clip-path="url(#244f6e666a)"><g clip-path="url(#a5139cc831)"><path fill="#000000" d="M 100.324219 120.167969 C 105.742188 113.785156 111.160156 107.402344 116.578125 101.019531 C 110.609375 107.027344 104.636719 113.035156 98.664062 119.042969 C 99.210938 119.429688 99.765625 119.804688 100.324219 120.167969 Z M 100.324219 120.167969 " fill-opacity="1" fill-rule="nonzero"/></g></g></g><g fill="#000000" fill-opacity="1"><g transform="translate(125.659448, 88.16514)"><g><path d="M 15.546875 0.59375 C 12.640625 0.59375 10.101562 0.00390625 7.9375 -1.171875 C 5.769531 -2.359375 4.101562 -4.039062 2.9375 -6.21875 C 1.769531 -8.394531 1.1875 -10.914062 1.1875 -13.78125 C 1.1875 -16.644531 1.769531 -19.164062 2.9375 -21.34375 C 4.101562 -23.519531 5.769531 -25.195312 7.9375 -26.375 C 10.101562 -27.5625 12.640625 -28.15625 15.546875 -28.15625 C 18.460938 -28.15625 21.003906 -27.5625 23.171875 -26.375 C 25.335938 -25.195312 27.003906 -23.519531 28.171875 -21.34375 C 29.335938 -19.164062 29.921875 -16.644531 29.921875 -13.78125 C 29.921875 -10.914062 29.335938 -8.394531 28.171875 -6.21875 C 27.003906 -4.039062 25.335938 -2.359375 23.171875 -1.171875 C 21.003906 0.00390625 18.460938 0.59375 15.546875 0.59375 Z M 15.546875 -0.59375 C 17.566406 -0.59375 19.085938 -1.78125 20.109375 -4.15625 C 21.140625 -6.53125 21.65625 -9.738281 21.65625 -13.78125 C 21.65625 -17.820312 21.140625 -21.03125 20.109375 -23.40625 C 19.085938 -25.78125 17.566406 -26.96875 15.546875 -26.96875 C 13.523438 -26.96875 12.003906 -25.78125 10.984375 -23.40625 C 9.960938 -21.03125 9.453125 -17.820312 9.453125 -13.78125 C 9.453125 -9.738281 9.960938 -6.53125 10.984375 -4.15625 C 12.003906 -1.78125 13.523438 -0.59375 15.546875 -0.59375 Z M 15.546875 -0.59375 "/></g></g></g><g fill="#000000" fill-opacity="1"><g transform="translate(155.42788, 88.16514)"><g><path d="M 2.75 -14.171875 C 1.65625 -16.722656 0.609375 -18.492188 -0.390625 -19.484375 L -0.390625 -19.6875 L 10.828125 -19.6875 L 10.828125 -19.484375 C 10.273438 -18.804688 10 -17.957031 10 -16.9375 C 10 -16.113281 10.207031 -15.191406 10.625 -14.171875 L 13.984375 -6.265625 L 16.96875 -13.78125 C 17.363281 -14.75 17.5625 -15.664062 17.5625 -16.53125 C 17.5625 -17.664062 17.21875 -18.648438 16.53125 -19.484375 L 16.53125 -19.6875 L 21.65625 -19.6875 L 21.65625 -19.484375 C 20.34375 -18.171875 19.265625 -16.492188 18.421875 -14.453125 L 12.59375 0 L 8.859375 0 Z M 2.75 -14.171875 "/></g></g></g><g fill="#000000" fill-opacity="1"><g transform="translate(174.958466, 88.16514)"><g><path d="M 20.078125 -7.09375 C 19.578125 -4.726562 18.5 -2.851562 16.84375 -1.46875 C 15.195312 -0.09375 13.191406 0.59375 10.828125 0.59375 C 9.015625 0.59375 7.378906 0.203125 5.921875 -0.578125 C 4.460938 -1.367188 3.304688 -2.523438 2.453125 -4.046875 C 1.609375 -5.578125 1.1875 -7.390625 1.1875 -9.484375 C 1.1875 -11.585938 1.632812 -13.457031 2.53125 -15.09375 C 3.4375 -16.738281 4.671875 -18.015625 6.234375 -18.921875 C 7.796875 -19.828125 9.523438 -20.28125 11.421875 -20.28125 C 13.128906 -20.28125 14.625 -19.929688 15.90625 -19.234375 C 17.195312 -18.535156 18.179688 -17.601562 18.859375 -16.4375 C 19.546875 -15.269531 19.890625 -13.988281 19.890625 -12.59375 L 6.96875 -12.59375 C 7.175781 -10.894531 7.65625 -9.441406 8.40625 -8.234375 C 9.15625 -7.023438 10.082031 -6.101562 11.1875 -5.46875 C 12.289062 -4.84375 13.484375 -4.53125 14.765625 -4.53125 C 15.835938 -4.53125 16.800781 -4.757812 17.65625 -5.21875 C 18.507812 -5.675781 19.1875 -6.300781 19.6875 -7.09375 Z M 9.640625 -19.171875 C 8.703125 -19.171875 8 -18.753906 7.53125 -17.921875 C 7.070312 -17.097656 6.84375 -15.941406 6.84375 -14.453125 C 6.84375 -14.054688 6.859375 -13.765625 6.890625 -13.578125 L 13 -13.578125 C 12.894531 -15.265625 12.546875 -16.617188 11.953125 -17.640625 C 11.359375 -18.660156 10.585938 -19.171875 9.640625 -19.171875 Z M 9.640625 -19.171875 "/></g></g></g><g fill="#000000" fill-opacity="1"><g transform="translate(194.489052, 88.16514)"><g><path d="M 1.96875 -0.203125 C 2.363281 -0.773438 2.660156 -1.523438 2.859375 -2.453125 C 3.054688 -3.390625 3.15625 -4.410156 3.15625 -5.515625 L 3.15625 -12.28125 C 3.15625 -13.59375 3.019531 -14.640625 2.75 -15.421875 C 2.488281 -16.210938 2.097656 -16.875 1.578125 -17.40625 L 1.578125 -17.59375 L 10.234375 -20.28125 L 10.4375 -20.28125 L 10.4375 -13.984375 L 10.625 -13.984375 C 11.445312 -18.179688 13.785156 -20.28125 17.640625 -20.28125 L 17.640625 -13.984375 L 14.96875 -13.984375 C 13.28125 -13.984375 12.101562 -13.65625 11.4375 -13 C 10.769531 -12.34375 10.4375 -11.160156 10.4375 -9.453125 L 10.4375 -5.515625 C 10.4375 -4.410156 10.535156 -3.390625 10.734375 -2.453125 C 10.929688 -1.523438 11.222656 -0.773438 11.609375 -0.203125 L 11.609375 0 L 1.96875 0 Z M 1.96875 -0.203125 "/></g></g></g><g fill="#000000" fill-opacity="1"><g transform="translate(210.790777, 88.16514)"><g><path d="M -0.59375 -0.203125 C 1.25 -2.035156 2.585938 -4.039062 3.421875 -6.21875 L 11.8125 -27.5625 L 17.125 -27.5625 L 25.390625 -6.5 C 25.890625 -5.1875 26.421875 -4.039062 26.984375 -3.0625 C 27.554688 -2.09375 28.273438 -1.140625 29.140625 -0.203125 L 29.140625 0 L 16.34375 0 L 16.34375 -0.203125 C 17.125 -1.296875 17.515625 -2.472656 17.515625 -3.734375 C 17.515625 -4.609375 17.320312 -5.53125 16.9375 -6.5 L 15.953125 -8.859375 L 5.90625 -8.859375 L 5.125 -6.96875 C 4.78125 -6.101562 4.609375 -5.265625 4.609375 -4.453125 C 4.609375 -2.878906 5.171875 -1.460938 6.296875 -0.203125 L 6.296875 0 L -0.59375 0 Z M 10.90625 -21.9375 L 6.296875 -10.046875 L 15.546875 -10.046875 Z M 10.90625 -21.9375 "/></g></g></g><g fill="#000000" fill-opacity="1"><g transform="translate(238.393505, 88.16514)"><g><path d="M 1.96875 -0.203125 C 2.363281 -0.773438 2.660156 -1.523438 2.859375 -2.453125 C 3.054688 -3.390625 3.15625 -4.410156 3.15625 -5.515625 L 3.15625 -12.28125 C 3.15625 -13.59375 3.019531 -14.640625 2.75 -15.421875 C 2.488281 -16.210938 2.097656 -16.875 1.578125 -17.40625 L 1.578125 -17.59375 L 10.234375 -20.28125 L 10.4375 -20.28125 L 10.4375 -13.984375 L 10.625 -13.984375 C 11.445312 -18.179688 13.785156 -20.28125 17.640625 -20.28125 L 17.640625 -13.984375 L 14.96875 -13.984375 C 13.28125 -13.984375 12.101562 -13.65625 11.4375 -13 C 10.769531 -12.34375 10.4375 -11.160156 10.4375 -9.453125 L 10.4375 -5.515625 C 10.4375 -4.410156 10.535156 -3.390625 10.734375 -2.453125 C 10.929688 -1.523438 11.222656 -0.773438 11.609375 -0.203125 L 11.609375 0 L 1.96875 0 Z M 1.96875 -0.203125 "/></g></g></g><g fill="#000000" fill-opacity="1"><g transform="translate(254.695236, 88.16514)"><g><path d="M 10.703125 0.59375 C 8.953125 0.59375 7.351562 0.207031 5.90625 -0.5625 C 4.457031 -1.34375 3.304688 -2.46875 2.453125 -3.9375 C 1.609375 -5.40625 1.1875 -7.148438 1.1875 -9.171875 C 1.1875 -11.328125 1.695312 -13.242188 2.71875 -14.921875 C 3.738281 -16.597656 5.117188 -17.910156 6.859375 -18.859375 C 8.609375 -19.804688 10.546875 -20.28125 12.671875 -20.28125 C 13.648438 -20.28125 14.695312 -20.179688 15.8125 -19.984375 C 16.925781 -19.785156 17.957031 -19.488281 18.90625 -19.09375 L 18.90625 -12.40625 L 18.5 -12.40625 C 17.53125 -14.445312 16.410156 -16.101562 15.140625 -17.375 C 13.867188 -18.65625 12.484375 -19.296875 10.984375 -19.296875 C 9.703125 -19.296875 8.695312 -18.796875 7.96875 -17.796875 C 7.25 -16.796875 6.890625 -15.351562 6.890625 -13.46875 C 6.890625 -11.8125 7.226562 -10.300781 7.90625 -8.9375 C 8.59375 -7.570312 9.523438 -6.492188 10.703125 -5.703125 C 11.890625 -4.921875 13.203125 -4.53125 14.640625 -4.53125 C 15.691406 -4.53125 16.625 -4.757812 17.4375 -5.21875 C 18.25 -5.675781 18.800781 -6.300781 19.09375 -7.09375 L 19.484375 -7.09375 C 19.203125 -4.75 18.253906 -2.878906 16.640625 -1.484375 C 15.023438 -0.0976562 13.046875 0.59375 10.703125 0.59375 Z M 10.703125 0.59375 "/></g></g></g><g fill="#000000" fill-opacity="1"><g transform="translate(273.635178, 88.16514)"><g><path d="M 1.765625 -0.203125 C 2.160156 -0.773438 2.457031 -1.523438 2.65625 -2.453125 C 2.851562 -3.390625 2.953125 -4.410156 2.953125 -5.515625 L 2.953125 -21.34375 C 2.953125 -22.65625 2.820312 -23.703125 2.5625 -24.484375 C 2.300781 -25.273438 1.90625 -25.929688 1.375 -26.453125 L 1.375 -26.65625 L 10.046875 -29.328125 L 10.234375 -29.328125 L 10.234375 -16.53125 L 10.4375 -16.53125 C 10.988281 -17.632812 11.769531 -18.535156 12.78125 -19.234375 C 13.789062 -19.929688 15.003906 -20.28125 16.421875 -20.28125 C 18.253906 -20.28125 19.722656 -19.703125 20.828125 -18.546875 C 21.929688 -17.390625 22.484375 -15.867188 22.484375 -13.984375 L 22.484375 -5.515625 C 22.484375 -4.410156 22.582031 -3.390625 22.78125 -2.453125 C 22.976562 -1.523438 23.273438 -0.773438 23.671875 -0.203125 L 23.671875 0 L 14.015625 0 L 14.015625 -0.203125 C 14.410156 -0.773438 14.707031 -1.523438 14.90625 -2.453125 C 15.101562 -3.390625 15.203125 -4.410156 15.203125 -5.515625 L 15.203125 -13.78125 C 15.203125 -14.519531 14.976562 -15.128906 14.53125 -15.609375 C 14.082031 -16.097656 13.488281 -16.34375 12.75 -16.34375 C 12.039062 -16.34375 11.441406 -16.113281 10.953125 -15.65625 C 10.472656 -15.195312 10.234375 -14.570312 10.234375 -13.78125 L 10.234375 -5.515625 C 10.234375 -4.410156 10.332031 -3.390625 10.53125 -2.453125 C 10.726562 -1.523438 11.023438 -0.773438 11.421875 -0.203125 L 11.421875 0 L 1.765625 0 Z M 1.765625 -0.203125 "/></g></g></g><g fill="#000000" fill-opacity="1"><g transform="translate(297.339656, 88.16514)"><g><path d="M 4.71875 0.390625 C 3.675781 0.390625 2.828125 0.0546875 2.171875 -0.609375 C 1.515625 -1.273438 1.1875 -2.125 1.1875 -3.15625 C 1.1875 -4.175781 1.515625 -5.019531 2.171875 -5.6875 C 2.828125 -6.351562 3.675781 -6.6875 4.71875 -6.6875 C 5.769531 -6.6875 6.625 -6.351562 7.28125 -5.6875 C 7.9375 -5.019531 8.265625 -4.175781 8.265625 -3.15625 C 8.265625 -2.125 7.9375 -1.273438 7.28125 -0.609375 C 6.625 0.0546875 5.769531 0.390625 4.71875 0.390625 Z M 4.71875 0.390625 "/></g></g></g></svg>