<svg xmlns="http://www.w3.org/2000/svg" xmlns:xlink="http://www.w3.org/1999/xlink" width="500" zoomAndPan="magnify" viewBox="0 0 375 149.999998" height="200" preserveAspectRatio="xMidYMid meet" version="1.0"><defs><g/><clipPath id="7029f44f18"><path d="M 360.695312 80.117188 L 375 80.117188 L 375 94.421875 L 360.695312 94.421875 Z M 360.695312 80.117188 " clip-rule="nonzero"/></clipPath><clipPath id="712eaa3d5d"><path d="M 367.847656 80.117188 C 363.898438 80.117188 360.695312 83.320312 360.695312 87.269531 C 360.695312 91.21875 363.898438 94.421875 367.847656 94.421875 C 371.796875 94.421875 375 91.21875 375 87.269531 C 375 83.320312 371.796875 80.117188 367.847656 80.117188 Z M 367.847656 80.117188 " clip-rule="nonzero"/></clipPath><clipPath id="99809268cf"><path d="M 0.597656 30.320312 L 86 30.320312 L 86 119.570312 L 0.597656 119.570312 Z M 0.597656 30.320312 " clip-rule="nonzero"/></clipPath><clipPath id="e9551a4e4c"><path d="M 49.710938 71.898438 L 11.550781 71.898438 C 10.070312 71.898438 9 70.496094 9.398438 69.078125 L 19.875 31.941406 C 20.144531 30.980469 21.023438 30.320312 22.027344 30.320312 L 60.191406 30.320312 C 61.667969 30.320312 62.742188 31.726562 62.339844 33.140625 L 51.863281 70.277344 C 51.59375 71.238281 50.714844 71.898438 49.710938 71.898438 Z M 24.925781 99.929688 L 30.320312 80.808594 C 30.71875 79.394531 29.648438 77.988281 28.167969 77.988281 L 8.550781 77.988281 C 7.550781 77.988281 6.667969 78.652344 6.398438 79.609375 L 1.003906 98.730469 C 0.605469 100.148438 1.675781 101.554688 3.15625 101.554688 L 22.773438 101.554688 C 23.773438 101.554688 24.65625 100.890625 24.925781 99.929688 Z M 34.851562 79.609375 L 24.375 116.746094 C 23.976562 118.164062 25.046875 119.566406 26.527344 119.566406 L 64.6875 119.566406 C 65.691406 119.566406 66.570312 118.90625 66.839844 117.945312 L 77.316406 80.808594 C 77.71875 79.394531 76.648438 77.988281 75.167969 77.988281 L 37.003906 77.988281 C 36.003906 77.988281 35.121094 78.652344 34.851562 79.609375 Z M 61.789062 49.957031 L 56.394531 69.078125 C 55.996094 70.496094 57.066406 71.898438 58.546875 71.898438 L 78.164062 71.898438 C 79.167969 71.898438 80.046875 71.238281 80.316406 70.277344 L 85.710938 51.15625 C 86.109375 49.738281 85.039062 48.335938 83.558594 48.335938 L 63.941406 48.335938 C 62.941406 48.335938 62.0625 48.996094 61.789062 49.957031 Z M 61.789062 49.957031 " clip-rule="nonzero"/></clipPath><linearGradient x1="114.29645" gradientTransform="matrix(0.179471, 0, 0, 0.178498, 0.920355, 30.319466)" y1="-47.63395" x2="358.610865" gradientUnits="userSpaceOnUse" y2="547.607255" id="911e600435"><stop stop-opacity="1" stop-color="rgb(0%, 98.799133%, 65.899658%)" offset="0"/><stop stop-opacity="1" stop-color="rgb(0%, 98.799133%, 65.899658%)" offset="0.0625"/><stop stop-opacity="1" stop-color="rgb(0.0213623%, 98.773193%, 65.965271%)" offset="0.09375"/><stop stop-opacity="1" stop-color="rgb(0.100708%, 98.677063%, 66.210938%)" offset="0.101562"/><stop stop-opacity="1" stop-color="rgb(0.216675%, 98.536682%, 66.571045%)" offset="0.109375"/><stop stop-opacity="1" stop-color="rgb(0.332642%, 98.396301%, 66.929626%)" offset="0.117187"/><stop stop-opacity="1" stop-color="rgb(0.448608%, 98.25592%, 67.289734%)" offset="0.125"/><stop stop-opacity="1" stop-color="rgb(0.564575%, 98.117065%, 67.649841%)" offset="0.132812"/><stop stop-opacity="1" stop-color="rgb(0.679016%, 97.976685%, 68.008423%)" offset="0.140625"/><stop stop-opacity="1" stop-color="rgb(0.794983%, 97.836304%, 68.36853%)" offset="0.148437"/><stop stop-opacity="1" stop-color="rgb(0.91095%, 97.695923%, 68.727112%)" offset="0.15625"/><stop stop-opacity="1" stop-color="rgb(1.026917%, 97.555542%, 69.087219%)" offset="0.164062"/><stop stop-opacity="1" stop-color="rgb(1.142883%, 97.415161%, 69.445801%)" offset="0.171875"/><stop stop-opacity="1" stop-color="rgb(1.25885%, 97.27478%, 69.805908%)" offset="0.179687"/><stop stop-opacity="1" stop-color="rgb(1.374817%, 97.135925%, 70.16449%)" offset="0.1875"/><stop stop-opacity="1" stop-color="rgb(1.490784%, 96.995544%, 70.524597%)" offset="0.195312"/><stop stop-opacity="1" stop-color="rgb(1.60675%, 96.855164%, 70.883179%)" offset="0.203125"/><stop stop-opacity="1" stop-color="rgb(1.722717%, 96.714783%, 71.243286%)" offset="0.210937"/><stop stop-opacity="1" stop-color="rgb(1.838684%, 96.574402%, 71.603394%)" offset="0.21875"/><stop stop-opacity="1" stop-color="rgb(1.954651%, 96.434021%, 71.961975%)" offset="0.226562"/><stop stop-opacity="1" stop-color="rgb(2.070618%, 96.29364%, 72.322083%)" offset="0.234375"/><stop stop-opacity="1" stop-color="rgb(2.186584%, 96.153259%, 72.680664%)" offset="0.242187"/><stop stop-opacity="1" stop-color="rgb(2.302551%, 96.014404%, 73.040771%)" offset="0.25"/><stop stop-opacity="1" stop-color="rgb(2.418518%, 95.874023%, 73.399353%)" offset="0.257812"/><stop stop-opacity="1" stop-color="rgb(2.534485%, 95.733643%, 73.75946%)" offset="0.265625"/><stop stop-opacity="1" stop-color="rgb(2.650452%, 95.593262%, 74.118042%)" offset="0.273437"/><stop stop-opacity="1" stop-color="rgb(2.766418%, 95.452881%, 74.478149%)" offset="0.281112"/><stop stop-opacity="1" stop-color="rgb(2.824402%, 95.38269%, 74.658203%)" offset="0.28125"/><stop stop-opacity="1" stop-color="rgb(2.882385%, 95.3125%, 74.836731%)" offset="0.289062"/><stop stop-opacity="1" stop-color="rgb(2.998352%, 95.172119%, 75.196838%)" offset="0.296875"/><stop stop-opacity="1" stop-color="rgb(3.114319%, 95.031738%, 75.556946%)" offset="0.304687"/><stop stop-opacity="1" stop-color="rgb(3.230286%, 94.892883%, 75.915527%)" offset="0.3125"/><stop stop-opacity="1" stop-color="rgb(3.346252%, 94.752502%, 76.275635%)" offset="0.320312"/><stop stop-opacity="1" stop-color="rgb(3.462219%, 94.612122%, 76.634216%)" offset="0.328125"/><stop stop-opacity="1" stop-color="rgb(3.578186%, 94.471741%, 76.994324%)" offset="0.335937"/><stop stop-opacity="1" stop-color="rgb(3.694153%, 94.33136%, 77.352905%)" offset="0.34375"/><stop stop-opacity="1" stop-color="rgb(3.81012%, 94.190979%, 77.713013%)" offset="0.351562"/><stop stop-opacity="1" stop-color="rgb(3.926086%, 94.050598%, 78.071594%)" offset="0.359375"/><stop stop-opacity="1" stop-color="rgb(4.042053%, 93.911743%, 78.431702%)" offset="0.367187"/><stop stop-opacity="1" stop-color="rgb(4.15802%, 93.771362%, 78.790283%)" offset="0.375"/><stop stop-opacity="1" stop-color="rgb(4.273987%, 93.630981%, 79.150391%)" offset="0.382812"/><stop stop-opacity="1" stop-color="rgb(4.389954%, 93.490601%, 79.510498%)" offset="0.390625"/><stop stop-opacity="1" stop-color="rgb(4.50592%, 93.35022%, 79.86908%)" offset="0.398437"/><stop stop-opacity="1" stop-color="rgb(4.621887%, 93.209839%, 80.229187%)" offset="0.40625"/><stop stop-opacity="1" stop-color="rgb(4.737854%, 93.069458%, 80.587769%)" offset="0.414062"/><stop stop-opacity="1" stop-color="rgb(4.853821%, 92.929077%, 80.947876%)" offset="0.421875"/><stop stop-opacity="1" stop-color="rgb(4.969788%, 92.790222%, 81.306458%)" offset="0.429687"/><stop stop-opacity="1" stop-color="rgb(5.085754%, 92.649841%, 81.666565%)" offset="0.4375"/><stop stop-opacity="1" stop-color="rgb(5.201721%, 92.50946%, 82.025146%)" offset="0.445312"/><stop stop-opacity="1" stop-color="rgb(5.317688%, 92.36908%, 82.385254%)" offset="0.453125"/><stop stop-opacity="1" stop-color="rgb(5.433655%, 92.228699%, 82.743835%)" offset="0.460937"/><stop stop-opacity="1" stop-color="rgb(5.549622%, 92.088318%, 83.103943%)" offset="0.46875"/><stop stop-opacity="1" stop-color="rgb(5.665588%, 91.947937%, 83.46405%)" offset="0.476562"/><stop stop-opacity="1" stop-color="rgb(5.781555%, 91.807556%, 83.822632%)" offset="0.484375"/><stop stop-opacity="1" stop-color="rgb(5.897522%, 91.668701%, 84.182739%)" offset="0.492187"/><stop stop-opacity="1" stop-color="rgb(6.013489%, 91.52832%, 84.541321%)" offset="0.5"/><stop stop-opacity="1" stop-color="rgb(6.129456%, 91.387939%, 84.901428%)" offset="0.507812"/><stop stop-opacity="1" stop-color="rgb(6.245422%, 91.247559%, 85.26001%)" offset="0.515625"/><stop stop-opacity="1" stop-color="rgb(6.361389%, 91.107178%, 85.620117%)" offset="0.523437"/><stop stop-opacity="1" stop-color="rgb(6.477356%, 90.966797%, 85.978699%)" offset="0.53125"/><stop stop-opacity="1" stop-color="rgb(6.593323%, 90.826416%, 86.338806%)" offset="0.539062"/><stop stop-opacity="1" stop-color="rgb(6.70929%, 90.687561%, 86.697388%)" offset="0.546875"/><stop stop-opacity="1" stop-color="rgb(6.825256%, 90.54718%, 87.057495%)" offset="0.554687"/><stop stop-opacity="1" stop-color="rgb(6.941223%, 90.406799%, 87.417603%)" offset="0.5625"/><stop stop-opacity="1" stop-color="rgb(7.05719%, 90.266418%, 87.776184%)" offset="0.570312"/><stop stop-opacity="1" stop-color="rgb(7.171631%, 90.126038%, 88.136292%)" offset="0.578125"/><stop stop-opacity="1" stop-color="rgb(7.287598%, 89.985657%, 88.494873%)" offset="0.585938"/><stop stop-opacity="1" stop-color="rgb(7.403564%, 89.845276%, 88.85498%)" offset="0.59375"/><stop stop-opacity="1" stop-color="rgb(7.519531%, 89.704895%, 89.213562%)" offset="0.601562"/><stop stop-opacity="1" stop-color="rgb(7.635498%, 89.56604%, 89.573669%)" offset="0.609375"/><stop stop-opacity="1" stop-color="rgb(7.751465%, 89.425659%, 89.932251%)" offset="0.617187"/><stop stop-opacity="1" stop-color="rgb(7.867432%, 89.285278%, 90.292358%)" offset="0.625"/><stop stop-opacity="1" stop-color="rgb(7.983398%, 89.144897%, 90.65094%)" offset="0.632812"/><stop stop-opacity="1" stop-color="rgb(8.099365%, 89.004517%, 91.011047%)" offset="0.640625"/><stop stop-opacity="1" stop-color="rgb(8.215332%, 88.864136%, 91.371155%)" offset="0.648437"/><stop stop-opacity="1" stop-color="rgb(8.331299%, 88.723755%, 91.729736%)" offset="0.65625"/><stop stop-opacity="1" stop-color="rgb(8.447266%, 88.583374%, 92.089844%)" offset="0.664062"/><stop stop-opacity="1" stop-color="rgb(8.563232%, 88.444519%, 92.448425%)" offset="0.671875"/><stop stop-opacity="1" stop-color="rgb(8.679199%, 88.304138%, 92.808533%)" offset="0.679687"/><stop stop-opacity="1" stop-color="rgb(8.795166%, 88.163757%, 93.167114%)" offset="0.6875"/><stop stop-opacity="1" stop-color="rgb(8.911133%, 88.023376%, 93.527222%)" offset="0.695312"/><stop stop-opacity="1" stop-color="rgb(9.0271%, 87.882996%, 93.885803%)" offset="0.703125"/><stop stop-opacity="1" stop-color="rgb(9.143066%, 87.742615%, 94.245911%)" offset="0.710937"/><stop stop-opacity="1" stop-color="rgb(9.259033%, 87.602234%, 94.604492%)" offset="0.71875"/><stop stop-opacity="1" stop-color="rgb(9.375%, 87.463379%, 94.9646%)" offset="0.718888"/><stop stop-opacity="1" stop-color="rgb(9.432983%, 87.393188%, 95.144653%)" offset="0.726562"/><stop stop-opacity="1" stop-color="rgb(9.490967%, 87.322998%, 95.324707%)" offset="0.734375"/><stop stop-opacity="1" stop-color="rgb(9.606934%, 87.182617%, 95.683289%)" offset="0.742187"/><stop stop-opacity="1" stop-color="rgb(9.7229%, 87.042236%, 96.043396%)" offset="0.75"/><stop stop-opacity="1" stop-color="rgb(9.838867%, 86.901855%, 96.401978%)" offset="0.757812"/><stop stop-opacity="1" stop-color="rgb(9.954834%, 86.761475%, 96.762085%)" offset="0.765625"/><stop stop-opacity="1" stop-color="rgb(10.070801%, 86.621094%, 97.120667%)" offset="0.773437"/><stop stop-opacity="1" stop-color="rgb(10.186768%, 86.480713%, 97.480774%)" offset="0.78125"/><stop stop-opacity="1" stop-color="rgb(10.302734%, 86.341858%, 97.839355%)" offset="0.789062"/><stop stop-opacity="1" stop-color="rgb(10.418701%, 86.201477%, 98.199463%)" offset="0.796875"/><stop stop-opacity="1" stop-color="rgb(10.534668%, 86.061096%, 98.558044%)" offset="0.804687"/><stop stop-opacity="1" stop-color="rgb(10.650635%, 85.920715%, 98.918152%)" offset="0.8125"/><stop stop-opacity="1" stop-color="rgb(10.766602%, 85.780334%, 99.278259%)" offset="0.820312"/><stop stop-opacity="1" stop-color="rgb(10.882568%, 85.639954%, 99.636841%)" offset="0.828125"/><stop stop-opacity="1" stop-color="rgb(10.969543%, 85.534668%, 99.908447%)" offset="0.84375"/><stop stop-opacity="1" stop-color="rgb(10.998535%, 85.499573%, 100%)" offset="0.875"/><stop stop-opacity="1" stop-color="rgb(10.998535%, 85.499573%, 100%)" offset="1"/></linearGradient></defs><g fill="#000000" fill-opacity="1"><g transform="translate(85.735186, 95.836172)"><g><path d="M 21.886719 0 L 21.886719 -40.597656 L 35.175781 -40.597656 L 35.175781 -46.285156 L 2.378906 -46.285156 L 2.378906 -40.597656 L 15.671875 -40.597656 L 15.671875 0 Z M 21.886719 0 "/></g></g></g><g fill="#000000" fill-opacity="1"><g transform="translate(123.291074, 95.836172)"><g><path d="M 5.488281 0 L 36.765625 0 L 36.765625 -5.6875 L 11.570312 -5.6875 L 11.570312 -20.960938 L 34.78125 -20.960938 L 34.78125 -26.648438 L 11.570312 -26.648438 L 11.570312 -40.597656 L 36.433594 -40.597656 L 36.433594 -46.285156 L 5.488281 -46.285156 Z M 5.488281 0 "/></g></g></g><g fill="#000000" fill-opacity="1"><g transform="translate(162.433829, 95.836172)"><g><path d="M 25.789062 0.992188 C 37.492188 0.992188 45.359375 -5.023438 46.75 -14.546875 L 40.335938 -14.546875 C 39.011719 -9.324219 34.847656 -4.894531 25.722656 -4.894531 C 15.933594 -4.894531 8.925781 -13.027344 8.925781 -23.210938 C 8.925781 -33.324219 15.871094 -41.394531 25.589844 -41.394531 C 34.515625 -41.394531 38.617188 -36.960938 39.9375 -31.738281 L 46.351562 -31.738281 C 45.09375 -40.796875 37.359375 -47.277344 25.589844 -47.277344 C 12.429688 -47.277344 2.777344 -36.960938 2.710938 -23.210938 C 2.777344 -9.390625 12.496094 0.992188 25.789062 0.992188 Z M 25.789062 0.992188 "/></g></g></g><g fill="#000000" fill-opacity="1"><g transform="translate(211.626751, 95.836172)"><g><path d="M 5.488281 0 L 11.636719 0 L 11.636719 -20.761719 L 38.484375 -20.761719 L 38.484375 0 L 44.699219 0 L 44.699219 -46.285156 L 38.484375 -46.285156 L 38.484375 -26.449219 L 11.636719 -26.449219 L 11.636719 -46.285156 L 5.488281 -46.285156 Z M 5.488281 0 "/></g></g></g><g fill="#000000" fill-opacity="1"><g transform="translate(261.811473, 95.836172)"><g><path d="M 11.636719 -30.878906 C 11.636719 -33.789062 10.511719 -37.359375 9.585938 -40.070312 L 10.710938 -40.46875 C 11.636719 -37.691406 12.761719 -34.121094 14.480469 -31.804688 L 37.625 0 L 43.839844 0 L 43.839844 -46.285156 L 37.625 -46.285156 L 37.625 -15.339844 C 37.625 -12.429688 38.8125 -8.859375 39.671875 -6.148438 L 38.617188 -5.753906 C 37.691406 -8.53125 36.5 -12.101562 34.78125 -14.414062 L 11.636719 -46.285156 L 5.488281 -46.285156 L 5.488281 0 L 11.636719 0 Z M 11.636719 -30.878906 "/></g></g></g><g fill="#000000" fill-opacity="1"><g transform="translate(311.136638, 95.836172)"><g><path d="M 2.777344 -23.144531 C 2.777344 -9.390625 12.167969 1.058594 24.929688 1.058594 C 37.691406 1.058594 47.078125 -9.652344 47.078125 -23.144531 C 47.078125 -36.699219 37.691406 -47.277344 24.929688 -47.277344 C 12.167969 -47.277344 2.777344 -36.894531 2.777344 -23.144531 Z M 8.925781 -23.144531 C 8.925781 -32.53125 14.945312 -41.328125 24.929688 -41.328125 C 34.847656 -41.328125 40.863281 -32.53125 40.863281 -23.144531 C 40.863281 -13.820312 34.847656 -4.894531 24.929688 -4.894531 C 14.945312 -4.894531 8.925781 -13.820312 8.925781 -23.144531 Z M 8.925781 -23.144531 "/></g></g></g><g clip-path="url(#7029f44f18)"><g clip-path="url(#712eaa3d5d)"><path fill="#00faa8" d="M 360.695312 80.117188 L 375 80.117188 L 375 94.421875 L 360.695312 94.421875 Z M 360.695312 80.117188 " fill-opacity="1" fill-rule="nonzero"/></g></g><g clip-path="url(#99809268cf)"><g clip-path="url(#e9551a4e4c)"><path fill="url(#911e600435)" d="M 0.605469 30.320312 L 0.605469 119.566406 L 86.097656 119.566406 L 86.097656 30.320312 Z M 0.605469 30.320312 " fill-rule="nonzero"/></g></g></svg>