<svg xmlns="http://www.w3.org/2000/svg" xmlns:xlink="http://www.w3.org/1999/xlink" width="500" zoomAndPan="magnify" viewBox="0 0 375 149.999998" height="200" preserveAspectRatio="xMidYMid meet" version="1.0"><defs><filter x="0%" y="0%" width="100%" height="100%" id="d934f974b6"><feColorMatrix values="0 0 0 0 1 0 0 0 0 1 0 0 0 0 1 0 0 0 1 0" color-interpolation-filters="sRGB"/></filter><g/><clipPath id="3691daf2b0"><path d="M 12 47.777344 L 87.832031 47.777344 L 87.832031 106.308594 L 12 106.308594 Z M 12 47.777344 " clip-rule="nonzero"/></clipPath><clipPath id="1c48115142"><path d="M 34.945312 47.777344 L 84.019531 47.777344 C 85.117188 47.777344 86.144531 48.304688 86.785156 49.191406 C 87.425781 50.082031 87.597656 51.222656 87.253906 52.261719 L 70.734375 101.824219 C 69.839844 104.5 67.332031 106.308594 64.511719 106.308594 L 15.433594 106.308594 C 14.339844 106.308594 13.308594 105.78125 12.671875 104.890625 C 12.03125 104.003906 11.855469 102.863281 12.203125 101.824219 L 28.722656 52.261719 C 29.613281 49.582031 32.121094 47.777344 34.945312 47.777344 Z M 34.945312 47.777344 " clip-rule="nonzero"/></clipPath><mask id="37875f89db"><g filter="url(#d934f974b6)"><rect x="-37.5" width="450" fill="#000000" y="-15" height="179.999997" fill-opacity="0.8"/></g></mask><clipPath id="813991cfff"><path d="M 1 1.003906 L 77 1.003906 L 77 59.535156 L 1 59.535156 Z M 1 1.003906 " clip-rule="nonzero"/></clipPath><clipPath id="20e1432a24"><path d="M 24.238281 1.003906 L 73.3125 1.003906 C 74.410156 1.003906 75.4375 1.53125 76.078125 2.417969 C 76.71875 3.304688 76.894531 4.449219 76.546875 5.488281 L 60.027344 55.050781 C 59.132812 57.726562 56.625 59.535156 53.804688 59.535156 L 4.726562 59.535156 C 3.632812 59.535156 2.605469 59.007812 1.964844 58.117188 C 1.324219 57.230469 1.148438 56.089844 1.496094 55.050781 L 18.015625 5.488281 C 18.90625 2.808594 21.414062 1.003906 24.238281 1.003906 Z M 24.238281 1.003906 " clip-rule="nonzero"/></clipPath><clipPath id="7192fc3461"><rect x="0" width="79" y="0" height="60"/></clipPath></defs><g clip-path="url(#3691daf2b0)"><g clip-path="url(#1c48115142)"><path fill="#0558ee" d="M 10.707031 47.777344 L 88.746094 47.777344 L 88.746094 106.308594 L 10.707031 106.308594 Z M 10.707031 47.777344 " fill-opacity="1" fill-rule="nonzero"/></g></g><g mask="url(#37875f89db)"><g transform="matrix(1, 0, 0, 1, 0, 36)"><g clip-path="url(#7192fc3461)"><g clip-path="url(#813991cfff)"><g clip-path="url(#20e1432a24)"><path fill="#21e8e6" d="M 0 1.003906 L 78.042969 1.003906 L 78.042969 59.535156 L 0 59.535156 Z M 0 1.003906 " fill-opacity="1" fill-rule="nonzero"/></g></g></g></g></g><g fill="#050419" fill-opacity="1"><g transform="translate(95.369074, 92.577053)"><g><path d="M 33.371094 -35.046875 C 32.167969 -43.625 24.660156 -47.378906 17.421875 -47.378906 C 11.996094 -47.378906 6.367188 -45.234375 3.214844 -41.144531 C 1.207031 -38.53125 0.402344 -35.382812 0.671875 -32.234375 L 0.671875 -32.300781 C 1.40625 -22.515625 9.984375 -20.910156 17.289062 -20.171875 C 21.980469 -19.703125 26.804688 -19.097656 27.609375 -15.546875 C 27.742188 -14.945312 27.8125 -14.40625 27.8125 -13.9375 C 27.8125 -9.113281 22.316406 -6.300781 17.289062 -6.300781 C 12.933594 -6.300781 7.640625 -8.578125 7.171875 -12.933594 L 7.171875 -12.664062 L 7.101562 -13.671875 L 0.269531 -13.535156 L 0.335938 -12.261719 C 1.207031 -3.886719 9.984375 0.402344 17.222656 0.402344 C 25.667969 0.402344 34.644531 -4.824219 34.644531 -13.871094 C 34.644531 -14.808594 34.511719 -15.949219 34.3125 -16.953125 C 32.5 -24.460938 24.527344 -26.136719 18.09375 -26.941406 C 13.066406 -27.410156 7.773438 -28.011719 7.4375 -32.835938 C 7.304688 -34.445312 7.640625 -35.988281 8.578125 -37.191406 C 10.453125 -39.605469 13.9375 -40.675781 17.089844 -40.746094 C 21.175781 -40.8125 25.734375 -39.003906 26.671875 -34.78125 Z M 33.371094 -35.046875 "/></g></g></g><g fill="#050419" fill-opacity="1"><g transform="translate(133.499279, 92.577053)"><g><path d="M 18.496094 -36.722656 L 24.257812 -20.171875 L 12.597656 -20.171875 Z M 32.5 0 L 39.738281 0 L 20.910156 -47.511719 L 15.949219 -47.511719 L -2.882812 0 L 4.421875 0 C 5.898438 -3.886719 8.242188 -9.515625 10.050781 -13.804688 L 26.871094 -13.804688 Z M 32.5 0 "/></g></g></g><g fill="#050419" fill-opacity="1"><g transform="translate(173.90792, 92.577053)"><g><path d="M 8.175781 -46.84375 L 1.40625 -46.84375 L 1.40625 0 L 30.222656 0 L 30.222656 -6.769531 L 8.175781 -6.769531 Z M 8.175781 -46.84375 "/></g></g></g><g fill="#050419" fill-opacity="1"><g transform="translate(206.945187, 92.577053)"><g><path d="M 7.574219 -20.039062 L 26.335938 -20.039062 L 26.335938 -26.871094 L 7.574219 -26.871094 L 7.574219 -40.074219 L 28.75 -40.074219 L 28.75 -46.84375 L 0.804688 -46.84375 L 0.804688 0 L 7.574219 0 Z M 7.574219 -20.039062 "/></g></g></g><g fill="#050419" fill-opacity="1"><g transform="translate(238.039068, 92.577053)"><g><path d="M 40.8125 -23.453125 C 40.8125 -18.628906 38.867188 -14.40625 35.851562 -11.324219 C 32.703125 -8.175781 28.347656 -6.230469 23.722656 -6.230469 C 19.097656 -6.230469 14.808594 -8.175781 11.726562 -11.324219 C 8.644531 -14.40625 6.703125 -18.695312 6.703125 -23.453125 C 6.703125 -28.210938 8.644531 -32.5 11.726562 -35.585938 C 14.808594 -38.734375 19.097656 -40.675781 23.722656 -40.675781 C 28.347656 -40.675781 32.703125 -38.734375 35.851562 -35.585938 C 38.867188 -32.5 40.8125 -28.28125 40.8125 -23.453125 Z M -0.132812 -23.453125 C -0.132812 -16.820312 2.613281 -10.855469 6.835938 -6.5 C 11.125 -2.078125 17.15625 0.601562 23.722656 0.601562 C 30.355469 0.601562 36.320312 -2.078125 40.675781 -6.5 C 44.898438 -10.855469 47.648438 -16.820312 47.648438 -23.453125 C 47.648438 -30.089844 44.898438 -36.054688 40.675781 -40.410156 C 36.320312 -44.765625 30.355469 -47.511719 23.722656 -47.511719 C 17.15625 -47.511719 11.125 -44.765625 6.835938 -40.410156 C 2.613281 -36.054688 -0.132812 -30.089844 -0.132812 -23.453125 Z M -0.132812 -23.453125 "/></g></g></g><g fill="#050419" fill-opacity="1"><g transform="translate(289.839837, 92.577053)"><g><path d="M 10.320312 -20.574219 L 27.410156 0 L 36.1875 0 L 21.378906 -17.625 C 29.417969 -19.03125 33.507812 -25.332031 33.507812 -31.964844 C 33.507812 -39.402344 28.414062 -46.910156 18.226562 -46.910156 L 1.140625 -46.910156 L 1.140625 0 L 7.839844 0 L 7.839844 -40.074219 L 18.226562 -40.074219 C 23.925781 -40.074219 26.738281 -35.988281 26.738281 -31.964844 C 26.738281 -27.878906 23.925781 -23.789062 18.226562 -23.789062 L 10.320312 -23.789062 Z M 10.320312 -20.574219 "/></g></g></g><g fill="#050419" fill-opacity="1"><g transform="translate(326.428752, 92.577053)"><g><path d="M 7.90625 -6.769531 L 7.90625 -40.074219 L 17.960938 -40.074219 C 28.816406 -40.074219 34.3125 -31.699219 34.3125 -23.386719 C 34.3125 -15.078125 28.816406 -6.769531 17.960938 -6.769531 Z M 1.140625 -46.84375 L 1.140625 0 L 17.960938 0 C 33.304688 0 41.011719 -11.660156 41.011719 -23.386719 C 41.011719 -35.113281 33.304688 -46.84375 17.960938 -46.84375 Z M 1.140625 -46.84375 "/></g></g></g></svg>