<svg xmlns="http://www.w3.org/2000/svg" xmlns:xlink="http://www.w3.org/1999/xlink" width="500" zoomAndPan="magnify" viewBox="0 0 375 149.999998" height="200" preserveAspectRatio="xMidYMid meet" version="1.0"><defs><g/><clipPath id="167a0dc700"><path d="M 173 25 L 225 25 L 225 77 L 173 77 Z M 173 25 " clip-rule="nonzero"/></clipPath><clipPath id="0808c1fa6d"><path d="M 234.453125 50.867188 L 191.402344 93.917969 L 155.78125 58.300781 L 198.835938 15.246094 Z M 234.453125 50.867188 " clip-rule="nonzero"/></clipPath><clipPath id="cf69204a54"><path d="M 173.589844 76.109375 L 211.417969 73.902344 L 201.410156 63.890625 L 224.445312 40.859375 L 208.84375 25.257812 L 185.808594 48.289062 L 175.800781 38.28125 Z M 173.589844 76.109375 " clip-rule="nonzero"/></clipPath><clipPath id="56c87c1566"><path d="M 150 17 L 202 17 L 202 69 L 150 69 Z M 150 17 " clip-rule="nonzero"/></clipPath><clipPath id="69a6fc0cad"><path d="M 140.539062 43.050781 L 183.59375 -0.00390625 L 219.210938 35.617188 L 176.160156 78.667969 Z M 140.539062 43.050781 " clip-rule="nonzero"/></clipPath><clipPath id="b02c45e05a"><path d="M 201.402344 17.804688 L 163.574219 20.015625 L 173.585938 30.023438 L 150.550781 53.058594 L 166.152344 68.660156 L 189.1875 45.625 L 199.195312 55.632812 Z M 201.402344 17.804688 " clip-rule="nonzero"/></clipPath></defs><g clip-path="url(#167a0dc700)"><g clip-path="url(#0808c1fa6d)"><g clip-path="url(#cf69204a54)"><path fill="#0030ff" d="M 234.453125 50.867188 L 191.402344 93.917969 L 155.78125 58.300781 L 198.835938 15.246094 Z M 234.453125 50.867188 " fill-opacity="1" fill-rule="nonzero"/></g></g></g><g clip-path="url(#56c87c1566)"><g clip-path="url(#69a6fc0cad)"><g clip-path="url(#b02c45e05a)"><path fill="#35beff" d="M 140.539062 43.050781 L 183.59375 -0.00390625 L 219.210938 35.617188 L 176.160156 78.667969 Z M 140.539062 43.050781 " fill-opacity="1" fill-rule="nonzero"/></g></g></g><g fill="#262632" fill-opacity="1"><g transform="translate(92.688756, 120.782987)"><g><path d="M 10.3125 -23.96875 L 10.3125 -16.1875 L 23.9375 -16.1875 L 23.9375 -10.71875 L 10.3125 -10.71875 L 10.3125 0 L 3.484375 0 L 3.484375 -29.4375 L 25.75 -29.4375 L 25.75 -23.96875 Z M 10.3125 -23.96875 "/></g></g></g><g fill="#262632" fill-opacity="1"><g transform="translate(117.46359, 120.782987)"><g><path d="M 3.03125 -22.625 L 9.59375 -22.625 L 9.59375 0 L 3.03125 0 Z M 6.296875 -25.78125 C 5.097656 -25.78125 4.117188 -26.128906 3.359375 -26.828125 C 2.597656 -27.535156 2.21875 -28.40625 2.21875 -29.4375 C 2.21875 -30.476562 2.597656 -31.347656 3.359375 -32.046875 C 4.117188 -32.753906 5.097656 -33.109375 6.296875 -33.109375 C 7.503906 -33.109375 8.488281 -32.769531 9.25 -32.09375 C 10.007812 -31.414062 10.390625 -30.570312 10.390625 -29.5625 C 10.390625 -28.46875 10.007812 -27.5625 9.25 -26.84375 C 8.488281 -26.132812 7.503906 -25.78125 6.296875 -25.78125 Z M 6.296875 -25.78125 "/></g></g></g><g fill="#262632" fill-opacity="1"><g transform="translate(128.021007, 120.782987)"><g><path d="M 16.78125 -22.96875 C 19.582031 -22.96875 21.84375 -22.125 23.5625 -20.4375 C 25.289062 -18.757812 26.15625 -16.265625 26.15625 -12.953125 L 26.15625 0 L 19.59375 0 L 19.59375 -11.953125 C 19.59375 -13.742188 19.203125 -15.078125 18.421875 -15.953125 C 17.640625 -16.835938 16.503906 -17.28125 15.015625 -17.28125 C 13.359375 -17.28125 12.039062 -16.769531 11.0625 -15.75 C 10.082031 -14.726562 9.59375 -13.207031 9.59375 -11.1875 L 9.59375 0 L 3.03125 0 L 3.03125 -22.625 L 9.296875 -22.625 L 9.296875 -19.984375 C 10.160156 -20.929688 11.238281 -21.664062 12.53125 -22.1875 C 13.820312 -22.707031 15.238281 -22.96875 16.78125 -22.96875 Z M 16.78125 -22.96875 "/></g></g></g><g fill="#262632" fill-opacity="1"><g transform="translate(154.983129, 120.782987)"><g><path d="M 13.96875 0.34375 C 11.550781 0.34375 9.378906 -0.15625 7.453125 -1.15625 C 5.535156 -2.15625 4.035156 -3.535156 2.953125 -5.296875 C 1.878906 -7.066406 1.34375 -9.070312 1.34375 -11.3125 C 1.34375 -13.5625 1.878906 -15.566406 2.953125 -17.328125 C 4.035156 -19.097656 5.535156 -20.476562 7.453125 -21.46875 C 9.378906 -22.46875 11.550781 -22.96875 13.96875 -22.96875 C 16.351562 -22.96875 18.429688 -22.46875 20.203125 -21.46875 C 21.984375 -20.476562 23.285156 -19.054688 24.109375 -17.203125 L 19.015625 -14.46875 C 17.835938 -16.539062 16.140625 -17.578125 13.921875 -17.578125 C 12.210938 -17.578125 10.796875 -17.015625 9.671875 -15.890625 C 8.546875 -14.773438 7.984375 -13.25 7.984375 -11.3125 C 7.984375 -9.375 8.546875 -7.84375 9.671875 -6.71875 C 10.796875 -5.601562 12.210938 -5.046875 13.921875 -5.046875 C 16.160156 -5.046875 17.859375 -6.082031 19.015625 -8.15625 L 24.109375 -5.390625 C 23.285156 -3.585938 21.984375 -2.179688 20.203125 -1.171875 C 18.429688 -0.160156 16.351562 0.34375 13.96875 0.34375 Z M 13.96875 0.34375 "/></g></g></g><g fill="#262632" fill-opacity="1"><g transform="translate(177.738916, 120.782987)"><g><path d="M 26.078125 -31.203125 L 26.078125 0 L 19.8125 0 L 19.8125 -2.609375 C 18.1875 -0.640625 15.832031 0.34375 12.75 0.34375 C 10.613281 0.34375 8.679688 -0.132812 6.953125 -1.09375 C 5.234375 -2.050781 3.882812 -3.410156 2.90625 -5.171875 C 1.925781 -6.941406 1.4375 -8.988281 1.4375 -11.3125 C 1.4375 -13.644531 1.925781 -15.691406 2.90625 -17.453125 C 3.882812 -19.222656 5.234375 -20.582031 6.953125 -21.53125 C 8.679688 -22.488281 10.613281 -22.96875 12.75 -22.96875 C 15.632812 -22.96875 17.890625 -22.054688 19.515625 -20.234375 L 19.515625 -31.203125 Z M 13.875 -5.046875 C 15.53125 -5.046875 16.90625 -5.613281 18 -6.75 C 19.09375 -7.882812 19.640625 -9.40625 19.640625 -11.3125 C 19.640625 -13.21875 19.09375 -14.738281 18 -15.875 C 16.90625 -17.007812 15.53125 -17.578125 13.875 -17.578125 C 12.195312 -17.578125 10.8125 -17.007812 9.71875 -15.875 C 8.625 -14.738281 8.078125 -13.21875 8.078125 -11.3125 C 8.078125 -9.40625 8.625 -7.882812 9.71875 -6.75 C 10.8125 -5.613281 12.195312 -5.046875 13.875 -5.046875 Z M 13.875 -5.046875 "/></g></g></g><g fill="#262632" fill-opacity="1"><g transform="translate(204.743109, 120.782987)"><g><path d="M 3.03125 -22.625 L 9.59375 -22.625 L 9.59375 0 L 3.03125 0 Z M 6.296875 -25.78125 C 5.097656 -25.78125 4.117188 -26.128906 3.359375 -26.828125 C 2.597656 -27.535156 2.21875 -28.40625 2.21875 -29.4375 C 2.21875 -30.476562 2.597656 -31.347656 3.359375 -32.046875 C 4.117188 -32.753906 5.097656 -33.109375 6.296875 -33.109375 C 7.503906 -33.109375 8.488281 -32.769531 9.25 -32.09375 C 10.007812 -31.414062 10.390625 -30.570312 10.390625 -29.5625 C 10.390625 -28.46875 10.007812 -27.5625 9.25 -26.84375 C 8.488281 -26.132812 7.503906 -25.78125 6.296875 -25.78125 Z M 6.296875 -25.78125 "/></g></g></g><g fill="#262632" fill-opacity="1"><g transform="translate(215.300526, 120.782987)"><g><path d="M 25.203125 -11.234375 C 25.203125 -11.148438 25.15625 -10.5625 25.0625 -9.46875 L 7.953125 -9.46875 C 8.253906 -8.0625 8.976562 -6.953125 10.125 -6.140625 C 11.28125 -5.328125 12.710938 -4.921875 14.421875 -4.921875 C 15.597656 -4.921875 16.640625 -5.09375 17.546875 -5.4375 C 18.460938 -5.789062 19.316406 -6.347656 20.109375 -7.109375 L 23.59375 -3.328125 C 21.46875 -0.878906 18.359375 0.34375 14.265625 0.34375 C 11.710938 0.34375 9.453125 -0.15625 7.484375 -1.15625 C 5.523438 -2.15625 4.007812 -3.535156 2.9375 -5.296875 C 1.875 -7.066406 1.34375 -9.070312 1.34375 -11.3125 C 1.34375 -13.53125 1.867188 -15.53125 2.921875 -17.3125 C 3.972656 -19.09375 5.414062 -20.476562 7.25 -21.46875 C 9.09375 -22.46875 11.148438 -22.96875 13.421875 -22.96875 C 15.628906 -22.96875 17.628906 -22.488281 19.421875 -21.53125 C 21.222656 -20.582031 22.632812 -19.21875 23.65625 -17.4375 C 24.6875 -15.65625 25.203125 -13.585938 25.203125 -11.234375 Z M 13.453125 -18 C 11.972656 -18 10.726562 -17.578125 9.71875 -16.734375 C 8.707031 -15.898438 8.085938 -14.753906 7.859375 -13.296875 L 19.015625 -13.296875 C 18.785156 -14.722656 18.164062 -15.863281 17.15625 -16.71875 C 16.144531 -17.570312 14.910156 -18 13.453125 -18 Z M 13.453125 -18 "/></g></g></g><g fill="#262632" fill-opacity="1"><g transform="translate(239.738846, 120.782987)"><g><path d="M 9.296875 -19.640625 C 10.078125 -20.734375 11.132812 -21.5625 12.46875 -22.125 C 13.800781 -22.6875 15.335938 -22.96875 17.078125 -22.96875 L 17.078125 -16.90625 C 16.347656 -16.96875 15.859375 -17 15.609375 -17 C 13.722656 -17 12.25 -16.472656 11.1875 -15.421875 C 10.125 -14.367188 9.59375 -12.789062 9.59375 -10.6875 L 9.59375 0 L 3.03125 0 L 3.03125 -22.625 L 9.296875 -22.625 Z M 9.296875 -19.640625 "/></g></g></g><g fill="#262632" fill-opacity="1"><g transform="translate(255.764504, 120.782987)"><g><path d="M 25.203125 -11.234375 C 25.203125 -11.148438 25.15625 -10.5625 25.0625 -9.46875 L 7.953125 -9.46875 C 8.253906 -8.0625 8.976562 -6.953125 10.125 -6.140625 C 11.28125 -5.328125 12.710938 -4.921875 14.421875 -4.921875 C 15.597656 -4.921875 16.640625 -5.09375 17.546875 -5.4375 C 18.460938 -5.789062 19.316406 -6.347656 20.109375 -7.109375 L 23.59375 -3.328125 C 21.46875 -0.878906 18.359375 0.34375 14.265625 0.34375 C 11.710938 0.34375 9.453125 -0.15625 7.484375 -1.15625 C 5.523438 -2.15625 4.007812 -3.535156 2.9375 -5.296875 C 1.875 -7.066406 1.34375 -9.070312 1.34375 -11.3125 C 1.34375 -13.53125 1.867188 -15.53125 2.921875 -17.3125 C 3.972656 -19.09375 5.414062 -20.476562 7.25 -21.46875 C 9.09375 -22.46875 11.148438 -22.96875 13.421875 -22.96875 C 15.628906 -22.96875 17.628906 -22.488281 19.421875 -21.53125 C 21.222656 -20.582031 22.632812 -19.21875 23.65625 -17.4375 C 24.6875 -15.65625 25.203125 -13.585938 25.203125 -11.234375 Z M 13.453125 -18 C 11.972656 -18 10.726562 -17.578125 9.71875 -16.734375 C 8.707031 -15.898438 8.085938 -14.753906 7.859375 -13.296875 L 19.015625 -13.296875 C 18.785156 -14.722656 18.164062 -15.863281 17.15625 -16.71875 C 16.144531 -17.570312 14.910156 -18 13.453125 -18 Z M 13.453125 -18 "/></g></g></g><g fill="#0030ff" fill-opacity="1"><g transform="translate(114.118948, 144.441553)"><g><path d="M 4.140625 -12.390625 L 4.140625 -7.453125 L 11.234375 -7.453125 L 11.234375 -5.71875 L 4.140625 -5.71875 L 4.140625 0 L 2.125 0 L 2.125 -14.15625 L 12.109375 -14.15625 L 12.109375 -12.390625 Z M 4.140625 -12.390625 "/></g></g></g><g fill="#0030ff" fill-opacity="1"><g transform="translate(130.996453, 144.441553)"><g><path d="M 2.125 -14.15625 L 4.140625 -14.15625 L 4.140625 0 L 2.125 0 Z M 2.125 -14.15625 "/></g></g></g><g fill="#0030ff" fill-opacity="1"><g transform="translate(141.304864, 144.441553)"><g><path d="M 14.296875 -14.15625 L 14.296875 0 L 12.640625 0 L 4.140625 -10.546875 L 4.140625 0 L 2.125 0 L 2.125 -14.15625 L 3.78125 -14.15625 L 12.265625 -3.59375 L 12.265625 -14.15625 Z M 14.296875 -14.15625 "/></g></g></g><g fill="#0030ff" fill-opacity="1"><g transform="translate(161.760001, 144.441553)"><g><path d="M 11.140625 -3.53125 L 3.625 -3.53125 L 2.0625 0 L -0.015625 0 L 6.390625 -14.15625 L 8.390625 -14.15625 L 14.828125 0 L 12.703125 0 Z M 10.4375 -5.15625 L 7.375 -12.09375 L 4.328125 -5.15625 Z M 10.4375 -5.15625 "/></g></g></g><g fill="#0030ff" fill-opacity="1"><g transform="translate(180.598129, 144.441553)"><g><path d="M 14.296875 -14.15625 L 14.296875 0 L 12.640625 0 L 4.140625 -10.546875 L 4.140625 0 L 2.125 0 L 2.125 -14.15625 L 3.78125 -14.15625 L 12.265625 -3.59375 L 12.265625 -14.15625 Z M 14.296875 -14.15625 "/></g></g></g><g fill="#0030ff" fill-opacity="1"><g transform="translate(201.053269, 144.441553)"><g><path d="M 8.453125 0.15625 C 7.035156 0.15625 5.753906 -0.15625 4.609375 -0.78125 C 3.472656 -1.40625 2.582031 -2.265625 1.9375 -3.359375 C 1.289062 -4.460938 0.96875 -5.703125 0.96875 -7.078125 C 0.96875 -8.453125 1.289062 -9.6875 1.9375 -10.78125 C 2.582031 -11.882812 3.476562 -12.75 4.625 -13.375 C 5.769531 -14 7.050781 -14.3125 8.46875 -14.3125 C 9.570312 -14.3125 10.582031 -14.125 11.5 -13.75 C 12.414062 -13.382812 13.195312 -12.835938 13.84375 -12.109375 L 12.53125 -10.84375 C 11.46875 -11.957031 10.140625 -12.515625 8.546875 -12.515625 C 7.492188 -12.515625 6.539062 -12.273438 5.6875 -11.796875 C 4.84375 -11.328125 4.179688 -10.675781 3.703125 -9.84375 C 3.234375 -9.019531 3 -8.097656 3 -7.078125 C 3 -6.054688 3.234375 -5.128906 3.703125 -4.296875 C 4.179688 -3.460938 4.84375 -2.8125 5.6875 -2.34375 C 6.539062 -1.875 7.492188 -1.640625 8.546875 -1.640625 C 10.128906 -1.640625 11.457031 -2.207031 12.53125 -3.34375 L 13.84375 -2.0625 C 13.195312 -1.332031 12.410156 -0.78125 11.484375 -0.40625 C 10.566406 -0.03125 9.554688 0.15625 8.453125 0.15625 Z M 8.453125 0.15625 "/></g></g></g><g fill="#0030ff" fill-opacity="1"><g transform="translate(219.709482, 144.441553)"><g><path d="M 2.125 -14.15625 L 4.140625 -14.15625 L 4.140625 0 L 2.125 0 Z M 2.125 -14.15625 "/></g></g></g><g fill="#0030ff" fill-opacity="1"><g transform="translate(230.017889, 144.441553)"><g><path d="M 11.140625 -3.53125 L 3.625 -3.53125 L 2.0625 0 L -0.015625 0 L 6.390625 -14.15625 L 8.390625 -14.15625 L 14.828125 0 L 12.703125 0 Z M 10.4375 -5.15625 L 7.375 -12.09375 L 4.328125 -5.15625 Z M 10.4375 -5.15625 "/></g></g></g><g fill="#0030ff" fill-opacity="1"><g transform="translate(248.856012, 144.441553)"><g><path d="M 2.125 -14.15625 L 4.140625 -14.15625 L 4.140625 -1.765625 L 11.8125 -1.765625 L 11.8125 0 L 2.125 0 Z M 2.125 -14.15625 "/></g></g></g></svg>