<svg xmlns="http://www.w3.org/2000/svg" xmlns:xlink="http://www.w3.org/1999/xlink" width="500" zoomAndPan="magnify" viewBox="0 0 375 149.999998" height="200" preserveAspectRatio="xMidYMid meet" version="1.0"><defs><g/><clipPath id="e1a6c47992"><path d="M 43 49 L 104 49 L 104 109 L 43 109 Z M 43 49 " clip-rule="nonzero"/></clipPath><clipPath id="33e1bf1264"><path d="M 114.828125 79.28125 L 64.644531 129.464844 L 23.125 87.945312 L 73.308594 37.765625 Z M 114.828125 79.28125 " clip-rule="nonzero"/></clipPath><clipPath id="6f42cb512a"><path d="M 43.886719 108.707031 L 87.976562 106.132812 L 76.3125 94.464844 L 103.160156 67.617188 L 84.976562 49.429688 L 58.125 76.28125 L 46.457031 64.613281 Z M 43.886719 108.707031 " clip-rule="nonzero"/></clipPath><clipPath id="2eba7021bd"><path d="M 11 41 L 71 41 L 71 101 L 11 101 Z M 11 41 " clip-rule="nonzero"/></clipPath><clipPath id="d4dbed1bc8"><path d="M 0 70.714844 L 50.183594 20.53125 L 91.699219 62.050781 L 41.519531 112.230469 Z M 0 70.714844 " clip-rule="nonzero"/></clipPath><clipPath id="4df3336f6b"><path d="M 70.941406 41.289062 L 26.851562 43.863281 L 38.515625 55.53125 L 11.667969 82.378906 L 29.851562 100.566406 L 56.703125 73.714844 L 68.367188 85.382812 Z M 70.941406 41.289062 " clip-rule="nonzero"/></clipPath></defs><g clip-path="url(#e1a6c47992)"><g clip-path="url(#33e1bf1264)"><g clip-path="url(#6f42cb512a)"><path fill="#027dfc" d="M 114.828125 79.28125 L 64.644531 129.464844 L 23.125 87.945312 L 73.308594 37.765625 Z M 114.828125 79.28125 " fill-opacity="1" fill-rule="nonzero"/></g></g></g><g clip-path="url(#2eba7021bd)"><g clip-path="url(#d4dbed1bc8)"><g clip-path="url(#4df3336f6b)"><path fill="#35beff" d="M 0 70.714844 L 50.183594 20.53125 L 91.699219 62.050781 L 41.519531 112.230469 Z M 0 70.714844 " fill-opacity="1" fill-rule="nonzero"/></g></g></g><g fill="#262632" fill-opacity="1"><g transform="translate(114.838312, 93.912734)"><g><path d="M 13.171875 -30.640625 L 13.171875 -20.703125 L 30.59375 -20.703125 L 30.59375 -13.703125 L 13.171875 -13.703125 L 13.171875 0 L 4.46875 0 L 4.46875 -37.640625 L 32.90625 -37.640625 L 32.90625 -30.640625 Z M 13.171875 -30.640625 "/></g></g></g><g fill="#262632" fill-opacity="1"><g transform="translate(146.49859, 93.912734)"><g><path d="M 3.875 -28.921875 L 12.265625 -28.921875 L 12.265625 0 L 3.875 0 Z M 8.0625 -32.953125 C 6.519531 -32.953125 5.265625 -33.398438 4.296875 -34.296875 C 3.328125 -35.191406 2.84375 -36.304688 2.84375 -37.640625 C 2.84375 -38.960938 3.328125 -40.070312 4.296875 -40.96875 C 5.265625 -41.863281 6.519531 -42.3125 8.0625 -42.3125 C 9.601562 -42.3125 10.851562 -41.878906 11.8125 -41.015625 C 12.78125 -40.160156 13.265625 -39.085938 13.265625 -37.796875 C 13.265625 -36.398438 12.78125 -35.242188 11.8125 -34.328125 C 10.851562 -33.410156 9.601562 -32.953125 8.0625 -32.953125 Z M 8.0625 -32.953125 "/></g></g></g><g fill="#262632" fill-opacity="1"><g transform="translate(159.989873, 93.912734)"><g><path d="M 21.453125 -29.359375 C 25.035156 -29.359375 27.925781 -28.28125 30.125 -26.125 C 32.332031 -23.976562 33.4375 -20.789062 33.4375 -16.5625 L 33.4375 0 L 25.0625 0 L 25.0625 -15.265625 C 25.0625 -17.554688 24.554688 -19.265625 23.546875 -20.390625 C 22.546875 -21.523438 21.09375 -22.09375 19.1875 -22.09375 C 17.070312 -22.09375 15.390625 -21.4375 14.140625 -20.125 C 12.890625 -18.820312 12.265625 -16.878906 12.265625 -14.296875 L 12.265625 0 L 3.875 0 L 3.875 -28.921875 L 11.875 -28.921875 L 11.875 -25.53125 C 12.988281 -26.75 14.367188 -27.691406 16.015625 -28.359375 C 17.671875 -29.023438 19.484375 -29.359375 21.453125 -29.359375 Z M 21.453125 -29.359375 "/></g></g></g><g fill="#262632" fill-opacity="1"><g transform="translate(194.445381, 93.912734)"><g><path d="M 17.84375 0.4375 C 14.757812 0.4375 11.988281 -0.195312 9.53125 -1.46875 C 7.082031 -2.75 5.164062 -4.515625 3.78125 -6.765625 C 2.40625 -9.023438 1.71875 -11.59375 1.71875 -14.46875 C 1.71875 -17.332031 2.40625 -19.890625 3.78125 -22.140625 C 5.164062 -24.398438 7.082031 -26.164062 9.53125 -27.4375 C 11.988281 -28.71875 14.757812 -29.359375 17.84375 -29.359375 C 20.894531 -29.359375 23.554688 -28.71875 25.828125 -27.4375 C 28.109375 -26.164062 29.769531 -24.347656 30.8125 -21.984375 L 24.296875 -18.5 C 22.796875 -21.144531 20.628906 -22.46875 17.796875 -22.46875 C 15.609375 -22.46875 13.796875 -21.75 12.359375 -20.3125 C 10.929688 -18.882812 10.21875 -16.9375 10.21875 -14.46875 C 10.21875 -11.988281 10.929688 -10.03125 12.359375 -8.59375 C 13.796875 -7.164062 15.609375 -6.453125 17.796875 -6.453125 C 20.660156 -6.453125 22.828125 -7.78125 24.296875 -10.4375 L 30.8125 -6.875 C 29.769531 -4.582031 28.109375 -2.789062 25.828125 -1.5 C 23.554688 -0.207031 20.894531 0.4375 17.84375 0.4375 Z M 17.84375 0.4375 "/></g></g></g><g fill="#262632" fill-opacity="1"><g transform="translate(223.525447, 93.912734)"><g><path d="M 33.328125 -39.890625 L 33.328125 0 L 25.328125 0 L 25.328125 -3.328125 C 23.242188 -0.816406 20.234375 0.4375 16.296875 0.4375 C 13.566406 0.4375 11.097656 -0.171875 8.890625 -1.390625 C 6.691406 -2.609375 4.960938 -4.347656 3.703125 -6.609375 C 2.453125 -8.867188 1.828125 -11.488281 1.828125 -14.46875 C 1.828125 -17.4375 2.453125 -20.050781 3.703125 -22.3125 C 4.960938 -24.570312 6.691406 -26.3125 8.890625 -27.53125 C 11.097656 -28.75 13.566406 -29.359375 16.296875 -29.359375 C 19.984375 -29.359375 22.867188 -28.191406 24.953125 -25.859375 L 24.953125 -39.890625 Z M 17.75 -6.453125 C 19.863281 -6.453125 21.617188 -7.175781 23.015625 -8.625 C 24.410156 -10.082031 25.109375 -12.03125 25.109375 -14.46875 C 25.109375 -16.90625 24.410156 -18.847656 23.015625 -20.296875 C 21.617188 -21.742188 19.863281 -22.46875 17.75 -22.46875 C 15.59375 -22.46875 13.816406 -21.742188 12.421875 -20.296875 C 11.023438 -18.847656 10.328125 -16.90625 10.328125 -14.46875 C 10.328125 -12.03125 11.023438 -10.082031 12.421875 -8.625 C 13.816406 -7.175781 15.59375 -6.453125 17.75 -6.453125 Z M 17.75 -6.453125 "/></g></g></g><g fill="#262632" fill-opacity="1"><g transform="translate(258.034703, 93.912734)"><g><path d="M 3.875 -28.921875 L 12.265625 -28.921875 L 12.265625 0 L 3.875 0 Z M 8.0625 -32.953125 C 6.519531 -32.953125 5.265625 -33.398438 4.296875 -34.296875 C 3.328125 -35.191406 2.84375 -36.304688 2.84375 -37.640625 C 2.84375 -38.960938 3.328125 -40.070312 4.296875 -40.96875 C 5.265625 -41.863281 6.519531 -42.3125 8.0625 -42.3125 C 9.601562 -42.3125 10.851562 -41.878906 11.8125 -41.015625 C 12.78125 -40.160156 13.265625 -39.085938 13.265625 -37.796875 C 13.265625 -36.398438 12.78125 -35.242188 11.8125 -34.328125 C 10.851562 -33.410156 9.601562 -32.953125 8.0625 -32.953125 Z M 8.0625 -32.953125 "/></g></g></g><g fill="#262632" fill-opacity="1"><g transform="translate(271.525987, 93.912734)"><g><path d="M 32.203125 -14.359375 C 32.203125 -14.242188 32.148438 -13.488281 32.046875 -12.09375 L 10.15625 -12.09375 C 10.550781 -10.300781 11.484375 -8.882812 12.953125 -7.84375 C 14.421875 -6.8125 16.25 -6.296875 18.4375 -6.296875 C 19.945312 -6.296875 21.28125 -6.519531 22.4375 -6.96875 C 23.601562 -7.414062 24.691406 -8.125 25.703125 -9.09375 L 30.15625 -4.25 C 27.4375 -1.125 23.457031 0.4375 18.21875 0.4375 C 14.957031 0.4375 12.070312 -0.195312 9.5625 -1.46875 C 7.0625 -2.75 5.128906 -4.515625 3.765625 -6.765625 C 2.398438 -9.023438 1.71875 -11.59375 1.71875 -14.46875 C 1.71875 -17.289062 2.390625 -19.835938 3.734375 -22.109375 C 5.078125 -24.390625 6.921875 -26.164062 9.265625 -27.4375 C 11.617188 -28.71875 14.25 -29.359375 17.15625 -29.359375 C 19.988281 -29.359375 22.550781 -28.75 24.84375 -27.53125 C 27.132812 -26.3125 28.929688 -24.5625 30.234375 -22.28125 C 31.546875 -20.007812 32.203125 -17.367188 32.203125 -14.359375 Z M 17.203125 -23.015625 C 15.304688 -23.015625 13.710938 -22.472656 12.421875 -21.390625 C 11.128906 -20.316406 10.335938 -18.847656 10.046875 -16.984375 L 24.296875 -16.984375 C 24.015625 -18.816406 23.226562 -20.28125 21.9375 -21.375 C 20.644531 -22.46875 19.066406 -23.015625 17.203125 -23.015625 Z M 17.203125 -23.015625 "/></g></g></g><g fill="#262632" fill-opacity="1"><g transform="translate(302.756229, 93.912734)"><g><path d="M 11.875 -25.109375 C 12.882812 -26.503906 14.238281 -27.5625 15.9375 -28.28125 C 17.644531 -29 19.609375 -29.359375 21.828125 -29.359375 L 21.828125 -21.609375 C 20.898438 -21.679688 20.273438 -21.71875 19.953125 -21.71875 C 17.546875 -21.71875 15.660156 -21.046875 14.296875 -19.703125 C 12.941406 -18.359375 12.265625 -16.34375 12.265625 -13.65625 L 12.265625 0 L 3.875 0 L 3.875 -28.921875 L 11.875 -28.921875 Z M 11.875 -25.109375 "/></g></g></g><g fill="#262632" fill-opacity="1"><g transform="translate(323.235587, 93.912734)"><g><path d="M 32.203125 -14.359375 C 32.203125 -14.242188 32.148438 -13.488281 32.046875 -12.09375 L 10.15625 -12.09375 C 10.550781 -10.300781 11.484375 -8.882812 12.953125 -7.84375 C 14.421875 -6.8125 16.25 -6.296875 18.4375 -6.296875 C 19.945312 -6.296875 21.28125 -6.519531 22.4375 -6.96875 C 23.601562 -7.414062 24.691406 -8.125 25.703125 -9.09375 L 30.15625 -4.25 C 27.4375 -1.125 23.457031 0.4375 18.21875 0.4375 C 14.957031 0.4375 12.070312 -0.195312 9.5625 -1.46875 C 7.0625 -2.75 5.128906 -4.515625 3.765625 -6.765625 C 2.398438 -9.023438 1.71875 -11.59375 1.71875 -14.46875 C 1.71875 -17.289062 2.390625 -19.835938 3.734375 -22.109375 C 5.078125 -24.390625 6.921875 -26.164062 9.265625 -27.4375 C 11.617188 -28.71875 14.25 -29.359375 17.15625 -29.359375 C 19.988281 -29.359375 22.550781 -28.75 24.84375 -27.53125 C 27.132812 -26.3125 28.929688 -24.5625 30.234375 -22.28125 C 31.546875 -20.007812 32.203125 -17.367188 32.203125 -14.359375 Z M 17.203125 -23.015625 C 15.304688 -23.015625 13.710938 -22.472656 12.421875 -21.390625 C 11.128906 -20.316406 10.335938 -18.847656 10.046875 -16.984375 L 24.296875 -16.984375 C 24.015625 -18.816406 23.226562 -20.28125 21.9375 -21.375 C 20.644531 -22.46875 19.066406 -23.015625 17.203125 -23.015625 Z M 17.203125 -23.015625 "/></g></g></g></svg>