<svg xmlns="http://www.w3.org/2000/svg" xmlns:xlink="http://www.w3.org/1999/xlink" width="500" zoomAndPan="magnify" viewBox="0 0 375 374.999991" height="500" preserveAspectRatio="xMidYMid meet" version="1.0"><defs><g/><clipPath id="ad9c88f536"><path d="M 263.0625 4.5 L 365.8125 4.5 L 365.8125 107.25 L 263.0625 107.25 Z M 263.0625 4.5 " clip-rule="nonzero"/></clipPath></defs><rect x="-37.5" width="450" fill="#ffffff" y="-37.499999" height="449.999989" fill-opacity="1"/><rect x="-37.5" width="450" fill="#ffffff" y="-37.499999" height="449.999989" fill-opacity="1"/><g fill="#0ea5e9" fill-opacity="1"><g transform="translate(74.964843, 299.99998)"><g><path d="M 117.046875 3.078125 C 97.316406 3.078125 79.929688 -1.019531 64.890625 -9.21875 C 49.847656 -17.425781 38.078125 -29.757812 29.578125 -46.21875 C 21.085938 -62.675781 16.84375 -82.960938 16.84375 -107.078125 C 16.84375 -131.203125 21.085938 -151.488281 29.578125 -167.9375 C 38.078125 -184.394531 49.847656 -196.722656 64.890625 -204.921875 C 79.929688 -213.128906 97.316406 -217.234375 117.046875 -217.234375 C 137.648438 -217.234375 155.148438 -213.203125 169.546875 -205.140625 C 183.953125 -197.085938 194.234375 -184.8125 200.390625 -168.3125 L 169.484375 -149.421875 L 165.828125 -149.5625 C 161.234375 -160.695312 155.003906 -168.679688 147.140625 -173.515625 C 139.285156 -178.347656 129.253906 -180.765625 117.046875 -180.765625 C 99.265625 -180.765625 85.394531 -174.878906 75.4375 -163.109375 C 65.476562 -151.335938 60.5 -132.660156 60.5 -107.078125 C 60.5 -81.585938 65.476562 -62.957031 75.4375 -51.1875 C 85.394531 -39.425781 99.265625 -33.546875 117.046875 -33.546875 C 144.878906 -33.546875 161.921875 -47.070312 168.171875 -74.125 L 171.828125 -74.125 L 203.03125 -57.859375 C 197.164062 -37.546875 187.15625 -22.3125 173 -12.15625 C 158.84375 -2 140.191406 3.078125 117.046875 3.078125 Z M 117.046875 3.078125 "/></g></g></g><g clip-path="url(#ad9c88f536)"><path fill="#0ea5e9" d="M 365.957031 55.945312 C 327.371094 63.050781 321.613281 68.808594 314.511719 107.394531 C 307.40625 68.808594 301.648438 63.050781 263.0625 55.945312 C 301.648438 48.84375 307.40625 43.085938 314.511719 4.5 C 321.613281 43.085938 327.371094 48.84375 365.957031 55.945312 Z M 365.957031 55.945312 " fill-opacity="1" fill-rule="nonzero"/></g></svg>