<svg xmlns="http://www.w3.org/2000/svg" xmlns:xlink="http://www.w3.org/1999/xlink" width="500" zoomAndPan="magnify" viewBox="0 0 375 374.999991" height="500" preserveAspectRatio="xMidYMid meet" version="1.0"><defs><g/><clipPath id="6cbc764588"><path d="M 136.339844 224.710938 L 238.324219 224.710938 L 238.324219 254.710938 L 136.339844 254.710938 Z M 136.339844 224.710938 " clip-rule="nonzero"/></clipPath><clipPath id="b539673d73"><path d="M 151.347656 224.710938 L 223.300781 224.710938 C 227.28125 224.710938 231.101562 226.289062 233.914062 229.101562 C 236.730469 231.914062 238.3125 235.730469 238.3125 239.710938 C 238.3125 243.6875 236.730469 247.503906 233.914062 250.316406 C 231.101562 253.128906 227.28125 254.710938 223.300781 254.710938 L 151.347656 254.710938 C 147.367188 254.710938 143.550781 253.128906 140.734375 250.316406 C 137.917969 247.503906 136.339844 243.6875 136.339844 239.710938 C 136.339844 235.730469 137.917969 231.914062 140.734375 229.101562 C 143.550781 226.289062 147.367188 224.710938 151.347656 224.710938 Z M 151.347656 224.710938 " clip-rule="nonzero"/></clipPath><clipPath id="0d714207d5"><path d="M 281.605469 146.585938 L 298.105469 146.585938 L 298.105469 163.085938 L 281.605469 163.085938 Z M 281.605469 146.585938 " clip-rule="nonzero"/></clipPath></defs><g clip-path="url(#6cbc764588)"><g clip-path="url(#b539673d73)"><path stroke-linecap="butt" transform="matrix(0.747509, 0, 0, 0.747082, 136.338336, 224.709009)" fill="none" stroke-linejoin="miter" d="M 20.079105 0.00258105 L 116.336252 0.00258105 C 121.661227 0.00258105 126.771949 2.114967 130.534443 5.879616 C 134.302163 9.644264 136.418566 14.752683 136.418566 20.080706 C 136.418566 25.4035 134.302163 30.511919 130.534443 34.276568 C 126.771949 38.041216 121.661227 40.158831 116.336252 40.158831 L 20.079105 40.158831 C 14.75413 40.158831 9.648634 38.041216 5.880914 34.276568 C 2.113194 30.511919 0.00201657 25.4035 0.00201657 20.080706 C 0.00201657 14.752683 2.113194 9.644264 5.880914 5.879616 C 9.648634 2.114967 14.75413 0.00258105 20.079105 0.00258105 Z M 20.079105 0.00258105 " stroke="#000000" stroke-width="2" stroke-opacity="1" stroke-miterlimit="4"/></g></g><g clip-path="url(#0d714207d5)"><path fill="#000000" d="M 298.105469 154.835938 C 291.917969 155.972656 290.996094 156.898438 289.855469 163.085938 C 288.71875 156.898438 287.792969 155.972656 281.605469 154.835938 C 287.792969 153.695312 288.71875 152.773438 289.855469 146.585938 C 290.996094 152.773438 291.917969 153.695312 298.105469 154.835938 Z M 298.105469 154.835938 " fill-opacity="1" fill-rule="nonzero"/></g><g fill="#000000" fill-opacity="1"><g transform="translate(88.045752, 200.249987)"><g><path d="M 21.394531 0.824219 C 31.101562 0.824219 37.628906 -4.167969 38.78125 -12.066406 L 33.460938 -12.066406 C 32.363281 -7.734375 28.910156 -4.058594 21.339844 -4.058594 C 13.21875 -4.058594 7.40625 -10.804688 7.40625 -19.253906 C 7.40625 -27.648438 13.164062 -34.339844 21.230469 -34.339844 C 28.632812 -34.339844 32.035156 -30.664062 33.132812 -26.332031 L 38.453125 -26.332031 C 37.410156 -33.84375 30.992188 -39.222656 21.230469 -39.222656 C 10.3125 -39.222656 2.304688 -30.664062 2.25 -19.253906 C 2.304688 -7.789062 10.367188 0.824219 21.394531 0.824219 Z M 21.394531 0.824219 "/></g></g></g><g fill="#000000" fill-opacity="1"><g transform="translate(123.253558, 200.249987)"><g><path d="M 10.53125 -25.125 C 9.378906 -24.027344 8.832031 -21.886719 8.28125 -20.351562 L 7.40625 -20.679688 C 7.953125 -22.214844 8.777344 -24.136719 8.777344 -25.78125 L 8.777344 -39.769531 L 4.003906 -39.769531 L 4.003906 0 L 8.777344 0 L 8.777344 -15.359375 C 8.777344 -21.175781 13.054688 -23.753906 18.15625 -23.753906 C 22.765625 -23.753906 25.015625 -21.175781 25.015625 -15.359375 L 25.015625 0 L 29.839844 0 L 29.839844 -18.816406 C 29.839844 -25.070312 25.453125 -28.25 19.746094 -28.25 C 15.742188 -28.25 13 -27.59375 10.53125 -25.125 Z M 10.53125 -25.125 "/></g></g></g><g fill="#000000" fill-opacity="1"><g transform="translate(150.94778, 200.249987)"><g><path d="M 21.886719 -1.976562 C 22.765625 -2.90625 23.203125 -4.554688 23.640625 -5.761719 L 24.574219 -5.429688 C 24.082031 -4.222656 23.3125 -2.742188 23.257812 -1.425781 L 23.203125 0 L 28.03125 0 L 28.03125 -27.425781 L 23.203125 -27.425781 L 23.203125 -11.902344 C 23.203125 -6.035156 18.484375 -3.621094 14.480469 -3.621094 C 10.804688 -3.621094 8.28125 -6.144531 8.28125 -11.902344 L 8.28125 -27.425781 L 3.511719 -27.425781 L 3.511719 -8.613281 C 3.511719 -2.414062 8.394531 0.824219 13.496094 0.824219 C 17.222656 0.824219 19.363281 0.4375 21.886719 -1.976562 Z M 21.886719 -1.976562 "/></g></g></g><g fill="#000000" fill-opacity="1"><g transform="translate(177.764507, 200.249987)"><g><path d="M 10.53125 -25.070312 C 9.378906 -23.972656 8.832031 -21.886719 8.28125 -20.40625 L 7.40625 -20.734375 C 7.953125 -22.214844 8.777344 -24.136719 8.777344 -25.726562 L 8.777344 -27.425781 L 4.003906 -27.425781 L 4.003906 0 L 8.777344 0 L 8.777344 -13.988281 C 8.777344 -21.558594 15.140625 -23.699219 21.558594 -23.699219 L 21.558594 -28.25 C 15.632812 -28.25 13.109375 -27.703125 10.53125 -25.070312 Z M 10.53125 -25.070312 "/></g></g></g><g fill="#000000" fill-opacity="1"><g transform="translate(196.135306, 200.249987)"><g><path d="M 2.25 -13.878906 C 2.25 -5.484375 8.558594 0.824219 17.167969 0.878906 C 25.617188 0.824219 29.238281 -4.882812 30.003906 -8.558594 L 25.015625 -8.558594 C 24.519531 -6.855469 22.269531 -3.730469 17.167969 -3.730469 C 10.859375 -3.730469 7.019531 -8.226562 7.019531 -13.933594 C 7.019531 -19.582031 10.421875 -23.699219 16.675781 -23.699219 C 21.777344 -23.699219 24.355469 -20.625 24.847656 -18.925781 L 29.839844 -18.925781 C 29.183594 -22.492188 25.179688 -28.25 16.675781 -28.304688 C 8.171875 -28.25 2.25 -22.324219 2.25 -13.878906 Z M 2.25 -13.878906 "/></g></g></g><g fill="#000000" fill-opacity="1"><g transform="translate(222.403592, 200.249987)"><g><path d="M 10.53125 -25.125 C 9.378906 -24.027344 8.832031 -21.886719 8.28125 -20.351562 L 7.40625 -20.679688 C 7.953125 -22.214844 8.777344 -24.136719 8.777344 -25.78125 L 8.777344 -39.769531 L 4.003906 -39.769531 L 4.003906 0 L 8.777344 0 L 8.777344 -15.359375 C 8.777344 -21.175781 13.054688 -23.753906 18.15625 -23.753906 C 22.765625 -23.753906 25.015625 -21.175781 25.015625 -15.359375 L 25.015625 0 L 29.839844 0 L 29.839844 -18.816406 C 29.839844 -25.070312 25.453125 -28.25 19.746094 -28.25 C 15.742188 -28.25 13 -27.59375 10.53125 -25.125 Z M 10.53125 -25.125 "/></g></g></g><g fill="#000000" fill-opacity="1"><g transform="translate(250.097812, 200.249987)"><g><path d="M 3.566406 -33.1875 L 8.941406 -33.1875 L 8.941406 -38.398438 L 3.566406 -38.398438 Z M 3.894531 0 L 8.722656 0 L 8.722656 -27.425781 L 3.894531 -27.425781 Z M 3.894531 0 "/></g></g></g><g fill="#000000" fill-opacity="1"><g transform="translate(257.006278, 200.249987)"><g><path d="M 5.210938 -6.636719 C 5.210938 -1.976562 7.679688 0 13.382812 0 L 16.894531 0 L 16.894531 -4.554688 L 13.164062 -4.554688 C 10.804688 -4.554688 10.039062 -5.265625 10.039062 -7.515625 L 10.039062 -39.769531 L 5.210938 -39.769531 Z M 5.210938 -6.636719 "/></g></g></g><g fill="#000000" fill-opacity="1"><g transform="translate(269.179735, 200.249987)"><g><path d="M 5.210938 -6.636719 C 5.210938 -1.976562 7.679688 0 13.382812 0 L 16.894531 0 L 16.894531 -4.554688 L 13.164062 -4.554688 C 10.804688 -4.554688 10.039062 -5.265625 10.039062 -7.515625 L 10.039062 -39.769531 L 5.210938 -39.769531 Z M 5.210938 -6.636719 "/></g></g></g><g fill="#000000" fill-opacity="1"><g transform="translate(161.908382, 248.023227)"><g><path d="M 7.082031 -15.878906 C 4.21875 -15.878906 1.894531 -14.183594 1.894531 -11.5 C 1.894531 -8.929688 3.8125 -7.824219 6.5625 -7.195312 C 9.292969 -6.5625 10.375 -5.707031 10.375 -3.8125 C 10.375 -2.1875 8.929688 -1.21875 7.148438 -1.21875 C 5.121094 -1.21875 3.699219 -2.367188 3.246094 -4.421875 L 1.171875 -4.421875 C 1.511719 -1.421875 3.675781 0.316406 7.105469 0.316406 C 10.105469 0.316406 12.449219 -1.445312 12.449219 -4.171875 C 12.449219 -6.8125 10.734375 -8.210938 7.308594 -9 C 4.9375 -9.539062 3.96875 -10.261719 3.96875 -11.953125 C 3.96875 -13.578125 5.277344 -14.34375 6.921875 -14.34375 C 8.886719 -14.34375 10.035156 -13.214844 10.214844 -11.253906 L 12.292969 -11.253906 C 11.996094 -13.914062 10.304688 -15.878906 7.082031 -15.878906 Z M 7.082031 -15.878906 "/></g></g></g><g fill="#000000" fill-opacity="1"><g transform="translate(172.503889, 248.023227)"><g><path d="M 13.800781 -15.5625 L 11.863281 -15.5625 L 11.863281 -5.929688 C 11.863281 -5.433594 11.863281 -4.960938 11.816406 -4.554688 C 11.636719 -2.59375 10.351562 -1.21875 7.960938 -1.21875 C 5.570312 -1.21875 4.285156 -2.59375 4.105469 -4.554688 C 4.058594 -4.960938 4.058594 -5.433594 4.058594 -5.929688 L 4.058594 -15.5625 L 2.121094 -15.5625 L 2.121094 -5.75 C 2.121094 -5.253906 2.121094 -4.804688 2.164062 -4.351562 C 2.390625 -1.757812 4.148438 0.316406 7.960938 0.316406 C 11.773438 0.316406 13.53125 -1.757812 13.757812 -4.351562 C 13.800781 -4.804688 13.800781 -5.253906 13.800781 -5.75 Z M 13.800781 -15.5625 "/></g></g></g><g fill="#000000" fill-opacity="1"><g transform="translate(185.286431, 248.023227)"><g><path d="M 4.195312 0 L 4.195312 -15.5625 L 2.253906 -15.5625 L 2.253906 0 Z M 4.195312 0 "/></g></g></g><g fill="#000000" fill-opacity="1"><g transform="translate(188.644399, 248.023227)"><g><path d="M 13.800781 -13.984375 L 13.800781 -15.5625 L 0.765625 -15.5625 L 0.765625 -13.984375 L 6.316406 -13.984375 L 6.316406 0 L 8.253906 0 L 8.253906 -13.984375 Z M 13.800781 -13.984375 "/></g></g></g><g fill="#000000" fill-opacity="1"><g transform="translate(199.848662, 248.023227)"><g><path d="M 12.605469 -1.578125 L 4.195312 -1.578125 L 4.195312 -6.992188 L 11.703125 -6.992188 L 11.703125 -8.570312 L 4.195312 -8.570312 L 4.195312 -13.984375 L 12.382812 -13.984375 L 12.382812 -15.5625 L 2.253906 -15.5625 L 2.253906 0 L 12.605469 0 Z M 12.605469 -1.578125 "/></g></g></g></svg>