<svg xmlns="http://www.w3.org/2000/svg" xmlns:xlink="http://www.w3.org/1999/xlink" width="500" zoomAndPan="magnify" viewBox="0 0 375 374.999991" height="500" preserveAspectRatio="xMidYMid meet" version="1.0"><defs><g/><clipPath id="4b2bbaaf8f"><path d="M 160.019531 211.265625 L 214.757812 211.265625 L 214.757812 226.265625 L 160.019531 226.265625 Z M 160.019531 211.265625 " clip-rule="nonzero"/></clipPath><clipPath id="dba1a5788d"><path d="M 167.351562 211.265625 L 207.414062 211.265625 C 211.464844 211.265625 214.75 214.621094 214.75 218.765625 C 214.75 222.90625 211.464844 226.265625 207.414062 226.265625 L 167.351562 226.265625 C 163.300781 226.265625 160.019531 222.90625 160.019531 218.765625 C 160.019531 214.621094 163.300781 211.265625 167.351562 211.265625 Z M 167.351562 211.265625 " clip-rule="nonzero"/></clipPath></defs><g clip-path="url(#4b2bbaaf8f)"><g clip-path="url(#dba1a5788d)"><path stroke-linecap="butt" transform="matrix(0.746962, 0, 0, 0.763723, 160.017944, 211.263781)" fill="none" stroke-linejoin="miter" d="M 9.817924 0.00241511 L 63.451832 0.00241511 C 68.874839 0.00241511 73.272861 4.395982 73.272861 9.822728 C 73.272861 15.244359 68.874839 19.643041 63.451832 19.643041 L 9.817924 19.643041 C 4.394917 19.643041 0.00212442 15.244359 0.00212442 9.822728 C 0.00212442 4.395982 4.394917 0.00241511 9.817924 0.00241511 Z M 9.817924 0.00241511 " stroke="#000000" stroke-width="2" stroke-opacity="1" stroke-miterlimit="4"/></g></g><g fill="#000000" fill-opacity="1"><g transform="translate(115.248226, 196.499987)"><g><path d="M 15.542969 0.597656 C 22.597656 0.597656 27.339844 -3.027344 28.175781 -8.769531 L 24.3125 -8.769531 C 23.515625 -5.621094 21.003906 -2.949219 15.503906 -2.949219 C 9.605469 -2.949219 5.378906 -7.851562 5.378906 -13.988281 C 5.378906 -20.085938 9.566406 -24.949219 15.425781 -24.949219 C 20.804688 -24.949219 23.273438 -22.277344 24.074219 -19.128906 L 27.9375 -19.128906 C 27.179688 -24.589844 22.519531 -28.496094 15.425781 -28.496094 C 7.492188 -28.496094 1.675781 -22.277344 1.632812 -13.988281 C 1.675781 -5.660156 7.53125 0.597656 15.542969 0.597656 Z M 15.542969 0.597656 "/></g></g></g><g fill="#000000" fill-opacity="1"><g transform="translate(140.826004, 196.499987)"><g><path d="M 7.652344 -18.253906 C 6.816406 -17.457031 6.417969 -15.902344 6.019531 -14.785156 L 5.378906 -15.023438 C 5.777344 -16.140625 6.375 -17.535156 6.375 -18.730469 L 6.375 -28.894531 L 2.910156 -28.894531 L 2.910156 0 L 6.375 0 L 6.375 -11.160156 C 6.375 -15.382812 9.484375 -17.257812 13.191406 -17.257812 C 16.539062 -17.257812 18.175781 -15.382812 18.175781 -11.160156 L 18.175781 0 L 21.679688 0 L 21.679688 -13.671875 C 21.679688 -18.214844 18.492188 -20.523438 14.347656 -20.523438 C 11.4375 -20.523438 9.445312 -20.046875 7.652344 -18.253906 Z M 7.652344 -18.253906 "/></g></g></g><g fill="#000000" fill-opacity="1"><g transform="translate(160.94519, 196.499987)"><g><path d="M 15.902344 -1.433594 C 16.539062 -2.113281 16.859375 -3.308594 17.175781 -4.183594 L 17.855469 -3.945312 C 17.496094 -3.070312 16.9375 -1.992188 16.898438 -1.035156 L 16.859375 0 L 20.367188 0 L 20.367188 -19.925781 L 16.859375 -19.925781 L 16.859375 -8.648438 C 16.859375 -4.382812 13.429688 -2.628906 10.523438 -2.628906 C 7.851562 -2.628906 6.019531 -4.464844 6.019531 -8.648438 L 6.019531 -19.925781 L 2.550781 -19.925781 L 2.550781 -6.257812 C 2.550781 -1.753906 6.097656 0.597656 9.804688 0.597656 C 12.515625 0.597656 14.070312 0.320312 15.902344 -1.433594 Z M 15.902344 -1.433594 "/></g></g></g><g fill="#000000" fill-opacity="1"><g transform="translate(180.426885, 196.499987)"><g><path d="M 7.652344 -18.214844 C 6.816406 -17.417969 6.417969 -15.902344 6.019531 -14.824219 L 5.378906 -15.066406 C 5.777344 -16.140625 6.375 -17.535156 6.375 -18.691406 L 6.375 -19.925781 L 2.910156 -19.925781 L 2.910156 0 L 6.375 0 L 6.375 -10.164062 C 6.375 -15.664062 11 -17.21875 15.664062 -17.21875 L 15.664062 -20.523438 C 11.359375 -20.523438 9.523438 -20.125 7.652344 -18.214844 Z M 7.652344 -18.214844 "/></g></g></g><g fill="#000000" fill-opacity="1"><g transform="translate(193.772646, 196.499987)"><g><path d="M 1.632812 -10.082031 C 1.632812 -3.984375 6.21875 0.597656 12.476562 0.636719 C 18.613281 0.597656 21.242188 -3.546875 21.800781 -6.21875 L 18.175781 -6.21875 C 17.816406 -4.980469 16.179688 -2.710938 12.476562 -2.710938 C 7.890625 -2.710938 5.101562 -5.976562 5.101562 -10.125 C 5.101562 -14.226562 7.574219 -17.21875 12.117188 -17.21875 C 15.824219 -17.21875 17.695312 -14.984375 18.054688 -13.75 L 21.679688 -13.75 C 21.203125 -16.339844 18.292969 -20.523438 12.117188 -20.566406 C 5.9375 -20.523438 1.632812 -16.222656 1.632812 -10.082031 Z M 1.632812 -10.082031 "/></g></g></g><g fill="#000000" fill-opacity="1"><g transform="translate(212.855897, 196.499987)"><g><path d="M 7.652344 -18.253906 C 6.816406 -17.457031 6.417969 -15.902344 6.019531 -14.785156 L 5.378906 -15.023438 C 5.777344 -16.140625 6.375 -17.535156 6.375 -18.730469 L 6.375 -28.894531 L 2.910156 -28.894531 L 2.910156 0 L 6.375 0 L 6.375 -11.160156 C 6.375 -15.382812 9.484375 -17.257812 13.191406 -17.257812 C 16.539062 -17.257812 18.175781 -15.382812 18.175781 -11.160156 L 18.175781 0 L 21.679688 0 L 21.679688 -13.671875 C 21.679688 -18.214844 18.492188 -20.523438 14.347656 -20.523438 C 11.4375 -20.523438 9.445312 -20.046875 7.652344 -18.253906 Z M 7.652344 -18.253906 "/></g></g></g><g fill="#000000" fill-opacity="1"><g transform="translate(232.975078, 196.499987)"><g><path d="M 2.589844 -24.113281 L 6.496094 -24.113281 L 6.496094 -27.898438 L 2.589844 -27.898438 Z M 2.828125 0 L 6.335938 0 L 6.335938 -19.925781 L 2.828125 -19.925781 Z M 2.828125 0 "/></g></g></g><g fill="#000000" fill-opacity="1"><g transform="translate(237.993507, 196.499987)"><g><path d="M 3.785156 -4.824219 C 3.785156 -1.433594 5.578125 0 9.726562 0 L 12.273438 0 L 12.273438 -3.308594 L 9.566406 -3.308594 C 7.851562 -3.308594 7.292969 -3.824219 7.292969 -5.460938 L 7.292969 -28.894531 L 3.785156 -28.894531 Z M 3.785156 -4.824219 "/></g></g></g><g fill="#000000" fill-opacity="1"><g transform="translate(246.836928, 196.499987)"><g><path d="M 3.785156 -4.824219 C 3.785156 -1.433594 5.578125 0 9.726562 0 L 12.273438 0 L 12.273438 -3.308594 L 9.566406 -3.308594 C 7.851562 -3.308594 7.292969 -3.824219 7.292969 -5.460938 L 7.292969 -28.894531 L 3.785156 -28.894531 Z M 3.785156 -4.824219 "/></g></g></g><g fill="#000000" fill-opacity="1"><g transform="translate(173.244968, 222.757764)"><g><path d="M 3.941406 -8.839844 C 2.347656 -8.839844 1.054688 -7.898438 1.054688 -6.402344 C 1.054688 -4.972656 2.121094 -4.355469 3.652344 -4.003906 C 5.171875 -3.652344 5.773438 -3.175781 5.773438 -2.121094 C 5.773438 -1.21875 4.972656 -0.679688 3.980469 -0.679688 C 2.851562 -0.679688 2.058594 -1.316406 1.808594 -2.460938 L 0.652344 -2.460938 C 0.839844 -0.789062 2.046875 0.175781 3.953125 0.175781 C 5.625 0.175781 6.929688 -0.804688 6.929688 -2.324219 C 6.929688 -3.792969 5.976562 -4.570312 4.066406 -5.007812 C 2.75 -5.3125 2.210938 -5.710938 2.210938 -6.652344 C 2.210938 -7.558594 2.9375 -7.984375 3.855469 -7.984375 C 4.945312 -7.984375 5.585938 -7.355469 5.6875 -6.265625 L 6.84375 -6.265625 C 6.679688 -7.746094 5.738281 -8.839844 3.941406 -8.839844 Z M 3.941406 -8.839844 "/></g></g></g><g fill="#000000" fill-opacity="1"><g transform="translate(179.142745, 222.757764)"><g><path d="M 7.683594 -8.664062 L 6.605469 -8.664062 L 6.605469 -3.300781 C 6.605469 -3.027344 6.605469 -2.761719 6.578125 -2.535156 C 6.476562 -1.445312 5.761719 -0.679688 4.433594 -0.679688 C 3.101562 -0.679688 2.386719 -1.445312 2.285156 -2.535156 C 2.261719 -2.761719 2.261719 -3.027344 2.261719 -3.300781 L 2.261719 -8.664062 L 1.179688 -8.664062 L 1.179688 -3.203125 C 1.179688 -2.925781 1.179688 -2.675781 1.207031 -2.421875 C 1.332031 -0.980469 2.308594 0.175781 4.433594 0.175781 C 6.554688 0.175781 7.53125 -0.980469 7.660156 -2.421875 C 7.683594 -2.675781 7.683594 -2.925781 7.683594 -3.203125 Z M 7.683594 -8.664062 "/></g></g></g><g fill="#000000" fill-opacity="1"><g transform="translate(186.257955, 222.757764)"><g><path d="M 2.335938 0 L 2.335938 -8.664062 L 1.253906 -8.664062 L 1.253906 0 Z M 2.335938 0 "/></g></g></g><g fill="#000000" fill-opacity="1"><g transform="translate(188.126943, 222.757764)"><g><path d="M 7.683594 -7.785156 L 7.683594 -8.664062 L 0.425781 -8.664062 L 0.425781 -7.785156 L 3.515625 -7.785156 L 3.515625 0 L 4.59375 0 L 4.59375 -7.785156 Z M 7.683594 -7.785156 "/></g></g></g><g fill="#000000" fill-opacity="1"><g transform="translate(194.36359, 222.757764)"><g><path d="M 7.019531 -0.878906 L 2.335938 -0.878906 L 2.335938 -3.890625 L 6.515625 -3.890625 L 6.515625 -4.769531 L 2.335938 -4.769531 L 2.335938 -7.785156 L 6.894531 -7.785156 L 6.894531 -8.664062 L 1.253906 -8.664062 L 1.253906 0 L 7.019531 0 Z M 7.019531 -0.878906 "/></g></g></g></svg>