<svg xmlns="http://www.w3.org/2000/svg" xmlns:xlink="http://www.w3.org/1999/xlink" width="500" zoomAndPan="magnify" viewBox="0 0 375 374.999991" height="500" preserveAspectRatio="xMidYMid meet" version="1.0"><defs><g/><clipPath id="e133e53fef"><path d="M 256.007812 143.078125 L 273.34375 143.078125 L 273.34375 160.414062 L 256.007812 160.414062 Z M 256.007812 143.078125 " clip-rule="nonzero"/></clipPath><clipPath id="9f3102a784"><path d="M 264.675781 143.078125 C 259.890625 143.078125 256.007812 146.960938 256.007812 151.746094 C 256.007812 156.535156 259.890625 160.414062 264.675781 160.414062 C 269.464844 160.414062 273.34375 156.535156 273.34375 151.746094 C 273.34375 146.960938 269.464844 143.078125 264.675781 143.078125 Z M 264.675781 143.078125 " clip-rule="nonzero"/></clipPath></defs><g fill="#e4e2dd" fill-opacity="1"><g transform="translate(122.768751, 200.238853)"><g><path d="M 15.242188 0 C 16.628906 0 18.179688 -2.105469 18.179688 -4.046875 C 18.179688 -14.132812 5.875 -13.632812 5.875 -20.949219 C 5.875 -22.613281 7.148438 -24.996094 10.972656 -25.050781 C 15.296875 -25.109375 18.84375 -20.894531 20.894531 -16.683594 C 22.722656 -12.914062 23.886719 -8.425781 24.832031 -5.15625 C 25.882812 -1.496094 27.214844 0 32.148438 0 L 44.0625 0 C 41.292969 -1.882812 39.296875 -7.648438 35.914062 -17.679688 C 34.417969 -22.171875 33.367188 -29.207031 28.265625 -29.265625 C 24.277344 -29.320312 20.394531 -26.9375 17.070312 -26.660156 C 15.628906 -26.546875 13.910156 -26.546875 13.910156 -27.710938 C 13.910156 -32.976562 42.34375 -34.417969 42.34375 -50.269531 C 42.34375 -53.320312 40.183594 -55.425781 38.023438 -55.425781 L 26.328125 -55.425781 C 27.433594 -53.707031 27.878906 -52.652344 27.878906 -50.214844 C 27.878906 -40.738281 12.25 -29.320312 7.703125 -29.320312 C 6.59375 -29.320312 5.929688 -29.984375 5.929688 -31.039062 C 5.929688 -36.800781 21.726562 -39.796875 21.726562 -50.492188 C 21.726562 -52.710938 20.453125 -55.425781 15.960938 -55.425781 L 0.554688 -55.425781 C 2.050781 -53.929688 2.492188 -52.042969 2.492188 -48.886719 L 2.492188 -6.539062 C 2.492188 -3.382812 2.050781 -1.496094 0.554688 0 Z M 15.242188 0 "/></g></g></g><g fill="#e4e2dd" fill-opacity="1"><g transform="translate(159.177011, 200.238853)"><g><path d="M 0.554688 0 L 19.121094 0 C 17.625 -1.496094 17.183594 -3.382812 17.183594 -6.539062 L 17.183594 -48.886719 C 17.183594 -52.042969 17.625 -53.929688 19.121094 -55.425781 L 0.554688 -55.425781 C 2.050781 -53.929688 2.492188 -52.042969 2.492188 -48.886719 L 2.492188 -6.539062 C 2.492188 -3.382812 2.050781 -1.496094 0.554688 0 Z M 0.554688 0 "/></g></g></g><g fill="#e4e2dd" fill-opacity="1"><g transform="translate(171.201346, 200.238853)"><g><path d="M 1.386719 -27.710938 C 1.386719 -8.589844 11.417969 0.832031 23.832031 0.832031 C 35.636719 0.832031 42.289062 -9.808594 42.289062 -17.347656 C 42.289062 -19.898438 41.570312 -20.339844 40.902344 -20.339844 C 38.1875 -20.339844 37.910156 -12.136719 28.210938 -12.136719 C 20.507812 -12.136719 12.914062 -19.289062 9.589844 -29.484375 C 9.257812 -30.59375 8.980469 -32.589844 10.753906 -32.589844 C 15.351562 -32.589844 19.121094 -22.558594 27.324219 -22.558594 C 34.140625 -22.558594 36.800781 -28.15625 36.800781 -31.871094 C 36.800781 -33.644531 36.304688 -35.027344 35.417969 -35.027344 C 34.472656 -35.027344 33.921875 -32.867188 31.371094 -32.867188 C 27.046875 -32.867188 22.171875 -37.410156 16.683594 -37.410156 C 11.75 -37.410156 10.476562 -34.53125 8.8125 -34.53125 C 7.316406 -34.53125 7.757812 -39.796875 7.757812 -40.847656 C 7.757812 -42.898438 8.589844 -47.554688 12.304688 -47.554688 C 19.507812 -47.554688 23.113281 -40.902344 32.976562 -40.902344 C 36.96875 -40.902344 39.628906 -45.613281 40.738281 -48.21875 C 42.289062 -51.824219 43.066406 -56.257812 40.902344 -56.257812 C 39.183594 -56.257812 38.078125 -54.039062 34.253906 -54.039062 C 29.207031 -54.039062 25.828125 -56.257812 21.503906 -56.257812 C 7.871094 -56.257812 1.386719 -41.457031 1.386719 -27.710938 Z M 1.386719 -27.710938 "/></g></g></g><g fill="#e4e2dd" fill-opacity="1"><g transform="translate(206.944589, 200.238853)"><g><path d="M 2.328125 -33.863281 C 5.097656 -33.863281 10.03125 -52.652344 13.578125 -52.652344 C 15.1875 -52.652344 15.296875 -50.824219 15.296875 -49.105469 L 15.296875 -6.539062 C 15.296875 -3.382812 14.855469 -1.496094 13.359375 0 L 31.925781 0 C 30.429688 -1.496094 29.984375 -3.382812 29.984375 -6.539062 L 29.984375 -49.105469 C 29.984375 -50.824219 30.097656 -52.652344 31.703125 -52.652344 C 35.25 -52.652344 40.183594 -33.863281 42.953125 -33.863281 C 43.730469 -33.863281 44.171875 -34.472656 44.171875 -35.195312 L 44.171875 -55.425781 L 1.109375 -55.425781 L 1.109375 -35.195312 C 1.109375 -34.472656 1.550781 -33.863281 2.328125 -33.863281 Z M 2.328125 -33.863281 "/></g></g></g><g clip-path="url(#e133e53fef)"><g clip-path="url(#9f3102a784)"><path fill="#e4e2dd" d="M 256.007812 143.078125 L 273.34375 143.078125 L 273.34375 160.414062 L 256.007812 160.414062 Z M 256.007812 143.078125 " fill-opacity="1" fill-rule="nonzero"/></g></g><g fill="#e4e2dd" fill-opacity="1"><g transform="translate(132.673295, 216.330705)"><g><path d="M 0.738281 0 C 0.71875 -0.015625 0.703125 -0.046875 0.695312 -0.0820312 C 0.6875 -0.152344 0.695312 -0.222656 0.710938 -0.28125 C 0.839844 -1.023438 0.738281 -1.753906 0.746094 -2.503906 C 0.746094 -3.289062 0.738281 -4.074219 0.6875 -4.859375 C 0.679688 -5.003906 0.671875 -5.15625 0.746094 -5.289062 C 0.878906 -5.484375 1.542969 -5.339844 1.769531 -5.339844 C 2.488281 -5.339844 3.210938 -5.339844 3.9375 -5.347656 C 5.386719 -5.347656 6.835938 -5.355469 8.285156 -5.355469 C 8.675781 -5.355469 8.523438 -5.234375 8.523438 -4.96875 C 8.523438 -4.785156 8.515625 -4.785156 8.515625 -4.601562 C 8.515625 -4.433594 8.675781 -4.304688 8.46875 -4.195312 C 8.339844 -4.128906 7.914062 -4.21875 7.753906 -4.21875 C 7.140625 -4.226562 6.539062 -4.226562 5.929688 -4.226562 C 4.707031 -4.234375 3.488281 -4.234375 2.273438 -4.242188 C 2.007812 -4.242188 2.082031 -3.265625 2.265625 -3.160156 C 2.617188 -2.96875 3.195312 -3.136719 3.570312 -3.136719 C 4.21875 -3.136719 4.859375 -3.144531 5.5 -3.144531 C 6.027344 -3.152344 6.5625 -3.152344 7.089844 -3.152344 C 7.460938 -3.152344 8.140625 -3.296875 8.492188 -3.128906 C 8.699219 -3.023438 8.578125 -2.714844 8.5625 -2.546875 C 8.546875 -2.335938 8.621094 -2.050781 8.332031 -2.058594 C 7.691406 -2.082031 7.058594 -2.105469 6.417969 -2.113281 C 5.578125 -2.121094 4.746094 -2.066406 3.914062 -2.066406 C 3.480469 -2.058594 3.050781 -2.074219 2.625 -2.113281 C 2.417969 -2.128906 2.074219 -2.21875 2.121094 -1.898438 C 2.199219 -1.320312 2.167969 -0.734375 2.199219 -0.144531 C 2.199219 -0.113281 2.199219 -0.078125 2.183594 -0.0390625 C 2.113281 0.113281 1.847656 0.03125 1.722656 0 C 1.488281 -0.0625 1.175781 -0.015625 0.9375 0.0390625 C 0.863281 0.0546875 0.785156 0.0546875 0.738281 0 Z M 0.738281 0 "/></g></g></g><g fill="#e4e2dd" fill-opacity="1"><g transform="translate(141.989698, 216.330705)"><g><path d="M 0.746094 0 C 0.671875 -0.0703125 0.695312 -0.152344 0.71875 -0.25 C 0.761719 -0.417969 0.746094 -0.601562 0.746094 -0.777344 C 0.753906 -1.496094 0.753906 -2.21875 0.753906 -2.945312 C 0.753906 -3.351562 0.769531 -3.746094 0.769531 -4.144531 C 0.769531 -4.347656 0.769531 -4.554688 0.753906 -4.761719 C 0.746094 -4.921875 0.65625 -5.128906 0.710938 -5.289062 C 0.761719 -5.433594 0.929688 -5.394531 1.046875 -5.371094 C 1.265625 -5.339844 1.488281 -5.324219 1.710938 -5.339844 C 1.800781 -5.339844 1.890625 -5.355469 1.984375 -5.378906 C 2.074219 -5.402344 2.183594 -5.371094 2.210938 -5.273438 C 2.21875 -5.21875 2.210938 -5.164062 2.207031 -5.113281 C 2.160156 -4.859375 2.160156 -4.609375 2.160156 -4.347656 C 2.152344 -3.84375 2.160156 -3.328125 2.167969 -2.816406 C 2.175781 -2.554688 2.175781 -2.289062 2.175781 -2.023438 C 2.175781 -1.777344 2.144531 -1.542969 2.128906 -1.296875 C 2.121094 -1.226562 2.121094 -1.152344 2.175781 -1.097656 C 2.273438 -1.007812 2.425781 -1.089844 2.53125 -1.113281 C 2.6875 -1.144531 2.847656 -1.113281 3 -1.113281 C 3.609375 -1.089844 4.21875 -1.113281 4.828125 -1.113281 C 5.464844 -1.113281 6.097656 -1.113281 6.730469 -1.121094 C 6.9375 -1.121094 7.140625 -1.128906 7.347656 -1.128906 C 7.546875 -1.128906 7.546875 -1.097656 7.746094 -1.097656 C 7.867188 -1.097656 7.988281 -1.183594 8.101562 -1.152344 C 8.242188 -1.113281 8.21875 -0.914062 8.203125 -0.816406 C 8.171875 -0.625 8.117188 -0.449219 8.164062 -0.257812 C 8.179688 -0.214844 8.195312 -0.167969 8.195312 -0.113281 C 8.203125 0.0390625 8.042969 0.0546875 7.925781 0.0390625 C 7.417969 -0.0390625 6.914062 -0.015625 6.402344 0 C 5.148438 0.03125 3.890625 0 2.640625 0 C 2.21875 0.0078125 1.792969 0 1.375 -0.015625 C 1.222656 -0.0234375 1.082031 0.0703125 0.929688 0.0703125 C 0.871094 0.0703125 0.800781 0.046875 0.746094 0 Z M 0.746094 0 "/></g></g></g><g fill="#e4e2dd" fill-opacity="1"><g transform="translate(150.909341, 216.330705)"><g><path d="M 0.25 -2.664062 C 0.230469 -3.042969 0.320312 -3.441406 0.578125 -3.832031 C 1.222656 -4.777344 2.425781 -5.1875 3.511719 -5.402344 C 4.691406 -5.636719 5.929688 -5.617188 7.089844 -5.355469 C 8.089844 -5.136719 9.078125 -4.707031 9.722656 -3.929688 C 10.355469 -3.175781 10.390625 -2.167969 9.78125 -1.394531 C 9.460938 -0.984375 9.003906 -0.6875 8.539062 -0.449219 C 7.5625 0.0234375 6.46875 0.214844 5.371094 0.25 C 4.464844 0.28125 3.546875 0.214844 2.6875 -0.0703125 C 1.570312 -0.433594 0.335938 -1.488281 0.25 -2.664062 Z M 1.679688 -2.65625 C 1.710938 -1.984375 2.328125 -1.375 3 -1.105469 C 4.234375 -0.609375 5.746094 -0.480469 7.019531 -0.921875 C 8.082031 -1.296875 9.429688 -2.546875 8.324219 -3.632812 C 8.074219 -3.875 7.753906 -4.042969 7.433594 -4.179688 C 6.042969 -4.746094 4.441406 -4.714844 3.042969 -4.195312 C 2.648438 -4.050781 2.257812 -3.851562 2 -3.53125 C 1.753906 -3.242188 1.671875 -2.945312 1.679688 -2.65625 Z M 1.679688 -2.65625 "/></g></g></g><g fill="#e4e2dd" fill-opacity="1"><g transform="translate(161.95016, 216.330705)"><g><path d="M 8.582031 -0.304688 C 8.285156 -0.601562 7.988281 -0.898438 7.707031 -1.207031 C 7.5625 -1.351562 7.433594 -1.503906 7.292969 -1.648438 C 7.15625 -1.777344 6.988281 -1.878906 6.875 -2.03125 C 6.859375 -2.050781 6.84375 -2.074219 6.851562 -2.097656 C 6.859375 -2.175781 7.21875 -2.199219 7.285156 -2.210938 C 7.445312 -2.257812 7.613281 -2.3125 7.761719 -2.402344 C 7.875 -2.472656 7.988281 -2.554688 8.089844 -2.65625 C 8.140625 -2.714844 8.339844 -2.882812 8.339844 -2.976562 C 8.644531 -3.496094 8.621094 -4.203125 8.234375 -4.667969 C 7.996094 -4.953125 7.636719 -5.128906 7.277344 -5.21875 C 6.914062 -5.308594 6.53125 -5.316406 6.15625 -5.324219 C 4.417969 -5.371094 2.671875 -5.371094 0.929688 -5.332031 C 0.878906 -5.332031 0.824219 -5.332031 0.792969 -5.296875 C 0.761719 -5.265625 0.761719 -5.210938 0.761719 -5.171875 L 0.761719 -2.433594 C 0.761719 -1.976562 0.761719 -1.519531 0.761719 -1.066406 L 0.761719 -0.382812 C 0.761719 -0.246094 0.65625 -0.015625 0.847656 0.0390625 C 0.929688 0.0625 1.007812 0.0390625 1.089844 0.0234375 C 1.375 -0.0390625 1.671875 -0.03125 1.953125 0.03125 C 2.007812 0.046875 2.058594 0.0625 2.105469 0.046875 C 2.207031 0.0078125 2.21875 -0.121094 2.210938 -0.222656 C 2.210938 -0.535156 2.207031 -0.847656 2.199219 -1.152344 C 2.191406 -1.3125 2.191406 -1.472656 2.183594 -1.632812 C 2.183594 -1.738281 2.183594 -1.839844 2.175781 -1.945312 C 2.175781 -1.976562 2.175781 -2.015625 2.199219 -2.039062 C 2.265625 -2.105469 2.546875 -2.050781 2.648438 -2.050781 C 2.824219 -2.050781 2.992188 -2.058594 3.167969 -2.058594 C 3.488281 -2.058594 3.808594 -2.058594 4.121094 -2.066406 L 4.714844 -2.066406 C 4.867188 -2.074219 5.019531 -2.074219 5.171875 -2.023438 C 5.394531 -1.953125 5.5625 -1.769531 5.714844 -1.59375 L 6.90625 -0.304688 C 7.003906 -0.199219 7.105469 -0.0820312 7.242188 -0.03125 C 7.355469 0.015625 7.484375 0.015625 7.613281 0.015625 L 8.75 0.015625 C 8.78125 0.015625 8.820312 0.0078125 8.828125 -0.015625 C 8.835938 -0.046875 8.8125 -0.0625 8.796875 -0.0820312 C 8.730469 -0.160156 8.652344 -0.230469 8.582031 -0.304688 Z M 4.65625 -3.050781 L 4.3125 -3.050781 C 3.664062 -3.058594 3.015625 -3.058594 2.367188 -3.058594 C 2.273438 -3.058594 2.199219 -3.082031 2.199219 -3.183594 C 2.199219 -3.417969 2.199219 -3.648438 2.191406 -3.882812 C 2.191406 -3.984375 2.121094 -4.273438 2.21875 -4.332031 C 2.265625 -4.371094 2.367188 -4.347656 2.425781 -4.347656 C 2.519531 -4.347656 2.609375 -4.332031 2.707031 -4.339844 L 3.105469 -4.339844 C 3.777344 -4.347656 4.441406 -4.339844 5.113281 -4.339844 C 5.53125 -4.339844 5.953125 -4.347656 6.371094 -4.28125 C 6.554688 -4.25 6.746094 -4.203125 6.898438 -4.089844 C 7.050781 -3.984375 7.15625 -3.785156 7.109375 -3.601562 C 7.089844 -3.480469 6.988281 -3.371094 6.882812 -3.304688 C 6.769531 -3.234375 6.644531 -3.195312 6.515625 -3.167969 C 5.921875 -3.027344 5.28125 -3.035156 4.65625 -3.050781 Z M 4.65625 -3.050781 "/></g></g></g><g fill="#e4e2dd" fill-opacity="1"><g transform="translate(171.556511, 216.330705)"><g><path d="M 0.222656 -0.0078125 C 0.25 0.0234375 0.289062 0.0234375 0.328125 0.03125 C 0.710938 0.046875 1.128906 0.136719 1.496094 0.015625 C 1.945312 -0.121094 1.855469 -0.847656 2.378906 -0.847656 C 3.210938 -0.847656 4.042969 -0.832031 4.875 -0.832031 C 5.289062 -0.832031 5.707031 -0.832031 6.121094 -0.847656 C 6.449219 -0.855469 6.859375 -0.945312 7.179688 -0.878906 C 7.515625 -0.800781 7.523438 -0.304688 7.761719 -0.105469 C 7.925781 0.046875 8.1875 0.046875 8.414062 0.046875 C 8.644531 0.0390625 8.882812 0.03125 9.109375 0.03125 C 9.140625 0.03125 9.171875 0.03125 9.195312 0.015625 C 9.253906 -0.03125 9.210938 -0.128906 9.164062 -0.191406 C 8.042969 -1.703125 6.988281 -3.265625 6.019531 -4.882812 C 5.898438 -5.097656 5.746094 -5.324219 5.507812 -5.394531 C 5.394531 -5.433594 5.265625 -5.417969 5.144531 -5.410156 C 4.714844 -5.371094 3.859375 -5.476562 3.601562 -5.089844 C 2.625 -3.617188 1.640625 -2.144531 0.664062 -0.679688 C 0.585938 -0.570312 0.0976562 -0.152344 0.222656 -0.0078125 Z M 2.992188 -1.976562 C 2.976562 -2.007812 2.96875 -2.03125 2.96875 -2.058594 C 2.976562 -2.121094 3.015625 -2.167969 3.050781 -2.21875 C 3.34375 -2.585938 3.625 -2.96875 3.890625 -3.363281 C 4.027344 -3.570312 4.160156 -3.777344 4.289062 -3.984375 C 4.355469 -4.089844 4.546875 -4.5625 4.65625 -4.601562 C 4.898438 -4.691406 5.332031 -3.707031 5.457031 -3.511719 C 5.761719 -3.050781 6.082031 -2.601562 6.417969 -2.167969 C 6.453125 -2.121094 6.492188 -2.058594 6.484375 -2.007812 C 6.433594 -1.746094 5.644531 -1.953125 5.472656 -1.960938 C 4.777344 -2.023438 4.058594 -1.96875 3.363281 -1.878906 C 3.28125 -1.871094 3.195312 -1.855469 3.121094 -1.882812 C 3.066406 -1.898438 3.015625 -1.929688 2.992188 -1.976562 Z M 2.992188 -1.976562 "/></g></g></g><g fill="#e4e2dd" fill-opacity="1"><g transform="translate(181.361243, 216.330705)"><g><path d="M 0.746094 0 C 0.671875 -0.0703125 0.695312 -0.152344 0.71875 -0.25 C 0.761719 -0.417969 0.746094 -0.601562 0.746094 -0.777344 C 0.753906 -1.496094 0.753906 -2.21875 0.753906 -2.945312 C 0.753906 -3.351562 0.769531 -3.746094 0.769531 -4.144531 C 0.769531 -4.347656 0.769531 -4.554688 0.753906 -4.761719 C 0.746094 -4.921875 0.65625 -5.128906 0.710938 -5.289062 C 0.761719 -5.433594 0.929688 -5.394531 1.046875 -5.371094 C 1.265625 -5.339844 1.488281 -5.324219 1.710938 -5.339844 C 1.800781 -5.339844 1.890625 -5.355469 1.984375 -5.378906 C 2.074219 -5.402344 2.183594 -5.371094 2.210938 -5.273438 C 2.21875 -5.21875 2.210938 -5.164062 2.207031 -5.113281 C 2.160156 -4.859375 2.160156 -4.609375 2.160156 -4.347656 C 2.152344 -3.84375 2.160156 -3.328125 2.167969 -2.816406 C 2.175781 -2.554688 2.175781 -2.289062 2.175781 -2.023438 C 2.175781 -1.777344 2.144531 -1.542969 2.128906 -1.296875 C 2.121094 -1.226562 2.121094 -1.152344 2.175781 -1.097656 C 2.273438 -1.007812 2.425781 -1.089844 2.53125 -1.113281 C 2.6875 -1.144531 2.847656 -1.113281 3 -1.113281 C 3.609375 -1.089844 4.21875 -1.113281 4.828125 -1.113281 C 5.464844 -1.113281 6.097656 -1.113281 6.730469 -1.121094 C 6.9375 -1.121094 7.140625 -1.128906 7.347656 -1.128906 C 7.546875 -1.128906 7.546875 -1.097656 7.746094 -1.097656 C 7.867188 -1.097656 7.988281 -1.183594 8.101562 -1.152344 C 8.242188 -1.113281 8.21875 -0.914062 8.203125 -0.816406 C 8.171875 -0.625 8.117188 -0.449219 8.164062 -0.257812 C 8.179688 -0.214844 8.195312 -0.167969 8.195312 -0.113281 C 8.203125 0.0390625 8.042969 0.0546875 7.925781 0.0390625 C 7.417969 -0.0390625 6.914062 -0.015625 6.402344 0 C 5.148438 0.03125 3.890625 0 2.640625 0 C 2.21875 0.0078125 1.792969 0 1.375 -0.015625 C 1.222656 -0.0234375 1.082031 0.0703125 0.929688 0.0703125 C 0.871094 0.0703125 0.800781 0.046875 0.746094 0 Z M 0.746094 0 "/></g></g></g><g fill="#e4e2dd" fill-opacity="1"><g transform="translate(190.280884, 216.330705)"><g/></g></g><g fill="#e4e2dd" fill-opacity="1"><g transform="translate(194.477464, 216.330705)"><g><path d="M 0.503906 -0.382812 C 0.519531 -0.359375 0.550781 -0.34375 0.578125 -0.328125 C 1.542969 0.121094 2.640625 0.207031 3.699219 0.246094 C 4.890625 0.289062 6.113281 0.28125 7.234375 -0.121094 C 7.515625 -0.230469 7.804688 -0.367188 7.980469 -0.609375 C 8.101562 -0.769531 8.164062 -0.96875 8.210938 -1.160156 C 8.261719 -1.375 8.292969 -1.59375 8.253906 -1.816406 C 8.195312 -2.167969 7.933594 -2.464844 7.628906 -2.65625 C 7.316406 -2.839844 6.957031 -2.929688 6.609375 -2.984375 C 5.210938 -3.203125 3.769531 -3 2.378906 -3.265625 C 2.082031 -3.328125 1.730469 -3.464844 1.695312 -3.769531 C 1.671875 -3.945312 1.777344 -4.121094 1.921875 -4.226562 C 2.066406 -4.332031 2.25 -4.386719 2.425781 -4.425781 C 3.066406 -4.570312 3.730469 -4.617188 4.394531 -4.609375 C 4.722656 -4.609375 5.050781 -4.59375 5.378906 -4.5625 C 5.515625 -4.554688 5.644531 -4.578125 5.777344 -4.554688 C 5.914062 -4.53125 6.042969 -4.488281 6.171875 -4.449219 C 6.394531 -4.402344 6.609375 -4.339844 6.8125 -4.273438 C 7.21875 -4.128906 7.605469 -3.929688 7.914062 -3.625 C 7.914062 -4 7.921875 -4.371094 7.925781 -4.746094 C 7.925781 -4.808594 7.925781 -4.859375 7.90625 -4.914062 C 7.875 -4.976562 7.804688 -5.003906 7.746094 -5.035156 C 6.789062 -5.484375 5.699219 -5.546875 4.648438 -5.5625 C 3.65625 -5.578125 2.648438 -5.546875 1.695312 -5.289062 C 1.273438 -5.171875 0.863281 -5.003906 0.570312 -4.675781 C 0.207031 -4.257812 0.136719 -3.601562 0.417969 -3.113281 C 0.625 -2.753906 0.984375 -2.511719 1.367188 -2.371094 C 1.753906 -2.226562 2.167969 -2.191406 2.578125 -2.160156 C 3.675781 -2.089844 4.785156 -2.128906 5.890625 -2.042969 C 6.113281 -2.023438 6.347656 -2 6.539062 -1.882812 C 6.738281 -1.769531 6.882812 -1.542969 6.835938 -1.320312 C 6.769531 -1.046875 6.453125 -0.914062 6.179688 -0.855469 C 5.652344 -0.734375 5.105469 -0.710938 4.5625 -0.695312 C 3.84375 -0.6875 3.121094 -0.703125 2.410156 -0.839844 C 1.703125 -0.976562 1.007812 -1.25 0.441406 -1.703125 C 0.425781 -1.289062 0.433594 -0.886719 0.464844 -0.480469 C 0.472656 -0.449219 0.472656 -0.417969 0.488281 -0.398438 C 0.496094 -0.390625 0.496094 -0.382812 0.503906 -0.382812 Z M 0.503906 -0.382812 "/></g></g></g><g fill="#e4e2dd" fill-opacity="1"><g transform="translate(203.419993, 216.330705)"><g><path d="M 0.433594 -4.28125 C 0.511719 -4.210938 0.632812 -4.203125 0.738281 -4.203125 C 1.570312 -4.21875 2.394531 -4.234375 3.21875 -4.242188 C 3.273438 -4.242188 3.320312 -4.242188 3.363281 -4.226562 C 3.480469 -4.167969 3.496094 -4.011719 3.496094 -3.890625 C 3.464844 -2.714844 3.441406 -1.550781 3.417969 -0.375 C 3.417969 -0.296875 3.417969 -0.214844 3.449219 -0.144531 C 3.523438 -0.0234375 3.691406 0.0078125 3.839844 0.0078125 C 4.144531 0.0234375 4.449219 0.015625 4.753906 -0.0234375 C 4.792969 -0.0234375 4.828125 -0.03125 4.851562 -0.0546875 C 4.882812 -0.0820312 4.882812 -0.128906 4.882812 -0.167969 C 4.867188 -1.402344 4.851562 -2.640625 4.84375 -3.875 C 4.84375 -3.96875 4.84375 -4.066406 4.898438 -4.136719 C 4.976562 -4.242188 5.128906 -4.25 5.257812 -4.25 C 6.171875 -4.234375 7.082031 -4.226562 7.996094 -4.210938 C 8.042969 -4.210938 8.101562 -4.210938 8.140625 -4.25 C 8.1875 -4.289062 8.1875 -4.355469 8.1875 -4.417969 L 8.1875 -5.210938 C 8.1875 -5.25 8.1875 -5.28125 8.164062 -5.304688 C 8.132812 -5.332031 8.09375 -5.332031 8.066406 -5.332031 C 5.5625 -5.339844 3.066406 -5.347656 0.570312 -5.347656 C 0.519531 -5.347656 0.464844 -5.347656 0.425781 -5.308594 C 0.40625 -5.28125 0.398438 -5.234375 0.398438 -5.195312 C 0.390625 -4.96875 0.382812 -4.738281 0.367188 -4.507812 C 0.367188 -4.457031 0.367188 -4.394531 0.390625 -4.339844 C 0.40625 -4.320312 0.410156 -4.296875 0.433594 -4.28125 Z M 0.433594 -4.28125 "/></g></g></g><g fill="#e4e2dd" fill-opacity="1"><g transform="translate(212.354886, 216.330705)"><g><path d="M 0.25 -2.664062 C 0.230469 -3.042969 0.320312 -3.441406 0.578125 -3.832031 C 1.222656 -4.777344 2.425781 -5.1875 3.511719 -5.402344 C 4.691406 -5.636719 5.929688 -5.617188 7.089844 -5.355469 C 8.089844 -5.136719 9.078125 -4.707031 9.722656 -3.929688 C 10.355469 -3.175781 10.390625 -2.167969 9.78125 -1.394531 C 9.460938 -0.984375 9.003906 -0.6875 8.539062 -0.449219 C 7.5625 0.0234375 6.46875 0.214844 5.371094 0.25 C 4.464844 0.28125 3.546875 0.214844 2.6875 -0.0703125 C 1.570312 -0.433594 0.335938 -1.488281 0.25 -2.664062 Z M 1.679688 -2.65625 C 1.710938 -1.984375 2.328125 -1.375 3 -1.105469 C 4.234375 -0.609375 5.746094 -0.480469 7.019531 -0.921875 C 8.082031 -1.296875 9.429688 -2.546875 8.324219 -3.632812 C 8.074219 -3.875 7.753906 -4.042969 7.433594 -4.179688 C 6.042969 -4.746094 4.441406 -4.714844 3.042969 -4.195312 C 2.648438 -4.050781 2.257812 -3.851562 2 -3.53125 C 1.753906 -3.242188 1.671875 -2.945312 1.679688 -2.65625 Z M 1.679688 -2.65625 "/></g></g></g><g fill="#e4e2dd" fill-opacity="1"><g transform="translate(223.395707, 216.330705)"><g><path d="M 8.582031 -0.304688 C 8.285156 -0.601562 7.988281 -0.898438 7.707031 -1.207031 C 7.5625 -1.351562 7.433594 -1.503906 7.292969 -1.648438 C 7.15625 -1.777344 6.988281 -1.878906 6.875 -2.03125 C 6.859375 -2.050781 6.84375 -2.074219 6.851562 -2.097656 C 6.859375 -2.175781 7.21875 -2.199219 7.285156 -2.210938 C 7.445312 -2.257812 7.613281 -2.3125 7.761719 -2.402344 C 7.875 -2.472656 7.988281 -2.554688 8.089844 -2.65625 C 8.140625 -2.714844 8.339844 -2.882812 8.339844 -2.976562 C 8.644531 -3.496094 8.621094 -4.203125 8.234375 -4.667969 C 7.996094 -4.953125 7.636719 -5.128906 7.277344 -5.21875 C 6.914062 -5.308594 6.53125 -5.316406 6.15625 -5.324219 C 4.417969 -5.371094 2.671875 -5.371094 0.929688 -5.332031 C 0.878906 -5.332031 0.824219 -5.332031 0.792969 -5.296875 C 0.761719 -5.265625 0.761719 -5.210938 0.761719 -5.171875 L 0.761719 -2.433594 C 0.761719 -1.976562 0.761719 -1.519531 0.761719 -1.066406 L 0.761719 -0.382812 C 0.761719 -0.246094 0.65625 -0.015625 0.847656 0.0390625 C 0.929688 0.0625 1.007812 0.0390625 1.089844 0.0234375 C 1.375 -0.0390625 1.671875 -0.03125 1.953125 0.03125 C 2.007812 0.046875 2.058594 0.0625 2.105469 0.046875 C 2.207031 0.0078125 2.21875 -0.121094 2.210938 -0.222656 C 2.210938 -0.535156 2.207031 -0.847656 2.199219 -1.152344 C 2.191406 -1.3125 2.191406 -1.472656 2.183594 -1.632812 C 2.183594 -1.738281 2.183594 -1.839844 2.175781 -1.945312 C 2.175781 -1.976562 2.175781 -2.015625 2.199219 -2.039062 C 2.265625 -2.105469 2.546875 -2.050781 2.648438 -2.050781 C 2.824219 -2.050781 2.992188 -2.058594 3.167969 -2.058594 C 3.488281 -2.058594 3.808594 -2.058594 4.121094 -2.066406 L 4.714844 -2.066406 C 4.867188 -2.074219 5.019531 -2.074219 5.171875 -2.023438 C 5.394531 -1.953125 5.5625 -1.769531 5.714844 -1.59375 L 6.90625 -0.304688 C 7.003906 -0.199219 7.105469 -0.0820312 7.242188 -0.03125 C 7.355469 0.015625 7.484375 0.015625 7.613281 0.015625 L 8.75 0.015625 C 8.78125 0.015625 8.820312 0.0078125 8.828125 -0.015625 C 8.835938 -0.046875 8.8125 -0.0625 8.796875 -0.0820312 C 8.730469 -0.160156 8.652344 -0.230469 8.582031 -0.304688 Z M 4.65625 -3.050781 L 4.3125 -3.050781 C 3.664062 -3.058594 3.015625 -3.058594 2.367188 -3.058594 C 2.273438 -3.058594 2.199219 -3.082031 2.199219 -3.183594 C 2.199219 -3.417969 2.199219 -3.648438 2.191406 -3.882812 C 2.191406 -3.984375 2.121094 -4.273438 2.21875 -4.332031 C 2.265625 -4.371094 2.367188 -4.347656 2.425781 -4.347656 C 2.519531 -4.347656 2.609375 -4.332031 2.707031 -4.339844 L 3.105469 -4.339844 C 3.777344 -4.347656 4.441406 -4.339844 5.113281 -4.339844 C 5.53125 -4.339844 5.953125 -4.347656 6.371094 -4.28125 C 6.554688 -4.25 6.746094 -4.203125 6.898438 -4.089844 C 7.050781 -3.984375 7.15625 -3.785156 7.109375 -3.601562 C 7.089844 -3.480469 6.988281 -3.371094 6.882812 -3.304688 C 6.769531 -3.234375 6.644531 -3.195312 6.515625 -3.167969 C 5.921875 -3.027344 5.28125 -3.035156 4.65625 -3.050781 Z M 4.65625 -3.050781 "/></g></g></g><g fill="#e4e2dd" fill-opacity="1"><g transform="translate(233.002063, 216.330705)"><g><path d="M 0.761719 0 C 0.738281 -0.0390625 0.734375 -0.0820312 0.726562 -0.121094 C 0.679688 -0.417969 0.761719 -0.703125 0.761719 -1 C 0.769531 -1.449219 0.769531 -1.898438 0.769531 -2.359375 C 0.769531 -3.007812 0.769531 -3.65625 0.761719 -4.304688 C 0.761719 -4.578125 0.570312 -5.355469 0.96875 -5.355469 L 8.269531 -5.332031 C 8.371094 -5.332031 8.476562 -5.324219 8.539062 -5.25 C 8.578125 -5.195312 8.582031 -5.128906 8.582031 -5.058594 L 8.605469 -4.515625 C 8.605469 -4.425781 8.605469 -4.320312 8.53125 -4.257812 C 8.394531 -4.144531 8.179688 -4.1875 8.019531 -4.203125 C 7.796875 -4.21875 7.570312 -4.210938 7.339844 -4.210938 C 6.796875 -4.21875 6.25 -4.21875 5.707031 -4.226562 C 4.625 -4.234375 3.546875 -4.234375 2.472656 -4.242188 C 2 -4.242188 2.136719 -3.738281 2.128906 -3.378906 C 2.121094 -3.265625 2.175781 -3.128906 2.289062 -3.105469 C 2.457031 -3.066406 2.785156 -3.136719 2.984375 -3.136719 C 3.992188 -3.136719 4.996094 -3.144531 6.003906 -3.144531 C 6.507812 -3.152344 7.011719 -3.152344 7.515625 -3.160156 C 7.804688 -3.160156 8.652344 -3.351562 8.597656 -2.859375 L 8.53125 -2.226562 C 8.53125 -2.191406 8.523438 -2.152344 8.5 -2.128906 C 8.46875 -2.097656 8.421875 -2.097656 8.386719 -2.097656 C 6.585938 -2.089844 4.777344 -2.089844 2.984375 -2.089844 C 2.800781 -2.089844 2.648438 -2.082031 2.472656 -2.136719 C 2.359375 -2.167969 2.210938 -2.175781 2.152344 -2.074219 C 2.058594 -1.90625 2.105469 -1.671875 2.128906 -1.496094 C 2.152344 -1.296875 2.128906 -1.097656 2.378906 -1.097656 C 4.347656 -1.105469 6.316406 -1.113281 8.285156 -1.128906 C 8.675781 -1.128906 8.582031 -0.984375 8.582031 -0.703125 C 8.578125 -0.519531 8.707031 -0.222656 8.597656 -0.0546875 C 8.484375 0.144531 8.332031 -0.0078125 8.164062 -0.0078125 C 7.972656 -0.0078125 7.972656 -0.015625 7.773438 -0.015625 C 5.652344 -0.015625 3.53125 0.0390625 1.410156 -0.0078125 C 1.304688 -0.015625 1.191406 -0.015625 1.082031 0.015625 C 0.984375 0.0390625 0.855469 0.0898438 0.777344 0.015625 Z M 0.761719 0 "/></g></g></g></svg>