<svg xmlns="http://www.w3.org/2000/svg" xmlns:xlink="http://www.w3.org/1999/xlink" width="500" zoomAndPan="magnify" viewBox="0 0 375 131.249995" height="175" preserveAspectRatio="xMidYMid meet" version="1.0"><defs><g/><clipPath id="87b5b82def"><path d="M 342.09375 11.878906 L 368.191406 11.878906 L 368.191406 37.980469 L 342.09375 37.980469 Z M 342.09375 11.878906 " clip-rule="nonzero"/></clipPath></defs><g clip-path="url(#87b5b82def)"><path fill="#0ea5e9" d="M 368.191406 24.929688 C 358.402344 26.730469 356.941406 28.191406 355.140625 37.976562 C 353.339844 28.191406 351.878906 26.730469 342.09375 24.929688 C 351.878906 23.125 353.339844 21.664062 355.140625 11.878906 C 356.941406 21.664062 358.402344 23.125 368.191406 24.929688 Z M 368.191406 24.929688 " fill-opacity="1" fill-rule="nonzero"/></g><g fill="#0ea5e9" fill-opacity="1"><g transform="translate(6.306265, 87.420924)"><g><path d="M 29.953125 1.117188 C 46.492188 1.117188 53.867188 -6.035156 55.210938 -18.105469 L 44.109375 -18.105469 C 42.992188 -14.453125 40.902344 -9.6875 29.652344 -9.6875 C 20.710938 -9.6875 13.410156 -14.976562 13.410156 -26.078125 C 13.410156 -37.253906 20.789062 -42.46875 29.800781 -42.46875 C 40.382812 -42.46875 42.246094 -37.699219 43.363281 -34.125 L 54.464844 -34.125 C 53.644531 -43.957031 46.789062 -53.273438 29.578125 -53.273438 C 13.859375 -53.273438 2.308594 -41.648438 2.234375 -26.152344 C 2.308594 -10.578125 14.007812 1.117188 29.953125 1.117188 Z M 29.953125 1.117188 "/></g></g></g><g fill="#0ea5e9" fill-opacity="1"><g transform="translate(64.56832, 87.420924)"><g><path d="M 17.882812 -35.390625 C 15.273438 -33.378906 14.230469 -28.984375 13.039062 -25.855469 L 11.324219 -26.523438 C 12.515625 -29.652344 14.15625 -33.527344 14.15625 -36.804688 L 14.15625 -54.09375 L 3.726562 -54.09375 L 3.726562 0 L 14.15625 0 L 14.15625 -18.03125 C 14.15625 -24.8125 18.851562 -27.867188 24.289062 -27.867188 C 29.355469 -27.867188 31.738281 -24.8125 31.738281 -18.03125 L 31.738281 0 L 42.171875 0 L 42.171875 -25.554688 C 42.171875 -34.050781 36.359375 -38.371094 28.835938 -38.371094 C 24.214844 -38.371094 20.863281 -37.699219 17.882812 -35.390625 Z M 17.882812 -35.390625 "/></g></g></g><g fill="#0ea5e9" fill-opacity="1"><g transform="translate(110.164711, 87.420924)"><g><path d="M 28.984375 -2.160156 C 30.546875 -3.652344 31.070312 -6.554688 31.8125 -8.566406 L 33.527344 -7.898438 C 32.78125 -5.886719 31.367188 -3.425781 31.292969 -1.265625 L 31.292969 0 L 41.722656 0 L 41.722656 -37.253906 L 31.292969 -37.253906 L 31.292969 -18.328125 C 31.292969 -11.175781 27.792969 -7.972656 22.351562 -7.972656 C 17.359375 -7.972656 13.785156 -10.578125 13.785156 -18.328125 L 13.785156 -37.253906 L 3.351562 -37.253906 L 3.351562 -11.699219 C 3.351562 -3.277344 10.578125 1.117188 18.105469 1.117188 C 23.320312 1.117188 26.078125 0.671875 28.984375 -2.160156 Z M 28.984375 -2.160156 "/></g></g></g><g fill="#0ea5e9" fill-opacity="1"><g transform="translate(155.612093, 87.420924)"><g><path d="M 18.253906 -34.945312 C 15.570312 -33.082031 14.082031 -28.984375 12.742188 -26.003906 L 11.101562 -26.746094 C 12.441406 -29.726562 14.15625 -33.527344 14.15625 -36.804688 L 14.15625 -37.253906 L 3.726562 -37.253906 L 3.726562 0 L 14.15625 0 L 14.15625 -14.902344 C 14.15625 -25.257812 24.214844 -28.683594 33.75 -28.683594 L 33.75 -38.371094 C 26.824219 -38.371094 22.351562 -37.773438 18.253906 -34.945312 Z M 18.253906 -34.945312 "/></g></g></g><g fill="#0ea5e9" fill-opacity="1"><g transform="translate(191.224967, 87.420924)"><g><path d="M 1.9375 -18.851562 C 1.9375 -6.40625 9.984375 1.191406 22.5 1.191406 C 34.71875 1.191406 41.722656 -5.960938 42.992188 -14.378906 L 31.738281 -14.378906 C 31.738281 -14.378906 29.28125 -8.644531 22.128906 -8.71875 C 16.09375 -8.71875 12.21875 -12.816406 12.292969 -18.925781 C 12.292969 -25.109375 16.242188 -28.535156 21.980469 -28.535156 C 29.355469 -28.609375 31.515625 -22.875 31.515625 -22.875 L 42.765625 -22.875 C 42.023438 -30.847656 35.019531 -38.371094 22.277344 -38.371094 C 9.984375 -38.371094 1.9375 -31.292969 1.9375 -18.851562 Z M 1.9375 -18.851562 "/></g></g></g><g fill="#0ea5e9" fill-opacity="1"><g transform="translate(236.150824, 87.420924)"><g><path d="M 17.882812 -35.390625 C 15.273438 -33.378906 14.230469 -28.984375 13.039062 -25.855469 L 11.324219 -26.523438 C 12.515625 -29.652344 14.15625 -33.527344 14.15625 -36.804688 L 14.15625 -54.09375 L 3.726562 -54.09375 L 3.726562 0 L 14.15625 0 L 14.15625 -18.03125 C 14.15625 -24.8125 18.851562 -27.867188 24.289062 -27.867188 C 29.355469 -27.867188 31.738281 -24.8125 31.738281 -18.03125 L 31.738281 0 L 42.171875 0 L 42.171875 -25.554688 C 42.171875 -34.050781 36.359375 -38.371094 28.835938 -38.371094 C 24.214844 -38.371094 20.863281 -37.699219 17.882812 -35.390625 Z M 17.882812 -35.390625 "/></g></g></g><g fill="#0ea5e9" fill-opacity="1"><g transform="translate(281.747203, 87.420924)"><g><path d="M 3.800781 -41.722656 L 14.976562 -41.722656 L 14.976562 -52.15625 L 3.800781 -52.15625 Z M 4.246094 0 L 14.601562 0 L 14.601562 -37.253906 L 4.246094 -37.253906 Z M 4.246094 0 "/></g></g></g><g fill="#0ea5e9" fill-opacity="1"><g transform="translate(300.447699, 87.420924)"><g><path d="M 3.726562 -9.015625 C 3.726562 -3.425781 8.792969 0 17.582031 0 L 23.46875 0 L 23.46875 -9.6875 L 19.148438 -9.6875 C 15.644531 -9.6875 14.230469 -10.578125 14.230469 -13.710938 L 14.230469 -54.015625 L 3.726562 -54.015625 Z M 3.726562 -9.015625 "/></g></g></g><g fill="#0ea5e9" fill-opacity="1"><g transform="translate(327.716132, 87.420924)"><g><path d="M 3.726562 -9.015625 C 3.726562 -3.425781 8.792969 0 17.582031 0 L 23.46875 0 L 23.46875 -9.6875 L 19.148438 -9.6875 C 15.644531 -9.6875 14.230469 -10.578125 14.230469 -13.710938 L 14.230469 -54.015625 L 3.726562 -54.015625 Z M 3.726562 -9.015625 "/></g></g></g></svg>