<svg xmlns="http://www.w3.org/2000/svg" xmlns:xlink="http://www.w3.org/1999/xlink" width="500" zoomAndPan="magnify" viewBox="0 0 375 374.999991" height="500" preserveAspectRatio="xMidYMid meet" version="1.0"><defs><g/><clipPath id="0ca64dcbcb"><path d="M 346.253906 122.539062 L 374.753906 122.539062 L 374.753906 151.039062 L 346.253906 151.039062 Z M 346.253906 122.539062 " clip-rule="nonzero"/></clipPath></defs><g clip-path="url(#0ca64dcbcb)"><path fill="#0ea5e9" d="M 374.753906 136.789062 C 364.066406 138.757812 362.472656 140.351562 360.503906 151.039062 C 358.535156 140.351562 356.941406 138.757812 346.253906 136.789062 C 356.941406 134.820312 358.535156 133.226562 360.503906 122.539062 C 362.472656 133.226562 364.066406 134.820312 374.753906 136.789062 Z M 374.753906 136.789062 " fill-opacity="1" fill-rule="nonzero"/></g><g fill="#0ea5e9" fill-opacity="1"><g transform="translate(4.943697, 217.168557)"><g><path d="M 37.722656 1.449219 C 54.84375 1.449219 66.355469 -7.351562 68.386719 -21.28125 L 59.003906 -21.28125 C 57.070312 -13.636719 50.976562 -7.15625 37.625 -7.15625 C 23.3125 -7.15625 13.058594 -19.054688 13.058594 -33.953125 C 13.058594 -48.75 23.214844 -60.550781 37.433594 -60.550781 C 50.492188 -60.550781 56.488281 -54.070312 58.421875 -46.429688 L 67.804688 -46.429688 C 65.96875 -59.679688 54.652344 -69.160156 37.433594 -69.160156 C 18.183594 -69.160156 4.0625 -54.070312 3.964844 -33.953125 C 4.0625 -13.734375 18.28125 1.449219 37.722656 1.449219 Z M 37.722656 1.449219 "/></g></g></g><g fill="#0ea5e9" fill-opacity="1"><g transform="translate(67.026483, 217.168557)"><g><path d="M 18.570312 -44.300781 C 16.539062 -42.367188 15.574219 -38.59375 14.605469 -35.886719 L 13.058594 -36.464844 C 14.027344 -39.175781 15.476562 -42.558594 15.476562 -45.460938 L 15.476562 -70.128906 L 7.0625 -70.128906 L 7.0625 0 L 15.476562 0 L 15.476562 -27.082031 C 15.476562 -37.335938 23.019531 -41.882812 32.015625 -41.882812 C 40.140625 -41.882812 44.109375 -37.335938 44.109375 -27.082031 L 44.109375 0 L 52.621094 0 L 52.621094 -33.175781 C 52.621094 -44.203125 44.882812 -49.816406 34.820312 -49.816406 C 27.761719 -49.816406 22.925781 -48.652344 18.570312 -44.300781 Z M 18.570312 -44.300781 "/></g></g></g><g fill="#0ea5e9" fill-opacity="1"><g transform="translate(115.860382, 217.168557)"><g><path d="M 38.59375 -3.480469 C 40.140625 -5.125 40.914062 -8.027344 41.6875 -10.15625 L 43.332031 -9.574219 C 42.464844 -7.449219 41.109375 -4.835938 41.011719 -2.515625 L 40.914062 0 L 49.425781 0 L 49.425781 -48.363281 L 40.914062 -48.363281 L 40.914062 -20.988281 C 40.914062 -10.640625 32.597656 -6.382812 25.535156 -6.382812 C 19.054688 -6.382812 14.605469 -10.832031 14.605469 -20.988281 L 14.605469 -48.363281 L 6.191406 -48.363281 L 6.191406 -15.1875 C 6.191406 -4.257812 14.800781 1.449219 23.792969 1.449219 C 30.371094 1.449219 34.144531 0.773438 38.59375 -3.480469 Z M 38.59375 -3.480469 "/></g></g></g><g fill="#0ea5e9" fill-opacity="1"><g transform="translate(163.146972, 217.168557)"><g><path d="M 18.570312 -44.203125 C 16.539062 -42.269531 15.574219 -38.59375 14.605469 -35.984375 L 13.058594 -36.5625 C 14.027344 -39.175781 15.476562 -42.558594 15.476562 -45.363281 L 15.476562 -48.363281 L 7.0625 -48.363281 L 7.0625 0 L 15.476562 0 L 15.476562 -24.664062 C 15.476562 -38.015625 26.695312 -41.785156 38.015625 -41.785156 L 38.015625 -49.816406 C 27.566406 -49.816406 23.117188 -48.847656 18.570312 -44.203125 Z M 18.570312 -44.203125 "/></g></g></g><g fill="#0ea5e9" fill-opacity="1"><g transform="translate(195.540651, 217.168557)"><g><path d="M 3.964844 -24.472656 C 3.964844 -9.671875 15.089844 1.449219 30.277344 1.546875 C 45.171875 1.449219 51.554688 -8.609375 52.910156 -15.089844 L 44.109375 -15.089844 C 43.238281 -12.089844 39.269531 -6.578125 30.277344 -6.578125 C 19.152344 -6.578125 12.382812 -14.507812 12.382812 -24.570312 C 12.382812 -34.53125 18.378906 -41.785156 29.40625 -41.785156 C 38.402344 -41.785156 42.945312 -36.371094 43.816406 -33.371094 L 52.621094 -33.371094 C 51.457031 -39.65625 44.398438 -49.816406 29.40625 -49.910156 C 14.414062 -49.816406 3.964844 -39.367188 3.964844 -24.472656 Z M 3.964844 -24.472656 "/></g></g></g><g fill="#0ea5e9" fill-opacity="1"><g transform="translate(241.860162, 217.168557)"><g><path d="M 18.570312 -44.300781 C 16.539062 -42.367188 15.574219 -38.59375 14.605469 -35.886719 L 13.058594 -36.464844 C 14.027344 -39.175781 15.476562 -42.558594 15.476562 -45.460938 L 15.476562 -70.128906 L 7.0625 -70.128906 L 7.0625 0 L 15.476562 0 L 15.476562 -27.082031 C 15.476562 -37.335938 23.019531 -41.882812 32.015625 -41.882812 C 40.140625 -41.882812 44.109375 -37.335938 44.109375 -27.082031 L 44.109375 0 L 52.621094 0 L 52.621094 -33.175781 C 52.621094 -44.203125 44.882812 -49.816406 34.820312 -49.816406 C 27.761719 -49.816406 22.925781 -48.652344 18.570312 -44.300781 Z M 18.570312 -44.300781 "/></g></g></g><g fill="#0ea5e9" fill-opacity="1"><g transform="translate(290.694057, 217.168557)"><g><path d="M 6.289062 -58.519531 L 15.765625 -58.519531 L 15.765625 -67.710938 L 6.289062 -67.710938 Z M 6.867188 0 L 15.378906 0 L 15.378906 -48.363281 L 6.867188 -48.363281 Z M 6.867188 0 "/></g></g></g><g fill="#0ea5e9" fill-opacity="1"><g transform="translate(302.875924, 217.168557)"><g><path d="M 9.1875 -11.703125 C 9.1875 -3.480469 13.542969 0 23.601562 0 L 29.792969 0 L 29.792969 -8.027344 L 23.214844 -8.027344 C 19.054688 -8.027344 17.699219 -9.285156 17.699219 -13.25 L 17.699219 -70.128906 L 9.1875 -70.128906 Z M 9.1875 -11.703125 "/></g></g></g><g fill="#0ea5e9" fill-opacity="1"><g transform="translate(324.341679, 217.168557)"><g><path d="M 9.1875 -11.703125 C 9.1875 -3.480469 13.542969 0 23.601562 0 L 29.792969 0 L 29.792969 -8.027344 L 23.214844 -8.027344 C 19.054688 -8.027344 17.699219 -9.285156 17.699219 -13.25 L 17.699219 -70.128906 L 9.1875 -70.128906 Z M 9.1875 -11.703125 "/></g></g></g></svg>