<svg xmlns="http://www.w3.org/2000/svg" xmlns:xlink="http://www.w3.org/1999/xlink" width="500" zoomAndPan="magnify" viewBox="0 0 375 374.999991" height="500" preserveAspectRatio="xMidYMid meet" version="1.0"><defs><g/></defs><g fill="#000000" fill-opacity="1"><g transform="translate(103.419724, 221.979602)"><g><path d="M -28.941406 67.90625 C -28.78125 67.886719 -28.78125 67.886719 -28.78125 67.886719 C -28.800781 67.726562 -28.820312 67.566406 -28.820312 67.566406 C -28.21875 67.167969 -27.617188 66.765625 -27.199219 66.226562 C -26.957031 65.542969 -26.175781 65.285156 -26.117188 64.460938 C -25.375 63.882812 -25.375 63.882812 -24.996094 63.019531 C -24.855469 62.839844 -24.714844 62.660156 -24.714844 62.660156 C -24.132812 62.097656 -23.714844 61.558594 -23.453125 61.035156 C -23.171875 60.675781 -22.75 60.136719 -22.792969 59.816406 C -22.832031 59.496094 -22.550781 59.132812 -22.070312 59.074219 C -21.769531 58.875 -21.488281 58.511719 -21.371094 58.171875 C -21.390625 58.011719 -21.25 57.832031 -21.25 57.832031 C -20.789062 57.609375 -21.007812 57.152344 -20.730469 56.789062 C -20.429688 56.589844 -19.828125 56.1875 -19.40625 55.648438 C -19.207031 54.648438 -18.105469 54.347656 -17.542969 53.625 C -17.425781 53.285156 -17.445312 53.125 -17.304688 52.945312 C -16.761719 52.0625 -16.042969 51.320312 -15.339844 50.417969 C -14.898438 50.039062 -14.480469 49.5 -14.21875 48.976562 C -14.117188 48.476562 -14 48.136719 -13.878906 47.796875 C -13.71875 47.777344 -13.539062 47.914062 -13.539062 47.914062 C -13.257812 47.554688 -12.816406 47.175781 -12.558594 46.652344 C -12.4375 46.3125 -12.335938 45.8125 -12.074219 45.292969 C -11.914062 45.269531 -11.753906 45.25 -11.617188 45.070312 C -11.074219 44.191406 -10.492188 43.628906 -10.613281 42.667969 C -9.871094 42.085938 -9.652344 41.246094 -9.070312 40.683594 C -8.929688 40.503906 -8.972656 40.183594 -8.851562 39.84375 C -8.371094 39.78125 -8.449219 39.140625 -8.332031 38.800781 C -7.410156 38.359375 -6.988281 37.820312 -7.109375 36.859375 C -6.808594 36.65625 -6.6875 36.316406 -6.386719 36.117188 C -6.40625 35.957031 -6.40625 35.957031 -6.589844 35.816406 C -5.707031 35.054688 -5.164062 34.171875 -5.304688 33.050781 C -5.167969 32.871094 -5.207031 32.550781 -5.046875 32.53125 C -4.585938 32.3125 -4.625 31.992188 -4.664062 31.667969 C -3.925781 31.089844 -3.683594 30.40625 -3.605469 29.746094 C -3.484375 29.40625 -3.34375 29.226562 -3.363281 29.066406 C -3.125 28.382812 -2.683594 28.003906 -2.082031 27.601562 C -2.042969 26.621094 -1.660156 25.761719 -1.121094 24.878906 C -0.699219 24.339844 -0.621094 23.675781 -0.699219 23.035156 C 0.34375 22.253906 0.683594 21.074219 0.863281 19.910156 C 1.304688 19.53125 2.105469 18.128906 2.203125 17.628906 C 2.40625 16.625 2.445312 15.644531 2.984375 14.761719 C 3.125 14.582031 3.246094 14.242188 3.226562 14.082031 C 3.324219 13.582031 3.304688 13.421875 3.425781 13.082031 C 3.566406 12.898438 3.726562 12.878906 4.027344 12.679688 C 4.085938 11.859375 4.085938 11.859375 4.527344 11.476562 C 4.6875 11.457031 4.847656 11.4375 5.007812 11.417969 C 5.269531 10.898438 5.527344 10.375 5.949219 9.835938 C 5.929688 9.675781 5.910156 9.515625 5.871094 9.195312 C 6.148438 8.832031 6.25 8.332031 6.53125 7.972656 C 6.691406 7.953125 6.871094 8.09375 7.03125 8.070312 C 7.113281 7.410156 7.53125 6.871094 7.972656 6.488281 C 8.394531 5.949219 8.8125 5.40625 9.074219 4.886719 C 9.214844 4.707031 9.335938 4.367188 9.476562 4.1875 C 10.175781 3.285156 10.878906 2.382812 11.238281 1.363281 C 11.839844 0.960938 12.238281 0.257812 12.5 -0.261719 C 12.761719 -0.78125 12.878906 -1.121094 13.160156 -1.484375 C 13.421875 -2.003906 13.863281 -2.382812 14.140625 -2.746094 C 14.261719 -3.085938 14.382812 -3.425781 14.664062 -3.785156 C 15.082031 -4.328125 15.503906 -4.867188 15.746094 -5.550781 C 15.722656 -5.710938 15.882812 -5.730469 16.023438 -5.910156 C 16.144531 -6.25 16.445312 -6.449219 16.546875 -6.953125 C 16.664062 -7.292969 16.945312 -7.652344 17.226562 -8.011719 C 17.648438 -8.554688 18.066406 -9.09375 18.46875 -9.796875 C 18.847656 -10.65625 19.589844 -11.238281 19.96875 -12.101562 C 20.390625 -12.640625 20.671875 -13 20.972656 -13.203125 C 21.453125 -13.261719 21.914062 -13.480469 22.414062 -13.382812 C 22.894531 -13.441406 23.394531 -13.34375 23.714844 -13.382812 C 24.296875 -13.941406 24.816406 -13.683594 25.320312 -13.582031 C 25.800781 -13.644531 26.261719 -13.863281 26.582031 -13.902344 C 27.0625 -13.964844 27.402344 -13.84375 27.882812 -13.902344 C 28.203125 -13.945312 28.683594 -14.003906 29.164062 -14.0625 C 29.484375 -14.105469 29.984375 -14.003906 30.304688 -14.042969 C 31.109375 -14.144531 31.75 -14.222656 32.570312 -14.164062 C 33.230469 -14.085938 33.730469 -13.984375 34.332031 -14.382812 C 34.492188 -14.40625 34.652344 -14.425781 34.652344 -14.425781 C 35.976562 -14.265625 37.277344 -14.265625 38.558594 -14.425781 C 38.878906 -14.464844 39.519531 -14.546875 39.980469 -14.765625 C 40.460938 -14.824219 40.964844 -14.726562 41.484375 -14.464844 C 42.105469 -14.707031 42.746094 -14.785156 43.527344 -15.046875 C 43.6875 -15.066406 44.046875 -14.785156 44.488281 -15.167969 C 44.488281 -15.167969 44.648438 -15.1875 44.648438 -15.1875 C 45.328125 -14.945312 46.089844 -15.367188 46.753906 -15.285156 C 47.074219 -15.328125 47.375 -15.527344 47.714844 -15.40625 C 48.835938 -15.546875 50.136719 -15.546875 51.238281 -15.847656 C 52.480469 -16.328125 53.582031 -16.628906 54.863281 -16.789062 C 55.183594 -16.828125 55.527344 -16.710938 55.988281 -16.929688 C 56.308594 -16.96875 56.808594 -16.871094 57.289062 -16.929688 C 55.804688 -14.464844 54.464844 -12.183594 53.140625 -9.738281 C 52.863281 -9.378906 52.582031 -9.015625 52.480469 -8.515625 C 52.339844 -8.335938 52.199219 -8.15625 52.0625 -7.976562 C 51.820312 -7.292969 51.238281 -6.734375 51 -6.050781 C 50.640625 -5.03125 50.117188 -3.988281 49.4375 -2.925781 C 48.355469 -1.164062 47.472656 0.898438 46.574219 2.800781 C 46.03125 3.683594 45.832031 4.683594 45.109375 5.425781 C 45.109375 5.425781 44.96875 5.605469 44.96875 5.605469 C 45.011719 5.925781 44.871094 6.105469 44.910156 6.425781 C 44.628906 6.789062 44.328125 6.988281 44.191406 7.167969 C 44.089844 7.667969 43.949219 7.847656 43.828125 8.191406 C 43.289062 9.070312 42.886719 9.773438 42.507812 10.632812 C 42.367188 10.8125 42.40625 11.136719 42.285156 11.476562 C 42.167969 11.816406 42.207031 12.136719 42.066406 12.316406 C 41.207031 13.238281 41.023438 14.398438 40.503906 15.441406 C 40.523438 15.601562 40.523438 15.601562 40.523438 15.601562 C 40.765625 16.222656 40.324219 16.601562 40.203125 16.945312 C 40.0625 17.125 39.921875 17.304688 39.804688 17.644531 C 39.582031 18.488281 39.34375 19.167969 38.761719 19.726562 C 38.683594 20.390625 38.582031 20.890625 38.359375 21.730469 C 38.359375 21.730469 38.222656 21.910156 38.0625 21.933594 C 38.121094 22.414062 38.019531 22.914062 37.902344 23.253906 C 37.621094 23.613281 37.660156 23.933594 37.539062 24.277344 C 37.621094 24.917969 37.359375 25.4375 36.9375 25.976562 C 37.140625 26.277344 37.019531 26.621094 36.917969 27.121094 C 36.777344 27.300781 36.800781 27.460938 36.679688 27.800781 C 36.597656 28.460938 36.660156 28.941406 36.578125 29.605469 C 36.660156 30.246094 36.417969 30.925781 36.839844 31.6875 C 36.839844 31.6875 36.859375 31.847656 36.859375 31.847656 C 36.738281 32.1875 36.757812 32.347656 36.960938 32.648438 C 36.980469 32.808594 36.859375 33.148438 36.859375 33.148438 C 37.21875 33.429688 37.421875 33.730469 37.621094 34.03125 C 38.140625 34.292969 38.480469 34.410156 38.84375 34.691406 C 39.003906 34.671875 38.984375 34.511719 39.144531 34.492188 C 39.324219 34.632812 39.503906 34.773438 39.703125 35.074219 C 40.003906 34.871094 40.324219 34.832031 40.644531 34.792969 C 41.144531 34.890625 41.648438 34.992188 42.128906 34.933594 C 42.589844 34.710938 42.890625 34.511719 43.210938 34.472656 C 44.613281 33.96875 45.8125 33.167969 47.214844 32.667969 C 47.515625 32.46875 47.816406 32.265625 48.097656 31.90625 C 48.617188 30.867188 49.71875 30.566406 50.640625 30.125 C 50.640625 30.125 50.800781 30.105469 50.800781 30.105469 C 51.261719 29.882812 51.542969 29.523438 52.003906 29.300781 C 52.144531 29.121094 52.445312 28.921875 52.421875 28.761719 C 52.542969 28.421875 52.84375 28.222656 53.164062 28.179688 C 53.484375 28.140625 53.605469 27.800781 53.726562 27.460938 C 53.867188 27.28125 54.007812 27.097656 54.144531 26.917969 C 54.464844 26.878906 54.628906 26.859375 54.605469 26.699219 C 55.386719 26.4375 55.628906 25.757812 56.230469 25.355469 C 56.671875 24.976562 57.089844 24.433594 57.691406 24.035156 C 57.773438 23.371094 58.03125 22.851562 58.632812 22.453125 C 58.914062 22.089844 59.171875 21.570312 59.496094 21.53125 C 60.136719 21.449219 60.054688 20.808594 60.515625 20.589844 C 60.65625 20.410156 60.957031 20.207031 60.917969 19.886719 C 61.277344 18.867188 61.636719 17.84375 62.699219 17.222656 C 62.839844 17.042969 62.820312 16.882812 62.800781 16.722656 C 63.097656 16.523438 63.238281 16.339844 63.378906 16.160156 C 63.539062 16.140625 63.839844 15.941406 64 15.921875 C 64.121094 15.582031 64.082031 15.261719 64.222656 15.078125 C 64.902344 14.019531 65.601562 13.117188 66.304688 12.214844 C 66.40625 11.714844 66.324219 11.074219 66.925781 10.671875 C 66.925781 10.671875 66.886719 10.351562 66.84375 10.03125 C 66.265625 10.59375 65.824219 10.972656 65.222656 11.375 C 65.101562 11.714844 64.703125 12.414062 64.242188 12.636719 C 64.261719 14.097656 63.960938 14.296875 62.699219 14.617188 C 61.71875 15.882812 60.394531 17.023438 59.433594 18.445312 C 58.210938 19.085938 57.53125 20.148438 56.507812 21.089844 C 56.289062 21.929688 56.289062 21.929688 55.648438 22.011719 C 55.667969 22.171875 55.367188 22.371094 55.40625 22.691406 C 54.785156 22.933594 54.304688 22.992188 53.867188 23.375 C 53.683594 24.535156 52.421875 24.855469 51.882812 25.738281 C 51.421875 25.957031 50.941406 26.015625 50.480469 26.238281 C 50.539062 26.71875 50.261719 27.078125 49.78125 27.140625 C 49.320312 27.359375 49.019531 27.558594 48.71875 27.761719 C 48.578125 27.941406 48.4375 28.121094 48.277344 28.140625 C 47.375 28.742188 46.472656 29.34375 45.914062 30.0625 C 45.734375 29.925781 45.414062 29.964844 45.234375 29.824219 C 44.632812 30.222656 44.089844 31.105469 43.230469 30.726562 C 42.929688 30.925781 42.628906 31.125 42.308594 31.167969 C 41.765625 30.746094 41.226562 30.324219 40.707031 30.066406 C 40.484375 29.605469 40.285156 29.304688 40.085938 29.003906 C 40.222656 28.824219 40.222656 28.824219 40.222656 28.824219 C 40.164062 28.34375 40.105469 27.859375 40.0625 27.539062 C 40.382812 26.199219 40.382812 24.894531 40.886719 23.695312 C 40.867188 23.535156 41.027344 23.515625 40.984375 23.195312 C 41.085938 22.691406 41.144531 21.871094 41.425781 21.511719 C 41.945312 20.46875 41.964844 19.328125 42.328125 18.304688 C 42.726562 17.605469 42.929688 16.601562 43.148438 15.761719 C 43.429688 15.402344 43.550781 15.0625 43.828125 14.699219 C 44.109375 14.339844 44.390625 13.980469 44.652344 13.457031 C 44.652344 13.457031 44.628906 13.296875 44.609375 13.136719 C 44.429688 12.996094 44.429688 12.996094 44.25 12.855469 C 44.691406 12.476562 44.972656 12.117188 45.390625 11.574219 C 45.671875 11.214844 45.59375 10.574219 45.851562 10.054688 C 45.972656 9.710938 46.253906 9.351562 46.394531 9.171875 C 46.671875 8.8125 46.632812 8.492188 46.433594 8.191406 C 46.832031 7.488281 47.234375 6.789062 47.472656 6.105469 C 47.875 5.40625 48.296875 4.863281 48.695312 4.164062 C 48.855469 4.144531 48.835938 3.984375 48.816406 3.824219 C 48.9375 3.484375 49.058594 3.140625 49.316406 2.621094 C 49.699219 1.757812 50.378906 0.699219 50.738281 -0.324219 C 50.878906 -0.503906 51.160156 -0.863281 51.300781 -1.042969 C 51.300781 -1.042969 51.460938 -1.066406 51.441406 -1.226562 C 51.582031 -1.40625 51.539062 -1.726562 51.5 -2.046875 C 51.960938 -2.265625 52.242188 -2.628906 52.523438 -2.988281 C 52.5 -3.148438 52.480469 -3.308594 52.460938 -3.46875 C 53.28125 -4.710938 53.785156 -5.914062 54.445312 -7.132812 C 54.585938 -7.316406 54.703125 -7.65625 54.683594 -7.816406 C 54.824219 -7.996094 54.804688 -8.15625 54.945312 -8.335938 C 55.347656 -9.039062 55.566406 -9.878906 56.128906 -10.601562 C 56.128906 -10.601562 56.246094 -10.941406 56.226562 -11.101562 C 56.507812 -11.460938 56.609375 -11.960938 57.070312 -12.183594 C 57.527344 -12.402344 57.628906 -12.902344 57.75 -13.246094 C 57.988281 -13.925781 58.390625 -14.625 58.992188 -15.027344 C 58.929688 -15.507812 59.070312 -15.6875 59.191406 -16.027344 C 59.332031 -16.207031 59.632812 -16.410156 59.953125 -16.449219 C 60.113281 -17.769531 61.355469 -18.253906 62.257812 -18.851562 C 62.898438 -18.933594 63.539062 -19.011719 64.019531 -19.074219 C 64.320312 -19.273438 64.601562 -19.632812 64.921875 -19.675781 C 65.863281 -19.957031 66.804688 -20.234375 67.722656 -20.675781 C 68.023438 -20.875 68.324219 -21.078125 68.804688 -21.136719 C 68.804688 -21.136719 68.785156 -21.296875 68.785156 -21.296875 C 68.945312 -21.316406 69.265625 -21.359375 69.585938 -21.398438 C 69.566406 -21.558594 69.726562 -21.578125 69.726562 -21.578125 C 70.488281 -22 71.128906 -22.078125 71.730469 -22.480469 C 72.011719 -22.839844 72.511719 -22.738281 72.792969 -23.101562 C 73.234375 -23.480469 73.535156 -23.679688 74.015625 -23.742188 C 74.175781 -23.761719 74.335938 -23.78125 74.316406 -23.941406 C 74.875 -24.664062 75.675781 -24.761719 76.257812 -25.324219 C 76.71875 -25.542969 77 -25.90625 77.320312 -25.945312 C 78.101562 -26.207031 78.519531 -26.746094 79.121094 -27.148438 C 79.863281 -27.726562 80.402344 -28.609375 81.207031 -28.710938 C 81.304688 -29.210938 81.425781 -29.550781 81.386719 -29.871094 C 81.824219 -30.253906 82.285156 -30.472656 82.585938 -30.671875 C 82.886719 -30.875 83.148438 -31.394531 83.308594 -31.414062 C 83.949219 -31.496094 83.910156 -31.816406 84.167969 -32.335938 C 85.089844 -32.777344 85.351562 -33.296875 85.550781 -34.296875 C 85.832031 -34.660156 86.273438 -35.039062 86.554688 -35.402344 C 86.554688 -35.402344 86.554688 -35.402344 86.574219 -35.242188 C 86.875 -35.441406 87.035156 -35.460938 87.195312 -35.480469 C 86.992188 -35.78125 86.792969 -36.082031 86.433594 -36.363281 C 86.992188 -37.082031 86.992188 -37.082031 86.453125 -37.503906 C 85.292969 -36.382812 84.109375 -35.421875 83.46875 -34.039062 C 83.148438 -34 83.007812 -33.816406 82.6875 -33.777344 C 81.527344 -32.65625 80.382812 -31.375 78.800781 -31.011719 C 78.679688 -30.671875 78.539062 -30.492188 78.421875 -30.152344 C 77.917969 -30.253906 77.621094 -30.050781 77.179688 -29.671875 C 76.578125 -29.269531 75.855469 -28.527344 75.074219 -28.269531 C 74.636719 -27.886719 74.152344 -27.828125 73.714844 -27.449219 C 72.972656 -26.867188 72.210938 -26.445312 71.289062 -26.003906 C 70.96875 -25.964844 70.527344 -25.585938 70.25 -25.222656 C 69.929688 -25.183594 69.308594 -24.941406 68.984375 -24.902344 C 68.546875 -24.523438 68.085938 -24.300781 67.585938 -24.402344 C 67.144531 -24.023438 66.523438 -23.78125 66.0625 -23.5625 C 65.421875 -23.480469 65.121094 -23.28125 64.359375 -22.859375 C 64.339844 -23.019531 64.019531 -22.980469 63.679688 -23.101562 C 64.4375 -24.824219 65.378906 -26.40625 66.320312 -27.988281 C 66.480469 -28.007812 66.621094 -28.1875 66.78125 -28.207031 C 66.78125 -28.207031 66.761719 -28.367188 66.601562 -28.347656 C 66.882812 -28.707031 67.164062 -29.070312 67.445312 -29.429688 C 67.964844 -30.472656 68.644531 -31.535156 69.1875 -32.414062 C 69.144531 -32.734375 69.125 -32.894531 69.105469 -33.054688 C 69.40625 -33.257812 69.726562 -33.296875 70.027344 -33.496094 C 70.289062 -34.015625 70.707031 -34.558594 70.949219 -35.238281 C 71.410156 -36.761719 72.75 -37.742188 73.390625 -39.125 C 73.511719 -39.464844 73.632812 -39.808594 73.753906 -40.148438 C 73.894531 -40.328125 74.054688 -40.347656 74.355469 -40.546875 C 74.472656 -40.886719 74.433594 -41.207031 74.734375 -41.410156 C 74.972656 -42.089844 75.375 -42.792969 75.777344 -43.492188 C 75.914062 -43.671875 76.054688 -43.851562 76.195312 -44.035156 C 76.796875 -44.433594 77.179688 -45.296875 77.757812 -45.855469 C 77.898438 -46.035156 78.019531 -46.378906 78.140625 -46.71875 C 78.417969 -47.078125 78.679688 -47.597656 78.78125 -48.101562 C 78.941406 -48.121094 79.101562 -48.140625 79.261719 -48.160156 C 79.382812 -48.5 79.519531 -48.679688 79.660156 -48.859375 C 80.183594 -49.902344 80.882812 -50.804688 81.425781 -51.6875 C 81.5625 -51.867188 81.523438 -52.1875 81.824219 -52.386719 C 82.386719 -53.109375 82.765625 -53.96875 83.007812 -54.652344 C 83.46875 -54.871094 83.90625 -55.25 84.207031 -55.453125 C 84.449219 -56.132812 84.1875 -56.914062 84.789062 -57.316406 C 85.230469 -57.695312 85.871094 -57.777344 85.929688 -58.597656 C 85.929688 -58.597656 86.089844 -58.617188 86.230469 -58.796875 C 86.371094 -58.976562 86.492188 -59.316406 86.792969 -59.519531 C 86.933594 -59.699219 87.234375 -59.898438 87.351562 -60.238281 C 87.753906 -60.941406 88.152344 -61.640625 88.714844 -62.363281 C 88.996094 -62.722656 89.277344 -63.082031 89.554688 -63.445312 C 89.996094 -63.824219 90.4375 -64.207031 90.859375 -64.746094 C 90.976562 -65.085938 91.257812 -65.449219 91.519531 -65.96875 C 92.058594 -66.851562 92.398438 -68.03125 93.101562 -68.933594 C 93.960938 -69.855469 94.464844 -71.058594 95.304688 -72.136719 C 95.726562 -72.679688 96.144531 -73.21875 96.566406 -73.761719 C 96.847656 -74.121094 96.808594 -74.441406 96.945312 -74.621094 C 97.246094 -74.824219 97.386719 -75.003906 97.527344 -75.183594 C 98.089844 -75.90625 98.46875 -76.765625 99.03125 -77.488281 C 99.289062 -78.007812 100.050781 -78.429688 100.152344 -78.929688 C 100.492188 -80.109375 101.375 -80.871094 102.074219 -81.773438 C 102.476562 -82.476562 103.214844 -83.054688 103.4375 -83.898438 C 103.957031 -84.9375 104.859375 -85.539062 105.199219 -86.722656 C 105.820312 -86.960938 105.738281 -87.601562 105.839844 -88.105469 C 106.300781 -88.324219 106.601562 -88.523438 107.0625 -88.746094 C 107.203125 -88.925781 107.324219 -89.265625 107.460938 -89.445312 C 107.742188 -89.808594 108.183594 -90.1875 108.304688 -90.527344 C 108.425781 -90.867188 108.703125 -91.230469 108.984375 -91.589844 C 109.125 -91.769531 109.226562 -92.269531 109.527344 -92.472656 C 109.964844 -92.851562 110.246094 -93.210938 110.507812 -93.734375 C 111.066406 -94.453125 111.46875 -95.15625 112.050781 -95.714844 C 112.609375 -96.4375 113.03125 -96.976562 113.589844 -97.699219 C 113.710938 -98.039062 114.03125 -98.082031 114.171875 -98.261719 C 114.574219 -98.960938 114.613281 -99.941406 115.734375 -100.082031 C 115.714844 -100.242188 115.714844 -100.242188 115.855469 -100.425781 C 115.953125 -100.925781 116.054688 -101.425781 116.65625 -101.824219 C 116.816406 -101.847656 116.9375 -102.1875 116.917969 -102.347656 C 117.296875 -103.207031 118.058594 -103.628906 118.4375 -104.492188 C 118.578125 -104.671875 119.058594 -104.730469 119.519531 -104.953125 C 119.902344 -105.8125 120.261719 -106.835938 120.640625 -107.695312 C 120.960938 -107.734375 121.121094 -107.753906 121.304688 -107.617188 C 121.421875 -107.957031 121.382812 -108.277344 121.363281 -108.4375 C 121.804688 -108.816406 122.085938 -109.179688 122.382812 -109.378906 C 122.945312 -110.097656 123.324219 -110.960938 123.90625 -111.523438 C 124.066406 -111.542969 124.046875 -111.703125 124.046875 -111.703125 C 124.507812 -111.921875 124.828125 -111.960938 125.128906 -112.164062 C 125.128906 -112.164062 125.109375 -112.324219 125.089844 -112.484375 C 125.25 -112.503906 125.429688 -112.363281 125.589844 -112.382812 C 126.03125 -112.765625 126.289062 -113.285156 126.589844 -113.484375 C 126.851562 -114.003906 126.953125 -114.507812 127.25 -114.707031 C 127.851562 -115.109375 127.972656 -115.449219 128.054688 -116.109375 C 129.15625 -116.410156 129.515625 -117.429688 130.074219 -118.152344 C 130.796875 -118.894531 131.699219 -119.496094 132.601562 -120.09375 C 132.859375 -120.617188 133.121094 -121.136719 133.402344 -121.496094 C 133.339844 -121.980469 133.441406 -122.480469 133.382812 -122.960938 C 133.199219 -123.101562 133.019531 -123.242188 133 -123.402344 C 132.960938 -123.722656 133.101562 -123.902344 133.058594 -124.222656 C 132.417969 -124.140625 131.9375 -124.082031 131.296875 -124 C 131.039062 -123.480469 130.554688 -123.421875 130.074219 -123.359375 C 129.9375 -123.179688 129.816406 -122.839844 129.675781 -122.660156 C 128.792969 -121.898438 128.09375 -120.996094 127.230469 -120.074219 C 126.789062 -119.695312 126.652344 -119.515625 126.390625 -118.992188 C 125.96875 -118.453125 125.390625 -117.890625 124.949219 -117.511719 C 124.265625 -116.449219 123.40625 -115.527344 122.726562 -114.464844 C 122.605469 -114.125 122.484375 -113.785156 122.363281 -113.445312 C 122.0625 -113.246094 121.761719 -113.042969 121.484375 -112.683594 C 121.5625 -112.042969 120.941406 -111.800781 120.523438 -111.261719 C 120.542969 -111.101562 120.402344 -110.921875 120.421875 -110.761719 C 120.140625 -110.398438 120 -110.21875 119.71875 -109.859375 C 119.460938 -109.339844 119.039062 -108.796875 118.597656 -108.417969 C 117.996094 -108.015625 117.578125 -107.476562 117.335938 -106.792969 C 117.035156 -106.59375 116.917969 -106.253906 116.796875 -105.914062 C 116.535156 -105.390625 116.09375 -105.011719 115.515625 -104.449219 C 115.414062 -103.949219 115.414062 -103.949219 114.8125 -103.546875 C 114.511719 -103.347656 114.230469 -102.988281 114.09375 -102.808594 C 113.8125 -102.445312 113.851562 -102.125 113.550781 -101.925781 C 112.992188 -101.203125 112.648438 -100.023438 111.730469 -99.582031 C 111.730469 -99.582031 111.75 -99.421875 111.75 -99.421875 C 111.628906 -99.082031 111.648438 -98.921875 111.648438 -98.921875 C 111.085938 -98.199219 110.648438 -97.820312 110.085938 -97.097656 C 109.085938 -95.996094 108.101562 -94.734375 107.300781 -93.332031 C 106.863281 -92.953125 106.582031 -92.589844 106.460938 -92.25 C 106.082031 -91.390625 105.5 -90.828125 104.9375 -90.105469 C 104.65625 -89.746094 104.199219 -89.527344 103.9375 -89.003906 C 103.535156 -88.304688 103.15625 -87.441406 102.414062 -86.863281 C 102.59375 -86.722656 102.613281 -86.5625 102.636719 -86.402344 C 102.496094 -86.222656 102.195312 -86.019531 102.054688 -85.839844 C 101.234375 -84.597656 100.25 -83.335938 99.589844 -82.113281 C 99.011719 -81.554688 98.609375 -80.851562 98.1875 -80.3125 C 97.609375 -79.75 97.207031 -79.050781 96.964844 -78.367188 C 96.6875 -78.007812 96.585938 -77.507812 96.144531 -77.125 C 95.726562 -76.585938 95.304688 -76.042969 94.882812 -75.503906 C 94.464844 -74.960938 94.34375 -74.621094 93.921875 -74.082031 C 93.101562 -72.839844 92.421875 -71.777344 91.597656 -70.535156 C 90.757812 -69.453125 90.078125 -68.390625 89.394531 -67.332031 C 88.976562 -66.789062 88.714844 -66.269531 88.273438 -65.886719 C 88.152344 -65.546875 88.035156 -65.207031 87.894531 -65.027344 C 86.871094 -64.085938 86.210938 -62.863281 85.390625 -61.621094 C 85.269531 -61.28125 84.96875 -61.082031 84.6875 -60.71875 C 84.289062 -60.019531 83.726562 -59.296875 83.347656 -58.4375 C 83.1875 -58.417969 83.1875 -58.417969 83.1875 -58.417969 C 83.066406 -58.074219 83.105469 -57.753906 82.964844 -57.574219 C 82.6875 -57.214844 82.40625 -56.855469 82.125 -56.492188 C 81.84375 -56.132812 81.746094 -55.632812 81.304688 -55.25 C 80.882812 -54.710938 80.664062 -53.867188 79.863281 -53.769531 C 79.742188 -53.429688 79.761719 -53.269531 79.621094 -53.085938 C 79.21875 -52.386719 78.839844 -51.523438 78.441406 -50.824219 C 78.160156 -50.464844 77.898438 -49.941406 77.457031 -49.5625 C 76.898438 -48.839844 76.496094 -48.140625 75.9375 -47.417969 C 75.253906 -46.355469 74.433594 -45.113281 73.59375 -44.035156 C 73.453125 -43.851562 73.492188 -43.53125 73.351562 -43.351562 C 73.089844 -42.832031 72.851562 -42.148438 72.25 -41.75 C 72.011719 -41.070312 72.011719 -41.070312 71.589844 -40.527344 C 71.609375 -40.367188 71.46875 -40.1875 71.488281 -40.027344 C 71.089844 -39.324219 70.507812 -38.765625 70.105469 -38.0625 C 69.847656 -37.542969 69.425781 -37.003906 69.003906 -36.460938 C 68.867188 -36.28125 68.90625 -35.960938 68.765625 -35.78125 C 68.222656 -34.898438 67.664062 -34.175781 67.261719 -33.476562 C 66.722656 -32.59375 66.320312 -31.894531 65.941406 -31.03125 C 65.660156 -30.671875 65.539062 -30.332031 65.261719 -29.972656 C 64.839844 -29.429688 64.257812 -28.867188 64.019531 -28.1875 C 63.757812 -27.667969 63.457031 -27.464844 63.175781 -27.105469 C 62.816406 -26.085938 62.117188 -25.183594 61.554688 -24.460938 C 61.292969 -23.941406 60.992188 -23.742188 60.914062 -23.078125 C 60.8125 -22.578125 60.394531 -22.039062 59.792969 -21.636719 C 59.332031 -21.417969 58.871094 -21.195312 58.230469 -21.117188 C 57.769531 -20.894531 57.289062 -20.835938 56.828125 -20.617188 C 56.007812 -20.675781 54.402344 -20.476562 53.183594 -19.835938 C 52.839844 -19.953125 52.660156 -20.09375 52.5 -20.074219 C 52.359375 -19.894531 52.039062 -19.855469 52.039062 -19.855469 C 51.078125 -19.734375 50.417969 -19.8125 49.636719 -19.554688 C 49.476562 -19.535156 49.277344 -19.832031 49.253906 -19.996094 C 49.117188 -19.8125 49.117188 -19.8125 48.996094 -19.472656 C 48.675781 -19.433594 48.355469 -19.394531 48.035156 -19.351562 C 47.234375 -19.253906 46.589844 -19.171875 45.789062 -19.074219 C 45.46875 -19.03125 44.988281 -18.972656 44.628906 -19.253906 C 44.328125 -19.050781 43.867188 -18.832031 43.546875 -18.792969 C 42.886719 -18.871094 42.425781 -18.652344 41.785156 -18.570312 C 41.625 -18.550781 41.464844 -18.53125 41.304688 -18.511719 C 40.824219 -18.453125 40.34375 -18.390625 39.859375 -18.332031 C 39.339844 -18.589844 39.039062 -18.390625 38.558594 -18.332031 C 37.617188 -18.050781 36.777344 -18.269531 35.953125 -18.332031 C 35.132812 -18.390625 34.492188 -18.3125 33.691406 -18.210938 C 32.570312 -18.070312 31.609375 -17.949219 30.445312 -18.128906 C 29.984375 -17.910156 29.984375 -17.910156 29.324219 -17.988281 C 28.664062 -18.070312 27.824219 -18.289062 27.222656 -17.890625 C 26.742188 -17.828125 26.441406 -17.628906 25.941406 -17.730469 C 25.480469 -17.507812 24.957031 -17.769531 24.316406 -17.6875 C 24.617188 -17.890625 24.777344 -17.910156 25.078125 -18.109375 C 24.757812 -18.070312 24.578125 -18.210938 24.417969 -18.191406 C 24.097656 -18.148438 23.9375 -18.128906 23.636719 -17.929688 C 23.917969 -18.289062 23.894531 -18.449219 24.015625 -18.789062 C 24.175781 -18.8125 24.355469 -18.671875 24.515625 -18.691406 C 24.617188 -19.191406 24.578125 -19.511719 24.835938 -20.03125 C 24.835938 -20.03125 25.136719 -20.234375 25.277344 -20.414062 C 25.519531 -21.09375 25.519531 -21.09375 26.097656 -21.65625 C 26.078125 -21.816406 26.21875 -21.996094 26.359375 -22.175781 C 26.761719 -22.878906 27.320312 -23.597656 27.5625 -24.28125 C 27.703125 -24.460938 27.84375 -24.640625 27.84375 -24.640625 C 28.683594 -25.722656 29.542969 -26.644531 30.207031 -27.867188 C 31.027344 -29.105469 31.648438 -30.648438 32.648438 -31.75 C 32.808594 -31.773438 32.789062 -31.933594 32.789062 -31.933594 C 33.050781 -32.453125 33.492188 -32.832031 33.75 -33.355469 C 34.011719 -33.875 34.25 -34.554688 34.53125 -34.917969 C 34.8125 -35.277344 34.933594 -35.617188 35.03125 -36.117188 C 35.191406 -36.136719 35.351562 -36.160156 35.671875 -36.199219 C 35.652344 -36.359375 35.632812 -36.519531 35.753906 -36.859375 C 35.734375 -37.019531 36.195312 -37.242188 36.152344 -37.5625 C 35.933594 -38.023438 36.613281 -37.78125 36.734375 -38.121094 C 36.976562 -38.804688 37.535156 -39.523438 37.957031 -40.066406 C 38.359375 -40.765625 38.617188 -41.285156 38.839844 -42.128906 C 39.78125 -42.410156 39.800781 -43.550781 40.5625 -43.972656 C 40.679688 -44.3125 40.640625 -44.632812 40.621094 -44.792969 C 42.183594 -46.617188 43.363281 -48.878906 44.425781 -50.800781 C 45.328125 -51.402344 45.707031 -52.265625 46.269531 -52.984375 C 46.25 -53.144531 46.25 -53.144531 46.070312 -53.285156 C 46.347656 -53.648438 46.648438 -53.847656 46.789062 -54.027344 C 46.910156 -54.367188 47.03125 -54.707031 47.332031 -54.910156 C 47.992188 -56.128906 48.691406 -57.03125 49.515625 -58.273438 C 49.914062 -58.976562 50.316406 -59.675781 50.875 -60.398438 C 51.4375 -61.117188 51.976562 -62 52.039062 -62.820312 C 52.617188 -63.382812 53.058594 -63.761719 53.320312 -64.285156 C 53.558594 -64.964844 53.960938 -65.664062 54.5625 -66.066406 C 55.28125 -66.808594 55.664062 -67.667969 55.882812 -68.511719 C 56.164062 -68.871094 56.285156 -69.210938 56.542969 -69.730469 C 56.703125 -69.753906 57.023438 -69.792969 57.324219 -69.992188 C 57.304688 -70.152344 57.445312 -70.332031 57.585938 -70.511719 C 57.707031 -70.855469 57.664062 -71.175781 57.964844 -71.375 C 58.527344 -72.097656 58.90625 -72.957031 59.488281 -73.519531 C 59.769531 -73.878906 60.210938 -74.257812 60.128906 -74.902344 C 60.570312 -75.28125 60.671875 -75.78125 60.929688 -76.304688 C 60.929688 -76.304688 61.25 -76.34375 61.25 -76.34375 C 61.511719 -76.863281 61.8125 -77.0625 62.09375 -77.425781 C 62.933594 -78.507812 63.59375 -79.726562 64.277344 -80.789062 C 64.535156 -81.3125 64.65625 -81.652344 65.117188 -81.871094 C 65.097656 -82.03125 64.917969 -82.171875 64.894531 -82.332031 C 65.21875 -82.371094 65.515625 -82.574219 65.65625 -82.753906 C 66.058594 -83.453125 66.296875 -84.136719 66.699219 -84.835938 C 67.320312 -85.078125 67.582031 -85.597656 67.679688 -86.097656 C 67.941406 -86.621094 68.363281 -87.160156 67.960938 -87.761719 C 68.101562 -87.941406 68.261719 -87.960938 68.402344 -88.140625 C 68.582031 -88 68.582031 -88 68.742188 -88.023438 C 68.902344 -88.042969 68.902344 -88.042969 69.0625 -88.0625 C 69.683594 -89.605469 70.085938 -90.304688 70.542969 -90.527344 C 70.945312 -91.226562 71.386719 -91.609375 71.644531 -92.128906 C 71.746094 -92.628906 72.367188 -92.871094 72.46875 -93.371094 C 72.726562 -93.890625 73.167969 -94.273438 73.449219 -94.632812 C 73.730469 -94.992188 73.667969 -95.472656 73.789062 -95.8125 C 74.109375 -95.855469 74.089844 -96.015625 74.25 -96.035156 C 74.410156 -96.054688 74.570312 -96.074219 74.730469 -96.09375 C 75.070312 -97.277344 75.773438 -98.179688 76.652344 -98.9375 C 76.773438 -99.28125 76.734375 -99.601562 77.035156 -99.800781 C 77.9375 -100.402344 78.136719 -101.402344 78.835938 -102.304688 C 79.277344 -102.683594 79.679688 -103.386719 80.097656 -103.925781 C 80.820312 -104.667969 81.519531 -105.570312 82.0625 -106.453125 C 82.34375 -106.8125 82.460938 -107.152344 82.582031 -107.492188 C 83.101562 -108.535156 83.804688 -109.4375 83.664062 -110.558594 C 83.664062 -110.558594 83.644531 -110.71875 83.644531 -110.71875 C 83.742188 -111.21875 83.703125 -111.539062 83.484375 -112 C 83.003906 -111.941406 82.523438 -111.878906 82.042969 -111.820312 C 81.902344 -111.640625 81.621094 -111.277344 81.339844 -110.917969 C 81.179688 -110.898438 81.039062 -110.71875 80.898438 -110.539062 C 80.621094 -110.175781 80.320312 -109.976562 80.199219 -109.636719 C 79.777344 -109.09375 79.539062 -108.414062 78.957031 -107.851562 C 78.976562 -107.691406 78.835938 -107.511719 78.855469 -107.351562 C 78.617188 -106.671875 78.195312 -106.128906 77.574219 -105.890625 C 77.496094 -105.230469 77.394531 -104.726562 77.292969 -104.226562 C 76.210938 -103.765625 76.050781 -102.445312 75.3125 -101.863281 C 75.351562 -101.542969 75.371094 -101.382812 75.230469 -101.203125 C 74.289062 -100.921875 74.089844 -99.921875 73.347656 -99.339844 C 73.527344 -99.199219 73.527344 -99.199219 73.710938 -99.058594 C 73.570312 -98.878906 73.429688 -98.699219 73.269531 -98.679688 C 73.109375 -98.660156 72.949219 -98.636719 72.789062 -98.617188 C 72.6875 -98.117188 72.425781 -97.597656 71.988281 -97.214844 C 71.6875 -97.015625 71.566406 -96.675781 71.445312 -96.335938 C 71.285156 -96.316406 71.484375 -96.015625 71.34375 -95.835938 C 71.066406 -95.472656 70.644531 -94.933594 70.363281 -94.570312 C 70.363281 -94.570312 70.203125 -94.550781 70.203125 -94.550781 C 69.964844 -93.871094 69.5625 -93.167969 69.023438 -92.289062 C 68.480469 -91.40625 67.28125 -90.605469 67.140625 -89.125 C 66.699219 -88.742188 66.238281 -88.523438 66.117188 -88.183594 C 65.296875 -86.941406 64.636719 -85.71875 63.773438 -84.796875 C 63.632812 -84.617188 63.65625 -84.457031 63.515625 -84.277344 C 63.132812 -83.414062 62.734375 -82.714844 62.332031 -82.011719 C 61.632812 -81.109375 61.089844 -80.230469 60.390625 -79.328125 C 60.25 -79.148438 59.949219 -78.945312 59.988281 -78.625 C 59.890625 -78.125 59.429688 -77.90625 59.148438 -77.542969 C 58.886719 -77.023438 58.144531 -76.441406 58.066406 -75.78125 C 57.945312 -75.441406 57.847656 -74.941406 57.546875 -74.742188 C 56.804688 -74.160156 56.722656 -73.5 56.144531 -72.9375 C 55.863281 -72.578125 55.761719 -72.074219 55.480469 -71.714844 C 55.363281 -71.375 55.222656 -71.195312 54.941406 -70.835938 C 54.660156 -70.472656 54.402344 -69.953125 53.960938 -69.570312 C 53.699219 -69.050781 53.257812 -68.671875 53.359375 -67.871094 C 53.359375 -67.871094 53.359375 -67.871094 53.21875 -67.6875 C 53.058594 -67.667969 53.039062 -67.828125 52.878906 -67.808594 C 52.738281 -67.628906 52.4375 -67.429688 52.457031 -67.269531 C 52.335938 -66.929688 52.21875 -66.585938 52.097656 -66.246094 C 51.996094 -65.746094 51.195312 -65.644531 51.097656 -65.144531 C 51.117188 -64.984375 50.957031 -64.964844 50.65625 -64.765625 C 50.574219 -64.101562 50.175781 -63.402344 49.59375 -62.839844 C 49.171875 -62.300781 48.613281 -61.578125 48.390625 -60.738281 C 48.113281 -60.378906 47.992188 -60.035156 47.691406 -59.835938 C 47.109375 -59.277344 46.710938 -58.574219 46.46875 -57.894531 C 45.6875 -56.332031 44.566406 -54.886719 43.765625 -53.484375 C 43.484375 -53.125 43.382812 -52.625 43.105469 -52.265625 C 42.984375 -51.921875 42.84375 -51.742188 42.722656 -51.402344 C 42.441406 -51.042969 41.824219 -50.800781 42.0625 -50.179688 C 41.640625 -49.640625 41.0625 -49.078125 40.621094 -48.699219 C 40.058594 -47.976562 39.859375 -46.976562 39.277344 -46.414062 C 39.160156 -46.074219 38.859375 -45.875 38.71875 -45.695312 C 38.636719 -45.03125 38.195312 -44.652344 37.9375 -44.132812 C 37.515625 -43.589844 37.253906 -43.070312 36.996094 -42.546875 C 36.574219 -42.007812 35.992188 -41.445312 35.753906 -40.765625 C 35.394531 -39.746094 34.511719 -38.984375 33.992188 -37.941406 C 33.589844 -37.238281 32.828125 -36.820312 32.769531 -36 C 32.789062 -35.839844 32.789062 -35.839844 32.628906 -35.816406 C 32.347656 -35.457031 32.089844 -34.9375 31.808594 -34.574219 C 31.527344 -34.214844 31.425781 -33.714844 31.148438 -33.355469 C 30.464844 -32.292969 29.785156 -31.230469 29.082031 -30.328125 C 28.683594 -29.628906 28.121094 -28.90625 27.722656 -28.207031 C 27.039062 -27.144531 26.199219 -26.0625 25.699219 -24.859375 C 25.578125 -24.519531 25.4375 -24.339844 25.136719 -24.140625 C 24.757812 -23.277344 24.015625 -22.695312 23.476562 -21.816406 C 23.214844 -21.292969 22.792969 -20.753906 22.535156 -20.234375 C 21.992188 -19.351562 21.613281 -18.488281 21.050781 -17.769531 C 20.410156 -17.6875 19.769531 -17.609375 19.289062 -17.546875 C 18.628906 -17.628906 18.007812 -17.386719 17.507812 -17.488281 C 16.84375 -17.570312 16.363281 -17.507812 15.703125 -17.589844 C 15.722656 -17.429688 15.703125 -17.589844 15.683594 -17.75 C 15.203125 -17.6875 14.902344 -17.488281 14.402344 -17.589844 C 13.398438 -17.789062 12.417969 -17.828125 11.277344 -17.847656 C 11.117188 -17.828125 10.777344 -17.949219 10.59375 -18.089844 C 10.394531 -18.390625 10.035156 -18.667969 9.953125 -19.3125 C 10.09375 -19.492188 10.253906 -19.511719 10.234375 -19.671875 C 10.195312 -19.992188 9.855469 -20.113281 9.855469 -20.113281 C 9.511719 -21.535156 8.753906 -22.414062 7.671875 -23.257812 C 7.191406 -23.195312 6.367188 -23.257812 6.148438 -23.71875 C 5.507812 -23.636719 4.867188 -23.558594 4.226562 -23.476562 C 4.066406 -23.457031 3.765625 -23.257812 3.445312 -23.214844 C 2.664062 -22.957031 2.042969 -22.714844 1.480469 -21.996094 C 1.019531 -21.773438 0.699219 -21.734375 0.21875 -21.675781 C 0 -20.832031 -1.101562 -20.53125 -1.464844 -19.511719 C -0.78125 -19.269531 -1.542969 -18.847656 -1.464844 -18.207031 C -1.261719 -17.90625 -1.683594 -17.367188 -1.765625 -16.707031 C -1.664062 -15.90625 -0.621094 -15.382812 -0.179688 -14.460938 C 0.320312 -14.363281 0.980469 -14.28125 1.480469 -14.183594 C 1.5 -14.023438 1.5 -14.023438 1.523438 -13.863281 C 3.003906 -13.722656 4.347656 -13.402344 5.988281 -13.28125 C 5.988281 -13.28125 6.007812 -13.121094 6.1875 -12.980469 C 6.507812 -13.019531 6.667969 -13.039062 6.988281 -13.082031 C 7.171875 -12.941406 7.371094 -12.640625 7.550781 -12.5 C 7.570312 -12.339844 7.589844 -12.179688 7.449219 -12 C 7.289062 -10.675781 7.128906 -9.355469 6.96875 -8.03125 C 6.832031 -7.851562 6.871094 -7.53125 6.890625 -7.371094 C 6.488281 -6.671875 6.429688 -5.847656 6.1875 -5.167969 C 5.847656 -3.988281 6.007812 -2.703125 5.507812 -1.503906 C 5.367188 -1.324219 5.386719 -1.164062 5.410156 -1 C 5.429688 -0.839844 5.46875 -0.519531 5.488281 -0.359375 C 5.226562 0.160156 4.96875 0.679688 4.867188 1.179688 C 4.886719 1.34375 4.90625 1.503906 4.90625 1.503906 C 4.605469 1.703125 4.46875 1.882812 4.488281 2.042969 C 4.246094 2.722656 4.347656 3.523438 3.785156 4.246094 C 3.964844 4.386719 3.964844 4.386719 3.988281 4.546875 C 3.847656 4.726562 3.707031 4.90625 3.566406 5.085938 C 3.484375 5.75 3.386719 6.25 3.425781 6.570312 C 2.785156 7.953125 2.105469 9.015625 1.625 10.375 C 1.28125 11.558594 0.460938 12.800781 0.480469 14.261719 C 0.179688 14.460938 -0.0976562 14.824219 -0.398438 15.023438 C -0.378906 15.183594 -0.359375 15.34375 -0.339844 15.503906 C -0.640625 15.703125 -0.921875 16.066406 -0.921875 16.066406 C -1.320312 16.765625 -1.402344 17.425781 -1.660156 17.949219 C -2.0625 18.648438 -2.621094 19.371094 -3.042969 19.910156 C -3.324219 20.273438 -3.765625 20.652344 -3.863281 21.152344 C -4.105469 21.835938 -4.847656 22.414062 -5.066406 23.257812 C -6.089844 24.199219 -6.589844 25.398438 -7.089844 26.601562 C -7.511719 27.144531 -7.769531 27.664062 -8.050781 28.023438 C -8.472656 28.566406 -8.570312 29.066406 -9.011719 29.445312 C -9.332031 29.488281 -9.453125 29.828125 -9.433594 29.988281 C -9.394531 30.308594 -9.53125 30.488281 -9.652344 30.828125 C -10.632812 32.089844 -11.617188 33.351562 -12.417969 34.753906 C -12.796875 35.617188 -13.519531 36.359375 -13.917969 37.058594 C -14.300781 37.921875 -14.679688 38.78125 -15.242188 39.503906 C -15.800781 40.222656 -16.34375 41.105469 -16.882812 41.988281 C -17.144531 42.507812 -17.566406 43.046875 -17.824219 43.570312 C -17.945312 43.910156 -18.386719 44.289062 -18.527344 44.46875 C -18.808594 44.832031 -19.085938 45.191406 -19.046875 45.511719 C -18.988281 45.992188 -19.449219 46.214844 -19.40625 46.535156 C -19.667969 47.054688 -19.949219 47.414062 -20.25 47.617188 C -20.390625 47.796875 -20.527344 47.976562 -20.667969 48.15625 C -20.910156 48.835938 -21.308594 49.539062 -21.710938 50.238281 C -22.113281 50.941406 -22.671875 51.660156 -23.074219 52.363281 C -23.351562 52.722656 -23.632812 53.085938 -23.753906 53.425781 C -23.855469 53.925781 -23.972656 54.265625 -24.414062 54.648438 C -24.855469 55.027344 -25.117188 55.546875 -25.054688 56.027344 C -25.617188 56.75 -26.015625 57.453125 -26.4375 57.992188 C -26.578125 58.171875 -26.699219 58.511719 -26.859375 58.53125 C -27.417969 59.253906 -27.820312 59.957031 -28.039062 60.796875 C -28.039062 60.796875 -28.179688 60.976562 -28.179688 60.976562 C -28.582031 61.679688 -29.160156 62.238281 -29.5625 62.941406 C -29.542969 63.101562 -29.523438 63.261719 -29.34375 63.402344 C -29.480469 63.582031 -29.640625 63.601562 -29.640625 63.601562 C -30.183594 64.484375 -30.523438 65.664062 -31.042969 66.707031 C -30.863281 66.847656 -30.824219 67.167969 -30.644531 67.308594 C -30.484375 67.285156 -30.164062 67.246094 -30.164062 67.246094 C -29.664062 67.347656 -29.320312 67.46875 -28.980469 67.585938 C -28.980469 67.585938 -28.960938 67.746094 -28.941406 67.90625 Z M 7.710938 3.105469 C 7.53125 2.964844 7.351562 2.824219 7.351562 2.824219 C 7.171875 2.683594 7.011719 2.703125 6.832031 2.5625 C 7.691406 1.640625 8.210938 0.601562 8.394531 -0.5625 C 8.210938 -0.703125 8.210938 -0.703125 8.03125 -0.84375 C 7.992188 -1.164062 8.253906 -1.683594 7.890625 -1.964844 C 8.253906 -2.984375 8.792969 -3.867188 9.152344 -4.886719 C 9.253906 -5.390625 9.335938 -6.050781 9.433594 -6.550781 C 9.433594 -7.851562 9.953125 -8.894531 10.457031 -10.097656 C 10.296875 -10.078125 10.253906 -10.398438 10.234375 -10.558594 C 10.476562 -11.238281 10.855469 -12.097656 11.097656 -12.78125 C 11.757812 -12.699219 12.378906 -12.941406 12.878906 -12.839844 C 13.378906 -12.742188 13.820312 -13.121094 14.320312 -13.019531 C 14.824219 -12.921875 15.144531 -12.960938 15.625 -13.019531 C 16.105469 -13.082031 16.425781 -13.121094 16.746094 -13.160156 C 17.085938 -13.042969 17.425781 -12.921875 17.765625 -12.800781 C 17.367188 -12.101562 16.964844 -11.398438 16.566406 -10.699219 C 15.722656 -9.617188 15.0625 -8.394531 14.203125 -7.472656 C 14.0625 -7.292969 13.941406 -6.953125 13.820312 -6.609375 C 13.699219 -6.269531 13.421875 -5.910156 13.160156 -5.390625 C 12.78125 -4.527344 11.878906 -3.925781 11.519531 -2.90625 C 11.417969 -2.40625 10.976562 -2.023438 10.695312 -1.664062 C 10.4375 -1.140625 10.175781 -0.621094 9.894531 -0.261719 C 9.636719 0.261719 9.515625 0.601562 9.054688 0.820312 C 8.914062 1 8.632812 1.363281 8.492188 1.542969 C 8.011719 1.601562 8.234375 2.0625 7.933594 2.261719 C 7.773438 2.28125 7.832031 2.765625 7.710938 3.105469 Z M -11.316406 39.664062 C -11.757812 40.042969 -12.175781 40.585938 -12.417969 41.265625 C -12.535156 41.605469 -12.675781 41.785156 -12.976562 41.988281 C -13.097656 42.328125 -13.398438 42.527344 -13.5 43.027344 C -13.5 43.027344 -13.660156 43.046875 -13.800781 43.226562 C -13.777344 43.386719 -13.777344 43.386719 -13.757812 43.550781 C -14.578125 44.789062 -15.5625 46.054688 -16.542969 47.316406 C -16.523438 47.476562 -16.363281 47.457031 -16.34375 47.617188 C -16.644531 47.816406 -16.761719 48.15625 -17.0625 48.355469 C -17.242188 48.214844 -17.425781 48.078125 -17.445312 47.914062 C -17.523438 47.273438 -16.761719 46.855469 -17.34375 46.113281 C -17.042969 45.914062 -16.722656 45.871094 -16.421875 45.671875 C -16.300781 45.332031 -16.023438 44.972656 -15.921875 44.46875 C -15.800781 44.128906 -15.820312 43.96875 -15.882812 43.488281 C -15.703125 43.628906 -15.523438 43.769531 -15.339844 43.910156 C -15.199219 43.730469 -15.039062 43.710938 -15.0625 43.550781 C -14.582031 42.1875 -13.738281 41.105469 -13.078125 39.882812 C -12.777344 39.683594 -12.636719 39.503906 -12.335938 39.300781 C -12.078125 38.78125 -11.996094 38.121094 -11.554688 37.738281 C -11.273438 37.378906 -10.835938 37 -10.714844 36.65625 C -10.734375 36.496094 -10.753906 36.335938 -10.773438 36.175781 C -10.632812 35.996094 -10.496094 35.816406 -10.355469 35.636719 C -10.074219 35.277344 -10.113281 34.957031 -9.8125 34.753906 C -9.210938 34.355469 -8.972656 33.671875 -8.550781 33.132812 C -8.589844 32.8125 -8.613281 32.652344 -8.492188 32.3125 C -8.3125 32.453125 -8.3125 32.453125 -8.128906 32.589844 C -8.011719 32.25 -7.890625 31.910156 -7.769531 31.570312 C -7.808594 31.25 -7.671875 31.070312 -7.53125 30.890625 C -7.070312 30.667969 -7.148438 30.027344 -7.050781 29.527344 C -6.867188 29.667969 -6.707031 29.648438 -6.546875 29.625 C -6.289062 29.105469 -6.1875 28.605469 -5.585938 28.203125 C -5.667969 28.867188 -6.246094 29.425781 -6.507812 29.945312 C -6.589844 30.609375 -6.847656 31.128906 -6.929688 31.789062 C -7.070312 31.96875 -7.371094 32.171875 -7.488281 32.511719 C -7.890625 33.210938 -8.128906 33.894531 -8.730469 34.292969 C -8.851562 34.632812 -8.832031 34.792969 -8.953125 35.136719 C -9.09375 35.316406 -9.390625 35.515625 -9.511719 35.855469 C -9.652344 36.035156 -9.613281 36.355469 -9.613281 36.355469 C -10.453125 37.4375 -10.816406 38.460938 -11.316406 39.664062 Z M 6.109375 -18.828125 C 6.148438 -18.507812 6.007812 -18.328125 5.886719 -17.988281 C 5.546875 -18.109375 5.207031 -18.230469 4.886719 -18.1875 C 4.867188 -18.347656 4.847656 -18.507812 4.988281 -18.691406 C 4.324219 -18.769531 3.644531 -19.011719 3.144531 -19.109375 C 3.144531 -19.109375 3.125 -19.269531 3.125 -19.269531 C 3.445312 -19.308594 3.765625 -19.351562 4.085938 -19.390625 C 4.246094 -19.410156 4.246094 -19.410156 4.546875 -19.609375 C 5.066406 -19.351562 5.585938 -19.089844 6.109375 -18.828125 Z M 67.847656 10.230469 C 68.265625 9.691406 68.546875 9.332031 68.96875 8.789062 C 69.089844 8.449219 69.367188 8.089844 69.46875 7.585938 C 68.988281 7.648438 68.988281 7.648438 68.546875 8.027344 C 68.128906 8.570312 67.707031 9.109375 67.285156 9.652344 C 67.304688 9.8125 67.164062 9.992188 67.207031 10.3125 C 67.367188 10.292969 67.6875 10.25 67.847656 10.230469 Z M 67.847656 10.230469 "/></g></g></g><g fill="#000000" fill-opacity="1"><g transform="translate(193.639258, 210.696604)"><g><path d="M 3.226562 -0.242188 C 3.226562 -0.242188 3.386719 -0.261719 3.386719 -0.261719 C 4.027344 -0.339844 4.808594 -0.601562 5.449219 -0.679688 C 5.589844 -0.863281 5.910156 -0.902344 6.070312 -0.921875 L 6.210938 -1.101562 C 6.371094 -1.121094 6.691406 -1.164062 6.691406 -1.164062 C 7.332031 -1.242188 7.953125 -1.484375 8.414062 -1.703125 C 8.734375 -1.742188 9.035156 -1.945312 9.195312 -1.964844 C 10.457031 -2.285156 11.078125 -2.523438 11.335938 -3.046875 C 11.496094 -3.066406 11.65625 -3.085938 11.65625 -3.085938 C 11.980469 -3.125 12.300781 -3.164062 12.300781 -3.164062 C 12.921875 -3.40625 13.378906 -3.625 13.820312 -4.007812 C 13.980469 -4.027344 14.140625 -4.046875 14.300781 -4.066406 C 14.300781 -4.066406 14.300781 -4.066406 14.460938 -4.085938 L 14.703125 -4.769531 C 15.644531 -5.050781 16.546875 -5.648438 17.144531 -6.050781 C 17.445312 -6.25 17.585938 -6.429688 17.886719 -6.632812 L 18.046875 -6.652344 L 17.667969 -7.09375 C 18.929688 -7.414062 19.992188 -8.035156 21.03125 -8.816406 C 21.351562 -8.855469 21.792969 -9.234375 22.09375 -9.4375 L 22.335938 -10.117188 C 22.957031 -10.359375 23.714844 -10.777344 24.15625 -11.160156 C 24.316406 -11.179688 24.316406 -11.179688 24.777344 -11.398438 L 24.878906 -11.898438 L 26.300781 -12.242188 L 26.460938 -12.261719 C 26.742188 -12.621094 27.203125 -12.839844 27.480469 -13.203125 C 27.921875 -13.582031 28.203125 -13.945312 28.824219 -14.183594 C 29.085938 -14.703125 29.683594 -15.105469 30.265625 -15.667969 C 30.566406 -15.867188 31.027344 -16.085938 31.148438 -16.425781 C 31.308594 -16.449219 31.308594 -16.449219 31.308594 -16.449219 C 31.949219 -16.527344 32.070312 -16.867188 32.371094 -17.070312 L 33.289062 -17.507812 L 32.691406 -18.410156 L 31.949219 -17.828125 C 31.949219 -17.828125 31.949219 -17.828125 31.789062 -17.808594 C 31.46875 -17.769531 31.328125 -17.589844 30.867188 -17.367188 C 30.886719 -17.207031 30.886719 -17.207031 30.726562 -17.1875 C 30.566406 -17.167969 30.40625 -17.148438 30.265625 -16.96875 C 30.105469 -16.949219 29.964844 -16.769531 29.824219 -16.585938 C 29.683594 -16.40625 29.523438 -16.386719 29.203125 -16.347656 C 28.902344 -16.148438 28.765625 -15.964844 28.625 -15.785156 C 28.304688 -15.746094 28.304688 -15.746094 28.003906 -15.546875 L 27.863281 -15.367188 L 27.542969 -15.324219 L 26.519531 -14.382812 L 26.101562 -13.84375 L 25.738281 -14.125 C 25.597656 -13.941406 25.277344 -13.902344 24.976562 -13.703125 C 24.515625 -13.484375 24.21875 -13.28125 24.097656 -12.941406 C 24.097656 -12.941406 23.9375 -12.921875 23.9375 -12.921875 C 23.796875 -12.742188 23.636719 -12.722656 23.496094 -12.542969 C 23.496094 -12.542969 23.496094 -12.542969 23.335938 -12.519531 L 23.175781 -12.5 C 23.015625 -12.480469 23.015625 -12.480469 22.875 -12.300781 C 22.875 -12.300781 22.714844 -12.28125 22.714844 -12.28125 C 22.714844 -12.28125 22.554688 -12.261719 22.554688 -12.261719 C 22.394531 -12.242188 22.234375 -12.21875 22.234375 -12.21875 L 22.015625 -11.378906 L 21.652344 -11.660156 L 19.25 -10.058594 L 19.070312 -10.195312 L 18.910156 -10.175781 C 18.609375 -9.976562 18.609375 -9.976562 18.628906 -9.816406 C 18.308594 -9.777344 17.988281 -9.734375 18.007812 -9.574219 C 17.546875 -9.355469 17.40625 -9.175781 17.265625 -8.996094 C 17.265625 -8.996094 16.945312 -8.953125 16.964844 -8.792969 C 16.984375 -8.632812 16.847656 -8.453125 16.847656 -8.453125 C 16.523438 -8.414062 16.363281 -8.394531 16.226562 -8.214844 C 16.066406 -8.195312 16.226562 -8.214844 15.90625 -8.171875 C 15.582031 -8.132812 15.144531 -7.753906 14.863281 -7.390625 C 14.722656 -7.210938 14.421875 -7.011719 13.960938 -6.792969 C 13.660156 -6.589844 13.179688 -6.53125 12.941406 -5.851562 C 12.757812 -5.988281 12.597656 -5.96875 12.4375 -5.949219 C 12.117188 -5.910156 11.976562 -5.730469 11.816406 -5.710938 L 11.335938 -5.648438 L 8.613281 -4.007812 L 7.632812 -4.046875 C 7.3125 -4.007812 7.171875 -3.828125 7.011719 -3.804688 C 6.210938 -3.707031 5.589844 -3.464844 4.96875 -3.226562 C 4.328125 -3.144531 3.707031 -2.90625 3.066406 -2.824219 C 2.582031 -2.765625 2.421875 -2.746094 2.101562 -2.703125 C 1.941406 -2.683594 1.761719 -2.824219 1.441406 -2.785156 C 1.121094 -2.746094 0.621094 -2.84375 0.441406 -2.984375 C -0.140625 -3.726562 -0.101562 -4.707031 -0.0390625 -5.527344 C -0.0390625 -5.527344 0.101562 -5.707031 0.238281 -5.890625 C 0.300781 -6.710938 0.359375 -7.53125 0.582031 -8.375 C 0.378906 -8.671875 0.5 -9.015625 0.800781 -9.214844 C 1.402344 -9.613281 1.640625 -10.296875 1.523438 -11.257812 C 1.5 -11.417969 1.640625 -11.597656 1.800781 -11.617188 C 1.941406 -11.796875 2.0625 -12.140625 2.203125 -12.320312 C 2.503906 -12.519531 2.484375 -12.679688 2.625 -12.859375 C 2.921875 -13.0625 3.222656 -13.261719 3.164062 -13.742188 C 3.164062 -13.742188 3.304688 -13.921875 3.625 -13.960938 C 3.785156 -13.980469 3.785156 -13.980469 3.765625 -14.140625 C 3.925781 -14.164062 4.246094 -14.203125 4.40625 -14.222656 C 4.40625 -14.222656 4.386719 -14.382812 4.546875 -14.402344 L 6.046875 -14.101562 L 7.652344 -14.304688 L 8.253906 -14.703125 L 9.535156 -14.863281 L 9.714844 -14.722656 L 10.777344 -15.34375 L 13.441406 -16.167969 L 13.859375 -16.707031 L 14.5 -16.785156 L 15.261719 -17.207031 L 16.382812 -17.347656 C 16.523438 -17.527344 16.804688 -17.890625 16.785156 -18.050781 C 17.066406 -18.410156 17.347656 -18.769531 17.988281 -18.851562 L 18.148438 -18.871094 L 18.085938 -19.351562 L 20.652344 -19.671875 L 20.589844 -20.152344 C 20.75 -20.171875 20.75 -20.171875 20.910156 -20.191406 C 21.710938 -20.292969 21.832031 -20.632812 22.09375 -21.15625 C 22.734375 -21.234375 23.195312 -21.453125 23.496094 -21.65625 L 23.113281 -22.097656 L 23.617188 -21.996094 C 23.617188 -21.996094 23.777344 -22.015625 23.777344 -22.015625 C 24.238281 -22.234375 24.695312 -22.457031 24.796875 -22.957031 C 24.777344 -23.117188 24.917969 -23.296875 25.238281 -23.339844 C 25.378906 -23.519531 26 -23.757812 25.960938 -24.078125 C 26.417969 -24.300781 26.558594 -24.480469 26.71875 -24.5 L 26.878906 -24.519531 C 27.179688 -24.71875 27.78125 -25.121094 27.722656 -25.601562 C 27.703125 -25.761719 27.703125 -25.761719 28.003906 -25.960938 C 28.003906 -25.960938 28.003906 -25.960938 28.164062 -25.980469 C 28.164062 -25.980469 28.300781 -26.164062 28.300781 -26.164062 C 28.261719 -26.484375 28.402344 -26.664062 28.5625 -26.683594 C 28.542969 -26.84375 28.824219 -27.203125 28.804688 -27.363281 C 28.964844 -27.382812 28.945312 -27.542969 28.902344 -27.867188 C 29.363281 -28.085938 29.34375 -28.246094 29.445312 -28.746094 C 29.445312 -28.746094 29.585938 -28.925781 29.886719 -29.128906 L 29.605469 -30.070312 L 28.882812 -30.628906 L 27.082031 -30.730469 L 26 -30.269531 L 25.496094 -30.367188 C 25.335938 -30.347656 25.175781 -30.328125 25.175781 -30.328125 C 24.878906 -30.128906 24.554688 -30.089844 24.554688 -30.089844 L 24.394531 -30.070312 C 23.914062 -30.007812 23.113281 -29.90625 22.535156 -29.347656 C 22.535156 -29.347656 22.375 -29.328125 22.214844 -29.308594 C 22.050781 -29.285156 22.050781 -29.285156 22.050781 -29.285156 C 21.730469 -29.246094 21.433594 -29.046875 21.433594 -29.046875 C 21.109375 -29.007812 21.109375 -29.007812 20.789062 -28.964844 C 20.148438 -28.886719 19.6875 -28.664062 19.410156 -28.304688 C 19.410156 -28.304688 19.25 -28.285156 19.089844 -28.265625 C 18.949219 -28.085938 18.949219 -28.085938 18.789062 -28.066406 C 18.789062 -28.066406 18.789062 -28.066406 18.628906 -28.046875 C 18.308594 -28.003906 18.148438 -27.984375 17.847656 -27.785156 C 17.707031 -27.605469 17.707031 -27.605469 17.546875 -27.585938 C 17.085938 -27.363281 16.945312 -27.183594 16.785156 -27.164062 C 16.785156 -27.164062 16.464844 -27.125 16.484375 -26.964844 C 16.324219 -26.941406 15.863281 -26.722656 15.863281 -26.722656 C 15.402344 -26.503906 15.101562 -26.300781 14.640625 -26.082031 C 14.542969 -25.582031 13.898438 -25.5 13.460938 -25.121094 C 12.679688 -24.859375 12.078125 -24.457031 11.65625 -23.917969 C 11.65625 -23.917969 11.496094 -23.898438 11.335938 -23.878906 C 11.015625 -23.839844 10.875 -23.65625 10.734375 -23.476562 L 10.574219 -23.457031 C 9.832031 -22.875 9.09375 -22.296875 8.191406 -21.695312 L 7.46875 -20.953125 C 7.308594 -20.933594 7.308594 -20.933594 7.308594 -20.933594 C 7.007812 -20.734375 7.007812 -20.734375 6.847656 -20.710938 C 6.890625 -20.390625 6.289062 -19.992188 5.828125 -19.769531 C 5.546875 -19.410156 5.085938 -19.191406 4.828125 -18.667969 C 4.527344 -18.46875 4.386719 -18.289062 4.085938 -18.089844 C 3.945312 -17.910156 3.945312 -17.910156 3.804688 -17.726562 C 3.644531 -17.707031 3.484375 -17.6875 3.503906 -17.527344 C 3.34375 -17.507812 3.203125 -17.328125 3.042969 -17.308594 C 2.902344 -17.125 2.761719 -16.945312 2.761719 -16.945312 C 2.203125 -16.226562 1.621094 -15.664062 1.039062 -15.105469 C 0.640625 -14.402344 0.078125 -13.679688 -0.640625 -12.941406 C -0.621094 -12.78125 -0.601562 -12.621094 -0.601562 -12.621094 C -0.761719 -12.601562 -0.761719 -12.601562 -0.921875 -12.578125 L -2.105469 -10.316406 L -1.882812 -9.855469 L -2.183594 -9.65625 C -2.164062 -9.496094 -2.304688 -9.3125 -2.445312 -9.132812 C -2.746094 -8.933594 -2.703125 -8.613281 -3.003906 -8.414062 C -3.246094 -7.730469 -3.484375 -7.050781 -3.566406 -6.390625 C -3.367188 -6.089844 -3.503906 -5.910156 -3.484375 -5.75 C -3.585938 -5.246094 -3.566406 -5.085938 -3.503906 -4.605469 C -3.445312 -4.125 -3.386719 -3.644531 -3.324219 -3.164062 C -3.285156 -2.84375 -3.265625 -2.683594 -3.246094 -2.523438 L -3.226562 -2.363281 C -3.226562 -2.363281 -3.226562 -2.363281 -3.042969 -2.222656 C -2.863281 -2.082031 -2.683594 -1.941406 -2.523438 -1.964844 C -2.484375 -1.640625 -2.304688 -1.503906 -2.125 -1.363281 C -1.964844 -1.382812 -1.804688 -1.402344 -1.78125 -1.242188 C -1.042969 -0.519531 -0.179688 -0.140625 0.300781 -0.199219 C 0.960938 -0.121094 1.601562 -0.199219 1.921875 -0.242188 C 1.941406 -0.0820312 2.101562 -0.101562 2.261719 -0.121094 C 2.261719 -0.121094 2.421875 -0.140625 2.585938 -0.160156 C 2.90625 -0.199219 2.90625 -0.199219 3.226562 -0.242188 Z M 9.414062 -19.730469 L 9.675781 -20.253906 L 10.15625 -20.3125 L 10.59375 -20.691406 L 10.777344 -20.554688 C 11.074219 -20.753906 11.234375 -20.773438 11.535156 -20.972656 C 11.835938 -21.171875 12.136719 -21.375 12.617188 -21.433594 C 12.898438 -21.792969 13.179688 -22.15625 13.480469 -22.355469 C 13.460938 -22.515625 13.761719 -22.714844 13.898438 -22.898438 C 14.542969 -22.976562 15.140625 -23.378906 15.902344 -23.796875 C 16.203125 -24 16.183594 -24.160156 16.34375 -24.179688 C 16.484375 -24.359375 16.644531 -24.378906 16.785156 -24.558594 C 17.105469 -24.597656 17.265625 -24.621094 17.425781 -24.640625 C 17.546875 -24.980469 18.007812 -25.199219 18.46875 -25.421875 C 18.746094 -25.78125 19.207031 -26 19.6875 -26.0625 C 19.828125 -26.242188 19.988281 -26.261719 20.308594 -26.300781 C 20.46875 -26.324219 20.789062 -26.363281 20.929688 -26.542969 C 21.089844 -26.5625 21.089844 -26.5625 21.25 -26.582031 C 21.550781 -26.78125 21.710938 -26.804688 21.710938 -26.804688 C 22.171875 -27.023438 22.472656 -27.222656 22.792969 -27.265625 C 22.792969 -27.265625 22.953125 -27.285156 22.953125 -27.285156 C 23.113281 -27.304688 23.433594 -27.34375 23.59375 -27.363281 C 23.753906 -27.382812 23.894531 -27.566406 24.054688 -27.585938 C 24.214844 -27.605469 24.214844 -27.605469 24.394531 -27.464844 C 24.394531 -27.464844 24.394531 -27.464844 24.558594 -27.484375 C 24.71875 -27.503906 24.695312 -27.664062 24.855469 -27.683594 C 24.835938 -27.84375 25.15625 -27.886719 25.316406 -27.90625 C 25.476562 -27.925781 25.476562 -27.925781 25.476562 -27.925781 L 25.277344 -26.921875 C 24.375 -26.324219 23.9375 -25.941406 23.675781 -25.421875 C 23.375 -25.222656 23.234375 -25.039062 23.253906 -24.878906 C 22.792969 -24.660156 22.652344 -24.480469 22.515625 -24.300781 C 22.375 -24.117188 22.234375 -23.9375 22.09375 -23.757812 C 22.09375 -23.757812 21.953125 -23.578125 21.792969 -23.558594 L 21.433594 -23.839844 C 21.433594 -23.839844 21.292969 -23.660156 21.152344 -23.476562 C 21.011719 -23.296875 20.871094 -23.117188 20.871094 -23.117188 C 20.410156 -22.898438 20.25 -22.878906 20.109375 -22.695312 C 19.648438 -22.476562 19.027344 -22.234375 18.585938 -21.855469 C 18.425781 -21.835938 18.449219 -21.675781 18.289062 -21.65625 C 18.148438 -21.476562 17.828125 -21.433594 17.828125 -21.433594 C 17.6875 -21.253906 17.6875 -21.253906 17.527344 -21.234375 L 17.207031 -21.195312 L 16.625 -20.632812 C 16.625 -20.632812 16.625 -20.632812 16.464844 -20.613281 C 15.664062 -20.511719 15.0625 -20.113281 14.460938 -19.710938 C 14.339844 -19.371094 14.039062 -19.171875 13.578125 -18.949219 L 13.398438 -19.089844 C 13.238281 -19.070312 13.078125 -19.050781 12.917969 -19.03125 C 12.917969 -19.03125 12.617188 -18.832031 12.296875 -18.789062 C 11.976562 -18.75 11.675781 -18.550781 11.054688 -18.308594 C 10.753906 -18.109375 10.457031 -17.910156 9.996094 -17.6875 C 9.535156 -17.46875 9.234375 -17.265625 8.613281 -17.027344 C 8.453125 -17.007812 8.3125 -16.828125 8.152344 -16.808594 C 7.992188 -16.785156 7.992188 -16.785156 7.8125 -16.925781 C 7.652344 -16.90625 7.652344 -16.90625 7.492188 -16.886719 C 7.332031 -16.867188 7.332031 -16.867188 7.171875 -16.847656 C 7.03125 -16.667969 7.03125 -16.667969 6.871094 -16.644531 C 7.011719 -16.828125 6.851562 -16.808594 7.148438 -17.007812 C 7.410156 -17.527344 7.671875 -18.046875 7.972656 -18.25 C 8.132812 -18.269531 8.292969 -18.289062 8.273438 -18.449219 C 8.410156 -18.628906 8.410156 -18.628906 8.410156 -18.628906 C 8.691406 -18.988281 8.972656 -19.351562 9.414062 -19.730469 Z M 33.710938 -18.050781 C 33.710938 -18.050781 33.871094 -18.070312 33.871094 -18.070312 L 33.613281 -18.851562 L 33.03125 -18.289062 C 33.210938 -18.148438 33.390625 -18.011719 33.710938 -18.050781 Z M 33.710938 -18.050781 "/></g></g></g><g fill="#000000" fill-opacity="1"><g transform="translate(227.291311, 206.488024)"><g><path d="M 6.347656 -15.605469 C 6.628906 -15.964844 6.609375 -16.125 6.589844 -16.285156 C 6.75 -16.304688 7.050781 -16.507812 6.890625 -16.484375 C 7.011719 -16.828125 7.308594 -17.027344 7.429688 -17.367188 C 7.710938 -17.726562 8.132812 -18.269531 8.050781 -18.910156 C 8.210938 -18.929688 8.371094 -18.949219 8.511719 -19.128906 C 8.773438 -19.652344 9.09375 -19.691406 9.414062 -19.730469 C 9.695312 -20.09375 9.8125 -20.433594 10.132812 -20.472656 C 10.074219 -20.953125 10.015625 -21.433594 10.316406 -21.632812 C 10.65625 -21.515625 10.65625 -21.515625 10.816406 -21.535156 C 11.054688 -22.214844 11.816406 -22.636719 12.4375 -22.875 C 12.417969 -23.035156 12.398438 -23.195312 12.699219 -23.398438 C 12.859375 -23.417969 13.019531 -23.4375 13.019531 -23.4375 C 13.417969 -24.136719 13.5 -24.800781 13.941406 -25.179688 C 14.382812 -25.5625 14.460938 -26.222656 14.402344 -26.703125 C 14.820312 -27.242188 14.761719 -27.722656 14.703125 -28.203125 C 14.480469 -28.664062 14.28125 -28.964844 14.082031 -29.265625 C 13.738281 -29.386719 13.558594 -29.527344 13.21875 -29.648438 C 13.078125 -29.46875 13.097656 -29.304688 12.9375 -29.285156 C 12.65625 -28.925781 12.378906 -28.566406 12.277344 -28.066406 C 12.296875 -27.90625 12.136719 -27.882812 12.136719 -27.882812 C 11.714844 -27.34375 11.277344 -26.960938 10.695312 -26.402344 C 10.734375 -26.082031 10.476562 -25.5625 10.535156 -25.078125 C 9.753906 -24.820312 9.332031 -24.277344 9.074219 -23.757812 C 8.933594 -23.578125 8.792969 -23.398438 8.632812 -23.378906 C 8.050781 -22.816406 7.492188 -22.09375 7.089844 -21.394531 C 6.789062 -21.195312 6.808594 -21.035156 6.527344 -20.671875 C 6.570312 -20.351562 6.128906 -19.972656 5.667969 -19.75 C 5.546875 -19.410156 5.40625 -19.230469 5.125 -18.871094 C 5.007812 -18.527344 4.765625 -17.847656 4.285156 -17.789062 C 4.183594 -17.289062 4.046875 -17.105469 3.445312 -16.707031 C 3.164062 -16.347656 2.84375 -16.304688 2.882812 -15.984375 C 2.921875 -15.664062 2.324219 -15.265625 2.203125 -14.921875 C 2.203125 -14.921875 2.363281 -14.945312 2.363281 -14.945312 C 1.820312 -14.0625 1.261719 -13.339844 0.558594 -12.441406 C 0.28125 -12.078125 0 -11.71875 -0.28125 -11.359375 C -0.5625 -10.996094 -0.683594 -10.65625 -0.960938 -10.296875 C -0.941406 -10.136719 -1.101562 -10.117188 -1.242188 -9.933594 C -1.460938 -9.09375 -2.003906 -8.210938 -2.425781 -7.671875 C -3.085938 -6.449219 -3.566406 -5.085938 -4.609375 -4.304688 C -4.566406 -3.984375 -4.6875 -3.644531 -4.6875 -3.644531 C -4.667969 -3.484375 -4.96875 -3.285156 -5.089844 -2.945312 C -5.386719 -2.742188 -5.667969 -2.382812 -5.789062 -2.042969 C -6.050781 -1.523438 -6.167969 -1.179688 -6.289062 -0.839844 C -6.691406 -0.140625 -7.132812 0.242188 -7.390625 0.761719 C -6.992188 1.363281 -6.03125 1.242188 -5.769531 2.023438 C -5.410156 2.304688 -5.085938 2.265625 -4.585938 2.363281 C -4.605469 2.203125 -4.445312 2.183594 -4.328125 1.84375 C -3.90625 1.300781 -3.644531 0.78125 -3.226562 0.242188 C -2.824219 -0.460938 -2.242188 -1.019531 -1.683594 -1.742188 C -0.839844 -2.824219 -0.160156 -3.886719 0.699219 -4.808594 C 0.859375 -4.828125 1 -5.007812 1 -5.007812 C 1.582031 -5.570312 2.164062 -6.128906 2.742188 -6.691406 C 3.003906 -7.210938 3.605469 -7.613281 4.207031 -8.011719 C 4.925781 -8.753906 5.648438 -9.496094 6.371094 -10.238281 C 7.410156 -11.019531 8.574219 -12.140625 9.773438 -12.941406 C 9.914062 -13.121094 10.054688 -13.300781 10.054688 -13.300781 C 10.375 -13.339844 10.695312 -13.382812 10.835938 -13.5625 C 11.097656 -14.082031 11.539062 -14.464844 12.136719 -14.863281 C 12.699219 -15.585938 13.28125 -16.144531 14.019531 -16.726562 C 15.0625 -17.507812 16.105469 -18.289062 16.984375 -19.050781 C 17.425781 -19.429688 18.027344 -19.832031 18.488281 -20.050781 C 19.828125 -21.035156 21.53125 -21.734375 23.394531 -22.457031 C 23.695312 -22.65625 24.15625 -22.878906 24.796875 -22.957031 C 25.757812 -23.078125 26.582031 -23.015625 27.421875 -22.796875 C 27.902344 -22.855469 28.242188 -22.738281 28.722656 -22.796875 C 29.203125 -22.859375 29.523438 -22.898438 30.085938 -22.316406 C 30.085938 -22.316406 30.125 -21.996094 30.164062 -21.675781 C 30.347656 -21.535156 30.6875 -21.414062 30.886719 -21.113281 C 31.007812 -21.457031 30.988281 -21.617188 30.808594 -21.757812 C 30.925781 -22.097656 30.726562 -22.398438 30.546875 -22.535156 C 30.347656 -22.835938 30.144531 -23.136719 29.945312 -23.4375 C 29.945312 -23.4375 29.945312 -23.4375 29.625 -23.398438 C 29.445312 -23.539062 29.246094 -23.839844 29.042969 -24.140625 C 28.703125 -24.257812 28.34375 -24.539062 28.003906 -24.660156 C 27.84375 -24.640625 27.683594 -24.621094 27.523438 -24.601562 C 27.359375 -24.578125 27.179688 -24.71875 27.160156 -24.878906 C 26.839844 -24.839844 26.519531 -24.800781 26.519531 -24.800781 C 26.160156 -25.082031 25.820312 -25.199219 25.5 -25.160156 C 24.878906 -24.921875 23.875 -25.121094 23.273438 -24.71875 C 22.433594 -24.941406 21.851562 -24.378906 21.050781 -24.277344 C 20.910156 -24.097656 20.769531 -23.917969 20.792969 -23.757812 C 20.609375 -23.898438 20.589844 -24.058594 20.429688 -24.039062 C 19.507812 -23.597656 18.707031 -23.496094 18.527344 -22.335938 C 18.347656 -22.476562 18.347656 -22.476562 18.1875 -22.457031 C 18.027344 -22.4375 17.726562 -22.234375 17.726562 -22.234375 C 17.066406 -22.316406 16.625 -21.933594 16.324219 -21.734375 C 15.582031 -21.152344 14.820312 -20.734375 14.0625 -20.3125 C 13.179688 -19.550781 12.117188 -18.929688 11.578125 -18.050781 C 11.578125 -18.050781 11.277344 -17.847656 11.117188 -17.828125 C 10.816406 -17.628906 10.535156 -17.269531 10.574219 -16.945312 C 10.394531 -17.085938 10.234375 -17.066406 10.054688 -17.207031 C 8.894531 -16.085938 7.871094 -15.144531 6.691406 -14.183594 C 6.710938 -14.023438 6.429688 -13.660156 6.449219 -13.5 C 6.289062 -13.480469 6.289062 -13.480469 6.289062 -13.480469 C 5.707031 -12.921875 5.289062 -12.378906 4.6875 -11.980469 C 4.625 -12.460938 4.566406 -12.941406 4.527344 -13.261719 C 4.808594 -13.621094 5.085938 -13.980469 5.527344 -14.363281 C 5.667969 -14.542969 5.648438 -14.703125 5.628906 -14.863281 C 5.609375 -15.023438 5.769531 -15.042969 5.929688 -15.0625 C 6.207031 -15.425781 6.207031 -15.425781 6.167969 -15.746094 C 6.167969 -15.746094 6.347656 -15.605469 6.347656 -15.605469 Z M 6.347656 -15.605469 "/></g></g></g><g fill="#000000" fill-opacity="1"><g transform="translate(260.302373, 202.359609)"><g><path d="M 19.210938 -14.285156 C 19.488281 -14.644531 19.75 -15.164062 19.871094 -15.503906 C 20.128906 -16.027344 20.570312 -16.40625 21.011719 -16.789062 C 21.011719 -16.789062 20.992188 -16.949219 20.972656 -17.109375 C 21.253906 -17.46875 21.011719 -18.089844 21.433594 -18.628906 C 21.351562 -19.269531 21.433594 -19.933594 21.832031 -20.632812 C 21.753906 -21.273438 21.671875 -21.914062 21.433594 -22.535156 C 21.050781 -22.976562 20.691406 -23.257812 20.148438 -23.679688 C 19.648438 -23.777344 19.289062 -24.058594 18.789062 -24.160156 C 18.148438 -24.078125 17.988281 -24.058594 16.164062 -24.320312 C 16.183594 -24.160156 16.203125 -24 16.222656 -23.839844 C 15.742188 -23.777344 15.421875 -23.738281 14.941406 -23.679688 C 14.480469 -23.457031 13.859375 -23.21875 13.578125 -22.855469 C 13.078125 -22.957031 12.917969 -22.9375 12.597656 -22.898438 C 12.558594 -23.21875 12.378906 -23.355469 12.378906 -23.355469 C 12.980469 -23.757812 13.578125 -24.160156 13.859375 -24.519531 C 14.179688 -24.558594 14.5 -24.597656 14.800781 -24.800781 C 14.941406 -24.980469 14.941406 -24.980469 15.0625 -25.320312 C 15.382812 -25.359375 15.5625 -25.21875 16.003906 -25.601562 C 15.984375 -25.761719 16.484375 -25.660156 16.644531 -25.679688 C 16.644531 -25.679688 16.625 -25.839844 16.625 -25.839844 C 16.785156 -25.863281 16.765625 -26.023438 16.722656 -26.34375 C 17.066406 -26.222656 17.226562 -26.242188 17.246094 -26.082031 C 17.367188 -26.421875 17.503906 -26.601562 17.503906 -26.601562 C 17.828125 -26.644531 17.964844 -26.824219 18.285156 -26.863281 C 19.007812 -27.605469 20.109375 -27.90625 21.109375 -27.703125 C 21.550781 -28.085938 21.550781 -28.085938 21.933594 -28.945312 C 21.410156 -29.207031 21.511719 -29.707031 21.132812 -30.148438 C 20.992188 -29.96875 20.832031 -29.949219 20.691406 -29.769531 C 20.167969 -30.027344 19.667969 -30.128906 19.488281 -30.269531 C 19.347656 -30.089844 19.027344 -30.046875 19.046875 -29.886719 C 18.066406 -29.929688 18.066406 -29.929688 17.125 -29.648438 C 16.785156 -29.765625 16.785156 -29.765625 16.445312 -29.886719 C 16.144531 -29.6875 16.164062 -29.527344 16.183594 -29.367188 C 15.722656 -29.148438 15.382812 -29.265625 15.242188 -29.085938 C 14.480469 -28.664062 13.820312 -28.746094 13.058594 -28.324219 C 13.058594 -28.324219 12.898438 -28.304688 12.898438 -28.304688 C 12.917969 -28.144531 12.9375 -27.984375 12.777344 -27.964844 C 12.316406 -27.742188 11.875 -27.363281 11.257812 -27.125 C 11.277344 -26.960938 11.136719 -26.78125 10.695312 -26.402344 C 10.816406 -26.742188 10.636719 -26.882812 10.613281 -27.042969 C 10.496094 -26.703125 10.375 -26.363281 10.375 -26.363281 C 9.792969 -25.800781 9.351562 -25.421875 8.933594 -24.878906 C 8.59375 -25 8.433594 -24.980469 8.269531 -24.960938 C 8.292969 -24.800781 8.332031 -24.480469 8.210938 -24.136719 C 8.050781 -24.117188 7.730469 -24.078125 7.550781 -24.21875 C 7.570312 -24.058594 7.589844 -23.898438 7.289062 -23.699219 C 7.308594 -23.539062 7.167969 -23.355469 7.007812 -23.335938 C 6.550781 -23.117188 6.429688 -22.777344 5.96875 -22.554688 C 5.6875 -22.195312 5.40625 -21.835938 5.105469 -21.632812 C 4.847656 -21.113281 4.546875 -20.914062 4.265625 -20.550781 C 4.125 -20.371094 3.984375 -20.191406 4.003906 -20.03125 C 3.402344 -19.632812 2.964844 -19.25 2.523438 -18.871094 C 2.523438 -18.871094 2.5625 -18.550781 2.582031 -18.390625 C 1.480469 -18.089844 0.960938 -17.046875 0.199219 -16.625 C 0.078125 -16.285156 0.0976562 -16.125 0.121094 -15.964844 C -0.179688 -15.765625 -0.320312 -15.585938 -0.640625 -15.542969 C -0.882812 -14.863281 -0.882812 -14.863281 -1.304688 -14.324219 C -1.5625 -13.800781 -1.984375 -13.261719 -2.40625 -12.71875 C -2.363281 -12.398438 -2.523438 -12.378906 -2.644531 -12.039062 C -2.625 -11.878906 -3.085938 -11.65625 -3.085938 -11.65625 C -3.1875 -11.15625 -3.1875 -11.15625 -3.925781 -10.578125 C -3.90625 -10.417969 -4.046875 -10.234375 -4.207031 -10.214844 C -4.347656 -10.035156 -4.148438 -9.734375 -4.289062 -9.554688 C -4.449219 -9.535156 -4.746094 -9.335938 -4.726562 -9.175781 C -4.6875 -8.855469 -4.828125 -8.671875 -4.949219 -8.332031 C -5.390625 -7.953125 -5.648438 -7.429688 -5.75 -6.929688 C -5.847656 -6.429688 -6.109375 -5.910156 -6.410156 -5.707031 C -6.8125 -5.007812 -7.210938 -4.304688 -7.3125 -3.804688 C -7.550781 -3.125 -7.792969 -2.441406 -7.890625 -1.941406 C -7.851562 -1.621094 -7.832031 -1.460938 -7.8125 -1.300781 C -8.03125 -0.460938 -7.652344 -0.0195312 -7.089844 0.5625 C -6.550781 0.980469 -5.847656 1.382812 -5.308594 1.804688 C -4.96875 1.921875 -4.648438 1.882812 -4.648438 1.882812 C -4.167969 1.824219 -3.964844 2.125 -3.34375 1.882812 C -3.363281 1.722656 -3.183594 1.863281 -3.003906 2.003906 C -3.003906 2.003906 -2.84375 1.984375 -2.683594 1.964844 C -2.203125 1.902344 -1.722656 1.84375 -1.261719 1.621094 C -0.960938 1.421875 -0.78125 1.5625 -0.460938 1.523438 C -0.359375 1.023438 -0.199219 1 0.28125 0.941406 C 1.082031 0.839844 1.683594 0.441406 2.285156 0.0390625 C 2.644531 0.320312 2.925781 -0.0390625 3.066406 -0.21875 C 3.804688 -0.800781 4.746094 -1.082031 5.546875 -1.183594 C 5.929688 -2.042969 7.050781 -2.183594 7.613281 -2.90625 C 7.773438 -2.925781 7.933594 -2.945312 7.933594 -2.945312 C 8.371094 -3.324219 8.511719 -3.507812 8.8125 -3.707031 C 9.09375 -4.066406 9.554688 -4.289062 9.996094 -4.667969 C 10.738281 -5.25 11.476562 -5.828125 12.21875 -6.410156 C 12.519531 -6.609375 12.660156 -6.792969 12.800781 -6.972656 C 13.242188 -7.351562 13.660156 -7.894531 13.941406 -8.253906 C 14.382812 -8.632812 14.78125 -9.335938 15.363281 -9.894531 C 15.964844 -10.296875 16.085938 -10.636719 16.824219 -11.21875 C 16.964844 -11.398438 17.105469 -11.578125 17.085938 -11.738281 C 17.527344 -12.121094 17.96875 -12.5 18.246094 -12.859375 C 18.847656 -13.261719 18.789062 -13.742188 19.210938 -14.285156 Z M -5.789062 -0.742188 C -5.769531 -1.882812 -5.910156 -3.003906 -4.726562 -3.964844 C -4.746094 -4.125 -4.769531 -4.285156 -4.789062 -4.445312 C -4.6875 -4.949219 -4.246094 -5.328125 -4.285156 -5.648438 C -3.988281 -5.847656 -3.867188 -6.1875 -3.726562 -6.371094 C -3.484375 -7.050781 -3.085938 -7.75 -2.683594 -8.453125 C -2.523438 -8.472656 -2.382812 -8.652344 -2.402344 -8.8125 C -1.742188 -10.035156 -1.0625 -11.097656 -0.199219 -12.019531 C -0.0390625 -12.039062 0.0976562 -12.21875 0.257812 -12.238281 C 0.359375 -12.738281 0.480469 -13.082031 0.761719 -13.441406 C 1.640625 -14.203125 2.183594 -15.082031 3.042969 -16.003906 C 3.042969 -16.003906 3.183594 -16.183594 3.183594 -16.183594 C 3.886719 -17.085938 4.445312 -17.808594 5.347656 -18.410156 C 5.808594 -18.628906 6.066406 -19.148438 6.550781 -19.210938 C 6.871094 -19.25 6.96875 -19.75 7.148438 -19.609375 C 7.570312 -20.152344 8.03125 -20.371094 8.652344 -20.613281 C 8.792969 -20.792969 8.933594 -20.972656 9.394531 -21.195312 C 9.511719 -21.535156 9.972656 -21.753906 10.273438 -21.953125 C 10.273438 -21.953125 10.453125 -21.816406 10.617188 -21.835938 C 10.316406 -21.632812 10.195312 -21.292969 10.054688 -21.113281 C 10.074219 -20.953125 10.113281 -20.632812 10.132812 -20.472656 C 10.65625 -20.210938 11.136719 -20.273438 11.617188 -20.332031 C 11.957031 -20.210938 12.136719 -20.070312 12.316406 -19.933594 C 12.777344 -20.152344 12.917969 -20.332031 13.339844 -20.875 C 13.679688 -20.753906 14 -20.792969 14.5 -20.691406 C 15.003906 -20.59375 14.921875 -21.234375 15.382812 -21.453125 C 15.523438 -21.632812 15.683594 -21.65625 16.003906 -21.695312 C 16.003906 -21.695312 16.503906 -21.59375 16.363281 -21.414062 C 16.484375 -21.753906 16.625 -21.933594 16.925781 -22.136719 C 17.265625 -22.015625 17.746094 -22.074219 18.226562 -22.136719 C 18.386719 -22.15625 18.40625 -21.996094 18.746094 -21.875 C 18.769531 -21.714844 19.089844 -21.753906 19.089844 -21.753906 C 19.128906 -21.433594 19.328125 -21.132812 19.507812 -20.992188 C 19.269531 -20.3125 19.347656 -19.671875 19.070312 -19.3125 C 18.808594 -18.789062 18.910156 -17.988281 18.308594 -17.589844 C 18.328125 -17.429688 18.207031 -17.085938 18.066406 -16.90625 C 17.667969 -16.207031 17.105469 -15.484375 16.566406 -14.605469 C 16.003906 -13.882812 15.605469 -13.179688 15.042969 -12.460938 C 14.902344 -12.28125 14.941406 -11.960938 14.800781 -11.78125 C 14.640625 -11.757812 14.480469 -11.738281 14.503906 -11.578125 C 14.0625 -11.199219 13.941406 -10.859375 13.339844 -10.457031 C 13.339844 -10.457031 13.019531 -10.417969 13.039062 -10.257812 C 12.898438 -10.078125 12.757812 -9.894531 12.296875 -9.675781 C 12.296875 -9.675781 12.480469 -9.535156 12.5 -9.375 C 12.179688 -9.335938 12.179688 -9.335938 12.019531 -9.316406 C 11.636719 -8.453125 10.675781 -8.332031 10.457031 -7.492188 C 10.296875 -7.472656 10.136719 -7.453125 10.117188 -7.613281 C 10.117188 -7.613281 9.976562 -7.433594 9.816406 -7.414062 C 9.734375 -6.75 9.273438 -6.53125 8.652344 -6.289062 C 8.351562 -6.089844 8.050781 -5.890625 7.773438 -5.527344 C 7.792969 -5.367188 7.792969 -5.367188 7.792969 -5.367188 C 7.011719 -5.109375 6.449219 -4.386719 5.648438 -4.285156 C 5.226562 -3.746094 5.085938 -3.566406 4.789062 -3.367188 C 4.1875 -2.964844 3.40625 -2.703125 2.804688 -2.304688 C 2.042969 -1.882812 0.78125 -1.5625 0.179688 -1.160156 C -0.441406 -0.921875 -1.0625 -0.679688 -1.84375 -0.421875 C -2.324219 -0.359375 -2.664062 -0.480469 -2.964844 -0.28125 C -3.585938 -0.0390625 -4.425781 -0.261719 -4.925781 -0.359375 C -5.269531 -0.480469 -5.609375 -0.601562 -5.789062 -0.742188 Z M -5.789062 -0.742188 "/></g></g></g></svg>