<svg xmlns="http://www.w3.org/2000/svg" xmlns:xlink="http://www.w3.org/1999/xlink" width="500" zoomAndPan="magnify" viewBox="0 0 375 374.999991" height="500" preserveAspectRatio="xMidYMid meet" version="1.0"><defs><g/></defs><g fill="#000000" fill-opacity="1"><g transform="translate(140.152352, 231.176359)"><g><path d="M 73.375 -108.453125 C 72.519531 -104.160156 71.550781 -99.90625 70.46875 -95.6875 C 59.0625 -51.925781 49.273438 -14.367188 41.109375 16.984375 C 38.171875 18.015625 37.265625 16.332031 38.390625 11.9375 C 40.296875 2.476562 43.875 -12.65625 49.125 -33.46875 C 54.382812 -54.289062 59.800781 -75.070312 65.375 -95.8125 C 66.507812 -100.03125 67.488281 -104.269531 68.3125 -108.53125 C 68.320312 -108.738281 68.363281 -108.945312 68.4375 -109.15625 C 68.632812 -109.945312 68.769531 -110.789062 68.84375 -111.6875 C 68.914062 -112.582031 68.789062 -113.519531 68.46875 -114.5 C 67.164062 -114.0625 66.007812 -113.472656 65 -112.734375 C 64.71875 -112.585938 64.46875 -112.453125 64.25 -112.328125 C 54.664062 -106.378906 44.832031 -99.066406 34.75 -90.390625 C 24.664062 -81.710938 16.085938 -72.972656 9.015625 -64.171875 C 7.492188 -62.265625 6.046875 -60.289062 4.671875 -58.25 C 3.304688 -56.21875 2.050781 -54.09375 0.90625 -51.875 C -0.375 -49.46875 -1.1875 -46.910156 -1.53125 -44.203125 C -2.1875 -39.140625 -0.160156 -35.703125 4.546875 -33.890625 C 7.835938 -32.671875 11.023438 -32.015625 14.109375 -31.921875 C 17.191406 -31.835938 20.054688 -32.03125 22.703125 -32.5 C 25.347656 -32.96875 27.613281 -33.472656 29.5 -34.015625 C 30.289062 -34.191406 30.984375 -34.363281 31.578125 -34.53125 C 31.941406 -34.625 32.320312 -34.664062 32.71875 -34.65625 C 33.125 -34.644531 33.507812 -34.488281 33.875 -34.1875 C 34.4375 -33.59375 33.90625 -32.984375 32.28125 -32.359375 C 30.664062 -31.742188 28.410156 -31.203125 25.515625 -30.734375 C 22.628906 -30.265625 19.53125 -29.945312 16.21875 -29.78125 C 10.34375 -29.65625 5.675781 -30.164062 2.21875 -31.3125 C 0.101562 -31.945312 -1.734375 -33.023438 -3.296875 -34.546875 C -5.140625 -36.398438 -6.09375 -38.597656 -6.15625 -41.140625 C -6.257812 -43.796875 -5.835938 -46.335938 -4.890625 -48.765625 C -3.316406 -52.742188 -1.28125 -56.429688 1.21875 -59.828125 C 5.539062 -66.003906 10.722656 -72.132812 16.765625 -78.21875 C 22.816406 -84.3125 29.171875 -90.078125 35.828125 -95.515625 C 42.492188 -100.960938 48.910156 -105.8125 55.078125 -110.0625 C 57.910156 -111.945312 60.800781 -113.742188 63.75 -115.453125 C 65.144531 -116.285156 66.640625 -116.953125 68.234375 -117.453125 C 68.679688 -117.585938 69.09375 -117.65625 69.46875 -117.65625 C 72.445312 -118.289062 73.941406 -116.96875 73.953125 -113.6875 C 73.921875 -111.925781 73.726562 -110.179688 73.375 -108.453125 Z M 73.375 -108.453125 "/></g></g><g transform="translate(205.576879, 220.549863)"><g><path d="M 21.859375 -20.09375 C 22.078125 -19.894531 22.160156 -19.671875 22.109375 -19.421875 C 22.054688 -19.179688 21.9375 -18.945312 21.75 -18.71875 C 20.507812 -17.164062 19.054688 -15.851562 17.390625 -14.78125 C 14.546875 -12.851562 11.460938 -11.445312 8.140625 -10.5625 C 5.535156 -9.863281 2.941406 -9.851562 0.359375 -10.53125 C -0.585938 -10.789062 -1.207031 -10.476562 -1.5 -9.59375 C -1.882812 -8.332031 -2.3125 -7.070312 -2.78125 -5.8125 C -3 -5.101562 -3.238281 -4.375 -3.5 -3.625 C -3.539062 -3.53125 -3.570312 -3.425781 -3.59375 -3.3125 C -3.695312 -3.050781 -3.800781 -2.800781 -3.90625 -2.5625 C -4.007812 -2.332031 -4.222656 -2.148438 -4.546875 -2.015625 C -4.703125 -1.953125 -4.875 -1.90625 -5.0625 -1.875 C -5.257812 -1.84375 -5.441406 -1.851562 -5.609375 -1.90625 C -5.742188 -2.007812 -5.875 -2.132812 -6 -2.28125 C -6.125 -2.4375 -6.203125 -2.613281 -6.234375 -2.8125 C -6.171875 -3.445312 -6.0625 -4.082031 -5.90625 -4.71875 C -5.53125 -6.164062 -5.160156 -7.585938 -4.796875 -8.984375 C -3.910156 -12.546875 -2.9375 -16.078125 -1.875 -19.578125 C 1.019531 -29.234375 3.695312 -38.953125 6.15625 -48.734375 C 6.332031 -49.660156 6.632812 -50.515625 7.0625 -51.296875 C 7.40625 -51.867188 7.96875 -52.101562 8.75 -52 C 9.5625 -51.800781 9.878906 -51.296875 9.703125 -50.484375 C 9.453125 -48.847656 9.164062 -47.191406 8.84375 -45.515625 C 7.070312 -37.816406 5.019531 -30.207031 2.6875 -22.6875 C 2.1875 -21.070312 2.070312 -20.085938 2.34375 -19.734375 C 2.613281 -19.378906 3.113281 -19.425781 3.84375 -19.875 C 4.570312 -20.332031 5.40625 -20.914062 6.34375 -21.625 C 7.019531 -22.164062 7.695312 -22.65625 8.375 -23.09375 C 8.507812 -23.21875 8.640625 -23.3125 8.765625 -23.375 C 9.566406 -24.03125 10.476562 -24.460938 11.5 -24.671875 C 11.90625 -24.734375 12.234375 -24.601562 12.484375 -24.28125 C 12.609375 -24.0625 12.640625 -23.859375 12.578125 -23.671875 C 12.523438 -23.492188 12.425781 -23.351562 12.28125 -23.25 C 10.851562 -22.0625 9.394531 -20.914062 7.90625 -19.8125 C 7.1875 -19.320312 6.441406 -18.796875 5.671875 -18.234375 C 4.910156 -17.722656 4.160156 -17.191406 3.421875 -16.640625 C 2.929688 -16.242188 2.488281 -15.796875 2.09375 -15.296875 C 1.195312 -13.992188 1.460938 -13.082031 2.890625 -12.5625 C 4.046875 -12.28125 5.164062 -12.21875 6.25 -12.375 C 7.332031 -12.53125 8.394531 -12.828125 9.4375 -13.265625 C 12.632812 -14.546875 15.5625 -16.269531 18.21875 -18.4375 C 18.425781 -18.601562 18.640625 -18.753906 18.859375 -18.890625 C 19.347656 -19.347656 19.878906 -19.757812 20.453125 -20.125 C 20.660156 -20.269531 20.90625 -20.351562 21.1875 -20.375 C 21.46875 -20.394531 21.691406 -20.300781 21.859375 -20.09375 Z M 21.859375 -20.09375 "/></g></g><g transform="translate(227.82754, 216.935827)"><g><path d="M 16.03125 -15.046875 C 15.007812 -13.648438 13.757812 -12.394531 12.28125 -11.28125 C 10.800781 -10.164062 9.53125 -9.390625 8.46875 -8.953125 C 7.414062 -8.515625 6.316406 -8.175781 5.171875 -7.9375 C 3.316406 -7.550781 1.566406 -7.53125 -0.078125 -7.875 C -2.796875 -8.476562 -4 -10.304688 -3.6875 -13.359375 C -3.363281 -15.972656 -2.1875 -18.171875 -0.15625 -19.953125 C 1.875 -21.734375 4.09375 -22.800781 6.5 -23.15625 C 6.5 -23.15625 6.519531 -23.160156 6.5625 -23.171875 C 7.164062 -23.304688 7.75 -23.347656 8.3125 -23.296875 C 9.300781 -23.117188 9.984375 -22.671875 10.359375 -21.953125 C 10.734375 -21.234375 10.695312 -20.367188 10.25 -19.359375 C 9.238281 -17.085938 7.59375 -15.648438 5.3125 -15.046875 C 3.800781 -14.648438 2.300781 -14.476562 0.8125 -14.53125 C 0.53125 -14.53125 0.296875 -14.414062 0.109375 -14.1875 C -0.0664062 -13.96875 -0.148438 -13.71875 -0.140625 -13.4375 C -0.265625 -11.550781 0.484375 -10.484375 2.109375 -10.234375 C 4.109375 -9.898438 6.078125 -10.222656 8.015625 -11.203125 C 10.242188 -12.316406 12.257812 -14.066406 14.0625 -16.453125 C 15.863281 -18.847656 16.9375 -20.003906 17.28125 -19.921875 C 17.632812 -19.835938 17.800781 -19.457031 17.78125 -18.78125 C 17.644531 -17.695312 17.0625 -16.453125 16.03125 -15.046875 Z M 1.75 -17.96875 C 1.644531 -17.800781 1.582031 -17.625 1.5625 -17.4375 C 1.539062 -17.25 1.632812 -17.09375 1.84375 -16.96875 C 2.65625 -16.664062 3.484375 -16.644531 4.328125 -16.90625 C 5.171875 -17.164062 5.847656 -17.609375 6.359375 -18.234375 C 6.878906 -18.867188 7.03125 -19.566406 6.8125 -20.328125 C 6.707031 -20.597656 6.53125 -20.75 6.28125 -20.78125 C 6.039062 -20.820312 5.8125 -20.804688 5.59375 -20.734375 C 4.082031 -20.191406 2.800781 -19.269531 1.75 -17.96875 Z M 1.75 -17.96875 "/></g></g></g></svg>