<svg xmlns="http://www.w3.org/2000/svg" xmlns:xlink="http://www.w3.org/1999/xlink" width="500" zoomAndPan="magnify" viewBox="0 0 375 374.999991" height="500" preserveAspectRatio="xMidYMid meet" version="1.0"><defs><g/><clipPath id="b140f6811e"><path d="M 32 196 L 71 196 L 71 209 L 32 209 Z M 32 196 " clip-rule="nonzero"/></clipPath><clipPath id="f30b810ab9"><path d="M 0 204.269531 L 88.234375 82.039062 L 211.074219 170.714844 L 122.835938 292.945312 Z M 0 204.269531 " clip-rule="nonzero"/></clipPath><clipPath id="46f7bbc54e"><path d="M 0 204.269531 L 88.234375 82.039062 L 211.074219 170.714844 L 122.835938 292.945312 Z M 0 204.269531 " clip-rule="nonzero"/></clipPath><clipPath id="e9fe5d8983"><path d="M 30 182 L 69 182 L 69 186 L 30 186 Z M 30 182 " clip-rule="nonzero"/></clipPath><clipPath id="0d1c892aa1"><path d="M 0 204.269531 L 88.234375 82.039062 L 211.074219 170.714844 L 122.835938 292.945312 Z M 0 204.269531 " clip-rule="nonzero"/></clipPath><clipPath id="907f488d76"><path d="M 0 204.269531 L 88.234375 82.039062 L 211.074219 170.714844 L 122.835938 292.945312 Z M 0 204.269531 " clip-rule="nonzero"/></clipPath><clipPath id="02c824ba72"><path d="M 34 200 L 72 200 L 72 216 L 34 216 Z M 34 200 " clip-rule="nonzero"/></clipPath><clipPath id="042b8e3499"><path d="M 0 204.269531 L 88.234375 82.039062 L 211.074219 170.714844 L 122.835938 292.945312 Z M 0 204.269531 " clip-rule="nonzero"/></clipPath><clipPath id="a0916e45d9"><path d="M 0 204.269531 L 88.234375 82.039062 L 211.074219 170.714844 L 122.835938 292.945312 Z M 0 204.269531 " clip-rule="nonzero"/></clipPath><clipPath id="41c5b74cd4"><path d="M 30 191 L 70 191 L 70 201 L 30 201 Z M 30 191 " clip-rule="nonzero"/></clipPath><clipPath id="9b21b1d7be"><path d="M 0 204.269531 L 88.234375 82.039062 L 211.074219 170.714844 L 122.835938 292.945312 Z M 0 204.269531 " clip-rule="nonzero"/></clipPath><clipPath id="7c9991c1e9"><path d="M 0 204.269531 L 88.234375 82.039062 L 211.074219 170.714844 L 122.835938 292.945312 Z M 0 204.269531 " clip-rule="nonzero"/></clipPath><clipPath id="9a7daf181b"><path d="M 97 236 L 108 236 L 108 263 L 97 263 Z M 97 236 " clip-rule="nonzero"/></clipPath><clipPath id="cd94c87710"><path d="M 0 204.269531 L 88.234375 82.039062 L 211.074219 170.714844 L 122.835938 292.945312 Z M 0 204.269531 " clip-rule="nonzero"/></clipPath><clipPath id="7af6dfa766"><path d="M 0 204.269531 L 88.234375 82.039062 L 211.074219 170.714844 L 122.835938 292.945312 Z M 0 204.269531 " clip-rule="nonzero"/></clipPath><clipPath id="5502279a9b"><path d="M 90 234 L 104 234 L 104 262 L 90 262 Z M 90 234 " clip-rule="nonzero"/></clipPath><clipPath id="b144152211"><path d="M 0 204.269531 L 88.234375 82.039062 L 211.074219 170.714844 L 122.835938 292.945312 Z M 0 204.269531 " clip-rule="nonzero"/></clipPath><clipPath id="f0e2bcd00b"><path d="M 0 204.269531 L 88.234375 82.039062 L 211.074219 170.714844 L 122.835938 292.945312 Z M 0 204.269531 " clip-rule="nonzero"/></clipPath><clipPath id="0d678da029"><path d="M 37 205 L 74 205 L 74 223 L 37 223 Z M 37 205 " clip-rule="nonzero"/></clipPath><clipPath id="f94e20cfda"><path d="M 0 204.269531 L 88.234375 82.039062 L 211.074219 170.714844 L 122.835938 292.945312 Z M 0 204.269531 " clip-rule="nonzero"/></clipPath><clipPath id="c04afb024d"><path d="M 0 204.269531 L 88.234375 82.039062 L 211.074219 170.714844 L 122.835938 292.945312 Z M 0 204.269531 " clip-rule="nonzero"/></clipPath><clipPath id="213cf8c80c"><path d="M 36 153 L 71 153 L 71 164 L 36 164 Z M 36 153 " clip-rule="nonzero"/></clipPath><clipPath id="46b8c68a25"><path d="M 0 204.269531 L 88.234375 82.039062 L 211.074219 170.714844 L 122.835938 292.945312 Z M 0 204.269531 " clip-rule="nonzero"/></clipPath><clipPath id="cc5eba7f0b"><path d="M 0 204.269531 L 88.234375 82.039062 L 211.074219 170.714844 L 122.835938 292.945312 Z M 0 204.269531 " clip-rule="nonzero"/></clipPath><clipPath id="a6a1d9a818"><path d="M 40 146 L 72 146 L 72 159 L 40 159 Z M 40 146 " clip-rule="nonzero"/></clipPath><clipPath id="89dac67804"><path d="M 0 204.269531 L 88.234375 82.039062 L 211.074219 170.714844 L 122.835938 292.945312 Z M 0 204.269531 " clip-rule="nonzero"/></clipPath><clipPath id="95f81a7a71"><path d="M 0 204.269531 L 88.234375 82.039062 L 211.074219 170.714844 L 122.835938 292.945312 Z M 0 204.269531 " clip-rule="nonzero"/></clipPath><clipPath id="80938f2c95"><path d="M 30 174 L 69 174 L 69 178 L 30 178 Z M 30 174 " clip-rule="nonzero"/></clipPath><clipPath id="7dc250c26b"><path d="M 0 204.269531 L 88.234375 82.039062 L 211.074219 170.714844 L 122.835938 292.945312 Z M 0 204.269531 " clip-rule="nonzero"/></clipPath><clipPath id="3c27490ca7"><path d="M 0 204.269531 L 88.234375 82.039062 L 211.074219 170.714844 L 122.835938 292.945312 Z M 0 204.269531 " clip-rule="nonzero"/></clipPath><clipPath id="a0da6379e1"><path d="M 104 237 L 113 237 L 113 263 L 104 263 Z M 104 237 " clip-rule="nonzero"/></clipPath><clipPath id="31ed05dfc5"><path d="M 0 204.269531 L 88.234375 82.039062 L 211.074219 170.714844 L 122.835938 292.945312 Z M 0 204.269531 " clip-rule="nonzero"/></clipPath><clipPath id="3e88324599"><path d="M 0 204.269531 L 88.234375 82.039062 L 211.074219 170.714844 L 122.835938 292.945312 Z M 0 204.269531 " clip-rule="nonzero"/></clipPath><clipPath id="d91e6fcb82"><path d="M 71 118 L 88 118 L 88 136 L 71 136 Z M 71 118 " clip-rule="nonzero"/></clipPath><clipPath id="82fbd6faef"><path d="M 0 204.269531 L 88.234375 82.039062 L 211.074219 170.714844 L 122.835938 292.945312 Z M 0 204.269531 " clip-rule="nonzero"/></clipPath><clipPath id="4e101cbe25"><path d="M 0 204.269531 L 88.234375 82.039062 L 211.074219 170.714844 L 122.835938 292.945312 Z M 0 204.269531 " clip-rule="nonzero"/></clipPath><clipPath id="cb754779e8"><path d="M 34 159 L 70 159 L 70 169 L 34 169 Z M 34 159 " clip-rule="nonzero"/></clipPath><clipPath id="3009bd183e"><path d="M 0 204.269531 L 88.234375 82.039062 L 211.074219 170.714844 L 122.835938 292.945312 Z M 0 204.269531 " clip-rule="nonzero"/></clipPath><clipPath id="ff1b6c926c"><path d="M 0 204.269531 L 88.234375 82.039062 L 211.074219 170.714844 L 122.835938 292.945312 Z M 0 204.269531 " clip-rule="nonzero"/></clipPath><clipPath id="f21c8792ed"><path d="M 32 167 L 69 167 L 69 173 L 32 173 Z M 32 167 " clip-rule="nonzero"/></clipPath><clipPath id="fe840b3adc"><path d="M 0 204.269531 L 88.234375 82.039062 L 211.074219 170.714844 L 122.835938 292.945312 Z M 0 204.269531 " clip-rule="nonzero"/></clipPath><clipPath id="6ab1563f25"><path d="M 0 204.269531 L 88.234375 82.039062 L 211.074219 170.714844 L 122.835938 292.945312 Z M 0 204.269531 " clip-rule="nonzero"/></clipPath><clipPath id="3d791bcfe2"><path d="M 111 239 L 117 239 L 117 263 L 111 263 Z M 111 239 " clip-rule="nonzero"/></clipPath><clipPath id="50e0e1b9ac"><path d="M 0 204.269531 L 88.234375 82.039062 L 211.074219 170.714844 L 122.835938 292.945312 Z M 0 204.269531 " clip-rule="nonzero"/></clipPath><clipPath id="c47e152069"><path d="M 0 204.269531 L 88.234375 82.039062 L 211.074219 170.714844 L 122.835938 292.945312 Z M 0 204.269531 " clip-rule="nonzero"/></clipPath><clipPath id="da40a66047"><path d="M 162 229 L 166 229 L 166 235 L 162 235 Z M 162 229 " clip-rule="nonzero"/></clipPath><clipPath id="2013f824ff"><path d="M 0 204.269531 L 88.234375 82.039062 L 211.074219 170.714844 L 122.835938 292.945312 Z M 0 204.269531 " clip-rule="nonzero"/></clipPath><clipPath id="d950fb3047"><path d="M 0 204.269531 L 88.234375 82.039062 L 211.074219 170.714844 L 122.835938 292.945312 Z M 0 204.269531 " clip-rule="nonzero"/></clipPath><clipPath id="5cae48c0d4"><path d="M 158 232 L 162 232 L 162 239 L 158 239 Z M 158 232 " clip-rule="nonzero"/></clipPath><clipPath id="4a98c3bca8"><path d="M 0 204.269531 L 88.234375 82.039062 L 211.074219 170.714844 L 122.835938 292.945312 Z M 0 204.269531 " clip-rule="nonzero"/></clipPath><clipPath id="c1651819cc"><path d="M 0 204.269531 L 88.234375 82.039062 L 211.074219 170.714844 L 122.835938 292.945312 Z M 0 204.269531 " clip-rule="nonzero"/></clipPath><clipPath id="8007656c0b"><path d="M 77 116 L 91 116 L 91 133 L 77 133 Z M 77 116 " clip-rule="nonzero"/></clipPath><clipPath id="71ca504b3c"><path d="M 0 204.269531 L 88.234375 82.039062 L 211.074219 170.714844 L 122.835938 292.945312 Z M 0 204.269531 " clip-rule="nonzero"/></clipPath><clipPath id="4632e6f579"><path d="M 0 204.269531 L 88.234375 82.039062 L 211.074219 170.714844 L 122.835938 292.945312 Z M 0 204.269531 " clip-rule="nonzero"/></clipPath><clipPath id="c41e79912a"><path d="M 169 224 L 172 224 L 172 226 L 169 226 Z M 169 224 " clip-rule="nonzero"/></clipPath><clipPath id="6c76c7e4cd"><path d="M 0 204.269531 L 88.234375 82.039062 L 211.074219 170.714844 L 122.835938 292.945312 Z M 0 204.269531 " clip-rule="nonzero"/></clipPath><clipPath id="ca03c8aa21"><path d="M 0 204.269531 L 88.234375 82.039062 L 211.074219 170.714844 L 122.835938 292.945312 Z M 0 204.269531 " clip-rule="nonzero"/></clipPath><clipPath id="cca0e3dd7e"><path d="M 154 234 L 158 234 L 158 243 L 154 243 Z M 154 234 " clip-rule="nonzero"/></clipPath><clipPath id="c4c4865a08"><path d="M 0 204.269531 L 88.234375 82.039062 L 211.074219 170.714844 L 122.835938 292.945312 Z M 0 204.269531 " clip-rule="nonzero"/></clipPath><clipPath id="800ba8e69f"><path d="M 0 204.269531 L 88.234375 82.039062 L 211.074219 170.714844 L 122.835938 292.945312 Z M 0 204.269531 " clip-rule="nonzero"/></clipPath><clipPath id="41dcb310b2"><path d="M 166 227 L 169 227 L 169 230 L 166 230 Z M 166 227 " clip-rule="nonzero"/></clipPath><clipPath id="bfe66ca31b"><path d="M 0 204.269531 L 88.234375 82.039062 L 211.074219 170.714844 L 122.835938 292.945312 Z M 0 204.269531 " clip-rule="nonzero"/></clipPath><clipPath id="c03759731e"><path d="M 0 204.269531 L 88.234375 82.039062 L 211.074219 170.714844 L 122.835938 292.945312 Z M 0 204.269531 " clip-rule="nonzero"/></clipPath><clipPath id="e7bffe1600"><path d="M 131 239 L 133 239 L 133 259 L 131 259 Z M 131 239 " clip-rule="nonzero"/></clipPath><clipPath id="af287c133d"><path d="M 0 204.269531 L 88.234375 82.039062 L 211.074219 170.714844 L 122.835938 292.945312 Z M 0 204.269531 " clip-rule="nonzero"/></clipPath><clipPath id="d3d6ffb99c"><path d="M 0 204.269531 L 88.234375 82.039062 L 211.074219 170.714844 L 122.835938 292.945312 Z M 0 204.269531 " clip-rule="nonzero"/></clipPath><clipPath id="9124c496be"><path d="M 135 239 L 139 239 L 139 257 L 135 257 Z M 135 239 " clip-rule="nonzero"/></clipPath><clipPath id="75d66dba16"><path d="M 0 204.269531 L 88.234375 82.039062 L 211.074219 170.714844 L 122.835938 292.945312 Z M 0 204.269531 " clip-rule="nonzero"/></clipPath><clipPath id="3a5bb3918e"><path d="M 0 204.269531 L 88.234375 82.039062 L 211.074219 170.714844 L 122.835938 292.945312 Z M 0 204.269531 " clip-rule="nonzero"/></clipPath><clipPath id="41cbf2a17e"><path d="M 118 239 L 122 239 L 122 262 L 118 262 Z M 118 239 " clip-rule="nonzero"/></clipPath><clipPath id="7fb5959c41"><path d="M 0 204.269531 L 88.234375 82.039062 L 211.074219 170.714844 L 122.835938 292.945312 Z M 0 204.269531 " clip-rule="nonzero"/></clipPath><clipPath id="0cac72130a"><path d="M 0 204.269531 L 88.234375 82.039062 L 211.074219 170.714844 L 122.835938 292.945312 Z M 0 204.269531 " clip-rule="nonzero"/></clipPath><clipPath id="55f99fdb75"><path d="M 140 239 L 144 239 L 144 254 L 140 254 Z M 140 239 " clip-rule="nonzero"/></clipPath><clipPath id="3967496019"><path d="M 0 204.269531 L 88.234375 82.039062 L 211.074219 170.714844 L 122.835938 292.945312 Z M 0 204.269531 " clip-rule="nonzero"/></clipPath><clipPath id="b8be0f792c"><path d="M 0 204.269531 L 88.234375 82.039062 L 211.074219 170.714844 L 122.835938 292.945312 Z M 0 204.269531 " clip-rule="nonzero"/></clipPath><clipPath id="e9714fc398"><path d="M 145 237 L 150 237 L 150 251 L 145 251 Z M 145 237 " clip-rule="nonzero"/></clipPath><clipPath id="5ea929111c"><path d="M 0 204.269531 L 88.234375 82.039062 L 211.074219 170.714844 L 122.835938 292.945312 Z M 0 204.269531 " clip-rule="nonzero"/></clipPath><clipPath id="a6f75b9037"><path d="M 0 204.269531 L 88.234375 82.039062 L 211.074219 170.714844 L 122.835938 292.945312 Z M 0 204.269531 " clip-rule="nonzero"/></clipPath><clipPath id="04b68870d1"><path d="M 149 236 L 154 236 L 154 247 L 149 247 Z M 149 236 " clip-rule="nonzero"/></clipPath><clipPath id="3f71baac3b"><path d="M 0 204.269531 L 88.234375 82.039062 L 211.074219 170.714844 L 122.835938 292.945312 Z M 0 204.269531 " clip-rule="nonzero"/></clipPath><clipPath id="df0bfeb440"><path d="M 0 204.269531 L 88.234375 82.039062 L 211.074219 170.714844 L 122.835938 292.945312 Z M 0 204.269531 " clip-rule="nonzero"/></clipPath><clipPath id="f7d842440f"><path d="M 41 209 L 77 209 L 77 230 L 41 230 Z M 41 209 " clip-rule="nonzero"/></clipPath><clipPath id="b085555829"><path d="M 0 204.269531 L 88.234375 82.039062 L 211.074219 170.714844 L 122.835938 292.945312 Z M 0 204.269531 " clip-rule="nonzero"/></clipPath><clipPath id="6c1c2493e1"><path d="M 0 204.269531 L 88.234375 82.039062 L 211.074219 170.714844 L 122.835938 292.945312 Z M 0 204.269531 " clip-rule="nonzero"/></clipPath><clipPath id="54fa18c5d9"><path d="M 49 135 L 76 135 L 76 151 L 49 151 Z M 49 135 " clip-rule="nonzero"/></clipPath><clipPath id="e779ece362"><path d="M 0 204.269531 L 88.234375 82.039062 L 211.074219 170.714844 L 122.835938 292.945312 Z M 0 204.269531 " clip-rule="nonzero"/></clipPath><clipPath id="e97e06e18d"><path d="M 0 204.269531 L 88.234375 82.039062 L 211.074219 170.714844 L 122.835938 292.945312 Z M 0 204.269531 " clip-rule="nonzero"/></clipPath><clipPath id="09e93874ae"><path d="M 45 213 L 79 213 L 79 236 L 45 236 Z M 45 213 " clip-rule="nonzero"/></clipPath><clipPath id="a33f6482a2"><path d="M 0 204.269531 L 88.234375 82.039062 L 211.074219 170.714844 L 122.835938 292.945312 Z M 0 204.269531 " clip-rule="nonzero"/></clipPath><clipPath id="5c45d82bde"><path d="M 0 204.269531 L 88.234375 82.039062 L 211.074219 170.714844 L 122.835938 292.945312 Z M 0 204.269531 " clip-rule="nonzero"/></clipPath><clipPath id="f4e478989c"><path d="M 82 232 L 100 232 L 100 260 L 82 260 Z M 82 232 " clip-rule="nonzero"/></clipPath><clipPath id="c9dc10cb8f"><path d="M 0 204.269531 L 88.234375 82.039062 L 211.074219 170.714844 L 122.835938 292.945312 Z M 0 204.269531 " clip-rule="nonzero"/></clipPath><clipPath id="98fcea898b"><path d="M 0 204.269531 L 88.234375 82.039062 L 211.074219 170.714844 L 122.835938 292.945312 Z M 0 204.269531 " clip-rule="nonzero"/></clipPath><clipPath id="06ed17d429"><path d="M 96 111 L 104 111 L 104 125 L 96 125 Z M 96 111 " clip-rule="nonzero"/></clipPath><clipPath id="750cf05007"><path d="M 0 204.269531 L 88.234375 82.039062 L 211.074219 170.714844 L 122.835938 292.945312 Z M 0 204.269531 " clip-rule="nonzero"/></clipPath><clipPath id="74f205d9b3"><path d="M 0 204.269531 L 88.234375 82.039062 L 211.074219 170.714844 L 122.835938 292.945312 Z M 0 204.269531 " clip-rule="nonzero"/></clipPath><clipPath id="6c1029580b"><path d="M 102 111 L 108 111 L 108 123 L 102 123 Z M 102 111 " clip-rule="nonzero"/></clipPath><clipPath id="8e16b987b7"><path d="M 0 204.269531 L 88.234375 82.039062 L 211.074219 170.714844 L 122.835938 292.945312 Z M 0 204.269531 " clip-rule="nonzero"/></clipPath><clipPath id="3b373f213c"><path d="M 0 204.269531 L 88.234375 82.039062 L 211.074219 170.714844 L 122.835938 292.945312 Z M 0 204.269531 " clip-rule="nonzero"/></clipPath><clipPath id="25bf60e855"><path d="M 65 121 L 85 121 L 85 139 L 65 139 Z M 65 121 " clip-rule="nonzero"/></clipPath><clipPath id="c39194d28d"><path d="M 0 204.269531 L 88.234375 82.039062 L 211.074219 170.714844 L 122.835938 292.945312 Z M 0 204.269531 " clip-rule="nonzero"/></clipPath><clipPath id="c2c28658cd"><path d="M 0 204.269531 L 88.234375 82.039062 L 211.074219 170.714844 L 122.835938 292.945312 Z M 0 204.269531 " clip-rule="nonzero"/></clipPath><clipPath id="f553ba43b3"><path d="M 54 130 L 79 130 L 79 147 L 54 147 Z M 54 130 " clip-rule="nonzero"/></clipPath><clipPath id="a4c9c8d8bb"><path d="M 0 204.269531 L 88.234375 82.039062 L 211.074219 170.714844 L 122.835938 292.945312 Z M 0 204.269531 " clip-rule="nonzero"/></clipPath><clipPath id="78f9cbacfb"><path d="M 0 204.269531 L 88.234375 82.039062 L 211.074219 170.714844 L 122.835938 292.945312 Z M 0 204.269531 " clip-rule="nonzero"/></clipPath><clipPath id="edc0a4211b"><path d="M 124 240 L 127 240 L 127 261 L 124 261 Z M 124 240 " clip-rule="nonzero"/></clipPath><clipPath id="34b8ea34fb"><path d="M 0 204.269531 L 88.234375 82.039062 L 211.074219 170.714844 L 122.835938 292.945312 Z M 0 204.269531 " clip-rule="nonzero"/></clipPath><clipPath id="6cb2bcce9d"><path d="M 0 204.269531 L 88.234375 82.039062 L 211.074219 170.714844 L 122.835938 292.945312 Z M 0 204.269531 " clip-rule="nonzero"/></clipPath><clipPath id="20125a52d0"><path d="M 30 186 L 69 186 L 69 194 L 30 194 Z M 30 186 " clip-rule="nonzero"/></clipPath><clipPath id="693e45dc82"><path d="M 0 204.269531 L 88.234375 82.039062 L 211.074219 170.714844 L 122.835938 292.945312 Z M 0 204.269531 " clip-rule="nonzero"/></clipPath><clipPath id="9f38f3b91f"><path d="M 0 204.269531 L 88.234375 82.039062 L 211.074219 170.714844 L 122.835938 292.945312 Z M 0 204.269531 " clip-rule="nonzero"/></clipPath><clipPath id="68955e6112"><path d="M 83 114 L 96 114 L 96 130 L 83 130 Z M 83 114 " clip-rule="nonzero"/></clipPath><clipPath id="d52ccc6f6a"><path d="M 0 204.269531 L 88.234375 82.039062 L 211.074219 170.714844 L 122.835938 292.945312 Z M 0 204.269531 " clip-rule="nonzero"/></clipPath><clipPath id="41d8bbb9de"><path d="M 0 204.269531 L 88.234375 82.039062 L 211.074219 170.714844 L 122.835938 292.945312 Z M 0 204.269531 " clip-rule="nonzero"/></clipPath><clipPath id="ffb1ac06f4"><path d="M 44 140 L 74 140 L 74 155 L 44 155 Z M 44 140 " clip-rule="nonzero"/></clipPath><clipPath id="940a7ab2cc"><path d="M 0 204.269531 L 88.234375 82.039062 L 211.074219 170.714844 L 122.835938 292.945312 Z M 0 204.269531 " clip-rule="nonzero"/></clipPath><clipPath id="6c1afbff1a"><path d="M 0 204.269531 L 88.234375 82.039062 L 211.074219 170.714844 L 122.835938 292.945312 Z M 0 204.269531 " clip-rule="nonzero"/></clipPath><clipPath id="5e0e3b62c0"><path d="M 173 220 L 174 220 L 174 222 L 173 222 Z M 173 220 " clip-rule="nonzero"/></clipPath><clipPath id="bb64955351"><path d="M 0 204.269531 L 88.234375 82.039062 L 211.074219 170.714844 L 122.835938 292.945312 Z M 0 204.269531 " clip-rule="nonzero"/></clipPath><clipPath id="7eb92a0b10"><path d="M 0 204.269531 L 88.234375 82.039062 L 211.074219 170.714844 L 122.835938 292.945312 Z M 0 204.269531 " clip-rule="nonzero"/></clipPath><clipPath id="7c5dfd4f0a"><path d="M 59 125 L 81 125 L 81 143 L 59 143 Z M 59 125 " clip-rule="nonzero"/></clipPath><clipPath id="984a817274"><path d="M 0 204.269531 L 88.234375 82.039062 L 211.074219 170.714844 L 122.835938 292.945312 Z M 0 204.269531 " clip-rule="nonzero"/></clipPath><clipPath id="d6ae16f36f"><path d="M 0 204.269531 L 88.234375 82.039062 L 211.074219 170.714844 L 122.835938 292.945312 Z M 0 204.269531 " clip-rule="nonzero"/></clipPath><clipPath id="c9b1caa5d6"><path d="M 135 117 L 136 117 L 136 120 L 135 120 Z M 135 117 " clip-rule="nonzero"/></clipPath><clipPath id="5234131d13"><path d="M 0 204.269531 L 88.234375 82.039062 L 211.074219 170.714844 L 122.835938 292.945312 Z M 0 204.269531 " clip-rule="nonzero"/></clipPath><clipPath id="1616600f1b"><path d="M 0 204.269531 L 88.234375 82.039062 L 211.074219 170.714844 L 122.835938 292.945312 Z M 0 204.269531 " clip-rule="nonzero"/></clipPath><clipPath id="cae5c321a4"><path d="M 130 115 L 132 115 L 132 120 L 130 120 Z M 130 115 " clip-rule="nonzero"/></clipPath><clipPath id="04bbfa6d95"><path d="M 0 204.269531 L 88.234375 82.039062 L 211.074219 170.714844 L 122.835938 292.945312 Z M 0 204.269531 " clip-rule="nonzero"/></clipPath><clipPath id="3e6ee960ec"><path d="M 0 204.269531 L 88.234375 82.039062 L 211.074219 170.714844 L 122.835938 292.945312 Z M 0 204.269531 " clip-rule="nonzero"/></clipPath><clipPath id="7cc763697c"><path d="M 50 217 L 82 217 L 82 242 L 50 242 Z M 50 217 " clip-rule="nonzero"/></clipPath><clipPath id="98e8d2584a"><path d="M 0 204.269531 L 88.234375 82.039062 L 211.074219 170.714844 L 122.835938 292.945312 Z M 0 204.269531 " clip-rule="nonzero"/></clipPath><clipPath id="6631f7c480"><path d="M 0 204.269531 L 88.234375 82.039062 L 211.074219 170.714844 L 122.835938 292.945312 Z M 0 204.269531 " clip-rule="nonzero"/></clipPath><clipPath id="7c56526a2d"><path d="M 56 220 L 85 220 L 85 247 L 56 247 Z M 56 220 " clip-rule="nonzero"/></clipPath><clipPath id="d87ebd4bb7"><path d="M 0 204.269531 L 88.234375 82.039062 L 211.074219 170.714844 L 122.835938 292.945312 Z M 0 204.269531 " clip-rule="nonzero"/></clipPath><clipPath id="daa37e18dd"><path d="M 0 204.269531 L 88.234375 82.039062 L 211.074219 170.714844 L 122.835938 292.945312 Z M 0 204.269531 " clip-rule="nonzero"/></clipPath><clipPath id="f4d6d7ed3d"><path d="M 140 119 L 141 119 L 141 121 L 140 121 Z M 140 119 " clip-rule="nonzero"/></clipPath><clipPath id="885ac33f8f"><path d="M 0 204.269531 L 88.234375 82.039062 L 211.074219 170.714844 L 122.835938 292.945312 Z M 0 204.269531 " clip-rule="nonzero"/></clipPath><clipPath id="165a30d3f9"><path d="M 0 204.269531 L 88.234375 82.039062 L 211.074219 170.714844 L 122.835938 292.945312 Z M 0 204.269531 " clip-rule="nonzero"/></clipPath><clipPath id="68c96b5fc5"><path d="M 75 230 L 96 230 L 96 258 L 75 258 Z M 75 230 " clip-rule="nonzero"/></clipPath><clipPath id="7975420dae"><path d="M 0 204.269531 L 88.234375 82.039062 L 211.074219 170.714844 L 122.835938 292.945312 Z M 0 204.269531 " clip-rule="nonzero"/></clipPath><clipPath id="024ed3b5ac"><path d="M 0 204.269531 L 88.234375 82.039062 L 211.074219 170.714844 L 122.835938 292.945312 Z M 0 204.269531 " clip-rule="nonzero"/></clipPath><clipPath id="fac1b43ec0"><path d="M 90 112 L 99 112 L 99 127 L 90 127 Z M 90 112 " clip-rule="nonzero"/></clipPath><clipPath id="dfb9f2634b"><path d="M 0 204.269531 L 88.234375 82.039062 L 211.074219 170.714844 L 122.835938 292.945312 Z M 0 204.269531 " clip-rule="nonzero"/></clipPath><clipPath id="2c8e1ea88c"><path d="M 0 204.269531 L 88.234375 82.039062 L 211.074219 170.714844 L 122.835938 292.945312 Z M 0 204.269531 " clip-rule="nonzero"/></clipPath><clipPath id="4ad93b69d6"><path d="M 120 112 L 122 112 L 122 120 L 120 120 Z M 120 112 " clip-rule="nonzero"/></clipPath><clipPath id="9fa8853603"><path d="M 0 204.269531 L 88.234375 82.039062 L 211.074219 170.714844 L 122.835938 292.945312 Z M 0 204.269531 " clip-rule="nonzero"/></clipPath><clipPath id="087c8a9c70"><path d="M 0 204.269531 L 88.234375 82.039062 L 211.074219 170.714844 L 122.835938 292.945312 Z M 0 204.269531 " clip-rule="nonzero"/></clipPath><clipPath id="ed01843eae"><path d="M 108 111 L 113 111 L 113 122 L 108 122 Z M 108 111 " clip-rule="nonzero"/></clipPath><clipPath id="1afff96f3b"><path d="M 0 204.269531 L 88.234375 82.039062 L 211.074219 170.714844 L 122.835938 292.945312 Z M 0 204.269531 " clip-rule="nonzero"/></clipPath><clipPath id="d69f6974eb"><path d="M 0 204.269531 L 88.234375 82.039062 L 211.074219 170.714844 L 122.835938 292.945312 Z M 0 204.269531 " clip-rule="nonzero"/></clipPath><clipPath id="bc2ddde00b"><path d="M 114 111 L 117 111 L 117 121 L 114 121 Z M 114 111 " clip-rule="nonzero"/></clipPath><clipPath id="e740038486"><path d="M 0 204.269531 L 88.234375 82.039062 L 211.074219 170.714844 L 122.835938 292.945312 Z M 0 204.269531 " clip-rule="nonzero"/></clipPath><clipPath id="0b0be2c036"><path d="M 0 204.269531 L 88.234375 82.039062 L 211.074219 170.714844 L 122.835938 292.945312 Z M 0 204.269531 " clip-rule="nonzero"/></clipPath><clipPath id="9d24bda451"><path d="M 125 113 L 127 113 L 127 120 L 125 120 Z M 125 113 " clip-rule="nonzero"/></clipPath><clipPath id="ea9d00ac82"><path d="M 0 204.269531 L 88.234375 82.039062 L 211.074219 170.714844 L 122.835938 292.945312 Z M 0 204.269531 " clip-rule="nonzero"/></clipPath><clipPath id="b21bbc7dbc"><path d="M 0 204.269531 L 88.234375 82.039062 L 211.074219 170.714844 L 122.835938 292.945312 Z M 0 204.269531 " clip-rule="nonzero"/></clipPath><clipPath id="8ac3200f6f"><path d="M 69 227 L 92 227 L 92 255 L 69 255 Z M 69 227 " clip-rule="nonzero"/></clipPath><clipPath id="5d3484e0c2"><path d="M 0 204.269531 L 88.234375 82.039062 L 211.074219 170.714844 L 122.835938 292.945312 Z M 0 204.269531 " clip-rule="nonzero"/></clipPath><clipPath id="fc98458d02"><path d="M 0 204.269531 L 88.234375 82.039062 L 211.074219 170.714844 L 122.835938 292.945312 Z M 0 204.269531 " clip-rule="nonzero"/></clipPath><clipPath id="3a070266a6"><path d="M 62 224 L 88 224 L 88 252 L 62 252 Z M 62 224 " clip-rule="nonzero"/></clipPath><clipPath id="94dd43b3c2"><path d="M 0 204.269531 L 88.234375 82.039062 L 211.074219 170.714844 L 122.835938 292.945312 Z M 0 204.269531 " clip-rule="nonzero"/></clipPath><clipPath id="5d2eacc707"><path d="M 0 204.269531 L 88.234375 82.039062 L 211.074219 170.714844 L 122.835938 292.945312 Z M 0 204.269531 " clip-rule="nonzero"/></clipPath></defs><g clip-path="url(#b140f6811e)"><g clip-path="url(#f30b810ab9)"><g clip-path="url(#46f7bbc54e)"><path fill="#000000" d="M 34.1875 208.167969 C 46.308594 204.191406 58.429688 200.210938 70.550781 196.234375 C 57.789062 199.335938 45.027344 202.441406 32.265625 205.542969 C 32.515625 206.546875 32.78125 207.542969 33.070312 208.535156 C 33.445312 208.414062 33.816406 208.289062 34.1875 208.167969 Z M 34.1875 208.167969 " fill-opacity="1" fill-rule="nonzero"/></g></g></g><g clip-path="url(#e9fe5d8983)"><g clip-path="url(#0d1c892aa1)"><g clip-path="url(#907f488d76)"><path fill="#000000" d="M 30.539062 185.292969 C 43.078125 184.273438 55.613281 183.25 68.152344 182.226562 C 55.550781 182.261719 42.953125 182.300781 30.351562 182.339844 C 30.285156 183.34375 30.238281 184.339844 30.207031 185.320312 C 30.316406 185.3125 30.429688 185.304688 30.539062 185.292969 Z M 30.539062 185.292969 " fill-opacity="1" fill-rule="nonzero"/></g></g></g><g clip-path="url(#02c824ba72)"><g clip-path="url(#042b8e3499)"><g clip-path="url(#a0916e45d9)"><path fill="#000000" d="M 71.835938 200.800781 C 59.410156 204.878906 46.984375 208.957031 34.558594 213.035156 C 34.910156 214 35.28125 214.953125 35.671875 215.902344 C 36.03125 215.75 36.394531 215.601562 36.757812 215.449219 C 48.449219 210.566406 60.144531 205.683594 71.835938 200.800781 Z M 71.835938 200.800781 " fill-opacity="1" fill-rule="nonzero"/></g></g></g><g clip-path="url(#41c5b74cd4)"><g clip-path="url(#9b21b1d7be)"><g clip-path="url(#7c9991c1e9)"><path fill="#000000" d="M 32.519531 200.597656 C 44.820312 197.605469 57.121094 194.613281 69.421875 191.625 C 56.542969 193.699219 43.664062 195.773438 30.789062 197.851562 C 30.925781 198.871094 31.078125 199.890625 31.261719 200.902344 C 31.679688 200.800781 32.101562 200.699219 32.519531 200.597656 Z M 32.519531 200.597656 " fill-opacity="1" fill-rule="nonzero"/></g></g></g><g clip-path="url(#9a7daf181b)"><g clip-path="url(#cd94c87710)"><g clip-path="url(#7af6dfa766)"><path fill="#000000" d="M 97.25 262.28125 C 98 262.367188 98.75 262.4375 99.503906 262.5 C 102.304688 253.777344 105.105469 245.054688 107.910156 236.332031 C 104.355469 244.980469 100.804688 253.632812 97.25 262.28125 Z M 97.25 262.28125 " fill-opacity="1" fill-rule="nonzero"/></g></g></g><g clip-path="url(#5502279a9b)"><g clip-path="url(#b144152211)"><g clip-path="url(#f0e2bcd00b)"><path fill="#000000" d="M 90.066406 261.132812 C 90.84375 261.296875 91.617188 261.441406 92.394531 261.578125 C 96.074219 252.621094 99.753906 243.664062 103.429688 234.707031 C 98.976562 243.515625 94.519531 252.328125 90.066406 261.132812 Z M 90.066406 261.132812 " fill-opacity="1" fill-rule="nonzero"/></g></g></g><g clip-path="url(#0d678da029)"><g clip-path="url(#f94e20cfda)"><g clip-path="url(#c04afb024d)"><path fill="#000000" d="M 73.535156 205.25 C 61.566406 210.246094 49.597656 215.246094 37.628906 220.242188 C 38.074219 221.15625 38.539062 222.0625 39.019531 222.953125 C 39.429688 222.742188 39.839844 222.535156 40.25 222.324219 C 51.34375 216.632812 62.441406 210.941406 73.535156 205.25 Z M 73.535156 205.25 " fill-opacity="1" fill-rule="nonzero"/></g></g></g><g clip-path="url(#213cf8c80c)"><g clip-path="url(#46b8c68a25)"><g clip-path="url(#cc5eba7f0b)"><path fill="#000000" d="M 70.472656 163.464844 C 59.695312 159.996094 48.917969 156.527344 38.140625 153.0625 C 37.765625 153.832031 37.378906 154.65625 36.992188 155.53125 C 48.152344 158.175781 59.3125 160.820312 70.472656 163.464844 Z M 70.472656 163.464844 " fill-opacity="1" fill-rule="nonzero"/></g></g></g><g clip-path="url(#a6a1d9a818)"><g clip-path="url(#89dac67804)"><g clip-path="url(#95f81a7a71)"><path fill="#000000" d="M 71.746094 158.875 C 61.769531 154.777344 51.792969 150.675781 41.816406 146.578125 C 41.355469 147.3125 40.90625 148.058594 40.464844 148.8125 C 50.890625 152.164062 61.320312 155.519531 71.746094 158.875 Z M 71.746094 158.875 " fill-opacity="1" fill-rule="nonzero"/></g></g></g><g clip-path="url(#80938f2c95)"><g clip-path="url(#7dc250c26b)"><g clip-path="url(#3c27490ca7)"><path fill="#000000" d="M 31.007812 177.597656 C 43.472656 177.5625 55.9375 177.523438 68.402344 177.484375 C 55.988281 176.542969 43.578125 175.597656 31.164062 174.65625 C 31.019531 175.632812 30.890625 176.613281 30.777344 177.601562 C 30.851562 177.597656 30.929688 177.597656 31.007812 177.597656 Z M 31.007812 177.597656 " fill-opacity="1" fill-rule="nonzero"/></g></g></g><g clip-path="url(#a0da6379e1)"><g clip-path="url(#31ed05dfc5)"><g clip-path="url(#3e88324599)"><path fill="#000000" d="M 104.417969 262.757812 C 105.117188 262.769531 105.816406 262.78125 106.515625 262.777344 C 108.476562 254.488281 110.4375 246.203125 112.398438 237.914062 C 109.738281 246.195312 107.078125 254.476562 104.417969 262.757812 Z M 104.417969 262.757812 " fill-opacity="1" fill-rule="nonzero"/></g></g></g><g clip-path="url(#d91e6fcb82)"><g clip-path="url(#82fbd6faef)"><g clip-path="url(#4e101cbe25)"><path fill="#000000" d="M 73.085938 118.71875 C 72.546875 118.984375 72.011719 119.253906 71.480469 119.535156 C 76.765625 124.792969 82.054688 130.050781 87.34375 135.304688 C 82.589844 129.777344 77.835938 124.25 73.085938 118.71875 Z M 73.085938 118.71875 " fill-opacity="1" fill-rule="nonzero"/></g></g></g><g clip-path="url(#cb754779e8)"><g clip-path="url(#3009bd183e)"><g clip-path="url(#ff1b6c926c)"><path fill="#000000" d="M 69.328125 168.050781 C 57.945312 165.351562 46.558594 162.652344 35.171875 159.953125 C 34.835938 160.828125 34.511719 161.710938 34.203125 162.589844 C 45.914062 164.410156 57.621094 166.230469 69.328125 168.050781 Z M 69.328125 168.050781 " fill-opacity="1" fill-rule="nonzero"/></g></g></g><g clip-path="url(#f21c8792ed)"><g clip-path="url(#fe840b3adc)"><g clip-path="url(#6ab1563f25)"><path fill="#000000" d="M 68.296875 172.703125 C 56.441406 170.859375 44.585938 169.015625 32.730469 167.171875 C 32.449219 168.15625 32.207031 169.085938 32.015625 169.945312 C 44.109375 170.863281 56.203125 171.785156 68.296875 172.703125 Z M 68.296875 172.703125 " fill-opacity="1" fill-rule="nonzero"/></g></g></g><g clip-path="url(#3d791bcfe2)"><g clip-path="url(#50e0e1b9ac)"><g clip-path="url(#c47e152069)"><path fill="#000000" d="M 111.417969 262.582031 C 112.066406 262.539062 112.714844 262.480469 113.363281 262.421875 C 114.574219 254.617188 115.785156 246.816406 116.996094 239.015625 C 115.136719 246.871094 113.277344 254.726562 111.417969 262.582031 Z M 111.417969 262.582031 " fill-opacity="1" fill-rule="nonzero"/></g></g></g><g clip-path="url(#da40a66047)"><g clip-path="url(#2013f824ff)"><g clip-path="url(#d950fb3047)"><path fill="#000000" d="M 165.070312 234.257812 C 165.160156 234.144531 165.25 234.039062 165.339844 233.925781 C 164.332031 232.550781 163.328125 231.175781 162.320312 229.800781 C 163.238281 231.285156 164.15625 232.773438 165.070312 234.257812 Z M 165.070312 234.257812 " fill-opacity="1" fill-rule="nonzero"/></g></g></g><g clip-path="url(#5cae48c0d4)"><g clip-path="url(#4a98c3bca8)"><g clip-path="url(#c1651819cc)"><path fill="#000000" d="M 161.496094 238.453125 C 161.617188 238.320312 161.742188 238.191406 161.863281 238.058594 C 160.726562 236.214844 159.589844 234.375 158.453125 232.53125 C 159.46875 234.503906 160.480469 236.480469 161.496094 238.453125 Z M 161.496094 238.453125 " fill-opacity="1" fill-rule="nonzero"/></g></g></g><g clip-path="url(#8007656c0b)"><g clip-path="url(#71ca504b3c)"><g clip-path="url(#4632e6f579)"><path fill="#000000" d="M 79.144531 116.078125 C 78.628906 116.269531 78.117188 116.472656 77.609375 116.679688 C 82.03125 121.824219 86.457031 126.972656 90.878906 132.121094 C 86.96875 126.773438 83.054688 121.425781 79.144531 116.078125 Z M 79.144531 116.078125 " fill-opacity="1" fill-rule="nonzero"/></g></g></g><g clip-path="url(#c41e79912a)"><g clip-path="url(#6c76c7e4cd)"><g clip-path="url(#ca03c8aa21)"><path fill="#000000" d="M 171.128906 225.472656 C 171.15625 225.429688 171.183594 225.382812 171.210938 225.339844 C 170.761719 224.894531 170.3125 224.449219 169.863281 224.003906 C 170.285156 224.492188 170.707031 224.984375 171.128906 225.472656 Z M 171.128906 225.472656 " fill-opacity="1" fill-rule="nonzero"/></g></g></g><g clip-path="url(#cca0e3dd7e)"><g clip-path="url(#c4c4865a08)"><g clip-path="url(#800ba8e69f)"><path fill="#000000" d="M 157.472656 242.546875 C 157.648438 242.378906 157.824219 242.21875 158 242.050781 C 156.6875 239.5 155.375 236.945312 154.0625 234.394531 C 155.199219 237.113281 156.335938 239.828125 157.472656 242.546875 Z M 157.472656 242.546875 " fill-opacity="1" fill-rule="nonzero"/></g></g></g><g clip-path="url(#41dcb310b2)"><g clip-path="url(#bfe66ca31b)"><g clip-path="url(#c03759731e)"><path fill="#000000" d="M 168.292969 229.90625 C 168.347656 229.824219 168.402344 229.75 168.457031 229.667969 C 167.703125 228.792969 166.949219 227.914062 166.195312 227.035156 C 166.894531 227.992188 167.59375 228.949219 168.292969 229.90625 Z M 168.292969 229.90625 " fill-opacity="1" fill-rule="nonzero"/></g></g></g><g clip-path="url(#e7bffe1600)"><g clip-path="url(#af287c133d)"><g clip-path="url(#d3d6ffb99c)"><path fill="#000000" d="M 131.25 258.703125 C 131.730469 258.535156 132.207031 258.359375 132.6875 258.183594 C 132.1875 252.097656 131.6875 246.015625 131.1875 239.933594 C 131.207031 246.191406 131.226562 252.445312 131.25 258.703125 Z M 131.25 258.703125 " fill-opacity="1" fill-rule="nonzero"/></g></g></g><g clip-path="url(#9124c496be)"><g clip-path="url(#75d66dba16)"><g clip-path="url(#3a5bb3918e)"><path fill="#000000" d="M 137.292969 256.265625 C 137.695312 256.082031 138.101562 255.902344 138.5 255.710938 C 137.648438 250.445312 136.796875 245.183594 135.945312 239.917969 C 136.394531 245.367188 136.84375 250.816406 137.292969 256.265625 Z M 137.292969 256.265625 " fill-opacity="1" fill-rule="nonzero"/></g></g></g><g clip-path="url(#41cbf2a17e)"><g clip-path="url(#7fb5959c41)"><g clip-path="url(#0cac72130a)"><path fill="#000000" d="M 118.269531 261.824219 C 118.863281 261.734375 119.457031 261.644531 120.050781 261.542969 C 120.601562 254.273438 121.148438 247.003906 121.695312 239.734375 C 120.554688 247.097656 119.410156 254.460938 118.269531 261.824219 Z M 118.269531 261.824219 " fill-opacity="1" fill-rule="nonzero"/></g></g></g><g clip-path="url(#55f99fdb75)"><g clip-path="url(#3967496019)"><g clip-path="url(#b8be0f792c)"><path fill="#000000" d="M 142.945312 253.375 C 143.289062 253.175781 143.628906 252.972656 143.96875 252.769531 C 142.855469 248.203125 141.746094 243.632812 140.632812 239.066406 C 141.402344 243.835938 142.175781 248.605469 142.945312 253.375 Z M 142.945312 253.375 " fill-opacity="1" fill-rule="nonzero"/></g></g></g><g clip-path="url(#e9714fc398)"><g clip-path="url(#5ea929111c)"><g clip-path="url(#a6f75b9037)"><path fill="#000000" d="M 148.195312 250.066406 C 148.484375 249.871094 148.765625 249.667969 149.050781 249.464844 C 147.761719 245.542969 146.472656 241.621094 145.183594 237.699219 C 146.1875 241.820312 147.191406 245.945312 148.195312 250.066406 Z M 148.195312 250.066406 " fill-opacity="1" fill-rule="nonzero"/></g></g></g><g clip-path="url(#04b68870d1)"><g clip-path="url(#3f71baac3b)"><g clip-path="url(#df0bfeb440)"><path fill="#000000" d="M 153.042969 246.433594 C 153.265625 246.253906 153.488281 246.074219 153.707031 245.890625 C 152.394531 242.742188 151.078125 239.597656 149.761719 236.449219 C 150.855469 239.777344 151.949219 243.105469 153.042969 246.433594 Z M 153.042969 246.433594 " fill-opacity="1" fill-rule="nonzero"/></g></g></g><g clip-path="url(#f7d842440f)"><g clip-path="url(#b085555829)"><g clip-path="url(#6c1c2493e1)"><path fill="#000000" d="M 43.699219 229.265625 C 54.515625 222.597656 65.332031 215.925781 76.148438 209.253906 C 64.570312 215.191406 52.992188 221.128906 41.417969 227.066406 C 41.960938 227.9375 42.523438 228.792969 43.101562 229.632812 C 43.300781 229.511719 43.5 229.390625 43.699219 229.265625 Z M 43.699219 229.265625 " fill-opacity="1" fill-rule="nonzero"/></g></g></g><g clip-path="url(#54fa18c5d9)"><g clip-path="url(#e779ece362)"><g clip-path="url(#e97e06e18d)"><path fill="#000000" d="M 75.960938 150.394531 C 67.570312 145.289062 59.179688 140.179688 50.789062 135.070312 C 50.265625 135.636719 49.730469 136.234375 49.183594 136.855469 C 58.109375 141.371094 67.035156 145.882812 75.960938 150.394531 Z M 75.960938 150.394531 " fill-opacity="1" fill-rule="nonzero"/></g></g></g><g clip-path="url(#09e93874ae)"><g clip-path="url(#a33f6482a2)"><g clip-path="url(#5c45d82bde)"><path fill="#000000" d="M 48.140625 235.535156 C 58.238281 228.15625 68.339844 220.773438 78.441406 213.394531 C 67.597656 220.078125 56.757812 226.765625 45.914062 233.453125 C 46.535156 234.238281 47.167969 235.011719 47.8125 235.777344 C 47.921875 235.695312 48.03125 235.617188 48.140625 235.535156 Z M 48.140625 235.535156 " fill-opacity="1" fill-rule="nonzero"/></g></g></g><g clip-path="url(#f4e478989c)"><g clip-path="url(#c9dc10cb8f)"><g clip-path="url(#98fcea898b)"><path fill="#000000" d="M 82.9375 259.304688 C 83.738281 259.546875 84.539062 259.777344 85.339844 259.996094 C 89.96875 250.835938 94.601562 241.679688 99.234375 232.519531 C 93.800781 241.445312 88.367188 250.375 82.9375 259.304688 Z M 82.9375 259.304688 " fill-opacity="1" fill-rule="nonzero"/></g></g></g><g clip-path="url(#06ed17d429)"><g clip-path="url(#750cf05007)"><g clip-path="url(#74f205d9b3)"><path fill="#000000" d="M 97.648438 111.785156 C 97.261719 111.824219 96.875 111.867188 96.488281 111.910156 C 98.664062 116.148438 100.84375 120.382812 103.015625 124.621094 C 101.226562 120.34375 99.4375 116.0625 97.648438 111.785156 Z M 97.648438 111.785156 " fill-opacity="1" fill-rule="nonzero"/></g></g></g><g clip-path="url(#6c1029580b)"><g clip-path="url(#8e16b987b7)"><g clip-path="url(#3b373f213c)"><path fill="#000000" d="M 103.6875 111.402344 C 103.347656 111.410156 103.007812 111.429688 102.667969 111.445312 C 104.277344 115.289062 105.882812 119.132812 107.488281 122.976562 C 106.222656 119.117188 104.957031 115.261719 103.6875 111.402344 Z M 103.6875 111.402344 " fill-opacity="1" fill-rule="nonzero"/></g></g></g><g clip-path="url(#25bf60e855)"><g clip-path="url(#c39194d28d)"><g clip-path="url(#c2c28658cd)"><path fill="#000000" d="M 84.269531 138.925781 C 78.574219 133.261719 72.878906 127.601562 67.179688 121.9375 C 66.605469 122.273438 66.035156 122.613281 65.460938 122.964844 C 71.730469 128.285156 78 133.605469 84.269531 138.925781 Z M 84.269531 138.925781 " fill-opacity="1" fill-rule="nonzero"/></g></g></g><g clip-path="url(#f553ba43b3)"><g clip-path="url(#a4c9c8d8bb)"><g clip-path="url(#78f9cbacfb)"><path fill="#000000" d="M 78.078125 146.128906 C 70.6875 140.792969 63.292969 135.453125 55.902344 130.117188 C 55.335938 130.605469 54.777344 131.101562 54.230469 131.609375 C 62.179688 136.449219 70.128906 141.289062 78.078125 146.128906 Z M 78.078125 146.128906 " fill-opacity="1" fill-rule="nonzero"/></g></g></g><g clip-path="url(#edc0a4211b)"><g clip-path="url(#34b8ea34fb)"><g clip-path="url(#6cb2bcce9d)"><path fill="#000000" d="M 124.902344 260.550781 C 125.441406 260.421875 125.980469 260.289062 126.515625 260.144531 C 126.492188 253.449219 126.46875 246.753906 126.445312 240.0625 C 125.933594 246.890625 125.417969 253.722656 124.902344 260.550781 Z M 124.902344 260.550781 " fill-opacity="1" fill-rule="nonzero"/></g></g></g><g clip-path="url(#20125a52d0)"><g clip-path="url(#693e45dc82)"><g clip-path="url(#9f38f3b91f)"><path fill="#000000" d="M 31.238281 192.953125 C 43.617188 190.957031 55.992188 188.964844 68.371094 186.96875 C 55.640625 188.007812 42.90625 189.046875 30.175781 190.085938 C 30.199219 191.042969 30.234375 191.976562 30.289062 192.875 C 30.296875 192.953125 30.304688 193.027344 30.308594 193.105469 C 30.621094 193.054688 30.929688 193.003906 31.238281 192.953125 Z M 31.238281 192.953125 " fill-opacity="1" fill-rule="nonzero"/></g></g></g><g clip-path="url(#68955e6112)"><g clip-path="url(#d52ccc6f6a)"><g clip-path="url(#41d8bbb9de)"><path fill="#000000" d="M 85.363281 114.046875 C 84.863281 114.1875 84.367188 114.332031 83.871094 114.480469 C 87.605469 119.585938 91.339844 124.6875 95.074219 129.792969 C 91.835938 124.542969 88.601562 119.296875 85.363281 114.046875 Z M 85.363281 114.046875 " fill-opacity="1" fill-rule="nonzero"/></g></g></g><g clip-path="url(#ffb1ac06f4)"><g clip-path="url(#940a7ab2cc)"><g clip-path="url(#6c1afbff1a)"><path fill="#000000" d="M 73.441406 154.425781 C 64.316406 149.8125 55.191406 145.199219 46.066406 140.585938 C 45.730469 141.007812 45.394531 141.4375 45.066406 141.867188 C 44.890625 142.09375 44.722656 142.324219 44.550781 142.554688 C 54.179688 146.511719 63.8125 150.46875 73.441406 154.425781 Z M 73.441406 154.425781 " fill-opacity="1" fill-rule="nonzero"/></g></g></g><g clip-path="url(#5e0e3b62c0)"><g clip-path="url(#bb64955351)"><g clip-path="url(#7eb92a0b10)"><path fill="#000000" d="M 173.148438 220.59375 C 173.292969 220.738281 173.4375 220.878906 173.578125 221.023438 C 173.585938 221.007812 173.59375 220.992188 173.601562 220.980469 C 173.449219 220.851562 173.300781 220.722656 173.148438 220.59375 Z M 173.148438 220.59375 " fill-opacity="1" fill-rule="nonzero"/></g></g></g><g clip-path="url(#7c5dfd4f0a)"><g clip-path="url(#984a817274)"><g clip-path="url(#d6ae16f36f)"><path fill="#000000" d="M 80.894531 142.285156 C 74.390625 136.769531 67.886719 131.246094 61.382812 125.730469 C 61.175781 125.882812 60.972656 126.03125 60.761719 126.195312 C 60.414062 126.460938 60.066406 126.730469 59.71875 127 C 66.777344 132.097656 73.835938 137.191406 80.894531 142.285156 Z M 80.894531 142.285156 " fill-opacity="1" fill-rule="nonzero"/></g></g></g><g clip-path="url(#c9b1caa5d6)"><g clip-path="url(#5234131d13)"><g clip-path="url(#1616600f1b)"><path fill="#000000" d="M 135.828125 117.582031 C 135.78125 117.5625 135.734375 117.542969 135.691406 117.523438 C 135.644531 118.136719 135.597656 118.75 135.550781 119.367188 C 135.644531 118.773438 135.734375 118.175781 135.828125 117.582031 Z M 135.828125 117.582031 " fill-opacity="1" fill-rule="nonzero"/></g></g></g><g clip-path="url(#cae5c321a4)"><g clip-path="url(#04bbfa6d95)"><g clip-path="url(#3e6ee960ec)"><path fill="#000000" d="M 130.789062 119.1875 C 130.878906 118.015625 130.964844 116.847656 131.054688 115.675781 C 130.964844 115.640625 130.871094 115.609375 130.777344 115.574219 C 130.78125 116.78125 130.785156 117.984375 130.789062 119.1875 Z M 130.789062 119.1875 " fill-opacity="1" fill-rule="nonzero"/></g></g></g><g clip-path="url(#7cc763697c)"><g clip-path="url(#98e8d2584a)"><g clip-path="url(#6631f7c480)"><path fill="#000000" d="M 81.300781 217.195312 C 71.199219 224.578125 61.097656 231.960938 50.996094 239.34375 C 51.675781 240.058594 52.371094 240.761719 53.074219 241.453125 C 53.128906 241.40625 53.183594 241.359375 53.242188 241.3125 C 62.59375 233.273438 71.945312 225.234375 81.300781 217.195312 Z M 81.300781 217.195312 " fill-opacity="1" fill-rule="nonzero"/></g></g></g><g clip-path="url(#7c56526a2d)"><g clip-path="url(#d87ebd4bb7)"><g clip-path="url(#daa37e18dd)"><path fill="#000000" d="M 58.867188 246.480469 C 67.34375 237.953125 75.816406 229.425781 84.292969 220.898438 C 75.058594 228.835938 65.824219 236.773438 56.589844 244.710938 C 57.3125 245.339844 58.050781 245.953125 58.796875 246.550781 C 58.820312 246.527344 58.84375 246.503906 58.867188 246.480469 Z M 58.867188 246.480469 " fill-opacity="1" fill-rule="nonzero"/></g></g></g><g clip-path="url(#f4d6d7ed3d)"><g clip-path="url(#885ac33f8f)"><g clip-path="url(#165a30d3f9)"><path fill="#000000" d="M 140.355469 119.738281 C 140.339844 119.730469 140.324219 119.722656 140.308594 119.714844 C 140.273438 119.9375 140.238281 120.15625 140.203125 120.378906 C 140.253906 120.164062 140.304688 119.953125 140.355469 119.738281 Z M 140.355469 119.738281 " fill-opacity="1" fill-rule="nonzero"/></g></g></g><g clip-path="url(#68c96b5fc5)"><g clip-path="url(#7975420dae)"><g clip-path="url(#024ed3b5ac)"><path fill="#000000" d="M 75.878906 256.789062 C 76.6875 257.125 77.5 257.445312 78.324219 257.75 C 83.941406 248.523438 89.554688 239.292969 95.171875 230.0625 C 88.742188 238.972656 82.308594 247.878906 75.878906 256.789062 Z M 75.878906 256.789062 " fill-opacity="1" fill-rule="nonzero"/></g></g></g><g clip-path="url(#fac1b43ec0)"><g clip-path="url(#dfb9f2634b)"><g clip-path="url(#2c8e1ea88c)"><path fill="#000000" d="M 91.523438 112.652344 C 91.082031 112.730469 90.640625 112.804688 90.203125 112.890625 C 93.082031 117.558594 95.960938 122.226562 98.839844 126.898438 C 96.402344 122.148438 93.960938 117.398438 91.523438 112.652344 Z M 91.523438 112.652344 " fill-opacity="1" fill-rule="nonzero"/></g></g></g><g clip-path="url(#4ad93b69d6)"><g clip-path="url(#9fa8853603)"><g clip-path="url(#087c8a9c70)"><path fill="#000000" d="M 120.761719 112.789062 C 120.570312 112.75 120.375 112.707031 120.183594 112.667969 C 120.566406 115.042969 120.953125 117.414062 121.335938 119.789062 C 121.144531 117.457031 120.953125 115.121094 120.761719 112.789062 Z M 120.761719 112.789062 " fill-opacity="1" fill-rule="nonzero"/></g></g></g><g clip-path="url(#ed01843eae)"><g clip-path="url(#1afff96f3b)"><g clip-path="url(#d69f6974eb)"><path fill="#000000" d="M 109.5625 111.460938 C 109.269531 111.449219 108.976562 111.4375 108.683594 111.429688 C 109.800781 114.832031 110.921875 118.230469 112.039062 121.632812 C 111.210938 118.242188 110.386719 114.851562 109.5625 111.460938 Z M 109.5625 111.460938 " fill-opacity="1" fill-rule="nonzero"/></g></g></g><g clip-path="url(#bc2ddde00b)"><g clip-path="url(#e740038486)"><g clip-path="url(#0b0be2c036)"><path fill="#000000" d="M 115.234375 111.90625 C 115 111.878906 114.769531 111.84375 114.53125 111.816406 C 115.214844 114.625 115.898438 117.433594 116.585938 120.242188 C 116.136719 117.464844 115.683594 114.683594 115.234375 111.90625 Z M 115.234375 111.90625 " fill-opacity="1" fill-rule="nonzero"/></g></g></g><g clip-path="url(#9d24bda451)"><g clip-path="url(#ea9d00ac82)"><g clip-path="url(#b21bbc7dbc)"><path fill="#000000" d="M 126.035156 114.058594 C 125.894531 114.019531 125.757812 113.980469 125.617188 113.945312 C 125.761719 115.703125 125.90625 117.460938 126.050781 119.21875 C 126.046875 117.5 126.039062 115.78125 126.035156 114.058594 Z M 126.035156 114.058594 " fill-opacity="1" fill-rule="nonzero"/></g></g></g><g clip-path="url(#8ac3200f6f)"><g clip-path="url(#5d3484e0c2)"><g clip-path="url(#fc98458d02)"><path fill="#000000" d="M 91.269531 227.332031 C 83.871094 236.050781 76.46875 244.769531 69.070312 253.488281 C 69.859375 253.929688 70.660156 254.351562 71.46875 254.761719 C 78.070312 245.617188 84.671875 236.476562 91.269531 227.332031 Z M 91.269531 227.332031 " fill-opacity="1" fill-rule="nonzero"/></g></g></g><g clip-path="url(#3a070266a6)"><g clip-path="url(#94dd43b3c2)"><g clip-path="url(#5d2eacc707)"><path fill="#000000" d="M 64.941406 251.015625 C 72.558594 242.039062 80.179688 233.0625 87.796875 224.089844 C 79.398438 232.535156 71.003906 240.984375 62.605469 249.429688 C 63.375 249.972656 64.152344 250.503906 64.941406 251.015625 Z M 64.941406 251.015625 " fill-opacity="1" fill-rule="nonzero"/></g></g></g><g fill="#000000" fill-opacity="1"><g transform="translate(100.558241, 206.008885)"><g><path d="M 21.859375 0.828125 C 17.765625 0.828125 14.195312 0 11.15625 -1.65625 C 8.113281 -3.320312 5.769531 -5.6875 4.125 -8.75 C 2.476562 -11.8125 1.65625 -15.351562 1.65625 -19.375 C 1.65625 -23.394531 2.476562 -26.9375 4.125 -30 C 5.769531 -33.0625 8.113281 -35.421875 11.15625 -37.078125 C 14.195312 -38.742188 17.765625 -39.578125 21.859375 -39.578125 C 25.960938 -39.578125 29.535156 -38.742188 32.578125 -37.078125 C 35.617188 -35.421875 37.960938 -33.0625 39.609375 -30 C 41.253906 -26.9375 42.078125 -23.394531 42.078125 -19.375 C 42.078125 -15.351562 41.253906 -11.8125 39.609375 -8.75 C 37.960938 -5.6875 35.617188 -3.320312 32.578125 -1.65625 C 29.535156 0 25.960938 0.828125 21.859375 0.828125 Z M 21.859375 -0.828125 C 24.703125 -0.828125 26.84375 -2.492188 28.28125 -5.828125 C 29.726562 -9.171875 30.453125 -13.6875 30.453125 -19.375 C 30.453125 -25.0625 29.726562 -29.570312 28.28125 -32.90625 C 26.84375 -36.25 24.703125 -37.921875 21.859375 -37.921875 C 19.023438 -37.921875 16.882812 -36.25 15.4375 -32.90625 C 14 -29.570312 13.28125 -25.0625 13.28125 -19.375 C 13.28125 -13.6875 14 -9.171875 15.4375 -5.828125 C 16.882812 -2.492188 19.023438 -0.828125 21.859375 -0.828125 Z M 21.859375 -0.828125 "/></g></g></g><g fill="#000000" fill-opacity="1"><g transform="translate(142.409736, 206.008885)"><g><path d="M 3.875 -19.921875 C 2.320312 -23.503906 0.847656 -26 -0.546875 -27.40625 L -0.546875 -27.671875 L 15.21875 -27.671875 L 15.21875 -27.40625 C 14.445312 -26.445312 14.0625 -25.242188 14.0625 -23.796875 C 14.0625 -22.660156 14.359375 -21.367188 14.953125 -19.921875 L 19.65625 -8.796875 L 23.859375 -19.375 C 24.410156 -20.738281 24.6875 -22.03125 24.6875 -23.25 C 24.6875 -24.832031 24.207031 -26.21875 23.25 -27.40625 L 23.25 -27.671875 L 30.453125 -27.671875 L 30.453125 -27.40625 C 28.597656 -25.5625 27.082031 -23.195312 25.90625 -20.3125 L 17.71875 0 L 12.453125 0 Z M 3.875 -19.921875 "/></g></g></g><g fill="#000000" fill-opacity="1"><g transform="translate(169.867824, 206.008885)"><g><path d="M 28.234375 -9.96875 C 27.535156 -6.644531 26.019531 -4.015625 23.6875 -2.078125 C 21.363281 -0.140625 18.539062 0.828125 15.21875 0.828125 C 12.675781 0.828125 10.378906 0.273438 8.328125 -0.828125 C 6.285156 -1.929688 4.660156 -3.550781 3.453125 -5.6875 C 2.253906 -7.832031 1.65625 -10.382812 1.65625 -13.34375 C 1.65625 -16.289062 2.289062 -18.914062 3.5625 -21.21875 C 4.84375 -23.53125 6.578125 -25.320312 8.765625 -26.59375 C 10.960938 -27.875 13.390625 -28.515625 16.046875 -28.515625 C 18.453125 -28.515625 20.554688 -28.023438 22.359375 -27.046875 C 24.171875 -26.066406 25.554688 -24.753906 26.515625 -23.109375 C 27.472656 -21.472656 27.953125 -19.675781 27.953125 -17.71875 L 9.796875 -17.71875 C 10.085938 -15.3125 10.757812 -13.257812 11.8125 -11.5625 C 12.863281 -9.875 14.164062 -8.582031 15.71875 -7.6875 C 17.269531 -6.800781 18.953125 -6.359375 20.765625 -6.359375 C 22.273438 -6.359375 23.628906 -6.679688 24.828125 -7.328125 C 26.023438 -7.972656 26.972656 -8.851562 27.671875 -9.96875 Z M 13.5625 -26.953125 C 12.226562 -26.953125 11.238281 -26.367188 10.59375 -25.203125 C 9.945312 -24.046875 9.625 -22.414062 9.625 -20.3125 C 9.625 -19.757812 9.644531 -19.351562 9.6875 -19.09375 L 18.265625 -19.09375 C 18.117188 -21.457031 17.628906 -23.359375 16.796875 -24.796875 C 15.972656 -26.234375 14.894531 -26.953125 13.5625 -26.953125 Z M 13.5625 -26.953125 "/></g></g></g><g fill="#000000" fill-opacity="1"><g transform="translate(197.325913, 206.008885)"><g><path d="M 2.765625 -0.28125 C 3.316406 -1.09375 3.726562 -2.148438 4 -3.453125 C 4.28125 -4.765625 4.421875 -6.195312 4.421875 -7.75 L 4.421875 -17.265625 C 4.421875 -19.117188 4.238281 -20.597656 3.875 -21.703125 C 3.507812 -22.804688 2.957031 -23.726562 2.21875 -24.46875 L 2.21875 -24.75 L 14.390625 -28.515625 L 14.671875 -28.515625 L 14.671875 -19.65625 L 14.953125 -19.65625 C 16.085938 -25.5625 19.367188 -28.515625 24.796875 -28.515625 L 24.796875 -19.65625 L 21.03125 -19.65625 C 18.675781 -19.65625 17.023438 -19.191406 16.078125 -18.265625 C 15.140625 -17.347656 14.671875 -15.6875 14.671875 -13.28125 L 14.671875 -7.75 C 14.671875 -6.195312 14.804688 -4.765625 15.078125 -3.453125 C 15.359375 -2.148438 15.773438 -1.09375 16.328125 -0.28125 L 16.328125 0 L 2.765625 0 Z M 2.765625 -0.28125 "/></g></g></g><g fill="#000000" fill-opacity="1"><g transform="translate(220.244539, 206.008885)"><g><path d="M -0.828125 -0.28125 C 1.753906 -2.863281 3.632812 -5.6875 4.8125 -8.75 L 16.609375 -38.75 L 24.078125 -38.75 L 35.703125 -9.140625 C 36.410156 -7.285156 37.160156 -5.675781 37.953125 -4.3125 C 38.742188 -2.945312 39.75 -1.601562 40.96875 -0.28125 L 40.96875 0 L 22.96875 0 L 22.96875 -0.28125 C 24.082031 -1.832031 24.640625 -3.492188 24.640625 -5.265625 C 24.640625 -6.484375 24.359375 -7.773438 23.796875 -9.140625 L 22.421875 -12.453125 L 8.296875 -12.453125 L 7.203125 -9.796875 C 6.722656 -8.578125 6.484375 -7.394531 6.484375 -6.25 C 6.484375 -4.039062 7.273438 -2.050781 8.859375 -0.28125 L 8.859375 0 L -0.828125 0 Z M 15.328125 -30.828125 L 8.859375 -14.109375 L 21.859375 -14.109375 Z M 15.328125 -30.828125 "/></g></g></g><g fill="#000000" fill-opacity="1"><g transform="translate(259.051266, 206.008885)"><g><path d="M 2.765625 -0.28125 C 3.316406 -1.09375 3.726562 -2.148438 4 -3.453125 C 4.28125 -4.765625 4.421875 -6.195312 4.421875 -7.75 L 4.421875 -17.265625 C 4.421875 -19.117188 4.238281 -20.597656 3.875 -21.703125 C 3.507812 -22.804688 2.957031 -23.726562 2.21875 -24.46875 L 2.21875 -24.75 L 14.390625 -28.515625 L 14.671875 -28.515625 L 14.671875 -19.65625 L 14.953125 -19.65625 C 16.085938 -25.5625 19.367188 -28.515625 24.796875 -28.515625 L 24.796875 -19.65625 L 21.03125 -19.65625 C 18.675781 -19.65625 17.023438 -19.191406 16.078125 -18.265625 C 15.140625 -17.347656 14.671875 -15.6875 14.671875 -13.28125 L 14.671875 -7.75 C 14.671875 -6.195312 14.804688 -4.765625 15.078125 -3.453125 C 15.359375 -2.148438 15.773438 -1.09375 16.328125 -0.28125 L 16.328125 0 L 2.765625 0 Z M 2.765625 -0.28125 "/></g></g></g><g fill="#000000" fill-opacity="1"><g transform="translate(281.969901, 206.008885)"><g><path d="M 15.0625 0.828125 C 12.582031 0.828125 10.328125 0.285156 8.296875 -0.796875 C 6.273438 -1.890625 4.660156 -3.46875 3.453125 -5.53125 C 2.253906 -7.601562 1.65625 -10.0625 1.65625 -12.90625 C 1.65625 -15.925781 2.375 -18.617188 3.8125 -20.984375 C 5.257812 -23.347656 7.207031 -25.191406 9.65625 -26.515625 C 12.113281 -27.847656 14.835938 -28.515625 17.828125 -28.515625 C 19.191406 -28.515625 20.65625 -28.375 22.21875 -28.09375 C 23.789062 -27.8125 25.242188 -27.394531 26.578125 -26.84375 L 26.578125 -17.4375 L 26.015625 -17.4375 C 24.648438 -20.3125 23.070312 -22.644531 21.28125 -24.4375 C 19.488281 -26.226562 17.539062 -27.125 15.4375 -27.125 C 13.632812 -27.125 12.222656 -26.421875 11.203125 -25.015625 C 10.191406 -23.617188 9.6875 -21.59375 9.6875 -18.9375 C 9.6875 -16.601562 10.164062 -14.476562 11.125 -12.5625 C 12.082031 -10.644531 13.390625 -9.128906 15.046875 -8.015625 C 16.710938 -6.910156 18.5625 -6.359375 20.59375 -6.359375 C 22.070312 -6.359375 23.378906 -6.679688 24.515625 -7.328125 C 25.660156 -7.972656 26.4375 -8.851562 26.84375 -9.96875 L 27.40625 -9.96875 C 27 -6.675781 25.660156 -4.050781 23.390625 -2.09375 C 21.117188 -0.144531 18.34375 0.828125 15.0625 0.828125 Z M 15.0625 0.828125 "/></g></g></g><g fill="#000000" fill-opacity="1"><g transform="translate(308.597603, 206.008885)"><g><path d="M 2.484375 -0.28125 C 3.046875 -1.09375 3.460938 -2.148438 3.734375 -3.453125 C 4.015625 -4.765625 4.15625 -6.195312 4.15625 -7.75 L 4.15625 -30 C 4.15625 -31.84375 3.96875 -33.316406 3.59375 -34.421875 C 3.226562 -35.535156 2.675781 -36.460938 1.9375 -37.203125 L 1.9375 -37.484375 L 14.109375 -41.25 L 14.390625 -41.25 L 14.390625 -23.25 L 14.671875 -23.25 C 15.441406 -24.800781 16.535156 -26.066406 17.953125 -27.046875 C 19.378906 -28.023438 21.085938 -28.515625 23.078125 -28.515625 C 25.660156 -28.515625 27.726562 -27.703125 29.28125 -26.078125 C 30.832031 -24.453125 31.609375 -22.3125 31.609375 -19.65625 L 31.609375 -7.75 C 31.609375 -6.195312 31.742188 -4.765625 32.015625 -3.453125 C 32.296875 -2.148438 32.710938 -1.09375 33.265625 -0.28125 L 33.265625 0 L 19.703125 0 L 19.703125 -0.28125 C 20.253906 -1.09375 20.671875 -2.148438 20.953125 -3.453125 C 21.234375 -4.765625 21.375 -6.195312 21.375 -7.75 L 21.375 -19.375 C 21.375 -20.40625 21.054688 -21.257812 20.421875 -21.9375 C 19.796875 -22.625 18.96875 -22.96875 17.9375 -22.96875 C 16.9375 -22.96875 16.09375 -22.644531 15.40625 -22 C 14.726562 -21.351562 14.390625 -20.476562 14.390625 -19.375 L 14.390625 -7.75 C 14.390625 -6.195312 14.523438 -4.765625 14.796875 -3.453125 C 15.078125 -2.148438 15.492188 -1.09375 16.046875 -0.28125 L 16.046875 0 L 2.484375 0 Z M 2.484375 -0.28125 "/></g></g></g><g fill="#000000" fill-opacity="1"><g transform="translate(341.923773, 206.008885)"><g><path d="M 6.640625 0.546875 C 5.160156 0.546875 3.957031 0.078125 3.03125 -0.859375 C 2.113281 -1.796875 1.65625 -2.984375 1.65625 -4.421875 C 1.65625 -5.867188 2.113281 -7.0625 3.03125 -8 C 3.957031 -8.9375 5.160156 -9.40625 6.640625 -9.40625 C 8.117188 -9.40625 9.316406 -8.9375 10.234375 -8 C 11.160156 -7.0625 11.625 -5.867188 11.625 -4.421875 C 11.625 -2.984375 11.160156 -1.796875 10.234375 -0.859375 C 9.316406 0.078125 8.117188 0.546875 6.640625 0.546875 Z M 6.640625 0.546875 "/></g></g></g></svg>