<svg xmlns="http://www.w3.org/2000/svg" xmlns:xlink="http://www.w3.org/1999/xlink" width="500" zoomAndPan="magnify" viewBox="0 0 375 374.999991" height="500" preserveAspectRatio="xMidYMid meet" version="1.0"><defs><g/><clipPath id="66a4625bf5"><path d="M 361.097656 192.863281 L 375 192.863281 L 375 206.765625 L 361.097656 206.765625 Z M 361.097656 192.863281 " clip-rule="nonzero"/></clipPath><clipPath id="378d49dd59"><path d="M 368.046875 192.863281 C 364.207031 192.863281 361.097656 195.972656 361.097656 199.8125 C 361.097656 203.652344 364.207031 206.765625 368.046875 206.765625 C 371.886719 206.765625 375 203.652344 375 199.8125 C 375 195.972656 371.886719 192.863281 368.046875 192.863281 Z M 368.046875 192.863281 " clip-rule="nonzero"/></clipPath><clipPath id="867c214b53"><path d="M 0 143.683594 L 82.5 143.683594 L 82.5 230.683594 L 0 230.683594 Z M 0 143.683594 " clip-rule="nonzero"/></clipPath><clipPath id="1684e229f2"><path d="M 47.390625 184.21875 L 10.566406 184.21875 C 9.140625 184.21875 8.105469 182.847656 8.492188 181.46875 L 18.601562 145.273438 C 18.863281 144.339844 19.710938 143.691406 20.675781 143.691406 L 57.5 143.691406 C 58.929688 143.691406 59.960938 145.0625 59.578125 146.445312 L 49.46875 182.636719 C 49.207031 183.574219 48.359375 184.21875 47.390625 184.21875 Z M 23.472656 211.539062 L 28.679688 192.902344 C 29.066406 191.523438 28.03125 190.152344 26.605469 190.152344 L 7.675781 190.152344 C 6.707031 190.152344 5.859375 190.796875 5.597656 191.734375 L 0.394531 210.367188 C 0.0078125 211.75 1.039062 213.121094 2.46875 213.121094 L 21.398438 213.121094 C 22.363281 213.121094 23.214844 212.472656 23.472656 211.539062 Z M 33.054688 191.734375 L 22.945312 227.925781 C 22.558594 229.308594 23.589844 230.679688 25.019531 230.679688 L 61.84375 230.679688 C 62.808594 230.679688 63.65625 230.03125 63.917969 229.097656 L 74.027344 192.902344 C 74.414062 191.523438 73.378906 190.152344 71.953125 190.152344 L 35.128906 190.152344 C 34.164062 190.152344 33.3125 190.796875 33.054688 191.734375 Z M 59.046875 162.832031 L 53.839844 181.46875 C 53.457031 182.847656 54.488281 184.21875 55.917969 184.21875 L 74.847656 184.21875 C 75.8125 184.21875 76.660156 183.574219 76.921875 182.636719 L 82.128906 164 C 82.511719 162.621094 81.480469 161.25 80.050781 161.25 L 61.121094 161.25 C 60.15625 161.25 59.308594 161.898438 59.046875 162.832031 Z M 59.046875 162.832031 " clip-rule="nonzero"/></clipPath><linearGradient x1="114.296438" gradientTransform="matrix(0.173174, 0, 0, 0.17397, 0.311717, 143.692747)" y1="-47.633979" x2="358.610862" gradientUnits="userSpaceOnUse" y2="547.607247" id="1d20052326"><stop stop-opacity="1" stop-color="rgb(0%, 98.799133%, 65.899658%)" offset="0"/><stop stop-opacity="1" stop-color="rgb(0%, 98.799133%, 65.899658%)" offset="0.0625"/><stop stop-opacity="1" stop-color="rgb(0.0213623%, 98.773193%, 65.965271%)" offset="0.09375"/><stop stop-opacity="1" stop-color="rgb(0.100708%, 98.677063%, 66.210938%)" offset="0.101563"/><stop stop-opacity="1" stop-color="rgb(0.216675%, 98.536682%, 66.571045%)" offset="0.109375"/><stop stop-opacity="1" stop-color="rgb(0.332642%, 98.396301%, 66.929626%)" offset="0.117188"/><stop stop-opacity="1" stop-color="rgb(0.448608%, 98.25592%, 67.289734%)" offset="0.125"/><stop stop-opacity="1" stop-color="rgb(0.564575%, 98.117065%, 67.649841%)" offset="0.132812"/><stop stop-opacity="1" stop-color="rgb(0.679016%, 97.976685%, 68.008423%)" offset="0.140625"/><stop stop-opacity="1" stop-color="rgb(0.794983%, 97.836304%, 68.36853%)" offset="0.148438"/><stop stop-opacity="1" stop-color="rgb(0.91095%, 97.695923%, 68.727112%)" offset="0.15625"/><stop stop-opacity="1" stop-color="rgb(1.026917%, 97.555542%, 69.087219%)" offset="0.164063"/><stop stop-opacity="1" stop-color="rgb(1.142883%, 97.415161%, 69.445801%)" offset="0.171875"/><stop stop-opacity="1" stop-color="rgb(1.25885%, 97.27478%, 69.805908%)" offset="0.179688"/><stop stop-opacity="1" stop-color="rgb(1.374817%, 97.135925%, 70.16449%)" offset="0.1875"/><stop stop-opacity="1" stop-color="rgb(1.490784%, 96.995544%, 70.524597%)" offset="0.195313"/><stop stop-opacity="1" stop-color="rgb(1.60675%, 96.855164%, 70.883179%)" offset="0.203125"/><stop stop-opacity="1" stop-color="rgb(1.722717%, 96.714783%, 71.243286%)" offset="0.210938"/><stop stop-opacity="1" stop-color="rgb(1.838684%, 96.574402%, 71.603394%)" offset="0.21875"/><stop stop-opacity="1" stop-color="rgb(1.954651%, 96.434021%, 71.961975%)" offset="0.226563"/><stop stop-opacity="1" stop-color="rgb(2.070618%, 96.29364%, 72.322083%)" offset="0.234375"/><stop stop-opacity="1" stop-color="rgb(2.186584%, 96.153259%, 72.680664%)" offset="0.242188"/><stop stop-opacity="1" stop-color="rgb(2.302551%, 96.014404%, 73.040771%)" offset="0.25"/><stop stop-opacity="1" stop-color="rgb(2.418518%, 95.874023%, 73.399353%)" offset="0.257812"/><stop stop-opacity="1" stop-color="rgb(2.534485%, 95.733643%, 73.75946%)" offset="0.265625"/><stop stop-opacity="1" stop-color="rgb(2.650452%, 95.593262%, 74.118042%)" offset="0.273438"/><stop stop-opacity="1" stop-color="rgb(2.766418%, 95.452881%, 74.478149%)" offset="0.281113"/><stop stop-opacity="1" stop-color="rgb(2.824402%, 95.38269%, 74.658203%)" offset="0.28125"/><stop stop-opacity="1" stop-color="rgb(2.882385%, 95.3125%, 74.836731%)" offset="0.289063"/><stop stop-opacity="1" stop-color="rgb(2.998352%, 95.172119%, 75.196838%)" offset="0.296875"/><stop stop-opacity="1" stop-color="rgb(3.114319%, 95.031738%, 75.556946%)" offset="0.304688"/><stop stop-opacity="1" stop-color="rgb(3.230286%, 94.892883%, 75.915527%)" offset="0.3125"/><stop stop-opacity="1" stop-color="rgb(3.346252%, 94.752502%, 76.275635%)" offset="0.320313"/><stop stop-opacity="1" stop-color="rgb(3.462219%, 94.612122%, 76.634216%)" offset="0.328125"/><stop stop-opacity="1" stop-color="rgb(3.578186%, 94.471741%, 76.994324%)" offset="0.335938"/><stop stop-opacity="1" stop-color="rgb(3.694153%, 94.33136%, 77.352905%)" offset="0.34375"/><stop stop-opacity="1" stop-color="rgb(3.81012%, 94.190979%, 77.713013%)" offset="0.351563"/><stop stop-opacity="1" stop-color="rgb(3.926086%, 94.050598%, 78.071594%)" offset="0.359375"/><stop stop-opacity="1" stop-color="rgb(4.042053%, 93.911743%, 78.431702%)" offset="0.367188"/><stop stop-opacity="1" stop-color="rgb(4.15802%, 93.771362%, 78.790283%)" offset="0.375"/><stop stop-opacity="1" stop-color="rgb(4.273987%, 93.630981%, 79.150391%)" offset="0.382813"/><stop stop-opacity="1" stop-color="rgb(4.389954%, 93.490601%, 79.510498%)" offset="0.390625"/><stop stop-opacity="1" stop-color="rgb(4.50592%, 93.35022%, 79.86908%)" offset="0.398438"/><stop stop-opacity="1" stop-color="rgb(4.621887%, 93.209839%, 80.229187%)" offset="0.40625"/><stop stop-opacity="1" stop-color="rgb(4.737854%, 93.069458%, 80.587769%)" offset="0.414062"/><stop stop-opacity="1" stop-color="rgb(4.853821%, 92.929077%, 80.947876%)" offset="0.421875"/><stop stop-opacity="1" stop-color="rgb(4.969788%, 92.790222%, 81.306458%)" offset="0.429688"/><stop stop-opacity="1" stop-color="rgb(5.085754%, 92.649841%, 81.666565%)" offset="0.4375"/><stop stop-opacity="1" stop-color="rgb(5.201721%, 92.50946%, 82.025146%)" offset="0.445313"/><stop stop-opacity="1" stop-color="rgb(5.317688%, 92.36908%, 82.385254%)" offset="0.453125"/><stop stop-opacity="1" stop-color="rgb(5.433655%, 92.228699%, 82.743835%)" offset="0.460938"/><stop stop-opacity="1" stop-color="rgb(5.549622%, 92.088318%, 83.103943%)" offset="0.46875"/><stop stop-opacity="1" stop-color="rgb(5.665588%, 91.947937%, 83.46405%)" offset="0.476562"/><stop stop-opacity="1" stop-color="rgb(5.781555%, 91.807556%, 83.822632%)" offset="0.484375"/><stop stop-opacity="1" stop-color="rgb(5.897522%, 91.668701%, 84.182739%)" offset="0.492188"/><stop stop-opacity="1" stop-color="rgb(6.013489%, 91.52832%, 84.541321%)" offset="0.5"/><stop stop-opacity="1" stop-color="rgb(6.129456%, 91.387939%, 84.901428%)" offset="0.507812"/><stop stop-opacity="1" stop-color="rgb(6.245422%, 91.247559%, 85.26001%)" offset="0.515625"/><stop stop-opacity="1" stop-color="rgb(6.361389%, 91.107178%, 85.620117%)" offset="0.523438"/><stop stop-opacity="1" stop-color="rgb(6.477356%, 90.966797%, 85.978699%)" offset="0.53125"/><stop stop-opacity="1" stop-color="rgb(6.593323%, 90.826416%, 86.338806%)" offset="0.539062"/><stop stop-opacity="1" stop-color="rgb(6.70929%, 90.687561%, 86.697388%)" offset="0.546875"/><stop stop-opacity="1" stop-color="rgb(6.825256%, 90.54718%, 87.057495%)" offset="0.554687"/><stop stop-opacity="1" stop-color="rgb(6.941223%, 90.406799%, 87.417603%)" offset="0.5625"/><stop stop-opacity="1" stop-color="rgb(7.05719%, 90.266418%, 87.776184%)" offset="0.570312"/><stop stop-opacity="1" stop-color="rgb(7.171631%, 90.126038%, 88.136292%)" offset="0.578125"/><stop stop-opacity="1" stop-color="rgb(7.287598%, 89.985657%, 88.494873%)" offset="0.585938"/><stop stop-opacity="1" stop-color="rgb(7.403564%, 89.845276%, 88.85498%)" offset="0.59375"/><stop stop-opacity="1" stop-color="rgb(7.519531%, 89.704895%, 89.213562%)" offset="0.601563"/><stop stop-opacity="1" stop-color="rgb(7.635498%, 89.56604%, 89.573669%)" offset="0.609375"/><stop stop-opacity="1" stop-color="rgb(7.751465%, 89.425659%, 89.932251%)" offset="0.617188"/><stop stop-opacity="1" stop-color="rgb(7.867432%, 89.285278%, 90.292358%)" offset="0.625"/><stop stop-opacity="1" stop-color="rgb(7.983398%, 89.144897%, 90.65094%)" offset="0.632813"/><stop stop-opacity="1" stop-color="rgb(8.099365%, 89.004517%, 91.011047%)" offset="0.640625"/><stop stop-opacity="1" stop-color="rgb(8.215332%, 88.864136%, 91.371155%)" offset="0.648438"/><stop stop-opacity="1" stop-color="rgb(8.331299%, 88.723755%, 91.729736%)" offset="0.65625"/><stop stop-opacity="1" stop-color="rgb(8.447266%, 88.583374%, 92.089844%)" offset="0.664063"/><stop stop-opacity="1" stop-color="rgb(8.563232%, 88.444519%, 92.448425%)" offset="0.671875"/><stop stop-opacity="1" stop-color="rgb(8.679199%, 88.304138%, 92.808533%)" offset="0.679688"/><stop stop-opacity="1" stop-color="rgb(8.795166%, 88.163757%, 93.167114%)" offset="0.6875"/><stop stop-opacity="1" stop-color="rgb(8.911133%, 88.023376%, 93.527222%)" offset="0.695312"/><stop stop-opacity="1" stop-color="rgb(9.0271%, 87.882996%, 93.885803%)" offset="0.703125"/><stop stop-opacity="1" stop-color="rgb(9.143066%, 87.742615%, 94.245911%)" offset="0.710938"/><stop stop-opacity="1" stop-color="rgb(9.259033%, 87.602234%, 94.604492%)" offset="0.71875"/><stop stop-opacity="1" stop-color="rgb(9.375%, 87.463379%, 94.9646%)" offset="0.718887"/><stop stop-opacity="1" stop-color="rgb(9.432983%, 87.393188%, 95.144653%)" offset="0.726563"/><stop stop-opacity="1" stop-color="rgb(9.490967%, 87.322998%, 95.324707%)" offset="0.734375"/><stop stop-opacity="1" stop-color="rgb(9.606934%, 87.182617%, 95.683289%)" offset="0.742188"/><stop stop-opacity="1" stop-color="rgb(9.7229%, 87.042236%, 96.043396%)" offset="0.75"/><stop stop-opacity="1" stop-color="rgb(9.838867%, 86.901855%, 96.401978%)" offset="0.757813"/><stop stop-opacity="1" stop-color="rgb(9.954834%, 86.761475%, 96.762085%)" offset="0.765625"/><stop stop-opacity="1" stop-color="rgb(10.070801%, 86.621094%, 97.120667%)" offset="0.773438"/><stop stop-opacity="1" stop-color="rgb(10.186768%, 86.480713%, 97.480774%)" offset="0.78125"/><stop stop-opacity="1" stop-color="rgb(10.302734%, 86.341858%, 97.839355%)" offset="0.789063"/><stop stop-opacity="1" stop-color="rgb(10.418701%, 86.201477%, 98.199463%)" offset="0.796875"/><stop stop-opacity="1" stop-color="rgb(10.534668%, 86.061096%, 98.558044%)" offset="0.804688"/><stop stop-opacity="1" stop-color="rgb(10.650635%, 85.920715%, 98.918152%)" offset="0.8125"/><stop stop-opacity="1" stop-color="rgb(10.766602%, 85.780334%, 99.278259%)" offset="0.820312"/><stop stop-opacity="1" stop-color="rgb(10.882568%, 85.639954%, 99.636841%)" offset="0.828125"/><stop stop-opacity="1" stop-color="rgb(10.969543%, 85.534668%, 99.908447%)" offset="0.84375"/><stop stop-opacity="1" stop-color="rgb(10.998535%, 85.499573%, 100%)" offset="0.875"/><stop stop-opacity="1" stop-color="rgb(10.998535%, 85.499573%, 100%)" offset="1"/></linearGradient></defs><g fill="#000000" fill-opacity="1"><g transform="translate(93.868167, 208.140124)"><g><path d="M 21.269531 0 L 21.269531 -39.457031 L 34.1875 -39.457031 L 34.1875 -44.984375 L 2.3125 -44.984375 L 2.3125 -39.457031 L 15.230469 -39.457031 L 15.230469 0 Z M 21.269531 0 "/></g></g></g><g fill="#000000" fill-opacity="1"><g transform="translate(130.36813, 208.140124)"><g><path d="M 5.332031 0 L 35.730469 0 L 35.730469 -5.527344 L 11.246094 -5.527344 L 11.246094 -20.371094 L 33.800781 -20.371094 L 33.800781 -25.898438 L 11.246094 -25.898438 L 11.246094 -39.457031 L 35.410156 -39.457031 L 35.410156 -44.984375 L 5.332031 -44.984375 Z M 5.332031 0 "/></g></g></g><g fill="#000000" fill-opacity="1"><g transform="translate(168.410345, 208.140124)"><g><path d="M 25.0625 0.964844 C 36.4375 0.964844 44.085938 -4.882812 45.433594 -14.136719 L 39.199219 -14.136719 C 37.914062 -9.0625 33.867188 -4.753906 25 -4.753906 C 15.488281 -4.753906 8.675781 -12.660156 8.675781 -22.554688 C 8.675781 -32.390625 15.421875 -40.230469 24.871094 -40.230469 C 33.546875 -40.230469 37.53125 -35.921875 38.816406 -30.847656 L 45.046875 -30.847656 C 43.828125 -39.652344 36.308594 -45.949219 24.871094 -45.949219 C 12.082031 -45.949219 2.699219 -35.921875 2.636719 -22.554688 C 2.699219 -9.125 12.144531 0.964844 25.0625 0.964844 Z M 25.0625 0.964844 "/></g></g></g><g fill="#000000" fill-opacity="1"><g transform="translate(216.220155, 208.140124)"><g><path d="M 5.332031 0 L 11.308594 0 L 11.308594 -20.179688 L 37.402344 -20.179688 L 37.402344 0 L 43.441406 0 L 43.441406 -44.984375 L 37.402344 -44.984375 L 37.402344 -25.707031 L 11.308594 -25.707031 L 11.308594 -44.984375 L 5.332031 -44.984375 Z M 5.332031 0 "/></g></g></g><g fill="#000000" fill-opacity="1"><g transform="translate(264.993878, 208.140124)"><g><path d="M 11.308594 -30.011719 C 11.308594 -32.839844 10.21875 -36.308594 9.316406 -38.945312 L 10.410156 -39.328125 C 11.308594 -36.628906 12.402344 -33.160156 14.074219 -30.910156 L 36.566406 0 L 42.605469 0 L 42.605469 -44.984375 L 36.566406 -44.984375 L 36.566406 -14.910156 C 36.566406 -12.082031 37.722656 -8.609375 38.558594 -5.976562 L 37.53125 -5.589844 C 36.628906 -8.289062 35.472656 -11.761719 33.800781 -14.007812 L 11.308594 -44.984375 L 5.332031 -44.984375 L 5.332031 0 L 11.308594 0 Z M 11.308594 -30.011719 "/></g></g></g><g fill="#000000" fill-opacity="1"><g transform="translate(312.932213, 208.140124)"><g><path d="M 2.699219 -22.492188 C 2.699219 -9.125 11.824219 1.027344 24.226562 1.027344 C 36.628906 1.027344 45.753906 -9.382812 45.753906 -22.492188 C 45.753906 -35.667969 36.628906 -45.949219 24.226562 -45.949219 C 11.824219 -45.949219 2.699219 -35.859375 2.699219 -22.492188 Z M 8.675781 -22.492188 C 8.675781 -31.617188 14.523438 -40.164062 24.226562 -40.164062 C 33.867188 -40.164062 39.714844 -31.617188 39.714844 -22.492188 C 39.714844 -13.429688 33.867188 -4.753906 24.226562 -4.753906 C 14.523438 -4.753906 8.675781 -13.429688 8.675781 -22.492188 Z M 8.675781 -22.492188 "/></g></g></g><g clip-path="url(#66a4625bf5)"><g clip-path="url(#378d49dd59)"><path fill="#00faa8" d="M 361.097656 192.863281 L 375 192.863281 L 375 206.765625 L 361.097656 206.765625 Z M 361.097656 192.863281 " fill-opacity="1" fill-rule="nonzero"/></g></g><g clip-path="url(#867c214b53)"><g clip-path="url(#1684e229f2)"><path fill="url(#1d20052326)" d="M 0.0078125 143.691406 L 0.0078125 230.679688 L 82.5 230.679688 L 82.5 143.691406 Z M 0.0078125 143.691406 " fill-rule="nonzero"/></g></g></svg>