<svg xmlns="http://www.w3.org/2000/svg" xmlns:xlink="http://www.w3.org/1999/xlink" width="500" zoomAndPan="magnify" viewBox="0 0 375 374.999991" height="500" preserveAspectRatio="xMidYMid meet" version="1.0"><defs><filter x="0%" y="0%" width="100%" height="100%" id="fe7048e2c7"><feColorMatrix values="0 0 0 0 1 0 0 0 0 1 0 0 0 0 1 0 0 0 1 0" color-interpolation-filters="sRGB"/></filter><g/><clipPath id="e34742c791"><path d="M 12.394531 158.074219 L 85.945312 158.074219 L 85.945312 215.949219 L 12.394531 215.949219 Z M 12.394531 158.074219 " clip-rule="nonzero"/></clipPath><clipPath id="c2716d8f21"><path d="M 37.378906 158.074219 L 80.257812 158.074219 C 81.992188 158.074219 83.625 158.910156 84.640625 160.316406 C 85.65625 161.726562 85.933594 163.539062 85.382812 165.1875 L 70.835938 208.835938 C 69.417969 213.082031 65.441406 215.949219 60.964844 215.949219 L 18.085938 215.949219 C 16.347656 215.949219 14.71875 215.113281 13.703125 213.703125 C 12.6875 212.296875 12.410156 210.484375 12.957031 208.835938 L 27.507812 165.1875 C 28.925781 160.9375 32.898438 158.074219 37.378906 158.074219 Z M 37.378906 158.074219 " clip-rule="nonzero"/></clipPath><mask id="0e7951c60c"><g filter="url(#fe7048e2c7)"><rect x="-37.5" width="450" fill="#000000" y="-37.499999" height="449.999989" fill-opacity="0.8"/></g></mask><clipPath id="4475b4c764"><path d="M 2 0.421875 L 75.359375 0.421875 L 75.359375 58.296875 L 2 58.296875 Z M 2 0.421875 " clip-rule="nonzero"/></clipPath><clipPath id="2fe264d351"><path d="M 26.792969 0.421875 L 69.667969 0.421875 C 71.40625 0.421875 73.039062 1.253906 74.054688 2.664062 C 75.070312 4.074219 75.347656 5.886719 74.796875 7.535156 L 60.25 51.179688 C 58.832031 55.429688 54.855469 58.296875 50.375 58.296875 L 7.5 58.296875 C 5.761719 58.296875 4.128906 57.460938 3.113281 56.050781 C 2.097656 54.640625 1.820312 52.828125 2.371094 51.179688 L 16.921875 7.535156 C 18.335938 3.285156 22.3125 0.421875 26.792969 0.421875 Z M 26.792969 0.421875 " clip-rule="nonzero"/></clipPath><clipPath id="de6c1dde95"><rect x="0" width="78" y="0" height="59"/></clipPath></defs><g clip-path="url(#e34742c791)"><g clip-path="url(#c2716d8f21)"><path fill="#0558ee" d="M 10.585938 158.074219 L 87.757812 158.074219 L 87.757812 215.949219 L 10.585938 215.949219 Z M 10.585938 158.074219 " fill-opacity="1" fill-rule="nonzero"/></g></g><g mask="url(#0e7951c60c)"><g transform="matrix(1, 0, 0, 1, 0, 147)"><g clip-path="url(#de6c1dde95)"><g clip-path="url(#4475b4c764)"><g clip-path="url(#2fe264d351)"><path fill="#21e8e6" d="M 0 0.421875 L 77.167969 0.421875 L 77.167969 58.296875 L 0 58.296875 Z M 0 0.421875 " fill-opacity="1" fill-rule="nonzero"/></g></g></g></g></g><g fill="#050419" fill-opacity="1"><g transform="translate(98.495117, 205.404502)"><g><path d="M 33 -34.65625 C 31.808594 -43.136719 24.386719 -46.847656 17.230469 -46.847656 C 11.863281 -46.847656 6.296875 -44.730469 3.179688 -40.6875 C 1.191406 -38.101562 0.398438 -34.988281 0.664062 -31.875 L 0.664062 -31.941406 C 1.390625 -22.265625 9.875 -20.675781 17.097656 -19.945312 C 21.734375 -19.480469 26.503906 -18.886719 27.300781 -15.375 C 27.433594 -14.777344 27.5 -14.246094 27.5 -13.78125 C 27.5 -9.011719 22.066406 -6.230469 17.097656 -6.230469 C 12.789062 -6.230469 7.554688 -8.480469 7.089844 -12.789062 L 7.089844 -12.523438 L 7.023438 -13.519531 L 0.265625 -13.386719 L 0.332031 -12.125 C 1.191406 -3.84375 9.875 0.398438 17.03125 0.398438 C 25.378906 0.398438 34.257812 -4.769531 34.257812 -13.714844 C 34.257812 -14.644531 34.125 -15.769531 33.925781 -16.765625 C 32.136719 -24.1875 24.253906 -25.84375 17.890625 -26.636719 C 12.921875 -27.101562 7.6875 -27.699219 7.355469 -32.46875 C 7.222656 -34.058594 7.554688 -35.585938 8.480469 -36.777344 C 10.335938 -39.164062 13.78125 -40.222656 16.898438 -40.289062 C 20.941406 -40.355469 25.445312 -38.566406 26.375 -34.390625 Z M 33 -34.65625 "/></g></g></g><g fill="#050419" fill-opacity="1"><g transform="translate(136.199059, 205.404502)"><g><path d="M 18.289062 -36.3125 L 23.988281 -19.945312 L 12.457031 -19.945312 Z M 32.136719 0 L 39.292969 0 L 20.675781 -46.980469 L 15.769531 -46.980469 L -2.847656 0 L 4.375 0 C 5.832031 -3.84375 8.152344 -9.410156 9.941406 -13.652344 L 26.570312 -13.652344 Z M 32.136719 0 "/></g></g></g><g fill="#050419" fill-opacity="1"><g transform="translate(176.155966, 205.404502)"><g><path d="M 8.085938 -46.320312 L 1.390625 -46.320312 L 1.390625 0 L 29.886719 0 L 29.886719 -6.691406 L 8.085938 -6.691406 Z M 8.085938 -46.320312 "/></g></g></g><g fill="#050419" fill-opacity="1"><g transform="translate(208.823903, 205.404502)"><g><path d="M 7.488281 -19.8125 L 26.042969 -19.8125 L 26.042969 -26.570312 L 7.488281 -26.570312 L 7.488281 -39.625 L 28.425781 -39.625 L 28.425781 -46.320312 L 0.796875 -46.320312 L 0.796875 0 L 7.488281 0 Z M 7.488281 -19.8125 "/></g></g></g><g fill="#050419" fill-opacity="1"><g transform="translate(239.570181, 205.404502)"><g><path d="M 40.355469 -23.191406 C 40.355469 -18.421875 38.433594 -14.246094 35.453125 -11.199219 C 32.335938 -8.085938 28.03125 -6.164062 23.457031 -6.164062 C 18.886719 -6.164062 14.644531 -8.085938 11.597656 -11.199219 C 8.546875 -14.246094 6.625 -18.488281 6.625 -23.191406 C 6.625 -27.898438 8.546875 -32.136719 11.597656 -35.1875 C 14.644531 -38.300781 18.886719 -40.222656 23.457031 -40.222656 C 28.03125 -40.222656 32.335938 -38.300781 35.453125 -35.1875 C 38.433594 -32.136719 40.355469 -27.964844 40.355469 -23.191406 Z M -0.132812 -23.191406 C -0.132812 -16.632812 2.585938 -10.734375 6.757812 -6.425781 C 11 -2.054688 16.964844 0.597656 23.457031 0.597656 C 30.019531 0.597656 35.914062 -2.054688 40.222656 -6.425781 C 44.398438 -10.734375 47.113281 -16.632812 47.113281 -23.191406 C 47.113281 -29.753906 44.398438 -35.648438 40.222656 -39.957031 C 35.914062 -44.265625 30.019531 -46.980469 23.457031 -46.980469 C 16.964844 -46.980469 11 -44.265625 6.757812 -39.957031 C 2.585938 -35.648438 -0.132812 -29.753906 -0.132812 -23.191406 Z M -0.132812 -23.191406 "/></g></g></g><g fill="#050419" fill-opacity="1"><g transform="translate(290.79186, 205.404502)"><g><path d="M 10.203125 -20.34375 L 27.101562 0 L 35.78125 0 L 21.136719 -17.425781 C 29.089844 -18.820312 33.132812 -25.046875 33.132812 -31.609375 C 33.132812 -38.964844 28.097656 -46.386719 18.023438 -46.386719 L 1.125 -46.386719 L 1.125 0 L 7.753906 0 L 7.753906 -39.625 L 18.023438 -39.625 C 23.65625 -39.625 26.441406 -35.585938 26.441406 -31.609375 C 26.441406 -27.566406 23.65625 -23.523438 18.023438 -23.523438 L 10.203125 -23.523438 Z M 10.203125 -20.34375 "/></g></g></g><g fill="#050419" fill-opacity="1"><g transform="translate(326.971742, 205.404502)"><g><path d="M 7.820312 -6.691406 L 7.820312 -39.625 L 17.757812 -39.625 C 28.492188 -39.625 33.925781 -31.34375 33.925781 -23.125 C 33.925781 -14.910156 28.492188 -6.691406 17.757812 -6.691406 Z M 1.125 -46.320312 L 1.125 0 L 17.757812 0 C 32.933594 0 40.554688 -11.53125 40.554688 -23.125 C 40.554688 -34.722656 32.933594 -46.320312 17.757812 -46.320312 Z M 1.125 -46.320312 "/></g></g></g></svg>