<svg xmlns="http://www.w3.org/2000/svg" xmlns:xlink="http://www.w3.org/1999/xlink" width="500" zoomAndPan="magnify" viewBox="0 0 375 374.999991" height="500" preserveAspectRatio="xMidYMid meet" version="1.0"><defs><g/><clipPath id="d25b246d6a"><path d="M 166 97 L 243 97 L 243 173 L 166 173 Z M 166 97 " clip-rule="nonzero"/></clipPath><clipPath id="1e5283bdb8"><path d="M 257.191406 135.199219 L 193.292969 199.097656 L 140.425781 146.230469 L 204.328125 82.332031 Z M 257.191406 135.199219 " clip-rule="nonzero"/></clipPath><clipPath id="667cb0214c"><path d="M 166.859375 172.664062 L 223.003906 169.386719 L 208.148438 154.53125 L 242.335938 120.34375 L 219.179688 97.1875 L 184.992188 131.375 L 170.136719 116.523438 Z M 166.859375 172.664062 " clip-rule="nonzero"/></clipPath><clipPath id="947a570a03"><path d="M 132 86 L 209 86 L 209 162 L 132 162 Z M 132 86 " clip-rule="nonzero"/></clipPath><clipPath id="718934609b"><path d="M 117.804688 123.601562 L 181.703125 59.703125 L 234.570312 112.570312 L 170.667969 176.46875 Z M 117.804688 123.601562 " clip-rule="nonzero"/></clipPath><clipPath id="1c2e69d3f2"><path d="M 208.136719 86.136719 L 151.992188 89.414062 L 166.847656 104.269531 L 132.660156 138.457031 L 155.816406 161.613281 L 190.003906 127.425781 L 204.859375 142.28125 Z M 208.136719 86.136719 " clip-rule="nonzero"/></clipPath></defs><g clip-path="url(#d25b246d6a)"><g clip-path="url(#1e5283bdb8)"><g clip-path="url(#667cb0214c)"><path fill="#0030ff" d="M 257.191406 135.199219 L 193.292969 199.097656 L 140.425781 146.230469 L 204.328125 82.332031 Z M 257.191406 135.199219 " fill-opacity="1" fill-rule="nonzero"/></g></g></g><g clip-path="url(#947a570a03)"><g clip-path="url(#718934609b)"><g clip-path="url(#1c2e69d3f2)"><path fill="#35beff" d="M 117.804688 123.601562 L 181.703125 59.703125 L 234.570312 112.570312 L 170.667969 176.46875 Z M 117.804688 123.601562 " fill-opacity="1" fill-rule="nonzero"/></g></g></g><g fill="#262632" fill-opacity="1"><g transform="translate(46.778692, 238.975415)"><g><path d="M 15.296875 -35.59375 L 15.296875 -24.03125 L 35.53125 -24.03125 L 35.53125 -15.921875 L 15.296875 -15.921875 L 15.296875 0 L 5.1875 0 L 5.1875 -43.703125 L 38.21875 -43.703125 L 38.21875 -35.59375 Z M 15.296875 -35.59375 "/></g></g></g><g fill="#262632" fill-opacity="1"><g transform="translate(83.550144, 238.975415)"><g><path d="M 4.5 -33.59375 L 14.234375 -33.59375 L 14.234375 0 L 4.5 0 Z M 9.359375 -38.28125 C 7.566406 -38.28125 6.109375 -38.796875 4.984375 -39.828125 C 3.867188 -40.867188 3.3125 -42.160156 3.3125 -43.703125 C 3.3125 -45.242188 3.867188 -46.535156 4.984375 -47.578125 C 6.109375 -48.617188 7.566406 -49.140625 9.359375 -49.140625 C 11.148438 -49.140625 12.609375 -48.640625 13.734375 -47.640625 C 14.859375 -46.640625 15.421875 -45.390625 15.421875 -43.890625 C 15.421875 -42.265625 14.859375 -40.921875 13.734375 -39.859375 C 12.609375 -38.804688 11.148438 -38.28125 9.359375 -38.28125 Z M 9.359375 -38.28125 "/></g></g></g><g fill="#262632" fill-opacity="1"><g transform="translate(99.219737, 238.975415)"><g><path d="M 24.90625 -34.09375 C 29.070312 -34.09375 32.4375 -32.84375 35 -30.34375 C 37.5625 -27.84375 38.84375 -24.140625 38.84375 -19.234375 L 38.84375 0 L 29.09375 0 L 29.09375 -17.734375 C 29.09375 -20.398438 28.507812 -22.382812 27.34375 -23.6875 C 26.175781 -25 24.492188 -25.65625 22.296875 -25.65625 C 19.835938 -25.65625 17.878906 -24.894531 16.421875 -23.375 C 14.960938 -21.863281 14.234375 -19.609375 14.234375 -16.609375 L 14.234375 0 L 4.5 0 L 4.5 -33.59375 L 13.796875 -33.59375 L 13.796875 -29.65625 C 15.085938 -31.070312 16.691406 -32.164062 18.609375 -32.9375 C 20.523438 -33.707031 22.625 -34.09375 24.90625 -34.09375 Z M 24.90625 -34.09375 "/></g></g></g><g fill="#262632" fill-opacity="1"><g transform="translate(139.23762, 238.975415)"><g><path d="M 20.734375 0.5 C 17.148438 0.5 13.929688 -0.238281 11.078125 -1.71875 C 8.234375 -3.195312 6.007812 -5.242188 4.40625 -7.859375 C 2.800781 -10.484375 2 -13.460938 2 -16.796875 C 2 -20.128906 2.800781 -23.101562 4.40625 -25.71875 C 6.007812 -28.34375 8.234375 -30.394531 11.078125 -31.875 C 13.929688 -33.351562 17.148438 -34.09375 20.734375 -34.09375 C 24.265625 -34.09375 27.351562 -33.351562 30 -31.875 C 32.644531 -30.394531 34.570312 -28.28125 35.78125 -25.53125 L 28.21875 -21.484375 C 26.46875 -24.554688 23.953125 -26.09375 20.671875 -26.09375 C 18.128906 -26.09375 16.023438 -25.257812 14.359375 -23.59375 C 12.691406 -21.9375 11.859375 -19.671875 11.859375 -16.796875 C 11.859375 -13.921875 12.691406 -11.648438 14.359375 -9.984375 C 16.023438 -8.328125 18.128906 -7.5 20.671875 -7.5 C 23.992188 -7.5 26.507812 -9.035156 28.21875 -12.109375 L 35.78125 -7.984375 C 34.570312 -5.328125 32.644531 -3.25 30 -1.75 C 27.351562 -0.25 24.265625 0.5 20.734375 0.5 Z M 20.734375 0.5 "/></g></g></g><g fill="#262632" fill-opacity="1"><g transform="translate(173.012351, 238.975415)"><g><path d="M 38.71875 -46.328125 L 38.71875 0 L 29.40625 0 L 29.40625 -3.875 C 26.988281 -0.957031 23.492188 0.5 18.921875 0.5 C 15.753906 0.5 12.890625 -0.207031 10.328125 -1.625 C 7.773438 -3.039062 5.769531 -5.054688 4.3125 -7.671875 C 2.851562 -10.296875 2.125 -13.335938 2.125 -16.796875 C 2.125 -20.253906 2.851562 -23.289062 4.3125 -25.90625 C 5.769531 -28.53125 7.773438 -30.550781 10.328125 -31.96875 C 12.890625 -33.382812 15.753906 -34.09375 18.921875 -34.09375 C 23.203125 -34.09375 26.550781 -32.738281 28.96875 -30.03125 L 28.96875 -46.328125 Z M 20.609375 -7.5 C 23.054688 -7.5 25.09375 -8.335938 26.71875 -10.015625 C 28.34375 -11.703125 29.15625 -13.960938 29.15625 -16.796875 C 29.15625 -19.628906 28.34375 -21.882812 26.71875 -23.5625 C 25.09375 -25.25 23.054688 -26.09375 20.609375 -26.09375 C 18.109375 -26.09375 16.046875 -25.25 14.421875 -23.5625 C 12.796875 -21.882812 11.984375 -19.628906 11.984375 -16.796875 C 11.984375 -13.960938 12.796875 -11.703125 14.421875 -10.015625 C 16.046875 -8.335938 18.109375 -7.5 20.609375 -7.5 Z M 20.609375 -7.5 "/></g></g></g><g fill="#262632" fill-opacity="1"><g transform="translate(213.092677, 238.975415)"><g><path d="M 4.5 -33.59375 L 14.234375 -33.59375 L 14.234375 0 L 4.5 0 Z M 9.359375 -38.28125 C 7.566406 -38.28125 6.109375 -38.796875 4.984375 -39.828125 C 3.867188 -40.867188 3.3125 -42.160156 3.3125 -43.703125 C 3.3125 -45.242188 3.867188 -46.535156 4.984375 -47.578125 C 6.109375 -48.617188 7.566406 -49.140625 9.359375 -49.140625 C 11.148438 -49.140625 12.609375 -48.640625 13.734375 -47.640625 C 14.859375 -46.640625 15.421875 -45.390625 15.421875 -43.890625 C 15.421875 -42.265625 14.859375 -40.921875 13.734375 -39.859375 C 12.609375 -38.804688 11.148438 -38.28125 9.359375 -38.28125 Z M 9.359375 -38.28125 "/></g></g></g><g fill="#262632" fill-opacity="1"><g transform="translate(228.76227, 238.975415)"><g><path d="M 37.40625 -16.671875 C 37.40625 -16.546875 37.34375 -15.671875 37.21875 -14.046875 L 11.796875 -14.046875 C 12.253906 -11.960938 13.335938 -10.316406 15.046875 -9.109375 C 16.753906 -7.910156 18.878906 -7.3125 21.421875 -7.3125 C 23.160156 -7.3125 24.707031 -7.566406 26.0625 -8.078125 C 27.414062 -8.597656 28.675781 -9.421875 29.84375 -10.546875 L 35.03125 -4.9375 C 31.863281 -1.3125 27.242188 0.5 21.171875 0.5 C 17.378906 0.5 14.023438 -0.238281 11.109375 -1.71875 C 8.203125 -3.195312 5.957031 -5.242188 4.375 -7.859375 C 2.789062 -10.484375 2 -13.460938 2 -16.796875 C 2 -20.085938 2.78125 -23.050781 4.34375 -25.6875 C 5.90625 -28.332031 8.046875 -30.394531 10.765625 -31.875 C 13.492188 -33.351562 16.546875 -34.09375 19.921875 -34.09375 C 23.203125 -34.09375 26.175781 -33.382812 28.84375 -31.96875 C 31.507812 -30.550781 33.601562 -28.519531 35.125 -25.875 C 36.644531 -23.238281 37.40625 -20.171875 37.40625 -16.671875 Z M 19.984375 -26.71875 C 17.773438 -26.71875 15.921875 -26.09375 14.421875 -24.84375 C 12.921875 -23.601562 12.003906 -21.898438 11.671875 -19.734375 L 28.21875 -19.734375 C 27.882812 -21.859375 26.96875 -23.550781 25.46875 -24.8125 C 23.976562 -26.082031 22.148438 -26.71875 19.984375 -26.71875 Z M 19.984375 -26.71875 "/></g></g></g><g fill="#262632" fill-opacity="1"><g transform="translate(265.034259, 238.975415)"><g><path d="M 13.796875 -29.15625 C 14.960938 -30.78125 16.535156 -32.007812 18.515625 -32.84375 C 20.492188 -33.675781 22.769531 -34.09375 25.34375 -34.09375 L 25.34375 -25.09375 C 24.257812 -25.175781 23.535156 -25.21875 23.171875 -25.21875 C 20.378906 -25.21875 18.191406 -24.4375 16.609375 -22.875 C 15.023438 -21.320312 14.234375 -18.984375 14.234375 -15.859375 L 14.234375 0 L 4.5 0 L 4.5 -33.59375 L 13.796875 -33.59375 Z M 13.796875 -29.15625 "/></g></g></g><g fill="#262632" fill-opacity="1"><g transform="translate(288.819958, 238.975415)"><g><path d="M 37.40625 -16.671875 C 37.40625 -16.546875 37.34375 -15.671875 37.21875 -14.046875 L 11.796875 -14.046875 C 12.253906 -11.960938 13.335938 -10.316406 15.046875 -9.109375 C 16.753906 -7.910156 18.878906 -7.3125 21.421875 -7.3125 C 23.160156 -7.3125 24.707031 -7.566406 26.0625 -8.078125 C 27.414062 -8.597656 28.675781 -9.421875 29.84375 -10.546875 L 35.03125 -4.9375 C 31.863281 -1.3125 27.242188 0.5 21.171875 0.5 C 17.378906 0.5 14.023438 -0.238281 11.109375 -1.71875 C 8.203125 -3.195312 5.957031 -5.242188 4.375 -7.859375 C 2.789062 -10.484375 2 -13.460938 2 -16.796875 C 2 -20.085938 2.78125 -23.050781 4.34375 -25.6875 C 5.90625 -28.332031 8.046875 -30.394531 10.765625 -31.875 C 13.492188 -33.351562 16.546875 -34.09375 19.921875 -34.09375 C 23.203125 -34.09375 26.175781 -33.382812 28.84375 -31.96875 C 31.507812 -30.550781 33.601562 -28.519531 35.125 -25.875 C 36.644531 -23.238281 37.40625 -20.171875 37.40625 -16.671875 Z M 19.984375 -26.71875 C 17.773438 -26.71875 15.921875 -26.09375 14.421875 -24.84375 C 12.921875 -23.601562 12.003906 -21.898438 11.671875 -19.734375 L 28.21875 -19.734375 C 27.882812 -21.859375 26.96875 -23.550781 25.46875 -24.8125 C 23.976562 -26.082031 22.148438 -26.71875 19.984375 -26.71875 Z M 19.984375 -26.71875 "/></g></g></g><g fill="#0030ff" fill-opacity="1"><g transform="translate(78.585937, 274.09006)"><g><path d="M 6.15625 -18.390625 L 6.15625 -11.0625 L 16.6875 -11.0625 L 16.6875 -8.484375 L 6.15625 -8.484375 L 6.15625 0 L 3.15625 0 L 3.15625 -21 L 17.96875 -21 L 17.96875 -18.390625 Z M 6.15625 -18.390625 "/></g></g></g><g fill="#0030ff" fill-opacity="1"><g transform="translate(103.63597, 274.09006)"><g><path d="M 3.15625 -21 L 6.15625 -21 L 6.15625 0 L 3.15625 0 Z M 3.15625 -21 "/></g></g></g><g fill="#0030ff" fill-opacity="1"><g transform="translate(118.935981, 274.09006)"><g><path d="M 21.203125 -21 L 21.203125 0 L 18.75 0 L 6.15625 -15.65625 L 6.15625 0 L 3.15625 0 L 3.15625 -21 L 5.609375 -21 L 18.203125 -5.34375 L 18.203125 -21 Z M 21.203125 -21 "/></g></g></g><g fill="#0030ff" fill-opacity="1"><g transform="translate(149.296028, 274.09006)"><g><path d="M 16.53125 -5.25 L 5.375 -5.25 L 3.0625 0 L -0.03125 0 L 9.484375 -21 L 12.453125 -21 L 21.984375 0 L 18.84375 0 Z M 15.484375 -7.65625 L 10.953125 -17.9375 L 6.421875 -7.65625 Z M 15.484375 -7.65625 "/></g></g></g><g fill="#0030ff" fill-opacity="1"><g transform="translate(177.256066, 274.09006)"><g><path d="M 21.203125 -21 L 21.203125 0 L 18.75 0 L 6.15625 -15.65625 L 6.15625 0 L 3.15625 0 L 3.15625 -21 L 5.609375 -21 L 18.203125 -5.34375 L 18.203125 -21 Z M 21.203125 -21 "/></g></g></g><g fill="#0030ff" fill-opacity="1"><g transform="translate(207.616117, 274.09006)"><g><path d="M 12.546875 0.234375 C 10.441406 0.234375 8.539062 -0.226562 6.84375 -1.15625 C 5.15625 -2.082031 3.832031 -3.359375 2.875 -4.984375 C 1.914062 -6.617188 1.4375 -8.457031 1.4375 -10.5 C 1.4375 -12.539062 1.914062 -14.375 2.875 -16 C 3.832031 -17.632812 5.160156 -18.914062 6.859375 -19.84375 C 8.566406 -20.769531 10.46875 -21.234375 12.5625 -21.234375 C 14.207031 -21.234375 15.707031 -20.957031 17.0625 -20.40625 C 18.425781 -19.863281 19.585938 -19.050781 20.546875 -17.96875 L 18.59375 -16.078125 C 17.019531 -17.734375 15.050781 -18.5625 12.6875 -18.5625 C 11.125 -18.5625 9.710938 -18.210938 8.453125 -17.515625 C 7.191406 -16.816406 6.207031 -15.851562 5.5 -14.625 C 4.789062 -13.394531 4.4375 -12.019531 4.4375 -10.5 C 4.4375 -8.976562 4.789062 -7.601562 5.5 -6.375 C 6.207031 -5.144531 7.191406 -4.179688 8.453125 -3.484375 C 9.710938 -2.785156 11.125 -2.4375 12.6875 -2.4375 C 15.03125 -2.4375 17 -3.273438 18.59375 -4.953125 L 20.546875 -3.0625 C 19.585938 -1.976562 18.421875 -1.15625 17.046875 -0.59375 C 15.679688 -0.0390625 14.179688 0.234375 12.546875 0.234375 Z M 12.546875 0.234375 "/></g></g></g><g fill="#0030ff" fill-opacity="1"><g transform="translate(235.306153, 274.09006)"><g><path d="M 3.15625 -21 L 6.15625 -21 L 6.15625 0 L 3.15625 0 Z M 3.15625 -21 "/></g></g></g><g fill="#0030ff" fill-opacity="1"><g transform="translate(250.606159, 274.09006)"><g><path d="M 16.53125 -5.25 L 5.375 -5.25 L 3.0625 0 L -0.03125 0 L 9.484375 -21 L 12.453125 -21 L 21.984375 0 L 18.84375 0 Z M 15.484375 -7.65625 L 10.953125 -17.9375 L 6.421875 -7.65625 Z M 15.484375 -7.65625 "/></g></g></g><g fill="#0030ff" fill-opacity="1"><g transform="translate(278.566191, 274.09006)"><g><path d="M 3.15625 -21 L 6.15625 -21 L 6.15625 -2.609375 L 17.515625 -2.609375 L 17.515625 0 L 3.15625 0 Z M 3.15625 -21 "/></g></g></g></svg>