<svg xmlns="http://www.w3.org/2000/svg" xmlns:xlink="http://www.w3.org/1999/xlink" width="500" zoomAndPan="magnify" viewBox="0 0 375 374.999991" height="500" preserveAspectRatio="xMidYMid meet" version="1.0"><defs><g/><clipPath id="3f6968e38a"><path d="M 38 161 L 99 161 L 99 222 L 38 222 Z M 38 161 " clip-rule="nonzero"/></clipPath><clipPath id="f74d30b776"><path d="M 110.5625 192.101562 L 59.878906 242.78125 L 17.953125 200.851562 L 68.632812 150.171875 Z M 110.5625 192.101562 " clip-rule="nonzero"/></clipPath><clipPath id="35e7e2f1a3"><path d="M 38.914062 221.816406 L 83.445312 219.214844 L 71.664062 207.433594 L 98.777344 180.320312 L 80.414062 161.953125 L 53.296875 189.070312 L 41.515625 177.285156 Z M 38.914062 221.816406 " clip-rule="nonzero"/></clipPath><clipPath id="83c975267b"><path d="M 11 153 L 72 153 L 72 214 L 11 214 Z M 11 153 " clip-rule="nonzero"/></clipPath><clipPath id="b5c021bd93"><path d="M 0 182.898438 L 50.679688 132.21875 L 92.609375 174.148438 L 41.929688 224.828125 Z M 0 182.898438 " clip-rule="nonzero"/></clipPath><clipPath id="fe58d4b61a"><path d="M 71.644531 153.183594 L 27.117188 155.785156 L 38.898438 167.566406 L 11.78125 194.679688 L 30.148438 213.046875 L 57.265625 185.929688 L 69.046875 197.710938 Z M 71.644531 153.183594 " clip-rule="nonzero"/></clipPath></defs><g clip-path="url(#3f6968e38a)"><g clip-path="url(#f74d30b776)"><g clip-path="url(#35e7e2f1a3)"><path fill="#027dfc" d="M 110.5625 192.101562 L 59.878906 242.78125 L 17.953125 200.851562 L 68.632812 150.171875 Z M 110.5625 192.101562 " fill-opacity="1" fill-rule="nonzero"/></g></g></g><g clip-path="url(#83c975267b)"><g clip-path="url(#b5c021bd93)"><g clip-path="url(#fe58d4b61a)"><path fill="#35beff" d="M 0 182.898438 L 50.679688 132.21875 L 92.609375 174.148438 L 41.929688 224.828125 Z M 0 182.898438 " fill-opacity="1" fill-rule="nonzero"/></g></g></g><g fill="#262632" fill-opacity="1"><g transform="translate(112.259601, 208.464329)"><g><path d="M 13.296875 -30.953125 L 13.296875 -20.90625 L 30.890625 -20.90625 L 30.890625 -13.84375 L 13.296875 -13.84375 L 13.296875 0 L 4.5 0 L 4.5 -38.015625 L 33.234375 -38.015625 L 33.234375 -30.953125 Z M 13.296875 -30.953125 "/></g></g></g><g fill="#262632" fill-opacity="1"><g transform="translate(144.233695, 208.464329)"><g><path d="M 3.90625 -29.21875 L 12.375 -29.21875 L 12.375 0 L 3.90625 0 Z M 8.140625 -33.28125 C 6.585938 -33.28125 5.320312 -33.734375 4.34375 -34.640625 C 3.363281 -35.546875 2.875 -36.671875 2.875 -38.015625 C 2.875 -39.347656 3.363281 -40.46875 4.34375 -41.375 C 5.320312 -42.28125 6.585938 -42.734375 8.140625 -42.734375 C 9.703125 -42.734375 10.972656 -42.296875 11.953125 -41.421875 C 12.929688 -40.554688 13.421875 -39.472656 13.421875 -38.171875 C 13.421875 -36.753906 12.929688 -35.582031 11.953125 -34.65625 C 10.972656 -33.738281 9.703125 -33.28125 8.140625 -33.28125 Z M 8.140625 -33.28125 "/></g></g></g><g fill="#262632" fill-opacity="1"><g transform="translate(157.858703, 208.464329)"><g><path d="M 21.671875 -29.640625 C 25.285156 -29.640625 28.203125 -28.550781 30.421875 -26.375 C 32.648438 -24.207031 33.765625 -20.988281 33.765625 -16.71875 L 33.765625 0 L 25.296875 0 L 25.296875 -15.421875 C 25.296875 -17.734375 24.789062 -19.457031 23.78125 -20.59375 C 22.769531 -21.738281 21.304688 -22.3125 19.390625 -22.3125 C 17.253906 -22.3125 15.550781 -21.648438 14.28125 -20.328125 C 13.007812 -19.015625 12.375 -17.050781 12.375 -14.4375 L 12.375 0 L 3.90625 0 L 3.90625 -29.21875 L 12 -29.21875 L 12 -25.796875 C 13.125 -27.023438 14.515625 -27.972656 16.171875 -28.640625 C 17.835938 -29.304688 19.671875 -29.640625 21.671875 -29.640625 Z M 21.671875 -29.640625 "/></g></g></g><g fill="#262632" fill-opacity="1"><g transform="translate(192.655733, 208.464329)"><g><path d="M 18.03125 0.4375 C 14.914062 0.4375 12.117188 -0.203125 9.640625 -1.484375 C 7.160156 -2.773438 5.222656 -4.5625 3.828125 -6.84375 C 2.429688 -9.125 1.734375 -11.710938 1.734375 -14.609375 C 1.734375 -17.503906 2.429688 -20.09375 3.828125 -22.375 C 5.222656 -24.65625 7.160156 -26.4375 9.640625 -27.71875 C 12.117188 -29 14.914062 -29.640625 18.03125 -29.640625 C 21.101562 -29.640625 23.785156 -29 26.078125 -27.71875 C 28.378906 -26.4375 30.054688 -24.597656 31.109375 -22.203125 L 24.546875 -18.671875 C 23.023438 -21.359375 20.832031 -22.703125 17.96875 -22.703125 C 15.757812 -22.703125 13.929688 -21.976562 12.484375 -20.53125 C 11.035156 -19.082031 10.3125 -17.109375 10.3125 -14.609375 C 10.3125 -12.109375 11.035156 -10.132812 12.484375 -8.6875 C 13.929688 -7.238281 15.757812 -6.515625 17.96875 -6.515625 C 20.863281 -6.515625 23.054688 -7.851562 24.546875 -10.53125 L 31.109375 -6.953125 C 30.054688 -4.628906 28.378906 -2.816406 26.078125 -1.515625 C 23.785156 -0.210938 21.101562 0.4375 18.03125 0.4375 Z M 18.03125 0.4375 "/></g></g></g><g fill="#262632" fill-opacity="1"><g transform="translate(222.024039, 208.464329)"><g><path d="M 33.671875 -40.28125 L 33.671875 0 L 25.578125 0 L 25.578125 -3.359375 C 23.472656 -0.828125 20.429688 0.4375 16.453125 0.4375 C 13.703125 0.4375 11.210938 -0.175781 8.984375 -1.40625 C 6.753906 -2.644531 5.003906 -4.398438 3.734375 -6.671875 C 2.472656 -8.953125 1.84375 -11.597656 1.84375 -14.609375 C 1.84375 -17.609375 2.472656 -20.25 3.734375 -22.53125 C 5.003906 -24.8125 6.753906 -26.566406 8.984375 -27.796875 C 11.210938 -29.023438 13.703125 -29.640625 16.453125 -29.640625 C 20.179688 -29.640625 23.09375 -28.460938 25.1875 -26.109375 L 25.1875 -40.28125 Z M 17.921875 -6.515625 C 20.054688 -6.515625 21.828125 -7.242188 23.234375 -8.703125 C 24.648438 -10.171875 25.359375 -12.140625 25.359375 -14.609375 C 25.359375 -17.066406 24.648438 -19.03125 23.234375 -20.5 C 21.828125 -21.96875 20.054688 -22.703125 17.921875 -22.703125 C 15.742188 -22.703125 13.945312 -21.96875 12.53125 -20.5 C 11.125 -19.03125 10.421875 -17.066406 10.421875 -14.609375 C 10.421875 -12.140625 11.125 -10.171875 12.53125 -8.703125 C 13.945312 -7.242188 15.742188 -6.515625 17.921875 -6.515625 Z M 17.921875 -6.515625 "/></g></g></g><g fill="#262632" fill-opacity="1"><g transform="translate(256.87535, 208.464329)"><g><path d="M 3.90625 -29.21875 L 12.375 -29.21875 L 12.375 0 L 3.90625 0 Z M 8.140625 -33.28125 C 6.585938 -33.28125 5.320312 -33.734375 4.34375 -34.640625 C 3.363281 -35.546875 2.875 -36.671875 2.875 -38.015625 C 2.875 -39.347656 3.363281 -40.46875 4.34375 -41.375 C 5.320312 -42.28125 6.585938 -42.734375 8.140625 -42.734375 C 9.703125 -42.734375 10.972656 -42.296875 11.953125 -41.421875 C 12.929688 -40.554688 13.421875 -39.472656 13.421875 -38.171875 C 13.421875 -36.753906 12.929688 -35.582031 11.953125 -34.65625 C 10.972656 -33.738281 9.703125 -33.28125 8.140625 -33.28125 Z M 8.140625 -33.28125 "/></g></g></g><g fill="#262632" fill-opacity="1"><g transform="translate(270.500358, 208.464329)"><g><path d="M 32.53125 -14.5 C 32.53125 -14.382812 32.472656 -13.625 32.359375 -12.21875 L 10.265625 -12.21875 C 10.660156 -10.40625 11.597656 -8.972656 13.078125 -7.921875 C 14.566406 -6.878906 16.414062 -6.359375 18.625 -6.359375 C 20.144531 -6.359375 21.492188 -6.582031 22.671875 -7.03125 C 23.847656 -7.476562 24.941406 -8.191406 25.953125 -9.171875 L 30.453125 -4.296875 C 27.703125 -1.140625 23.6875 0.4375 18.40625 0.4375 C 15.113281 0.4375 12.195312 -0.203125 9.65625 -1.484375 C 7.125 -2.773438 5.171875 -4.5625 3.796875 -6.84375 C 2.421875 -9.125 1.734375 -11.710938 1.734375 -14.609375 C 1.734375 -17.460938 2.410156 -20.039062 3.765625 -22.34375 C 5.128906 -24.644531 6.992188 -26.4375 9.359375 -27.71875 C 11.734375 -29 14.390625 -29.640625 17.328125 -29.640625 C 20.179688 -29.640625 22.765625 -29.023438 25.078125 -27.796875 C 27.398438 -26.566406 29.222656 -24.800781 30.546875 -22.5 C 31.867188 -20.207031 32.53125 -17.539062 32.53125 -14.5 Z M 17.375 -23.234375 C 15.457031 -23.234375 13.847656 -22.691406 12.546875 -21.609375 C 11.242188 -20.523438 10.445312 -19.039062 10.15625 -17.15625 L 24.546875 -17.15625 C 24.253906 -19 23.457031 -20.472656 22.15625 -21.578125 C 20.851562 -22.679688 19.257812 -23.234375 17.375 -23.234375 Z M 17.375 -23.234375 "/></g></g></g><g fill="#262632" fill-opacity="1"><g transform="translate(302.040154, 208.464329)"><g><path d="M 12 -25.359375 C 13.007812 -26.765625 14.375 -27.828125 16.09375 -28.546875 C 17.8125 -29.273438 19.796875 -29.640625 22.046875 -29.640625 L 22.046875 -21.828125 C 21.109375 -21.898438 20.472656 -21.9375 20.140625 -21.9375 C 17.710938 -21.9375 15.8125 -21.253906 14.4375 -19.890625 C 13.0625 -18.535156 12.375 -16.503906 12.375 -13.796875 L 12.375 0 L 3.90625 0 L 3.90625 -29.21875 L 12 -29.21875 Z M 12 -25.359375 "/></g></g></g><g fill="#262632" fill-opacity="1"><g transform="translate(322.722503, 208.464329)"><g><path d="M 32.53125 -14.5 C 32.53125 -14.382812 32.472656 -13.625 32.359375 -12.21875 L 10.265625 -12.21875 C 10.660156 -10.40625 11.597656 -8.972656 13.078125 -7.921875 C 14.566406 -6.878906 16.414062 -6.359375 18.625 -6.359375 C 20.144531 -6.359375 21.492188 -6.582031 22.671875 -7.03125 C 23.847656 -7.476562 24.941406 -8.191406 25.953125 -9.171875 L 30.453125 -4.296875 C 27.703125 -1.140625 23.6875 0.4375 18.40625 0.4375 C 15.113281 0.4375 12.195312 -0.203125 9.65625 -1.484375 C 7.125 -2.773438 5.171875 -4.5625 3.796875 -6.84375 C 2.421875 -9.125 1.734375 -11.710938 1.734375 -14.609375 C 1.734375 -17.460938 2.410156 -20.039062 3.765625 -22.34375 C 5.128906 -24.644531 6.992188 -26.4375 9.359375 -27.71875 C 11.734375 -29 14.390625 -29.640625 17.328125 -29.640625 C 20.179688 -29.640625 22.765625 -29.023438 25.078125 -27.796875 C 27.398438 -26.566406 29.222656 -24.800781 30.546875 -22.5 C 31.867188 -20.207031 32.53125 -17.539062 32.53125 -14.5 Z M 17.375 -23.234375 C 15.457031 -23.234375 13.847656 -22.691406 12.546875 -21.609375 C 11.242188 -20.523438 10.445312 -19.039062 10.15625 -17.15625 L 24.546875 -17.15625 C 24.253906 -19 23.457031 -20.472656 22.15625 -21.578125 C 20.851562 -22.679688 19.257812 -23.234375 17.375 -23.234375 Z M 17.375 -23.234375 "/></g></g></g></svg>