<svg xmlns="http://www.w3.org/2000/svg" xmlns:xlink="http://www.w3.org/1999/xlink" width="500" zoomAndPan="magnify" viewBox="0 0 375 374.999991" height="500" preserveAspectRatio="xMidYMid meet" version="1.0"><defs><g/><clipPath id="b575dcc5a4"><path d="M 27.113281 149.761719 L 54.226562 149.761719 L 54.226562 197.980469 L 27.113281 197.980469 Z M 27.113281 149.761719 " clip-rule="nonzero"/></clipPath><clipPath id="6f571415dd"><path d="M 54.226562 171.183594 L 54.226562 166.28125 L 27.113281 166.28125 L 27.113281 181.539062 L 54.226562 181.539062 Z M 27.113281 181.539062 L 54.226562 197.980469 L 54.226562 181.539062 Z M 27.113281 149.839844 L 54.226562 149.839844 L 54.226562 166.28125 L 27.113281 166.28125 Z M 27.113281 149.839844 " clip-rule="nonzero"/></clipPath><clipPath id="f9d663e827"><path d="M 54.226562 149.761719 L 81.335938 149.761719 L 81.335938 197.980469 L 54.226562 197.980469 Z M 54.226562 149.761719 " clip-rule="nonzero"/></clipPath><clipPath id="68c036678a"><path d="M 54.226562 166.28125 L 54.226562 181.539062 L 81.335938 181.539062 L 81.335938 166.28125 Z M 54.226562 149.839844 L 81.335938 149.839844 L 81.335938 166.28125 L 54.226562 166.28125 Z M 54.226562 197.980469 L 81.335938 181.539062 L 54.226562 181.539062 Z M 54.226562 197.980469 " clip-rule="nonzero"/></clipPath><clipPath id="8b9e272c6f"><path d="M 27.113281 133.398438 L 81.335938 133.398438 L 81.335938 166.339844 L 27.113281 166.339844 Z M 27.113281 133.398438 " clip-rule="nonzero"/></clipPath><clipPath id="855e3b7ba5"><path d="M 54.226562 166.28125 L 27.113281 149.839844 L 54.226562 133.398438 L 81.335938 149.839844 Z M 54.226562 166.28125 " clip-rule="nonzero"/></clipPath><clipPath id="8ccebf6701"><path d="M 54.226562 193.382812 L 81.335938 193.382812 L 81.335938 241.601562 L 54.226562 241.601562 Z M 54.226562 193.382812 " clip-rule="nonzero"/></clipPath><clipPath id="8f27424162"><path d="M 81.335938 214.804688 L 81.335938 209.902344 L 54.226562 209.902344 L 54.226562 225.160156 L 81.335938 225.160156 Z M 54.226562 225.160156 L 81.335938 241.601562 L 81.335938 225.160156 Z M 54.226562 193.460938 L 81.335938 193.460938 L 81.335938 209.902344 L 54.226562 209.902344 Z M 54.226562 193.460938 " clip-rule="nonzero"/></clipPath><clipPath id="4e5b9c0ddd"><path d="M 81.335938 193.382812 L 108.449219 193.382812 L 108.449219 241.601562 L 81.335938 241.601562 Z M 81.335938 193.382812 " clip-rule="nonzero"/></clipPath><clipPath id="0594132dd2"><path d="M 81.335938 209.902344 L 81.335938 225.160156 L 108.449219 225.160156 L 108.449219 209.902344 Z M 81.335938 193.460938 L 108.449219 193.460938 L 108.449219 209.902344 L 81.335938 209.902344 Z M 81.335938 241.601562 L 108.449219 225.160156 L 81.335938 225.160156 Z M 81.335938 241.601562 " clip-rule="nonzero"/></clipPath><clipPath id="5232e04c41"><path d="M 54.226562 177.019531 L 108.449219 177.019531 L 108.449219 209.960938 L 54.226562 209.960938 Z M 54.226562 177.019531 " clip-rule="nonzero"/></clipPath><clipPath id="22700f9bb4"><path d="M 81.335938 209.902344 L 54.226562 193.460938 L 81.335938 177.019531 L 108.449219 193.460938 Z M 81.335938 209.902344 " clip-rule="nonzero"/></clipPath><clipPath id="a55f41750d"><path d="M 0 193.382812 L 27.113281 193.382812 L 27.113281 241.601562 L 0 241.601562 Z M 0 193.382812 " clip-rule="nonzero"/></clipPath><clipPath id="271646e204"><path d="M 27.113281 214.804688 L 27.113281 209.902344 L 0 209.902344 L 0 225.160156 L 27.113281 225.160156 Z M 0 225.160156 L 27.113281 241.601562 L 27.113281 225.160156 Z M 0 193.460938 L 27.113281 193.460938 L 27.113281 209.902344 L 0 209.902344 Z M 0 193.460938 " clip-rule="nonzero"/></clipPath><clipPath id="9e5a8b6c2e"><path d="M 27.113281 193.382812 L 54.226562 193.382812 L 54.226562 241.601562 L 27.113281 241.601562 Z M 27.113281 193.382812 " clip-rule="nonzero"/></clipPath><clipPath id="16651009ca"><path d="M 27.113281 209.902344 L 27.113281 225.160156 L 54.226562 225.160156 L 54.226562 209.902344 Z M 27.113281 193.460938 L 54.226562 193.460938 L 54.226562 209.902344 L 27.113281 209.902344 Z M 27.113281 241.601562 L 54.226562 225.160156 L 27.113281 225.160156 Z M 27.113281 241.601562 " clip-rule="nonzero"/></clipPath><clipPath id="e0dd87d167"><path d="M 0 177.019531 L 54.226562 177.019531 L 54.226562 209.960938 L 0 209.960938 Z M 0 177.019531 " clip-rule="nonzero"/></clipPath><clipPath id="bfe5e4213e"><path d="M 27.113281 209.902344 L 0 193.460938 L 27.113281 177.019531 L 54.226562 193.460938 Z M 27.113281 209.902344 " clip-rule="nonzero"/></clipPath></defs><g clip-path="url(#b575dcc5a4)"><g clip-path="url(#6f571415dd)"><path fill="#6f3284" d="M 27.113281 133.398438 L 81.335938 133.398438 L 81.335938 197.980469 L 27.113281 197.980469 Z M 27.113281 133.398438 " fill-opacity="1" fill-rule="nonzero"/></g></g><g clip-path="url(#f9d663e827)"><g clip-path="url(#68c036678a)"><path fill="#af47ab" d="M 27.113281 133.398438 L 81.335938 133.398438 L 81.335938 197.980469 L 27.113281 197.980469 Z M 27.113281 133.398438 " fill-opacity="1" fill-rule="nonzero"/></g></g><g clip-path="url(#8b9e272c6f)"><g clip-path="url(#855e3b7ba5)"><path fill="#f487d2" d="M 27.113281 133.398438 L 81.335938 133.398438 L 81.335938 197.980469 L 27.113281 197.980469 Z M 27.113281 133.398438 " fill-opacity="1" fill-rule="nonzero"/></g></g><g clip-path="url(#8ccebf6701)"><g clip-path="url(#8f27424162)"><path fill="#6f3284" d="M 54.226562 177.019531 L 108.449219 177.019531 L 108.449219 241.601562 L 54.226562 241.601562 Z M 54.226562 177.019531 " fill-opacity="1" fill-rule="nonzero"/></g></g><g clip-path="url(#4e5b9c0ddd)"><g clip-path="url(#0594132dd2)"><path fill="#af47ab" d="M 54.226562 177.019531 L 108.449219 177.019531 L 108.449219 241.601562 L 54.226562 241.601562 Z M 54.226562 177.019531 " fill-opacity="1" fill-rule="nonzero"/></g></g><g clip-path="url(#5232e04c41)"><g clip-path="url(#22700f9bb4)"><path fill="#f487d2" d="M 54.226562 177.019531 L 108.449219 177.019531 L 108.449219 241.601562 L 54.226562 241.601562 Z M 54.226562 177.019531 " fill-opacity="1" fill-rule="nonzero"/></g></g><g clip-path="url(#a55f41750d)"><g clip-path="url(#271646e204)"><path fill="#6f3284" d="M 0 177.019531 L 54.226562 177.019531 L 54.226562 241.601562 L 0 241.601562 Z M 0 177.019531 " fill-opacity="1" fill-rule="nonzero"/></g></g><g clip-path="url(#9e5a8b6c2e)"><g clip-path="url(#16651009ca)"><path fill="#af47ab" d="M 0 177.019531 L 54.226562 177.019531 L 54.226562 241.601562 L 0 241.601562 Z M 0 177.019531 " fill-opacity="1" fill-rule="nonzero"/></g></g><g clip-path="url(#e0dd87d167)"><g clip-path="url(#bfe5e4213e)"><path fill="#f487d2" d="M 0 177.019531 L 54.226562 177.019531 L 54.226562 241.601562 L 0 241.601562 Z M 0 177.019531 " fill-opacity="1" fill-rule="nonzero"/></g></g><g fill="#262632" fill-opacity="1"><g transform="translate(119.716489, 227.845518)"><g><path d="M 3.390625 0 L 3.390625 -37.71875 L 17.890625 -37.71875 C 20.691406 -37.71875 23.3125 -37.226562 25.75 -36.25 C 28.195312 -35.28125 30.304688 -33.953125 32.078125 -32.265625 C 33.859375 -30.578125 35.257812 -28.566406 36.28125 -26.234375 C 37.300781 -23.898438 37.8125 -21.40625 37.8125 -18.75 C 37.8125 -16.125 37.300781 -13.660156 36.28125 -11.359375 C 35.257812 -9.066406 33.859375 -7.082031 32.078125 -5.40625 C 30.304688 -3.738281 28.195312 -2.421875 25.75 -1.453125 C 23.3125 -0.484375 20.691406 0 17.890625 0 Z M 17.828125 -30.765625 L 11.203125 -30.765625 L 11.203125 -6.953125 L 17.828125 -6.953125 C 19.484375 -6.953125 21.035156 -7.253906 22.484375 -7.859375 C 23.941406 -8.472656 25.207031 -9.304688 26.28125 -10.359375 C 27.363281 -11.421875 28.207031 -12.671875 28.8125 -14.109375 C 29.425781 -15.546875 29.734375 -17.09375 29.734375 -18.75 C 29.734375 -20.4375 29.425781 -22.015625 28.8125 -23.484375 C 28.207031 -24.960938 27.363281 -26.238281 26.28125 -27.3125 C 25.207031 -28.394531 23.941406 -29.238281 22.484375 -29.84375 C 21.035156 -30.457031 19.484375 -30.765625 17.828125 -30.765625 Z M 17.828125 -30.765625 "/></g></g></g><g fill="#262632" fill-opacity="1"><g transform="translate(159.477647, 227.845518)"><g><path d="M 6.578125 -31.40625 C 5.421875 -31.40625 4.429688 -31.816406 3.609375 -32.640625 C 2.785156 -33.472656 2.375 -34.460938 2.375 -35.609375 C 2.375 -36.753906 2.785156 -37.738281 3.609375 -38.5625 C 4.429688 -39.394531 5.421875 -39.8125 6.578125 -39.8125 C 7.722656 -39.8125 8.707031 -39.394531 9.53125 -38.5625 C 10.363281 -37.738281 10.78125 -36.753906 10.78125 -35.609375 C 10.78125 -34.460938 10.363281 -33.472656 9.53125 -32.640625 C 8.707031 -31.816406 7.722656 -31.40625 6.578125 -31.40625 Z M 10.296875 -28.0625 L 10.296875 0 L 2.90625 0 L 2.90625 -28.0625 Z M 10.296875 -28.0625 "/></g></g></g><g fill="#262632" fill-opacity="1"><g transform="translate(172.623607, 227.845518)"><g><path d="M 15.84375 0.15625 C 13.863281 0.15625 12.003906 -0.21875 10.265625 -0.96875 C 8.523438 -1.71875 7.015625 -2.738281 5.734375 -4.03125 C 4.460938 -5.332031 3.457031 -6.851562 2.71875 -8.59375 C 1.976562 -10.332031 1.609375 -12.207031 1.609375 -14.21875 C 1.609375 -16.195312 1.984375 -18.054688 2.734375 -19.796875 C 3.492188 -21.535156 4.519531 -23.050781 5.8125 -24.34375 C 7.113281 -25.644531 8.640625 -26.660156 10.390625 -27.390625 C 12.148438 -28.128906 14.039062 -28.5 16.0625 -28.5 C 17.457031 -28.5 18.789062 -28.300781 20.0625 -27.90625 C 21.34375 -27.507812 22.539062 -26.953125 23.65625 -26.234375 L 23.65625 -28.0625 L 30.921875 -28.0625 L 30.921875 0 C 30.921875 3.695312 29.726562 6.550781 27.34375 8.5625 C 24.957031 10.570312 21.519531 11.578125 17.03125 11.578125 C 14.875 11.578125 12.796875 11.363281 10.796875 10.9375 C 8.804688 10.507812 6.984375 9.878906 5.328125 9.046875 L 7.921875 3.28125 C 9.460938 4.039062 10.96875 4.609375 12.4375 4.984375 C 13.914062 5.359375 15.390625 5.546875 16.859375 5.546875 C 19.054688 5.546875 20.71875 5.066406 21.84375 4.109375 C 22.976562 3.160156 23.546875 1.773438 23.546875 -0.046875 L 23.546875 -2.375 C 22.429688 -1.539062 21.21875 -0.910156 19.90625 -0.484375 C 18.59375 -0.0546875 17.238281 0.15625 15.84375 0.15625 Z M 8.890625 -14.21875 C 8.890625 -11.957031 9.671875 -10.035156 11.234375 -8.453125 C 12.796875 -6.878906 14.707031 -6.09375 16.96875 -6.09375 C 18.300781 -6.09375 19.519531 -6.316406 20.625 -6.765625 C 21.738281 -7.210938 22.710938 -7.832031 23.546875 -8.625 L 23.546875 -19.671875 C 22.753906 -20.453125 21.78125 -21.066406 20.625 -21.515625 C 19.476562 -21.972656 18.28125 -22.203125 17.03125 -22.203125 C 14.757812 -22.203125 12.832031 -21.425781 11.25 -19.875 C 9.675781 -18.332031 8.890625 -16.445312 8.890625 -14.21875 Z M 8.890625 -14.21875 "/></g></g></g><g fill="#262632" fill-opacity="1"><g transform="translate(206.458295, 227.845518)"><g><path d="M 6.578125 -31.40625 C 5.421875 -31.40625 4.429688 -31.816406 3.609375 -32.640625 C 2.785156 -33.472656 2.375 -34.460938 2.375 -35.609375 C 2.375 -36.753906 2.785156 -37.738281 3.609375 -38.5625 C 4.429688 -39.394531 5.421875 -39.8125 6.578125 -39.8125 C 7.722656 -39.8125 8.707031 -39.394531 9.53125 -38.5625 C 10.363281 -37.738281 10.78125 -36.753906 10.78125 -35.609375 C 10.78125 -34.460938 10.363281 -33.472656 9.53125 -32.640625 C 8.707031 -31.816406 7.722656 -31.40625 6.578125 -31.40625 Z M 10.296875 -28.0625 L 10.296875 0 L 2.90625 0 L 2.90625 -28.0625 Z M 10.296875 -28.0625 "/></g></g></g><g fill="#f487d2" fill-opacity="1"><g transform="translate(220.138716, 227.845518)"><g><path d="M 0.15625 -5.984375 L 4.640625 -11.578125 C 6.828125 -9.679688 8.929688 -8.289062 10.953125 -7.40625 C 12.984375 -6.53125 15.132812 -6.09375 17.40625 -6.09375 C 19.738281 -6.09375 21.601562 -6.519531 23 -7.375 C 24.40625 -8.238281 25.109375 -9.390625 25.109375 -10.828125 C 25.109375 -12.117188 24.628906 -13.125 23.671875 -13.84375 C 22.722656 -14.5625 21.132812 -15.101562 18.90625 -15.46875 L 11.421875 -16.75 C 8.191406 -17.289062 5.738281 -18.421875 4.0625 -20.140625 C 2.394531 -21.867188 1.5625 -24.097656 1.5625 -26.828125 C 1.5625 -30.347656 2.898438 -33.128906 5.578125 -35.171875 C 8.253906 -37.222656 11.875 -38.25 16.4375 -38.25 C 19.164062 -38.25 21.921875 -37.78125 24.703125 -36.84375 C 27.484375 -35.914062 29.914062 -34.625 32 -32.96875 L 27.796875 -27.15625 C 25.785156 -28.695312 23.8125 -29.832031 21.875 -30.5625 C 19.9375 -31.300781 17.941406 -31.671875 15.890625 -31.671875 C 13.804688 -31.671875 12.132812 -31.285156 10.875 -30.515625 C 9.625 -29.742188 9 -28.710938 9 -27.421875 C 9 -26.273438 9.410156 -25.378906 10.234375 -24.734375 C 11.054688 -24.085938 12.441406 -23.617188 14.390625 -23.328125 L 21.5 -22.140625 C 25.226562 -21.535156 28.035156 -20.34375 29.921875 -18.5625 C 31.804688 -16.78125 32.75 -14.4375 32.75 -11.53125 C 32.75 -7.863281 31.300781 -4.9375 28.40625 -2.75 C 25.519531 -0.5625 21.671875 0.53125 16.859375 0.53125 C 13.847656 0.53125 10.878906 -0.0390625 7.953125 -1.1875 C 5.023438 -2.332031 2.425781 -3.929688 0.15625 -5.984375 Z M 0.15625 -5.984375 "/></g></g></g><g fill="#f487d2" fill-opacity="1"><g transform="translate(254.188925, 227.845518)"><g><path d="M 6.734375 -7.921875 L 6.734375 -21.875 L 0.96875 -21.875 L 0.96875 -28.0625 L 6.734375 -28.0625 L 6.734375 -35.234375 L 14.109375 -36.90625 L 14.109375 -28.0625 L 22.09375 -28.0625 L 22.09375 -21.875 L 14.109375 -21.875 L 14.109375 -9.421875 C 14.109375 -8.097656 14.394531 -7.164062 14.96875 -6.625 C 15.550781 -6.082031 16.5625 -5.8125 18 -5.8125 C 18.675781 -5.8125 19.316406 -5.859375 19.921875 -5.953125 C 20.535156 -6.046875 21.203125 -6.21875 21.921875 -6.46875 L 21.921875 -0.4375 C 21.128906 -0.175781 20.175781 0.03125 19.0625 0.1875 C 17.957031 0.351562 17.007812 0.4375 16.21875 0.4375 C 13.09375 0.4375 10.726562 -0.269531 9.125 -1.6875 C 7.53125 -3.113281 6.734375 -5.191406 6.734375 -7.921875 Z M 6.734375 -7.921875 "/></g></g></g><g fill="#f487d2" fill-opacity="1"><g transform="translate(277.032739, 227.845518)"><g><path d="M 1.609375 -14 C 1.609375 -16.050781 1.992188 -17.960938 2.765625 -19.734375 C 3.546875 -21.515625 4.609375 -23.0625 5.953125 -24.375 C 7.296875 -25.6875 8.882812 -26.71875 10.71875 -27.46875 C 12.550781 -28.226562 14.507812 -28.609375 16.59375 -28.609375 C 18.675781 -28.609375 20.632812 -28.226562 22.46875 -27.46875 C 24.300781 -26.71875 25.890625 -25.6875 27.234375 -24.375 C 28.578125 -23.0625 29.632812 -21.515625 30.40625 -19.734375 C 31.1875 -17.960938 31.578125 -16.050781 31.578125 -14 C 31.578125 -11.957031 31.1875 -10.046875 30.40625 -8.265625 C 29.632812 -6.492188 28.578125 -4.957031 27.234375 -3.65625 C 25.890625 -2.363281 24.300781 -1.34375 22.46875 -0.59375 C 20.632812 0.15625 18.675781 0.53125 16.59375 0.53125 C 14.507812 0.53125 12.550781 0.15625 10.71875 -0.59375 C 8.882812 -1.34375 7.296875 -2.363281 5.953125 -3.65625 C 4.609375 -4.957031 3.546875 -6.492188 2.765625 -8.265625 C 1.992188 -10.046875 1.609375 -11.957031 1.609375 -14 Z M 16.59375 -5.875 C 18.75 -5.875 20.578125 -6.660156 22.078125 -8.234375 C 23.585938 -9.816406 24.34375 -11.738281 24.34375 -14 C 24.34375 -16.300781 23.585938 -18.242188 22.078125 -19.828125 C 20.578125 -21.410156 18.75 -22.203125 16.59375 -22.203125 C 14.4375 -22.203125 12.601562 -21.410156 11.09375 -19.828125 C 9.582031 -18.242188 8.828125 -16.300781 8.828125 -14 C 8.828125 -11.738281 9.582031 -9.816406 11.09375 -8.234375 C 12.601562 -6.660156 14.4375 -5.875 16.59375 -5.875 Z M 16.59375 -5.875 "/></g></g></g><g fill="#f487d2" fill-opacity="1"><g transform="translate(310.220917, 227.845518)"><g><path d="M 2.90625 0 L 2.90625 -28.0625 L 10.296875 -28.0625 L 10.296875 -25 C 11.191406 -26.21875 12.273438 -27.140625 13.546875 -27.765625 C 14.828125 -28.398438 16.238281 -28.71875 17.78125 -28.71875 C 18.5 -28.675781 19.097656 -28.609375 19.578125 -28.515625 C 20.066406 -28.429688 20.488281 -28.28125 20.84375 -28.0625 L 20.84375 -21.609375 C 20.3125 -21.859375 19.722656 -22.046875 19.078125 -22.171875 C 18.429688 -22.296875 17.765625 -22.359375 17.078125 -22.359375 C 15.640625 -22.359375 14.316406 -22 13.109375 -21.28125 C 11.910156 -20.5625 10.972656 -19.519531 10.296875 -18.15625 L 10.296875 0 Z M 2.90625 0 "/></g></g></g><g fill="#f487d2" fill-opacity="1"><g transform="translate(332.14882, 227.845518)"><g><path d="M 28.0625 -3.5 C 26.34375 -2.101562 24.578125 -1.082031 22.765625 -0.4375 C 20.953125 0.207031 18.929688 0.53125 16.703125 0.53125 C 14.578125 0.53125 12.585938 0.15625 10.734375 -0.59375 C 8.890625 -1.34375 7.296875 -2.363281 5.953125 -3.65625 C 4.609375 -4.957031 3.546875 -6.492188 2.765625 -8.265625 C 1.992188 -10.046875 1.609375 -11.957031 1.609375 -14 C 1.609375 -16.019531 1.976562 -17.914062 2.71875 -19.6875 C 3.457031 -21.46875 4.472656 -23.015625 5.765625 -24.328125 C 7.054688 -25.640625 8.585938 -26.671875 10.359375 -27.421875 C 12.140625 -28.171875 14.039062 -28.546875 16.0625 -28.546875 C 18.03125 -28.546875 19.867188 -28.160156 21.578125 -27.390625 C 23.285156 -26.617188 24.757812 -25.566406 26 -24.234375 C 27.238281 -22.910156 28.207031 -21.320312 28.90625 -19.46875 C 29.601562 -17.625 29.953125 -15.625 29.953125 -13.46875 L 29.953125 -11.53125 L 9.046875 -11.53125 C 9.554688 -9.769531 10.523438 -8.347656 11.953125 -7.265625 C 13.390625 -6.191406 15.082031 -5.65625 17.03125 -5.65625 C 18.25 -5.65625 19.394531 -5.851562 20.46875 -6.25 C 21.550781 -6.644531 22.46875 -7.203125 23.21875 -7.921875 Z M 15.890625 -22.46875 C 14.203125 -22.46875 12.75 -21.953125 11.53125 -20.921875 C 10.3125 -19.898438 9.46875 -18.53125 9 -16.8125 L 22.734375 -16.8125 C 22.265625 -18.457031 21.410156 -19.8125 20.171875 -20.875 C 18.929688 -21.9375 17.503906 -22.46875 15.890625 -22.46875 Z M 15.890625 -22.46875 "/></g></g></g></svg>